G04 #@! TF.GenerationSoftware,KiCad,Pcbnew,5.1.4-e60b266~84~ubuntu19.04.1*
G04 #@! TF.CreationDate,2019-08-17T12:08:49-07:00*
G04 #@! TF.ProjectId,trevor2,74726576-6f72-4322-9e6b-696361645f70,rev?*
G04 #@! TF.SameCoordinates,Original*
G04 #@! TF.FileFunction,Legend,Bot*
G04 #@! TF.FilePolarity,Positive*
%FSLAX46Y46*%
G04 Gerber Fmt 4.6, Leading zero omitted, Abs format (unit mm)*
G04 Created by KiCad (PCBNEW 5.1.4-e60b266~84~ubuntu19.04.1) date 2019-08-17 12:08:49*
%MOMM*%
%LPD*%
G04 APERTURE LIST*
%ADD10C,0.010000*%
%ADD11C,0.120000*%
%ADD12C,0.150000*%
G04 APERTURE END LIST*
D10*
G36*
X134380250Y-126651140D02*
G01*
X134422203Y-126683600D01*
X134452950Y-126750197D01*
X134454528Y-126754308D01*
X134475091Y-126824212D01*
X134511738Y-126965930D01*
X134561865Y-127168702D01*
X134622867Y-127421763D01*
X134692140Y-127714350D01*
X134767078Y-128035701D01*
X134816052Y-128248188D01*
X134901636Y-128620634D01*
X134971203Y-128919903D01*
X135027647Y-129155347D01*
X135073863Y-129336317D01*
X135112746Y-129472164D01*
X135147191Y-129572239D01*
X135180092Y-129645893D01*
X135214345Y-129702478D01*
X135252844Y-129751344D01*
X135296276Y-129799448D01*
X135440651Y-130008691D01*
X135501720Y-130232112D01*
X135479217Y-130468412D01*
X135451175Y-130554898D01*
X135346805Y-130752133D01*
X135198616Y-130890289D01*
X135006722Y-130981403D01*
X134872918Y-131025431D01*
X134779254Y-131039926D01*
X134686627Y-131025170D01*
X134564736Y-130984584D01*
X134342706Y-130864896D01*
X134183128Y-130690487D01*
X134091724Y-130469484D01*
X134071334Y-130283591D01*
X134086618Y-130139499D01*
X134124170Y-130009997D01*
X134131793Y-129993879D01*
X134147576Y-129955727D01*
X134156142Y-129908082D01*
X134155945Y-129841660D01*
X134145439Y-129747175D01*
X134123077Y-129615340D01*
X134087314Y-129436870D01*
X134036604Y-129202479D01*
X133969400Y-128902880D01*
X133897784Y-128588398D01*
X133823620Y-128257076D01*
X133755687Y-127940600D01*
X133696472Y-127651579D01*
X133648460Y-127402626D01*
X133614138Y-127206349D01*
X133595991Y-127075361D01*
X133593907Y-127046920D01*
X133591669Y-126986737D01*
X133732667Y-126986737D01*
X133741629Y-127036942D01*
X133767096Y-127159943D01*
X133806937Y-127345945D01*
X133859023Y-127585154D01*
X133921224Y-127867776D01*
X133991409Y-128184015D01*
X134052224Y-128456189D01*
X134137543Y-128837854D01*
X134205572Y-129145887D01*
X134257761Y-129389219D01*
X134295559Y-129576787D01*
X134320417Y-129717522D01*
X134333784Y-129820360D01*
X134337111Y-129894233D01*
X134331847Y-129948075D01*
X134319443Y-129990820D01*
X134306224Y-130021186D01*
X134246309Y-130234878D01*
X134267838Y-130441047D01*
X134337187Y-130584373D01*
X134485112Y-130737735D01*
X134665559Y-130821460D01*
X134861232Y-130831456D01*
X135054832Y-130763633D01*
X135066339Y-130756795D01*
X135226233Y-130617675D01*
X135311767Y-130447950D01*
X135322077Y-130259048D01*
X135256298Y-130062399D01*
X135131982Y-129888950D01*
X135022270Y-129747527D01*
X134950430Y-129591206D01*
X134909039Y-129437667D01*
X134874659Y-129291149D01*
X134844456Y-129208806D01*
X134804567Y-129172089D01*
X134741129Y-129162451D01*
X134703010Y-129162012D01*
X134557877Y-129147882D01*
X134483609Y-129108978D01*
X134485595Y-129048723D01*
X134497795Y-129031731D01*
X134575915Y-128979450D01*
X134616267Y-128971352D01*
X134709671Y-128957404D01*
X134755113Y-128907618D01*
X134758721Y-128806707D01*
X134734866Y-128675554D01*
X134683581Y-128444608D01*
X134500677Y-128457814D01*
X134386603Y-128461084D01*
X134336714Y-128444165D01*
X134331560Y-128400031D01*
X134332137Y-128396935D01*
X134379345Y-128332750D01*
X134472840Y-128282010D01*
X134473500Y-128281796D01*
X134566153Y-128249723D01*
X134614425Y-128228994D01*
X134614855Y-128228656D01*
X134614289Y-128184348D01*
X134597752Y-128082767D01*
X134578003Y-127987758D01*
X134526797Y-127758947D01*
X134351982Y-127762223D01*
X134227244Y-127747729D01*
X134175548Y-127707494D01*
X134200124Y-127655403D01*
X134304201Y-127605339D01*
X134314750Y-127602211D01*
X134404416Y-127562667D01*
X134446756Y-127498131D01*
X134446194Y-127390967D01*
X134408518Y-127228442D01*
X134375508Y-127130324D01*
X134329997Y-127086910D01*
X134242197Y-127078322D01*
X134186504Y-127080276D01*
X134060058Y-127069037D01*
X134005427Y-127030393D01*
X134026205Y-126978306D01*
X134125985Y-126926739D01*
X134145417Y-126920662D01*
X134243240Y-126879850D01*
X134280348Y-126841996D01*
X134253235Y-126821800D01*
X134166584Y-126831923D01*
X133964634Y-126882675D01*
X133833385Y-126921320D01*
X133760500Y-126952258D01*
X133733637Y-126979894D01*
X133732667Y-126986737D01*
X133591669Y-126986737D01*
X133584500Y-126794006D01*
X133753834Y-126736268D01*
X133896790Y-126698551D01*
X134072555Y-126666724D01*
X134165435Y-126655323D01*
X134302767Y-126644490D01*
X134380250Y-126651140D01*
X134380250Y-126651140D01*
G37*
X134380250Y-126651140D02*
X134422203Y-126683600D01*
X134452950Y-126750197D01*
X134454528Y-126754308D01*
X134475091Y-126824212D01*
X134511738Y-126965930D01*
X134561865Y-127168702D01*
X134622867Y-127421763D01*
X134692140Y-127714350D01*
X134767078Y-128035701D01*
X134816052Y-128248188D01*
X134901636Y-128620634D01*
X134971203Y-128919903D01*
X135027647Y-129155347D01*
X135073863Y-129336317D01*
X135112746Y-129472164D01*
X135147191Y-129572239D01*
X135180092Y-129645893D01*
X135214345Y-129702478D01*
X135252844Y-129751344D01*
X135296276Y-129799448D01*
X135440651Y-130008691D01*
X135501720Y-130232112D01*
X135479217Y-130468412D01*
X135451175Y-130554898D01*
X135346805Y-130752133D01*
X135198616Y-130890289D01*
X135006722Y-130981403D01*
X134872918Y-131025431D01*
X134779254Y-131039926D01*
X134686627Y-131025170D01*
X134564736Y-130984584D01*
X134342706Y-130864896D01*
X134183128Y-130690487D01*
X134091724Y-130469484D01*
X134071334Y-130283591D01*
X134086618Y-130139499D01*
X134124170Y-130009997D01*
X134131793Y-129993879D01*
X134147576Y-129955727D01*
X134156142Y-129908082D01*
X134155945Y-129841660D01*
X134145439Y-129747175D01*
X134123077Y-129615340D01*
X134087314Y-129436870D01*
X134036604Y-129202479D01*
X133969400Y-128902880D01*
X133897784Y-128588398D01*
X133823620Y-128257076D01*
X133755687Y-127940600D01*
X133696472Y-127651579D01*
X133648460Y-127402626D01*
X133614138Y-127206349D01*
X133595991Y-127075361D01*
X133593907Y-127046920D01*
X133591669Y-126986737D01*
X133732667Y-126986737D01*
X133741629Y-127036942D01*
X133767096Y-127159943D01*
X133806937Y-127345945D01*
X133859023Y-127585154D01*
X133921224Y-127867776D01*
X133991409Y-128184015D01*
X134052224Y-128456189D01*
X134137543Y-128837854D01*
X134205572Y-129145887D01*
X134257761Y-129389219D01*
X134295559Y-129576787D01*
X134320417Y-129717522D01*
X134333784Y-129820360D01*
X134337111Y-129894233D01*
X134331847Y-129948075D01*
X134319443Y-129990820D01*
X134306224Y-130021186D01*
X134246309Y-130234878D01*
X134267838Y-130441047D01*
X134337187Y-130584373D01*
X134485112Y-130737735D01*
X134665559Y-130821460D01*
X134861232Y-130831456D01*
X135054832Y-130763633D01*
X135066339Y-130756795D01*
X135226233Y-130617675D01*
X135311767Y-130447950D01*
X135322077Y-130259048D01*
X135256298Y-130062399D01*
X135131982Y-129888950D01*
X135022270Y-129747527D01*
X134950430Y-129591206D01*
X134909039Y-129437667D01*
X134874659Y-129291149D01*
X134844456Y-129208806D01*
X134804567Y-129172089D01*
X134741129Y-129162451D01*
X134703010Y-129162012D01*
X134557877Y-129147882D01*
X134483609Y-129108978D01*
X134485595Y-129048723D01*
X134497795Y-129031731D01*
X134575915Y-128979450D01*
X134616267Y-128971352D01*
X134709671Y-128957404D01*
X134755113Y-128907618D01*
X134758721Y-128806707D01*
X134734866Y-128675554D01*
X134683581Y-128444608D01*
X134500677Y-128457814D01*
X134386603Y-128461084D01*
X134336714Y-128444165D01*
X134331560Y-128400031D01*
X134332137Y-128396935D01*
X134379345Y-128332750D01*
X134472840Y-128282010D01*
X134473500Y-128281796D01*
X134566153Y-128249723D01*
X134614425Y-128228994D01*
X134614855Y-128228656D01*
X134614289Y-128184348D01*
X134597752Y-128082767D01*
X134578003Y-127987758D01*
X134526797Y-127758947D01*
X134351982Y-127762223D01*
X134227244Y-127747729D01*
X134175548Y-127707494D01*
X134200124Y-127655403D01*
X134304201Y-127605339D01*
X134314750Y-127602211D01*
X134404416Y-127562667D01*
X134446756Y-127498131D01*
X134446194Y-127390967D01*
X134408518Y-127228442D01*
X134375508Y-127130324D01*
X134329997Y-127086910D01*
X134242197Y-127078322D01*
X134186504Y-127080276D01*
X134060058Y-127069037D01*
X134005427Y-127030393D01*
X134026205Y-126978306D01*
X134125985Y-126926739D01*
X134145417Y-126920662D01*
X134243240Y-126879850D01*
X134280348Y-126841996D01*
X134253235Y-126821800D01*
X134166584Y-126831923D01*
X133964634Y-126882675D01*
X133833385Y-126921320D01*
X133760500Y-126952258D01*
X133733637Y-126979894D01*
X133732667Y-126986737D01*
X133591669Y-126986737D01*
X133584500Y-126794006D01*
X133753834Y-126736268D01*
X133896790Y-126698551D01*
X134072555Y-126666724D01*
X134165435Y-126655323D01*
X134302767Y-126644490D01*
X134380250Y-126651140D01*
D11*
X139530968Y-79434159D02*
G75*
G02X139013329Y-77502307I127551J1069454D01*
G01*
X139330598Y-76174963D02*
X139958450Y-76006731D01*
X139958450Y-76006731D02*
X140139623Y-76682879D01*
X156486670Y-83352306D02*
G75*
G02X155969033Y-85284158I-645189J-862399D01*
G01*
X155030598Y-86275037D02*
X154402746Y-86106804D01*
X154402746Y-86106804D02*
X154583920Y-85430656D01*
D12*
X152100000Y-132725000D02*
X152100000Y-131925000D01*
X158800000Y-131925000D02*
X158800000Y-132725000D01*
X157050000Y-131025000D02*
X155350000Y-131025000D01*
X158300000Y-133625000D02*
X152600000Y-133625000D01*
X155550000Y-134925000D02*
X155550000Y-133625000D01*
X156650000Y-135125000D02*
X155750000Y-135125000D01*
X156850000Y-133625000D02*
X156850000Y-134925000D01*
X155550000Y-134925000D02*
X155750000Y-135125000D01*
X156850000Y-134925000D02*
X156650000Y-135125000D01*
X154050000Y-131025000D02*
X153850000Y-131025000D01*
X156200000Y-133325000D02*
X156200000Y-133625000D01*
X154700000Y-133325000D02*
X154700000Y-133625000D01*
D11*
X151298115Y-91114124D02*
X151633991Y-91450000D01*
X145666009Y-91450000D02*
X146001885Y-91114124D01*
X146001885Y-91785876D02*
X145666009Y-91450000D01*
X148650000Y-94433991D02*
X148985876Y-94098115D01*
X148314124Y-94098115D02*
X148650000Y-94433991D01*
X148650000Y-88466009D02*
X148314124Y-88801885D01*
X148985876Y-88801885D02*
X148650000Y-88466009D01*
M02*
