M48
; DRILL file {KiCad 5.1.4-e60b266~84~ubuntu19.04.1} date Sat 17 Aug 2019 12:08:56 PM PDT
; FORMAT={-:-/ absolute / inch / decimal}
; #@! TF.CreationDate,2019-08-17T12:08:56-07:00
; #@! TF.GenerationSoftware,Kicad,Pcbnew,5.1.4-e60b266~84~ubuntu19.04.1
FMAT,2
INCH
T1C0.0118
T2C0.0390
T3C0.0394
T4C0.0935
T5C0.0354
T6C0.0472
%
G90
G05
T1
X5.2953Y-5.5039
X5.6437Y-4.063
X5.6516Y-4.2717
X5.7067Y-3.6969
X5.8189Y-3.6004
X5.8524Y-3.5709
X5.8524Y-3.6004
X5.8524Y-3.6339
X5.8669Y-3.9002
X5.8878Y-3.6004
X5.8944Y-3.7752
X5.8957Y-3.1752
X5.9169Y-3.9502
X5.9197Y-3.7336
X5.9823Y-3.5335
X5.986Y-3.6975
X5.9964Y-3.6628
X6.0374Y-3.0531
X6.061Y-3.9016
T2
X5.6669Y-3.8852
X5.6669Y-3.9652
X5.9669Y-3.9252
T3
X6.8366Y-2.8307
X5.002Y-2.5591
X5.8957Y-2.3661
T4
X5.7419Y-3.8252
X5.7419Y-4.0252
X5.9669Y-3.8252
X5.9669Y-4.0252
T5
X6.061Y-5.2096
X6.1791Y-5.2096
T6
X5.918Y-4.3592
X5.9945Y-4.6444
T0
M30
