G04 #@! TF.GenerationSoftware,KiCad,Pcbnew,5.1.4-e60b266~84~ubuntu19.04.1*
G04 #@! TF.CreationDate,2019-08-17T12:08:50-07:00*
G04 #@! TF.ProjectId,trevor2,74726576-6f72-4322-9e6b-696361645f70,rev?*
G04 #@! TF.SameCoordinates,Original*
G04 #@! TF.FileFunction,Profile,NP*
%FSLAX46Y46*%
G04 Gerber Fmt 4.6, Leading zero omitted, Abs format (unit mm)*
G04 Created by KiCad (PCBNEW 5.1.4-e60b266~84~ubuntu19.04.1) date 2019-08-17 12:08:50*
%MOMM*%
%LPD*%
G04 APERTURE LIST*
%ADD10C,0.050000*%
G04 APERTURE END LIST*
D10*
X142550000Y-68300000D02*
X142900000Y-67850000D01*
X154400000Y-69150000D02*
X154750000Y-69100000D01*
X134800000Y-142050000D02*
X135000000Y-142400000D01*
X134600000Y-141550000D02*
X134800000Y-142050000D01*
X134400000Y-140950000D02*
X134600000Y-141550000D01*
X134250000Y-141250000D02*
X134400000Y-140950000D01*
X134100000Y-141400000D02*
X134250000Y-141250000D01*
X134050000Y-141400000D02*
X134100000Y-141400000D01*
X133950000Y-141300000D02*
X134050000Y-141400000D01*
X174250000Y-145000000D02*
X174450000Y-144900000D01*
X174050000Y-145000000D02*
X174250000Y-145000000D01*
X173900000Y-144850000D02*
X174050000Y-145000000D01*
X173850000Y-144300000D02*
X173900000Y-144850000D01*
X174050000Y-143450000D02*
X173850000Y-144300000D01*
X173300000Y-144150000D02*
X174050000Y-143450000D01*
X172700000Y-144550000D02*
X173300000Y-144150000D01*
X172450000Y-144600000D02*
X172700000Y-144550000D01*
X172300000Y-144550000D02*
X172450000Y-144600000D01*
X172150000Y-144400000D02*
X172300000Y-144550000D01*
X160950000Y-99300000D02*
X160750000Y-99000000D01*
X161300000Y-99600000D02*
X160950000Y-99300000D01*
X161750000Y-99800000D02*
X161300000Y-99600000D01*
X162250000Y-99900000D02*
X161750000Y-99800000D01*
X162700000Y-99900000D02*
X162250000Y-99900000D01*
X163000000Y-99800000D02*
X162700000Y-99900000D01*
X163200000Y-99650000D02*
X163000000Y-99800000D01*
X163450000Y-99400000D02*
X163200000Y-99650000D01*
X150400000Y-57950000D02*
X150050000Y-57900000D01*
X150850000Y-58000000D02*
X150400000Y-57950000D01*
X151150000Y-57950000D02*
X150850000Y-58000000D01*
X151500000Y-57650000D02*
X151150000Y-57950000D01*
X152450000Y-56600000D02*
X151500000Y-57650000D01*
X153650000Y-55350000D02*
X152450000Y-56600000D01*
X155150000Y-54200000D02*
X153650000Y-55350000D01*
X157350000Y-53450000D02*
X155150000Y-54200000D01*
X159400000Y-53200000D02*
X157350000Y-53450000D01*
X162600000Y-53400000D02*
X159400000Y-53200000D01*
X164450000Y-53900000D02*
X162600000Y-53400000D01*
X167450000Y-56000000D02*
X164450000Y-53900000D01*
X169800000Y-58250000D02*
X167450000Y-56000000D01*
X172850000Y-63200000D02*
X169800000Y-58250000D01*
X173950000Y-65300000D02*
X172850000Y-63200000D01*
X175150000Y-68800000D02*
X173950000Y-65300000D01*
X149200000Y-57850000D02*
X150050000Y-57900000D01*
X148600000Y-57850000D02*
X149200000Y-57850000D01*
X147850000Y-57950000D02*
X148600000Y-57850000D01*
X147500000Y-58000000D02*
X147850000Y-57950000D01*
X147200000Y-58100000D02*
X147500000Y-58000000D01*
X146850000Y-58200000D02*
X147200000Y-58100000D01*
X146600000Y-58200000D02*
X146850000Y-58200000D01*
X146450000Y-58100000D02*
X146600000Y-58200000D01*
X146300000Y-57950000D02*
X146450000Y-58100000D01*
X145600000Y-56500000D02*
X146300000Y-57950000D01*
X144350000Y-54250000D02*
X145600000Y-56500000D01*
X143100000Y-52350000D02*
X144350000Y-54250000D01*
X141250000Y-50300000D02*
X143100000Y-52350000D01*
X139950000Y-49800000D02*
X141250000Y-50300000D01*
X137350000Y-49100000D02*
X139950000Y-49800000D01*
X135550000Y-49100000D02*
X137350000Y-49100000D01*
X133550000Y-49250000D02*
X135550000Y-49100000D01*
X131600000Y-50100000D02*
X133550000Y-49250000D01*
X129600000Y-51700000D02*
X131600000Y-50100000D01*
X127600000Y-54400000D02*
X129600000Y-51700000D01*
X125900000Y-59500000D02*
X127600000Y-54400000D01*
X125250000Y-62300000D02*
X125900000Y-59500000D01*
X125100000Y-64600000D02*
X125250000Y-62300000D01*
X125100000Y-66000000D02*
X125100000Y-64600000D01*
X125250000Y-66550000D02*
X125100000Y-66000000D01*
X125550000Y-66750000D02*
X125250000Y-66550000D01*
X126350000Y-66850000D02*
X125550000Y-66750000D01*
X144950000Y-60150000D02*
X145000000Y-60450000D01*
X144850000Y-59850000D02*
X144950000Y-60150000D01*
X144150000Y-58600000D02*
X144850000Y-59850000D01*
X143100000Y-56600000D02*
X144150000Y-58600000D01*
X140900000Y-53200000D02*
X143100000Y-56600000D01*
X139350000Y-52250000D02*
X140900000Y-53200000D01*
X137400000Y-51600000D02*
X139350000Y-52250000D01*
X136350000Y-51550000D02*
X137400000Y-51600000D01*
X135500000Y-51650000D02*
X136350000Y-51550000D01*
X134850000Y-51850000D02*
X135500000Y-51650000D01*
X133900000Y-52400000D02*
X134850000Y-51850000D01*
X132600000Y-53300000D02*
X133900000Y-52400000D01*
X131700000Y-54100000D02*
X132600000Y-53300000D01*
X130900000Y-55200000D02*
X131700000Y-54100000D01*
X130000000Y-57400000D02*
X130900000Y-55200000D01*
X129500000Y-59150000D02*
X130000000Y-57400000D01*
X129000000Y-61700000D02*
X129500000Y-59150000D01*
X128850000Y-63100000D02*
X129000000Y-61700000D01*
X128950000Y-65150000D02*
X128850000Y-63100000D01*
X128950000Y-66200000D02*
X128950000Y-65150000D01*
X128700000Y-66600000D02*
X128950000Y-66200000D01*
X128300000Y-66800000D02*
X128700000Y-66600000D01*
X127150000Y-66850000D02*
X128300000Y-66800000D01*
X126350000Y-66850000D02*
X127150000Y-66850000D01*
X144750000Y-61400000D02*
X145000000Y-60450000D01*
X144500000Y-62550000D02*
X144750000Y-61400000D01*
X144300000Y-63400000D02*
X144500000Y-62550000D01*
X143850000Y-63200000D02*
X144300000Y-63400000D01*
X143500000Y-63100000D02*
X143850000Y-63200000D01*
X143200000Y-63100000D02*
X143500000Y-63100000D01*
X142850000Y-63200000D02*
X143200000Y-63100000D01*
X142550000Y-63350000D02*
X142850000Y-63200000D01*
X142300000Y-63600000D02*
X142550000Y-63350000D01*
X142050000Y-64050000D02*
X142300000Y-63600000D01*
X141950000Y-64400000D02*
X142050000Y-64050000D01*
X141950000Y-64750000D02*
X141950000Y-64400000D01*
X142000000Y-65150000D02*
X141950000Y-64750000D01*
X142250000Y-65700000D02*
X142000000Y-65150000D01*
X142600000Y-66250000D02*
X142250000Y-65700000D01*
X143200000Y-67150000D02*
X142600000Y-66250000D01*
X143350000Y-67450000D02*
X143200000Y-67150000D01*
X142900000Y-67850000D02*
X143350000Y-67450000D01*
X142150000Y-68950000D02*
X142550000Y-68300000D01*
X141900000Y-69600000D02*
X142150000Y-68950000D01*
X141850000Y-70300000D02*
X141900000Y-69600000D01*
X141900000Y-71200000D02*
X141850000Y-70300000D01*
X141950000Y-71650000D02*
X141900000Y-71200000D01*
X141950000Y-72100000D02*
X141950000Y-71650000D01*
X141900000Y-72450000D02*
X141950000Y-72100000D01*
X141550000Y-73150000D02*
X141900000Y-72450000D01*
X141200000Y-73700000D02*
X141550000Y-73150000D01*
X140900000Y-74150000D02*
X141200000Y-73700000D01*
X140650000Y-74500000D02*
X140900000Y-74150000D01*
X140700000Y-74300000D02*
X140650000Y-74500000D01*
X140700000Y-73850000D02*
X140700000Y-74300000D01*
X140550000Y-73250000D02*
X140700000Y-73850000D01*
X140400000Y-72800000D02*
X140550000Y-73250000D01*
X140200000Y-72350000D02*
X140400000Y-72800000D01*
X140000000Y-71950000D02*
X140200000Y-72350000D01*
X139500000Y-71200000D02*
X140000000Y-71950000D01*
X139150000Y-70750000D02*
X139500000Y-71200000D01*
X138600000Y-70100000D02*
X139150000Y-70750000D01*
X138100000Y-69600000D02*
X138600000Y-70100000D01*
X137500000Y-69100000D02*
X138100000Y-69600000D01*
X136900000Y-68850000D02*
X137500000Y-69100000D01*
X135950000Y-68600000D02*
X136900000Y-68850000D01*
X134600000Y-68600000D02*
X135950000Y-68600000D01*
X133300000Y-68700000D02*
X134600000Y-68600000D01*
X131300000Y-69050000D02*
X133300000Y-68700000D01*
X130050000Y-69400000D02*
X131300000Y-69050000D01*
X129200000Y-69650000D02*
X130050000Y-69400000D01*
X128400000Y-70000000D02*
X129200000Y-69650000D01*
X127900000Y-70350000D02*
X128400000Y-70000000D01*
X126900000Y-71200000D02*
X127900000Y-70350000D01*
X126200000Y-71800000D02*
X126900000Y-71200000D01*
X125500000Y-72350000D02*
X126200000Y-71800000D01*
X125200000Y-72550000D02*
X125500000Y-72350000D01*
X124800000Y-72850000D02*
X125200000Y-72550000D01*
X124450000Y-73150000D02*
X124800000Y-72850000D01*
X123350000Y-74300000D02*
X124450000Y-73150000D01*
X122500000Y-75300000D02*
X123350000Y-74300000D01*
X121800000Y-76200000D02*
X122500000Y-75300000D01*
X121200000Y-77200000D02*
X121800000Y-76200000D01*
X120400000Y-78500000D02*
X121200000Y-77200000D01*
X119650000Y-79900000D02*
X120400000Y-78500000D01*
X119100000Y-81150000D02*
X119650000Y-79900000D01*
X118200000Y-83700000D02*
X119100000Y-81150000D01*
X117750000Y-84900000D02*
X118200000Y-83700000D01*
X117250000Y-86300000D02*
X117750000Y-84900000D01*
X116950000Y-87150000D02*
X117250000Y-86300000D01*
X116650000Y-88050000D02*
X116950000Y-87150000D01*
X116400000Y-89100000D02*
X116650000Y-88050000D01*
X116300000Y-89650000D02*
X116400000Y-89100000D01*
X116200000Y-90000000D02*
X116300000Y-89650000D01*
X115950000Y-90850000D02*
X116200000Y-90000000D01*
X115400000Y-92500000D02*
X115950000Y-90850000D01*
X114850000Y-93950000D02*
X115400000Y-92500000D01*
X114300000Y-95100000D02*
X114850000Y-93950000D01*
X113500000Y-96350000D02*
X114300000Y-95100000D01*
X113100000Y-97100000D02*
X113500000Y-96350000D01*
X113050000Y-97400000D02*
X113100000Y-97100000D01*
X113050000Y-97650000D02*
X113050000Y-97400000D01*
X113100000Y-97800000D02*
X113050000Y-97650000D01*
X113300000Y-98000000D02*
X113100000Y-97800000D01*
X113450000Y-98100000D02*
X113300000Y-98000000D01*
X113850000Y-98300000D02*
X113450000Y-98100000D01*
X114250000Y-98350000D02*
X113850000Y-98300000D01*
X114600000Y-98300000D02*
X114250000Y-98350000D01*
X115000000Y-98200000D02*
X114600000Y-98300000D01*
X115350000Y-98050000D02*
X115000000Y-98200000D01*
X115750000Y-97850000D02*
X115350000Y-98050000D01*
X116300000Y-97450000D02*
X115750000Y-97850000D01*
X116750000Y-97150000D02*
X116300000Y-97450000D01*
X117050000Y-97150000D02*
X116750000Y-97150000D01*
X117450000Y-97300000D02*
X117050000Y-97150000D01*
X117950000Y-97550000D02*
X117450000Y-97300000D01*
X118750000Y-97550000D02*
X117950000Y-97550000D01*
X119000000Y-97400000D02*
X118750000Y-97550000D01*
X119350000Y-97200000D02*
X119000000Y-97400000D01*
X119600000Y-97100000D02*
X119350000Y-97200000D01*
X119850000Y-97100000D02*
X119600000Y-97100000D01*
X120050000Y-97150000D02*
X119850000Y-97100000D01*
X120350000Y-97300000D02*
X120050000Y-97150000D01*
X120800000Y-97500000D02*
X120350000Y-97300000D01*
X121200000Y-97500000D02*
X120800000Y-97500000D01*
X121450000Y-97450000D02*
X121200000Y-97500000D01*
X121900000Y-97250000D02*
X121450000Y-97450000D01*
X123150000Y-96750000D02*
X121900000Y-97250000D01*
X124500000Y-96400000D02*
X123150000Y-96750000D01*
X125600000Y-96150000D02*
X124500000Y-96400000D01*
X126400000Y-95850000D02*
X125600000Y-96150000D01*
X126750000Y-95550000D02*
X126400000Y-95850000D01*
X127050000Y-95150000D02*
X126750000Y-95550000D01*
X127350000Y-95000000D02*
X127050000Y-95150000D01*
X127600000Y-94950000D02*
X127350000Y-95000000D01*
X128200000Y-94800000D02*
X127600000Y-94950000D01*
X128600000Y-94700000D02*
X128200000Y-94800000D01*
X128900000Y-94550000D02*
X128600000Y-94700000D01*
X129250000Y-94300000D02*
X128900000Y-94550000D01*
X129950000Y-93600000D02*
X129250000Y-94300000D01*
X130800000Y-92850000D02*
X129950000Y-93600000D01*
X131050000Y-92850000D02*
X130800000Y-92850000D01*
X131550000Y-92950000D02*
X131050000Y-92850000D01*
X131750000Y-92900000D02*
X131550000Y-92950000D01*
X131800000Y-92750000D02*
X131750000Y-92900000D01*
X131600000Y-92250000D02*
X131800000Y-92750000D01*
X133700000Y-95200000D02*
X131600000Y-92250000D01*
X134150000Y-95950000D02*
X133700000Y-95200000D01*
X134500000Y-96400000D02*
X134150000Y-95950000D01*
X134850000Y-96750000D02*
X134500000Y-96400000D01*
X135200000Y-96950000D02*
X134850000Y-96750000D01*
X135500000Y-97000000D02*
X135200000Y-96950000D01*
X135750000Y-96950000D02*
X135500000Y-97000000D01*
X136000000Y-96850000D02*
X135750000Y-96950000D01*
X136200000Y-96850000D02*
X136000000Y-96850000D01*
X136400000Y-97000000D02*
X136200000Y-96850000D01*
X136750000Y-97100000D02*
X136400000Y-97000000D01*
X137150000Y-97050000D02*
X136750000Y-97100000D01*
X137650000Y-96900000D02*
X137150000Y-97050000D01*
X137950000Y-96700000D02*
X137650000Y-96900000D01*
X138100000Y-96500000D02*
X137950000Y-96700000D01*
X138250000Y-95900000D02*
X138100000Y-96500000D01*
X138350000Y-97700000D02*
X138250000Y-95900000D01*
X138350000Y-98800000D02*
X138350000Y-97700000D01*
X138250000Y-98900000D02*
X138350000Y-98800000D01*
X138100000Y-98950000D02*
X138250000Y-98900000D01*
X137500000Y-98950000D02*
X138100000Y-98950000D01*
X136850000Y-99050000D02*
X137500000Y-98950000D01*
X136050000Y-99250000D02*
X136850000Y-99050000D01*
X135000000Y-99600000D02*
X136050000Y-99250000D01*
X134150000Y-100000000D02*
X135000000Y-99600000D01*
X133750000Y-100300000D02*
X134150000Y-100000000D01*
X133350000Y-100750000D02*
X133750000Y-100300000D01*
X132750000Y-101650000D02*
X133350000Y-100750000D01*
X132150000Y-102850000D02*
X132750000Y-101650000D01*
X132000000Y-103250000D02*
X132150000Y-102850000D01*
X132000000Y-103450000D02*
X132000000Y-103250000D01*
X132000000Y-103650000D02*
X132000000Y-103450000D01*
X132050000Y-103800000D02*
X132000000Y-103650000D01*
X132150000Y-104100000D02*
X132050000Y-103800000D01*
X131950000Y-104500000D02*
X132150000Y-104100000D01*
X131800000Y-104550000D02*
X131950000Y-104500000D01*
X131700000Y-104650000D02*
X131800000Y-104550000D01*
X131700000Y-104750000D02*
X131700000Y-104650000D01*
X131800000Y-104900000D02*
X131700000Y-104750000D01*
X132150000Y-105350000D02*
X131800000Y-104900000D01*
X132250000Y-106150000D02*
X132150000Y-105350000D01*
X132350000Y-107050000D02*
X132250000Y-106150000D01*
X132400000Y-107400000D02*
X132350000Y-107050000D01*
X132400000Y-107750000D02*
X132400000Y-107400000D01*
X132300000Y-107950000D02*
X132400000Y-107750000D01*
X132300000Y-108150000D02*
X132300000Y-107950000D01*
X132500000Y-108750000D02*
X132300000Y-108150000D01*
X132500000Y-109300000D02*
X132500000Y-108750000D01*
X132500000Y-109550000D02*
X132500000Y-109300000D01*
X132600000Y-109800000D02*
X132500000Y-109550000D01*
X132700000Y-110100000D02*
X132600000Y-109800000D01*
X132700000Y-110200000D02*
X132700000Y-110100000D01*
X132650000Y-110350000D02*
X132700000Y-110200000D01*
X132550000Y-110750000D02*
X132650000Y-110350000D01*
X132550000Y-110850000D02*
X132550000Y-110750000D01*
X132600000Y-111050000D02*
X132550000Y-110850000D01*
X132700000Y-111300000D02*
X132600000Y-111050000D01*
X132700000Y-111500000D02*
X132700000Y-111300000D01*
X132600000Y-111800000D02*
X132700000Y-111500000D01*
X132500000Y-112000000D02*
X132600000Y-111800000D01*
X132500000Y-112100000D02*
X132500000Y-112000000D01*
X132550000Y-112200000D02*
X132500000Y-112100000D01*
X132700000Y-112200000D02*
X132550000Y-112200000D01*
X132800000Y-112300000D02*
X132700000Y-112200000D01*
X132900000Y-112900000D02*
X132800000Y-112300000D01*
X133050000Y-114600000D02*
X132900000Y-112900000D01*
X133150000Y-115100000D02*
X133050000Y-114600000D01*
X133450000Y-116600000D02*
X133150000Y-115100000D01*
X133600000Y-117550000D02*
X133450000Y-116600000D01*
X133650000Y-118200000D02*
X133600000Y-117550000D01*
X133650000Y-119050000D02*
X133650000Y-118200000D01*
X133500000Y-119850000D02*
X133650000Y-119050000D01*
X133400000Y-120500000D02*
X133500000Y-119850000D01*
X133350000Y-121000000D02*
X133400000Y-120500000D01*
X133300000Y-122500000D02*
X133350000Y-121000000D01*
X133300000Y-123800000D02*
X133300000Y-122500000D01*
X133300000Y-125200000D02*
X133300000Y-123800000D01*
X133300000Y-126000000D02*
X133300000Y-125200000D01*
X133300000Y-126950000D02*
X133300000Y-126000000D01*
X133400000Y-128100000D02*
X133300000Y-126950000D01*
X133500000Y-128850000D02*
X133400000Y-128100000D01*
X133800000Y-130500000D02*
X133500000Y-128850000D01*
X133900000Y-131250000D02*
X133800000Y-130500000D01*
X133950000Y-132250000D02*
X133900000Y-131250000D01*
X134050000Y-132450000D02*
X133950000Y-132250000D01*
X134250000Y-132700000D02*
X134050000Y-132450000D01*
X134250000Y-133050000D02*
X134250000Y-132700000D01*
X134000000Y-133850000D02*
X134250000Y-133050000D01*
X133850000Y-134300000D02*
X134000000Y-133850000D01*
X133550000Y-135150000D02*
X133850000Y-134300000D01*
X133350000Y-135850000D02*
X133550000Y-135150000D01*
X133200000Y-136650000D02*
X133350000Y-135850000D01*
X133150000Y-136950000D02*
X133200000Y-136650000D01*
X133100000Y-137850000D02*
X133150000Y-136950000D01*
X133150000Y-138750000D02*
X133100000Y-137850000D01*
X133250000Y-139350000D02*
X133150000Y-138750000D01*
X133400000Y-140050000D02*
X133250000Y-139350000D01*
X133600000Y-140600000D02*
X133400000Y-140050000D01*
X133750000Y-140950000D02*
X133600000Y-140600000D01*
X133950000Y-141300000D02*
X133750000Y-140950000D01*
X135200000Y-142750000D02*
X135000000Y-142400000D01*
X135500000Y-143000000D02*
X135200000Y-142750000D01*
X135650000Y-143000000D02*
X135500000Y-143000000D01*
X135750000Y-142900000D02*
X135650000Y-143000000D01*
X135850000Y-142700000D02*
X135750000Y-142900000D01*
X135850000Y-142500000D02*
X135850000Y-142700000D01*
X135800000Y-141950000D02*
X135850000Y-142500000D01*
X135700000Y-140850000D02*
X135800000Y-141950000D01*
X135700000Y-139650000D02*
X135700000Y-140850000D01*
X135750000Y-138600000D02*
X135700000Y-139650000D01*
X135950000Y-136900000D02*
X135750000Y-138600000D01*
X136100000Y-135650000D02*
X135950000Y-136900000D01*
X136150000Y-134900000D02*
X136100000Y-135650000D01*
X136150000Y-134350000D02*
X136150000Y-134900000D01*
X136100000Y-133950000D02*
X136150000Y-134350000D01*
X135950000Y-133350000D02*
X136100000Y-133950000D01*
X135800000Y-132750000D02*
X135950000Y-133350000D01*
X135700000Y-131950000D02*
X135800000Y-132750000D01*
X135650000Y-131100000D02*
X135700000Y-131950000D01*
X135550000Y-130200000D02*
X135650000Y-131100000D01*
X135500000Y-129800000D02*
X135550000Y-130200000D01*
X135250000Y-128150000D02*
X135500000Y-129800000D01*
X135100000Y-127050000D02*
X135250000Y-128150000D01*
X135000000Y-126000000D02*
X135100000Y-127050000D01*
X135000000Y-123350000D02*
X135000000Y-126000000D01*
X135050000Y-122450000D02*
X135000000Y-123350000D01*
X135200000Y-121000000D02*
X135050000Y-122450000D01*
X135250000Y-120500000D02*
X135200000Y-121000000D01*
X135300000Y-119150000D02*
X135250000Y-120500000D01*
X135350000Y-118450000D02*
X135300000Y-119150000D01*
X135450000Y-117950000D02*
X135350000Y-118450000D01*
X135500000Y-117300000D02*
X135450000Y-117950000D01*
X135500000Y-116700000D02*
X135500000Y-117300000D01*
X135400000Y-115250000D02*
X135500000Y-116700000D01*
X135450000Y-114250000D02*
X135400000Y-115250000D01*
X135300000Y-113950000D02*
X135450000Y-114250000D01*
X135250000Y-113350000D02*
X135300000Y-113950000D01*
X135200000Y-112850000D02*
X135250000Y-113350000D01*
X135050000Y-111800000D02*
X135200000Y-112850000D01*
X134950000Y-110800000D02*
X135050000Y-111800000D01*
X134950000Y-109500000D02*
X134950000Y-110800000D01*
X135050000Y-109150000D02*
X134950000Y-109500000D01*
X135050000Y-108950000D02*
X135050000Y-109150000D01*
X135000000Y-108750000D02*
X135050000Y-108950000D01*
X134850000Y-108400000D02*
X135000000Y-108750000D01*
X134850000Y-108200000D02*
X134850000Y-108400000D01*
X135100000Y-108050000D02*
X134850000Y-108200000D01*
X135150000Y-107950000D02*
X135100000Y-108050000D01*
X135150000Y-107900000D02*
X135150000Y-107950000D01*
X134850000Y-107400000D02*
X135150000Y-107900000D01*
X134750000Y-107200000D02*
X134850000Y-107400000D01*
X134950000Y-106650000D02*
X134750000Y-107200000D01*
X135050000Y-106400000D02*
X134950000Y-106650000D01*
X135000000Y-106250000D02*
X135050000Y-106400000D01*
X134900000Y-106200000D02*
X135000000Y-106250000D01*
X134800000Y-106050000D02*
X134900000Y-106200000D01*
X134750000Y-105900000D02*
X134800000Y-106050000D01*
X134750000Y-105700000D02*
X134750000Y-105900000D01*
X134750000Y-105200000D02*
X134750000Y-105700000D01*
X134800000Y-105000000D02*
X134750000Y-105200000D01*
X134800000Y-104800000D02*
X134800000Y-105000000D01*
X134750000Y-104600000D02*
X134800000Y-104800000D01*
X134550000Y-104000000D02*
X134750000Y-104600000D01*
X134400000Y-103500000D02*
X134550000Y-104000000D01*
X134300000Y-103250000D02*
X134400000Y-103500000D01*
X134300000Y-103150000D02*
X134300000Y-103250000D01*
X134500000Y-103050000D02*
X134300000Y-103150000D01*
X135300000Y-103000000D02*
X134500000Y-103050000D01*
X137200000Y-103150000D02*
X135300000Y-103000000D01*
X138200000Y-103250000D02*
X137200000Y-103150000D01*
X138900000Y-103450000D02*
X138200000Y-103250000D01*
X139400000Y-106500000D02*
X138900000Y-103450000D01*
X139700000Y-107950000D02*
X139400000Y-106500000D01*
X140650000Y-111750000D02*
X139700000Y-107950000D01*
X141450000Y-114550000D02*
X140650000Y-111750000D01*
X142300000Y-117550000D02*
X141450000Y-114550000D01*
X143400000Y-120850000D02*
X142300000Y-117550000D01*
X144000000Y-122600000D02*
X143400000Y-120850000D01*
X144750000Y-124450000D02*
X144000000Y-122600000D01*
X145300000Y-125550000D02*
X144750000Y-124450000D01*
X146350000Y-127550000D02*
X145300000Y-125550000D01*
X147150000Y-129000000D02*
X146350000Y-127550000D01*
X148250000Y-130950000D02*
X147150000Y-129000000D01*
X147550000Y-131700000D02*
X148250000Y-130950000D01*
X146750000Y-132700000D02*
X147550000Y-131700000D01*
X146100000Y-133600000D02*
X146750000Y-132700000D01*
X145750000Y-134200000D02*
X146100000Y-133600000D01*
X145650000Y-134600000D02*
X145750000Y-134200000D01*
X145650000Y-134800000D02*
X145650000Y-134600000D01*
X145700000Y-134900000D02*
X145650000Y-134800000D01*
X146100000Y-135100000D02*
X145700000Y-134900000D01*
X146500000Y-135150000D02*
X146100000Y-135100000D01*
X146950000Y-135050000D02*
X146500000Y-135150000D01*
X147550000Y-134750000D02*
X146950000Y-135050000D01*
X148100000Y-134350000D02*
X147550000Y-134750000D01*
X148800000Y-133750000D02*
X148100000Y-134350000D01*
X149650000Y-133050000D02*
X148800000Y-133750000D01*
X150500000Y-134100000D02*
X149650000Y-133050000D01*
X151150000Y-134850000D02*
X150500000Y-134100000D01*
X152100000Y-135900000D02*
X151150000Y-134850000D01*
X153200000Y-136850000D02*
X152100000Y-135900000D01*
X154050000Y-137450000D02*
X153200000Y-136850000D01*
X154850000Y-137900000D02*
X154050000Y-137450000D01*
X155700000Y-138250000D02*
X154850000Y-137900000D01*
X156600000Y-138450000D02*
X155700000Y-138250000D01*
X157150000Y-138450000D02*
X156600000Y-138450000D01*
X157700000Y-138350000D02*
X157150000Y-138450000D01*
X158350000Y-138050000D02*
X157700000Y-138350000D01*
X158950000Y-137500000D02*
X158350000Y-138050000D01*
X159400000Y-136900000D02*
X158950000Y-137500000D01*
X159950000Y-135700000D02*
X159400000Y-136900000D01*
X160250000Y-134850000D02*
X159950000Y-135700000D01*
X160450000Y-133850000D02*
X160250000Y-134850000D01*
X160600000Y-132800000D02*
X160450000Y-133850000D01*
X160650000Y-131600000D02*
X160600000Y-132800000D01*
X160650000Y-130300000D02*
X160650000Y-131600000D01*
X160650000Y-128700000D02*
X160650000Y-130300000D01*
X161400000Y-129250000D02*
X160650000Y-128700000D01*
X162150000Y-129900000D02*
X161400000Y-129250000D01*
X163350000Y-131000000D02*
X162150000Y-129900000D01*
X164350000Y-131950000D02*
X163350000Y-131000000D01*
X165300000Y-132850000D02*
X164350000Y-131950000D01*
X165700000Y-133150000D02*
X165300000Y-132850000D01*
X166500000Y-133700000D02*
X165700000Y-133150000D01*
X166850000Y-133800000D02*
X166500000Y-133700000D01*
X167100000Y-133700000D02*
X166850000Y-133800000D01*
X167150000Y-133500000D02*
X167100000Y-133700000D01*
X167050000Y-132850000D02*
X167150000Y-133500000D01*
X166600000Y-132050000D02*
X167050000Y-132850000D01*
X166050000Y-131350000D02*
X166600000Y-132050000D01*
X165100000Y-130200000D02*
X166050000Y-131350000D01*
X164000000Y-128900000D02*
X165100000Y-130200000D01*
X163100000Y-127900000D02*
X164000000Y-128900000D01*
X161350000Y-126100000D02*
X163100000Y-127900000D01*
X160800000Y-125550000D02*
X161350000Y-126100000D01*
X160750000Y-125400000D02*
X160800000Y-125550000D01*
X161000000Y-124650000D02*
X160750000Y-125400000D01*
X161200000Y-123950000D02*
X161000000Y-124650000D01*
X161400000Y-122500000D02*
X161200000Y-123950000D01*
X161500000Y-121350000D02*
X161400000Y-122500000D01*
X161500000Y-119400000D02*
X161500000Y-121350000D01*
X161400000Y-117850000D02*
X161500000Y-119400000D01*
X161150000Y-115600000D02*
X161400000Y-117850000D01*
X160850000Y-113850000D02*
X161150000Y-115600000D01*
X160550000Y-112350000D02*
X160850000Y-113850000D01*
X160350000Y-111550000D02*
X160550000Y-112350000D01*
X159950000Y-110100000D02*
X160350000Y-111550000D01*
X159600000Y-109000000D02*
X159950000Y-110100000D01*
X159050000Y-107550000D02*
X159600000Y-109000000D01*
X158550000Y-106400000D02*
X159050000Y-107550000D01*
X158000000Y-105250000D02*
X158550000Y-106400000D01*
X157500000Y-104250000D02*
X158000000Y-105250000D01*
X157850000Y-104300000D02*
X157500000Y-104250000D01*
X159150000Y-104600000D02*
X157850000Y-104300000D01*
X160250000Y-104800000D02*
X159150000Y-104600000D01*
X161150000Y-105000000D02*
X160250000Y-104800000D01*
X164650000Y-105500000D02*
X161150000Y-105000000D01*
X167550000Y-105900000D02*
X164650000Y-105500000D01*
X167350000Y-106600000D02*
X167550000Y-105900000D01*
X167050000Y-107000000D02*
X167350000Y-106600000D01*
X166850000Y-107000000D02*
X167050000Y-107000000D01*
X166650000Y-107100000D02*
X166850000Y-107000000D01*
X166650000Y-107300000D02*
X166650000Y-107100000D01*
X166850000Y-108100000D02*
X166650000Y-107300000D01*
X166950000Y-108600000D02*
X166850000Y-108100000D01*
X166950000Y-109200000D02*
X166950000Y-108600000D01*
X166850000Y-109600000D02*
X166950000Y-109200000D01*
X166750000Y-109700000D02*
X166850000Y-109600000D01*
X166650000Y-109900000D02*
X166750000Y-109700000D01*
X166650000Y-110000000D02*
X166650000Y-109900000D01*
X166950000Y-110700000D02*
X166650000Y-110000000D01*
X166850000Y-110900000D02*
X166950000Y-110700000D01*
X166750000Y-111000000D02*
X166850000Y-110900000D01*
X166650000Y-111200000D02*
X166750000Y-111000000D01*
X166750000Y-111500000D02*
X166650000Y-111200000D01*
X166850000Y-111900000D02*
X166750000Y-111500000D01*
X166850000Y-113500000D02*
X166850000Y-111900000D01*
X166850000Y-115700000D02*
X166850000Y-113500000D01*
X166850000Y-116400000D02*
X166850000Y-115700000D01*
X166950000Y-117300000D02*
X166850000Y-116400000D01*
X167150000Y-119700000D02*
X166950000Y-117300000D01*
X167150000Y-120200000D02*
X167150000Y-119700000D01*
X167250000Y-120600000D02*
X167150000Y-120200000D01*
X167550000Y-121500000D02*
X167250000Y-120600000D01*
X167950000Y-122500000D02*
X167550000Y-121500000D01*
X168150000Y-123400000D02*
X167950000Y-122500000D01*
X168350000Y-124500000D02*
X168150000Y-123400000D01*
X168750000Y-126200000D02*
X168350000Y-124500000D01*
X169450000Y-128400000D02*
X168750000Y-126200000D01*
X170050000Y-130200000D02*
X169450000Y-128400000D01*
X170450000Y-131200000D02*
X170050000Y-130200000D01*
X170850000Y-132200000D02*
X170450000Y-131200000D01*
X171250000Y-133100000D02*
X170850000Y-132200000D01*
X171650000Y-134000000D02*
X171250000Y-133100000D01*
X172050000Y-134800000D02*
X171650000Y-134000000D01*
X172850000Y-136100000D02*
X172050000Y-134800000D01*
X172950000Y-136800000D02*
X172850000Y-136100000D01*
X172950000Y-140900000D02*
X172950000Y-136800000D01*
X172850000Y-141500000D02*
X172950000Y-140900000D01*
X172750000Y-142100000D02*
X172850000Y-141500000D01*
X172550000Y-142700000D02*
X172750000Y-142100000D01*
X172250000Y-143500000D02*
X172550000Y-142700000D01*
X172150000Y-144000000D02*
X172250000Y-143500000D01*
X172150000Y-144400000D02*
X172150000Y-144000000D01*
X174850000Y-144100000D02*
X174450000Y-144900000D01*
X175250000Y-142900000D02*
X174850000Y-144100000D01*
X175450000Y-142000000D02*
X175250000Y-142900000D01*
X175450000Y-141100000D02*
X175450000Y-142000000D01*
X175350000Y-139800000D02*
X175450000Y-141100000D01*
X175150000Y-138400000D02*
X175350000Y-139800000D01*
X174650000Y-136500000D02*
X175150000Y-138400000D01*
X173950000Y-134100000D02*
X174650000Y-136500000D01*
X173250000Y-132600000D02*
X173950000Y-134100000D01*
X173250000Y-132200000D02*
X173250000Y-132600000D01*
X172750000Y-131600000D02*
X173250000Y-132200000D01*
X172150000Y-130300000D02*
X172750000Y-131600000D01*
X170350000Y-124900000D02*
X172150000Y-130300000D01*
X169550000Y-122800000D02*
X170350000Y-124900000D01*
X169350000Y-121900000D02*
X169550000Y-122800000D01*
X169550000Y-120500000D02*
X169350000Y-121900000D01*
X169650000Y-119100000D02*
X169550000Y-120500000D01*
X169550000Y-118300000D02*
X169650000Y-119100000D01*
X169850000Y-117900000D02*
X169550000Y-118300000D01*
X169650000Y-117500000D02*
X169850000Y-117900000D01*
X169550000Y-116800000D02*
X169650000Y-117500000D01*
X169550000Y-115100000D02*
X169550000Y-116800000D01*
X169950000Y-115300000D02*
X169550000Y-115100000D01*
X170050000Y-115200000D02*
X169950000Y-115300000D01*
X169950000Y-115000000D02*
X170050000Y-115200000D01*
X169650000Y-114500000D02*
X169950000Y-115000000D01*
X169550000Y-114200000D02*
X169650000Y-114500000D01*
X169550000Y-113700000D02*
X169550000Y-114200000D01*
X169850000Y-113400000D02*
X169550000Y-113700000D01*
X169650000Y-112900000D02*
X169850000Y-113400000D01*
X169650000Y-111800000D02*
X169650000Y-112900000D01*
X169650000Y-111300000D02*
X169650000Y-111800000D01*
X169650000Y-110000000D02*
X169650000Y-111300000D01*
X169850000Y-109700000D02*
X169650000Y-110000000D01*
X169950000Y-109600000D02*
X169850000Y-109700000D01*
X170150000Y-109400000D02*
X169950000Y-109600000D01*
X169650000Y-109100000D02*
X170150000Y-109400000D01*
X169650000Y-108800000D02*
X169650000Y-109100000D01*
X169750000Y-108000000D02*
X169650000Y-108800000D01*
X169950000Y-107600000D02*
X169750000Y-108000000D01*
X170150000Y-107400000D02*
X169950000Y-107600000D01*
X170050000Y-107300000D02*
X170150000Y-107400000D01*
X169750000Y-107000000D02*
X170050000Y-107300000D01*
X169650000Y-106200000D02*
X169750000Y-107000000D01*
X169450000Y-105200000D02*
X169650000Y-106200000D01*
X168950000Y-104400000D02*
X169450000Y-105200000D01*
X168250000Y-103500000D02*
X168950000Y-104400000D01*
X167450000Y-102900000D02*
X168250000Y-103500000D01*
X166450000Y-102300000D02*
X167450000Y-102900000D01*
X165650000Y-102000000D02*
X166450000Y-102300000D01*
X162550000Y-101200000D02*
X165650000Y-102000000D01*
X160950000Y-100900000D02*
X162550000Y-101200000D01*
X159350000Y-100700000D02*
X160950000Y-100900000D01*
X158050000Y-100500000D02*
X159350000Y-100700000D01*
X157850000Y-100400000D02*
X158050000Y-100500000D01*
X157750000Y-99100000D02*
X157850000Y-100400000D01*
X157650000Y-98100000D02*
X157750000Y-99100000D01*
X157250000Y-96300000D02*
X157650000Y-98100000D01*
X156850000Y-94400000D02*
X157250000Y-96300000D01*
X158550000Y-93900000D02*
X156850000Y-94400000D01*
X159150000Y-95800000D02*
X158550000Y-93900000D01*
X159350000Y-96400000D02*
X159150000Y-95800000D01*
X159550000Y-97000000D02*
X159350000Y-96400000D01*
X160150000Y-98100000D02*
X159550000Y-97000000D01*
X160450000Y-98600000D02*
X160150000Y-98100000D01*
X160750000Y-99000000D02*
X160450000Y-98600000D01*
X163850000Y-99000000D02*
X163450000Y-99400000D01*
X164950000Y-98500000D02*
X163850000Y-99000000D01*
X165750000Y-97800000D02*
X164950000Y-98500000D01*
X165850000Y-97400000D02*
X165750000Y-97800000D01*
X165950000Y-97100000D02*
X165850000Y-97400000D01*
X166150000Y-96900000D02*
X165950000Y-97100000D01*
X166450000Y-96900000D02*
X166150000Y-96900000D01*
X167050000Y-97000000D02*
X166450000Y-96900000D01*
X167450000Y-97100000D02*
X167050000Y-97000000D01*
X167750000Y-97300000D02*
X167450000Y-97100000D01*
X168050000Y-97600000D02*
X167750000Y-97300000D01*
X169250000Y-98900000D02*
X168050000Y-97600000D01*
X169850000Y-99500000D02*
X169250000Y-98900000D01*
X170450000Y-99800000D02*
X169850000Y-99500000D01*
X170950000Y-100000000D02*
X170450000Y-99800000D01*
X171650000Y-100300000D02*
X170950000Y-100000000D01*
X171850000Y-100600000D02*
X171650000Y-100300000D01*
X172350000Y-101300000D02*
X171850000Y-100600000D01*
X172950000Y-101700000D02*
X172350000Y-101300000D01*
X173750000Y-102100000D02*
X172950000Y-101700000D01*
X174350000Y-102400000D02*
X173750000Y-102100000D01*
X174850000Y-102500000D02*
X174350000Y-102400000D01*
X175350000Y-102600000D02*
X174850000Y-102500000D01*
X175850000Y-102900000D02*
X175350000Y-102600000D01*
X176250000Y-103200000D02*
X175850000Y-102900000D01*
X176950000Y-103700000D02*
X176250000Y-103200000D01*
X177450000Y-104000000D02*
X176950000Y-103700000D01*
X178050000Y-104200000D02*
X177450000Y-104000000D01*
X178450000Y-104200000D02*
X178050000Y-104200000D01*
X178950000Y-104100000D02*
X178450000Y-104200000D01*
X179350000Y-104100000D02*
X178950000Y-104100000D01*
X179550000Y-104200000D02*
X179350000Y-104100000D01*
X180050000Y-104600000D02*
X179550000Y-104200000D01*
X180650000Y-104900000D02*
X180050000Y-104600000D01*
X181250000Y-105000000D02*
X180650000Y-104900000D01*
X181850000Y-105000000D02*
X181250000Y-105000000D01*
X182250000Y-104900000D02*
X181850000Y-105000000D01*
X182450000Y-105000000D02*
X182250000Y-104900000D01*
X183350000Y-105800000D02*
X182450000Y-105000000D01*
X184250000Y-106500000D02*
X183350000Y-105800000D01*
X185050000Y-106800000D02*
X184250000Y-106500000D01*
X185750000Y-106800000D02*
X185050000Y-106800000D01*
X186250000Y-106700000D02*
X185750000Y-106800000D01*
X186350000Y-106400000D02*
X186250000Y-106700000D01*
X186350000Y-105800000D02*
X186350000Y-106400000D01*
X186150000Y-105200000D02*
X186350000Y-105800000D01*
X185550000Y-104500000D02*
X186150000Y-105200000D01*
X184650000Y-103200000D02*
X185550000Y-104500000D01*
X184250000Y-102400000D02*
X184650000Y-103200000D01*
X183650000Y-101200000D02*
X184250000Y-102400000D01*
X182850000Y-99200000D02*
X183650000Y-101200000D01*
X181650000Y-96200000D02*
X182850000Y-99200000D01*
X180350000Y-93000000D02*
X181650000Y-96200000D01*
X178850000Y-89700000D02*
X180350000Y-93000000D01*
X177950000Y-87700000D02*
X178850000Y-89700000D01*
X176950000Y-85800000D02*
X177950000Y-87700000D01*
X176150000Y-84500000D02*
X176950000Y-85800000D01*
X175450000Y-83600000D02*
X176150000Y-84500000D01*
X174950000Y-82600000D02*
X175450000Y-83600000D01*
X174050000Y-81400000D02*
X174950000Y-82600000D01*
X171850000Y-78900000D02*
X174050000Y-81400000D01*
X170750000Y-77700000D02*
X171850000Y-78900000D01*
X169150000Y-76100000D02*
X170750000Y-77700000D01*
X167850000Y-74900000D02*
X169150000Y-76100000D01*
X166550000Y-73900000D02*
X167850000Y-74900000D01*
X164250000Y-72700000D02*
X166550000Y-73900000D01*
X162050000Y-71800000D02*
X164250000Y-72700000D01*
X160450000Y-71300000D02*
X162050000Y-71800000D01*
X159250000Y-71100000D02*
X160450000Y-71300000D01*
X158350000Y-71100000D02*
X159250000Y-71100000D01*
X157650000Y-71300000D02*
X158350000Y-71100000D01*
X157050000Y-71700000D02*
X157650000Y-71300000D01*
X156650000Y-72000000D02*
X157050000Y-71700000D01*
X156250000Y-72600000D02*
X156650000Y-72000000D01*
X155850000Y-73200000D02*
X156250000Y-72600000D01*
X155750000Y-72900000D02*
X155850000Y-73200000D01*
X155550000Y-72250000D02*
X155750000Y-72900000D01*
X155300000Y-71450000D02*
X155550000Y-72250000D01*
X155050000Y-70700000D02*
X155300000Y-71450000D01*
X154750000Y-69900000D02*
X155050000Y-70700000D01*
X154400000Y-69150000D02*
X154750000Y-69900000D01*
X155550000Y-68800000D02*
X154750000Y-69100000D01*
X156250000Y-68200000D02*
X155550000Y-68800000D01*
X156750000Y-67600000D02*
X156250000Y-68200000D01*
X157150000Y-66800000D02*
X156750000Y-67600000D01*
X157250000Y-66400000D02*
X157150000Y-66800000D01*
X157150000Y-66100000D02*
X157250000Y-66400000D01*
X157050000Y-66000000D02*
X157150000Y-66100000D01*
X156650000Y-66000000D02*
X157050000Y-66000000D01*
X155650000Y-66000000D02*
X156650000Y-66000000D01*
X155350000Y-65700000D02*
X155650000Y-66000000D01*
X155150000Y-63600000D02*
X155350000Y-65700000D01*
X155050000Y-62200000D02*
X155150000Y-63600000D01*
X154750000Y-60900000D02*
X155050000Y-62200000D01*
X154350000Y-60100000D02*
X154750000Y-60900000D01*
X153850000Y-59500000D02*
X154350000Y-60100000D01*
X153750000Y-59100000D02*
X153850000Y-59500000D01*
X155450000Y-57400000D02*
X153750000Y-59100000D01*
X156650000Y-56300000D02*
X155450000Y-57400000D01*
X159150000Y-56000000D02*
X156650000Y-56300000D01*
X161950000Y-56400000D02*
X159150000Y-56000000D01*
X164250000Y-57400000D02*
X161950000Y-56400000D01*
X166850000Y-59900000D02*
X164250000Y-57400000D01*
X168850000Y-62400000D02*
X166850000Y-59900000D01*
X170450000Y-65900000D02*
X168850000Y-62400000D01*
X171050000Y-69200000D02*
X170450000Y-65900000D01*
X171150000Y-71500000D02*
X171050000Y-69200000D01*
X171250000Y-72900000D02*
X171150000Y-71500000D01*
X171550000Y-73800000D02*
X171250000Y-72900000D01*
X172150000Y-74500000D02*
X171550000Y-73800000D01*
X173350000Y-74700000D02*
X172150000Y-74500000D01*
X174350000Y-74700000D02*
X173350000Y-74700000D01*
X175150000Y-74300000D02*
X174350000Y-74700000D01*
X175550000Y-73700000D02*
X175150000Y-74300000D01*
X175750000Y-72500000D02*
X175550000Y-73700000D01*
X175650000Y-70800000D02*
X175750000Y-72500000D01*
X175150000Y-68800000D02*
X175650000Y-70800000D01*
M02*
