G04 #@! TF.GenerationSoftware,KiCad,Pcbnew,5.1.4-e60b266~84~ubuntu19.04.1*
G04 #@! TF.CreationDate,2019-08-17T12:08:49-07:00*
G04 #@! TF.ProjectId,trevor2,74726576-6f72-4322-9e6b-696361645f70,rev?*
G04 #@! TF.SameCoordinates,Original*
G04 #@! TF.FileFunction,Paste,Bot*
G04 #@! TF.FilePolarity,Positive*
%FSLAX46Y46*%
G04 Gerber Fmt 4.6, Leading zero omitted, Abs format (unit mm)*
G04 Created by KiCad (PCBNEW 5.1.4-e60b266~84~ubuntu19.04.1) date 2019-08-17 12:08:49*
%MOMM*%
%LPD*%
G04 APERTURE LIST*
%ADD10R,0.800000X0.500000*%
%ADD11R,0.800000X0.400000*%
%ADD12R,1.300000X0.700000*%
%ADD13C,0.400000*%
%ADD14C,0.100000*%
%ADD15C,0.900000*%
%ADD16R,1.200000X1.200000*%
%ADD17C,2.300000*%
%ADD18C,5.000000*%
%ADD19R,1.000000X0.800000*%
%ADD20R,0.700000X1.500000*%
%ADD21C,0.250000*%
%ADD22C,1.050000*%
G04 APERTURE END LIST*
D10*
X144750000Y-85000000D03*
D11*
X144750000Y-84200000D03*
D10*
X144750000Y-82600000D03*
D11*
X144750000Y-83400000D03*
D10*
X146550000Y-85000000D03*
D11*
X146550000Y-83400000D03*
X146550000Y-84200000D03*
D10*
X146550000Y-82600000D03*
X152350000Y-82500000D03*
D11*
X152350000Y-83300000D03*
D10*
X152350000Y-84900000D03*
D11*
X152350000Y-84100000D03*
D10*
X150550000Y-82500000D03*
D11*
X150550000Y-84100000D03*
X150550000Y-83300000D03*
D10*
X150550000Y-84900000D03*
D12*
X141500000Y-106349999D03*
X141500000Y-104450001D03*
D13*
X140438194Y-78569902D03*
D14*
G36*
X140000060Y-78480244D02*
G01*
X140772801Y-78273189D01*
X140876328Y-78659560D01*
X140103587Y-78866615D01*
X140000060Y-78480244D01*
X140000060Y-78480244D01*
G37*
D13*
X140231139Y-77797161D03*
D14*
G36*
X139793005Y-77707503D02*
G01*
X140565746Y-77500448D01*
X140669273Y-77886819D01*
X139896532Y-78093874D01*
X139793005Y-77707503D01*
X139793005Y-77707503D01*
G37*
D15*
X140288229Y-79748889D03*
D14*
G36*
X139724153Y-79382395D02*
G01*
X140593486Y-79149458D01*
X140852305Y-80115383D01*
X139982972Y-80348320D01*
X139724153Y-79382395D01*
X139724153Y-79382395D01*
G37*
D15*
X139511771Y-76851111D03*
D14*
G36*
X138947695Y-76484617D02*
G01*
X139817028Y-76251680D01*
X140075847Y-77217605D01*
X139206514Y-77450542D01*
X138947695Y-76484617D01*
X138947695Y-76484617D01*
G37*
D13*
X155268861Y-83647161D03*
D14*
G36*
X155603468Y-83943874D02*
G01*
X154830727Y-83736819D01*
X154934254Y-83350448D01*
X155706995Y-83557503D01*
X155603468Y-83943874D01*
X155603468Y-83943874D01*
G37*
D13*
X155061806Y-84419902D03*
D14*
G36*
X155396413Y-84716615D02*
G01*
X154623672Y-84509560D01*
X154727199Y-84123189D01*
X155499940Y-84330244D01*
X155396413Y-84716615D01*
X155396413Y-84716615D01*
G37*
D15*
X155988229Y-82701111D03*
D14*
G36*
X156293486Y-83300542D02*
G01*
X155424153Y-83067605D01*
X155682972Y-82101680D01*
X156552305Y-82334617D01*
X156293486Y-83300542D01*
X156293486Y-83300542D01*
G37*
D15*
X155211771Y-85598889D03*
D14*
G36*
X155517028Y-86198320D02*
G01*
X154647695Y-85965383D01*
X154906514Y-84999458D01*
X155775847Y-85232395D01*
X155517028Y-86198320D01*
X155517028Y-86198320D01*
G37*
D16*
X143450000Y-104700000D03*
X143450000Y-106800000D03*
D17*
X153320552Y-121927407D03*
D14*
G36*
X151692099Y-120293197D02*
G01*
X153913729Y-119697913D01*
X154949005Y-123561617D01*
X152727375Y-124156901D01*
X151692099Y-120293197D01*
X151692099Y-120293197D01*
G37*
D17*
X149179448Y-106472593D03*
D14*
G36*
X147550995Y-104838383D02*
G01*
X149772625Y-104243099D01*
X150807901Y-108106803D01*
X148586271Y-108702087D01*
X147550995Y-104838383D01*
X147550995Y-104838383D01*
G37*
D18*
X148850000Y-77150000D03*
D19*
X159100000Y-131225000D03*
X151800000Y-131225000D03*
X151800000Y-133425000D03*
X159100000Y-133425000D03*
D20*
X153200000Y-130575000D03*
X154700000Y-130575000D03*
X157700000Y-130575000D03*
D12*
X134550000Y-136700001D03*
X134550000Y-138599999D03*
D14*
G36*
X151113322Y-90609983D02*
G01*
X151119389Y-90610883D01*
X151125339Y-90612373D01*
X151131114Y-90614440D01*
X151136658Y-90617062D01*
X151141919Y-90620215D01*
X151146846Y-90623869D01*
X151151390Y-90627988D01*
X151239779Y-90716377D01*
X151243898Y-90720921D01*
X151247552Y-90725848D01*
X151250705Y-90731109D01*
X151253327Y-90736653D01*
X151255394Y-90742428D01*
X151256884Y-90748378D01*
X151257784Y-90754445D01*
X151258085Y-90760571D01*
X151257784Y-90766697D01*
X151256884Y-90772764D01*
X151255394Y-90778714D01*
X151253327Y-90784489D01*
X151250705Y-90790033D01*
X151247552Y-90795294D01*
X151243898Y-90800221D01*
X151239779Y-90804765D01*
X150744804Y-91299740D01*
X150740260Y-91303859D01*
X150735333Y-91307513D01*
X150730072Y-91310666D01*
X150724528Y-91313288D01*
X150718753Y-91315355D01*
X150712803Y-91316845D01*
X150706736Y-91317745D01*
X150700610Y-91318046D01*
X150694484Y-91317745D01*
X150688417Y-91316845D01*
X150682467Y-91315355D01*
X150676692Y-91313288D01*
X150671148Y-91310666D01*
X150665887Y-91307513D01*
X150660960Y-91303859D01*
X150656416Y-91299740D01*
X150568027Y-91211351D01*
X150563908Y-91206807D01*
X150560254Y-91201880D01*
X150557101Y-91196619D01*
X150554479Y-91191075D01*
X150552412Y-91185300D01*
X150550922Y-91179350D01*
X150550022Y-91173283D01*
X150549721Y-91167157D01*
X150550022Y-91161031D01*
X150550922Y-91154964D01*
X150552412Y-91149014D01*
X150554479Y-91143239D01*
X150557101Y-91137695D01*
X150560254Y-91132434D01*
X150563908Y-91127507D01*
X150568027Y-91122963D01*
X151063002Y-90627988D01*
X151067546Y-90623869D01*
X151072473Y-90620215D01*
X151077734Y-90617062D01*
X151083278Y-90614440D01*
X151089053Y-90612373D01*
X151095003Y-90610883D01*
X151101070Y-90609983D01*
X151107196Y-90609682D01*
X151113322Y-90609983D01*
X151113322Y-90609983D01*
G37*
D21*
X150903903Y-90963864D03*
D14*
G36*
X150759768Y-90256430D02*
G01*
X150765835Y-90257330D01*
X150771785Y-90258820D01*
X150777560Y-90260887D01*
X150783104Y-90263509D01*
X150788365Y-90266662D01*
X150793292Y-90270316D01*
X150797836Y-90274435D01*
X150886225Y-90362824D01*
X150890344Y-90367368D01*
X150893998Y-90372295D01*
X150897151Y-90377556D01*
X150899773Y-90383100D01*
X150901840Y-90388875D01*
X150903330Y-90394825D01*
X150904230Y-90400892D01*
X150904531Y-90407018D01*
X150904230Y-90413144D01*
X150903330Y-90419211D01*
X150901840Y-90425161D01*
X150899773Y-90430936D01*
X150897151Y-90436480D01*
X150893998Y-90441741D01*
X150890344Y-90446668D01*
X150886225Y-90451212D01*
X150391250Y-90946187D01*
X150386706Y-90950306D01*
X150381779Y-90953960D01*
X150376518Y-90957113D01*
X150370974Y-90959735D01*
X150365199Y-90961802D01*
X150359249Y-90963292D01*
X150353182Y-90964192D01*
X150347056Y-90964493D01*
X150340930Y-90964192D01*
X150334863Y-90963292D01*
X150328913Y-90961802D01*
X150323138Y-90959735D01*
X150317594Y-90957113D01*
X150312333Y-90953960D01*
X150307406Y-90950306D01*
X150302862Y-90946187D01*
X150214473Y-90857798D01*
X150210354Y-90853254D01*
X150206700Y-90848327D01*
X150203547Y-90843066D01*
X150200925Y-90837522D01*
X150198858Y-90831747D01*
X150197368Y-90825797D01*
X150196468Y-90819730D01*
X150196167Y-90813604D01*
X150196468Y-90807478D01*
X150197368Y-90801411D01*
X150198858Y-90795461D01*
X150200925Y-90789686D01*
X150203547Y-90784142D01*
X150206700Y-90778881D01*
X150210354Y-90773954D01*
X150214473Y-90769410D01*
X150709448Y-90274435D01*
X150713992Y-90270316D01*
X150718919Y-90266662D01*
X150724180Y-90263509D01*
X150729724Y-90260887D01*
X150735499Y-90258820D01*
X150741449Y-90257330D01*
X150747516Y-90256430D01*
X150753642Y-90256129D01*
X150759768Y-90256430D01*
X150759768Y-90256430D01*
G37*
D21*
X150550349Y-90610311D03*
D14*
G36*
X150406215Y-89902876D02*
G01*
X150412282Y-89903776D01*
X150418232Y-89905266D01*
X150424007Y-89907333D01*
X150429551Y-89909955D01*
X150434812Y-89913108D01*
X150439739Y-89916762D01*
X150444283Y-89920881D01*
X150532672Y-90009270D01*
X150536791Y-90013814D01*
X150540445Y-90018741D01*
X150543598Y-90024002D01*
X150546220Y-90029546D01*
X150548287Y-90035321D01*
X150549777Y-90041271D01*
X150550677Y-90047338D01*
X150550978Y-90053464D01*
X150550677Y-90059590D01*
X150549777Y-90065657D01*
X150548287Y-90071607D01*
X150546220Y-90077382D01*
X150543598Y-90082926D01*
X150540445Y-90088187D01*
X150536791Y-90093114D01*
X150532672Y-90097658D01*
X150037697Y-90592633D01*
X150033153Y-90596752D01*
X150028226Y-90600406D01*
X150022965Y-90603559D01*
X150017421Y-90606181D01*
X150011646Y-90608248D01*
X150005696Y-90609738D01*
X149999629Y-90610638D01*
X149993503Y-90610939D01*
X149987377Y-90610638D01*
X149981310Y-90609738D01*
X149975360Y-90608248D01*
X149969585Y-90606181D01*
X149964041Y-90603559D01*
X149958780Y-90600406D01*
X149953853Y-90596752D01*
X149949309Y-90592633D01*
X149860920Y-90504244D01*
X149856801Y-90499700D01*
X149853147Y-90494773D01*
X149849994Y-90489512D01*
X149847372Y-90483968D01*
X149845305Y-90478193D01*
X149843815Y-90472243D01*
X149842915Y-90466176D01*
X149842614Y-90460050D01*
X149842915Y-90453924D01*
X149843815Y-90447857D01*
X149845305Y-90441907D01*
X149847372Y-90436132D01*
X149849994Y-90430588D01*
X149853147Y-90425327D01*
X149856801Y-90420400D01*
X149860920Y-90415856D01*
X150355895Y-89920881D01*
X150360439Y-89916762D01*
X150365366Y-89913108D01*
X150370627Y-89909955D01*
X150376171Y-89907333D01*
X150381946Y-89905266D01*
X150387896Y-89903776D01*
X150393963Y-89902876D01*
X150400089Y-89902575D01*
X150406215Y-89902876D01*
X150406215Y-89902876D01*
G37*
D21*
X150196796Y-90256757D03*
D14*
G36*
X150052662Y-89549323D02*
G01*
X150058729Y-89550223D01*
X150064679Y-89551713D01*
X150070454Y-89553780D01*
X150075998Y-89556402D01*
X150081259Y-89559555D01*
X150086186Y-89563209D01*
X150090730Y-89567328D01*
X150179119Y-89655717D01*
X150183238Y-89660261D01*
X150186892Y-89665188D01*
X150190045Y-89670449D01*
X150192667Y-89675993D01*
X150194734Y-89681768D01*
X150196224Y-89687718D01*
X150197124Y-89693785D01*
X150197425Y-89699911D01*
X150197124Y-89706037D01*
X150196224Y-89712104D01*
X150194734Y-89718054D01*
X150192667Y-89723829D01*
X150190045Y-89729373D01*
X150186892Y-89734634D01*
X150183238Y-89739561D01*
X150179119Y-89744105D01*
X149684144Y-90239080D01*
X149679600Y-90243199D01*
X149674673Y-90246853D01*
X149669412Y-90250006D01*
X149663868Y-90252628D01*
X149658093Y-90254695D01*
X149652143Y-90256185D01*
X149646076Y-90257085D01*
X149639950Y-90257386D01*
X149633824Y-90257085D01*
X149627757Y-90256185D01*
X149621807Y-90254695D01*
X149616032Y-90252628D01*
X149610488Y-90250006D01*
X149605227Y-90246853D01*
X149600300Y-90243199D01*
X149595756Y-90239080D01*
X149507367Y-90150691D01*
X149503248Y-90146147D01*
X149499594Y-90141220D01*
X149496441Y-90135959D01*
X149493819Y-90130415D01*
X149491752Y-90124640D01*
X149490262Y-90118690D01*
X149489362Y-90112623D01*
X149489061Y-90106497D01*
X149489362Y-90100371D01*
X149490262Y-90094304D01*
X149491752Y-90088354D01*
X149493819Y-90082579D01*
X149496441Y-90077035D01*
X149499594Y-90071774D01*
X149503248Y-90066847D01*
X149507367Y-90062303D01*
X150002342Y-89567328D01*
X150006886Y-89563209D01*
X150011813Y-89559555D01*
X150017074Y-89556402D01*
X150022618Y-89553780D01*
X150028393Y-89551713D01*
X150034343Y-89550223D01*
X150040410Y-89549323D01*
X150046536Y-89549022D01*
X150052662Y-89549323D01*
X150052662Y-89549323D01*
G37*
D21*
X149843243Y-89903204D03*
D14*
G36*
X149699108Y-89195770D02*
G01*
X149705175Y-89196670D01*
X149711125Y-89198160D01*
X149716900Y-89200227D01*
X149722444Y-89202849D01*
X149727705Y-89206002D01*
X149732632Y-89209656D01*
X149737176Y-89213775D01*
X149825565Y-89302164D01*
X149829684Y-89306708D01*
X149833338Y-89311635D01*
X149836491Y-89316896D01*
X149839113Y-89322440D01*
X149841180Y-89328215D01*
X149842670Y-89334165D01*
X149843570Y-89340232D01*
X149843871Y-89346358D01*
X149843570Y-89352484D01*
X149842670Y-89358551D01*
X149841180Y-89364501D01*
X149839113Y-89370276D01*
X149836491Y-89375820D01*
X149833338Y-89381081D01*
X149829684Y-89386008D01*
X149825565Y-89390552D01*
X149330590Y-89885527D01*
X149326046Y-89889646D01*
X149321119Y-89893300D01*
X149315858Y-89896453D01*
X149310314Y-89899075D01*
X149304539Y-89901142D01*
X149298589Y-89902632D01*
X149292522Y-89903532D01*
X149286396Y-89903833D01*
X149280270Y-89903532D01*
X149274203Y-89902632D01*
X149268253Y-89901142D01*
X149262478Y-89899075D01*
X149256934Y-89896453D01*
X149251673Y-89893300D01*
X149246746Y-89889646D01*
X149242202Y-89885527D01*
X149153813Y-89797138D01*
X149149694Y-89792594D01*
X149146040Y-89787667D01*
X149142887Y-89782406D01*
X149140265Y-89776862D01*
X149138198Y-89771087D01*
X149136708Y-89765137D01*
X149135808Y-89759070D01*
X149135507Y-89752944D01*
X149135808Y-89746818D01*
X149136708Y-89740751D01*
X149138198Y-89734801D01*
X149140265Y-89729026D01*
X149142887Y-89723482D01*
X149146040Y-89718221D01*
X149149694Y-89713294D01*
X149153813Y-89708750D01*
X149648788Y-89213775D01*
X149653332Y-89209656D01*
X149658259Y-89206002D01*
X149663520Y-89202849D01*
X149669064Y-89200227D01*
X149674839Y-89198160D01*
X149680789Y-89196670D01*
X149686856Y-89195770D01*
X149692982Y-89195469D01*
X149699108Y-89195770D01*
X149699108Y-89195770D01*
G37*
D21*
X149489689Y-89549651D03*
D14*
G36*
X149345555Y-88842216D02*
G01*
X149351622Y-88843116D01*
X149357572Y-88844606D01*
X149363347Y-88846673D01*
X149368891Y-88849295D01*
X149374152Y-88852448D01*
X149379079Y-88856102D01*
X149383623Y-88860221D01*
X149472012Y-88948610D01*
X149476131Y-88953154D01*
X149479785Y-88958081D01*
X149482938Y-88963342D01*
X149485560Y-88968886D01*
X149487627Y-88974661D01*
X149489117Y-88980611D01*
X149490017Y-88986678D01*
X149490318Y-88992804D01*
X149490017Y-88998930D01*
X149489117Y-89004997D01*
X149487627Y-89010947D01*
X149485560Y-89016722D01*
X149482938Y-89022266D01*
X149479785Y-89027527D01*
X149476131Y-89032454D01*
X149472012Y-89036998D01*
X148977037Y-89531973D01*
X148972493Y-89536092D01*
X148967566Y-89539746D01*
X148962305Y-89542899D01*
X148956761Y-89545521D01*
X148950986Y-89547588D01*
X148945036Y-89549078D01*
X148938969Y-89549978D01*
X148932843Y-89550279D01*
X148926717Y-89549978D01*
X148920650Y-89549078D01*
X148914700Y-89547588D01*
X148908925Y-89545521D01*
X148903381Y-89542899D01*
X148898120Y-89539746D01*
X148893193Y-89536092D01*
X148888649Y-89531973D01*
X148800260Y-89443584D01*
X148796141Y-89439040D01*
X148792487Y-89434113D01*
X148789334Y-89428852D01*
X148786712Y-89423308D01*
X148784645Y-89417533D01*
X148783155Y-89411583D01*
X148782255Y-89405516D01*
X148781954Y-89399390D01*
X148782255Y-89393264D01*
X148783155Y-89387197D01*
X148784645Y-89381247D01*
X148786712Y-89375472D01*
X148789334Y-89369928D01*
X148792487Y-89364667D01*
X148796141Y-89359740D01*
X148800260Y-89355196D01*
X149295235Y-88860221D01*
X149299779Y-88856102D01*
X149304706Y-88852448D01*
X149309967Y-88849295D01*
X149315511Y-88846673D01*
X149321286Y-88844606D01*
X149327236Y-88843116D01*
X149333303Y-88842216D01*
X149339429Y-88841915D01*
X149345555Y-88842216D01*
X149345555Y-88842216D01*
G37*
D21*
X149136136Y-89196097D03*
D14*
G36*
X147966697Y-88842216D02*
G01*
X147972764Y-88843116D01*
X147978714Y-88844606D01*
X147984489Y-88846673D01*
X147990033Y-88849295D01*
X147995294Y-88852448D01*
X148000221Y-88856102D01*
X148004765Y-88860221D01*
X148499740Y-89355196D01*
X148503859Y-89359740D01*
X148507513Y-89364667D01*
X148510666Y-89369928D01*
X148513288Y-89375472D01*
X148515355Y-89381247D01*
X148516845Y-89387197D01*
X148517745Y-89393264D01*
X148518046Y-89399390D01*
X148517745Y-89405516D01*
X148516845Y-89411583D01*
X148515355Y-89417533D01*
X148513288Y-89423308D01*
X148510666Y-89428852D01*
X148507513Y-89434113D01*
X148503859Y-89439040D01*
X148499740Y-89443584D01*
X148411351Y-89531973D01*
X148406807Y-89536092D01*
X148401880Y-89539746D01*
X148396619Y-89542899D01*
X148391075Y-89545521D01*
X148385300Y-89547588D01*
X148379350Y-89549078D01*
X148373283Y-89549978D01*
X148367157Y-89550279D01*
X148361031Y-89549978D01*
X148354964Y-89549078D01*
X148349014Y-89547588D01*
X148343239Y-89545521D01*
X148337695Y-89542899D01*
X148332434Y-89539746D01*
X148327507Y-89536092D01*
X148322963Y-89531973D01*
X147827988Y-89036998D01*
X147823869Y-89032454D01*
X147820215Y-89027527D01*
X147817062Y-89022266D01*
X147814440Y-89016722D01*
X147812373Y-89010947D01*
X147810883Y-89004997D01*
X147809983Y-88998930D01*
X147809682Y-88992804D01*
X147809983Y-88986678D01*
X147810883Y-88980611D01*
X147812373Y-88974661D01*
X147814440Y-88968886D01*
X147817062Y-88963342D01*
X147820215Y-88958081D01*
X147823869Y-88953154D01*
X147827988Y-88948610D01*
X147916377Y-88860221D01*
X147920921Y-88856102D01*
X147925848Y-88852448D01*
X147931109Y-88849295D01*
X147936653Y-88846673D01*
X147942428Y-88844606D01*
X147948378Y-88843116D01*
X147954445Y-88842216D01*
X147960571Y-88841915D01*
X147966697Y-88842216D01*
X147966697Y-88842216D01*
G37*
D21*
X148163864Y-89196097D03*
D14*
G36*
X147613144Y-89195770D02*
G01*
X147619211Y-89196670D01*
X147625161Y-89198160D01*
X147630936Y-89200227D01*
X147636480Y-89202849D01*
X147641741Y-89206002D01*
X147646668Y-89209656D01*
X147651212Y-89213775D01*
X148146187Y-89708750D01*
X148150306Y-89713294D01*
X148153960Y-89718221D01*
X148157113Y-89723482D01*
X148159735Y-89729026D01*
X148161802Y-89734801D01*
X148163292Y-89740751D01*
X148164192Y-89746818D01*
X148164493Y-89752944D01*
X148164192Y-89759070D01*
X148163292Y-89765137D01*
X148161802Y-89771087D01*
X148159735Y-89776862D01*
X148157113Y-89782406D01*
X148153960Y-89787667D01*
X148150306Y-89792594D01*
X148146187Y-89797138D01*
X148057798Y-89885527D01*
X148053254Y-89889646D01*
X148048327Y-89893300D01*
X148043066Y-89896453D01*
X148037522Y-89899075D01*
X148031747Y-89901142D01*
X148025797Y-89902632D01*
X148019730Y-89903532D01*
X148013604Y-89903833D01*
X148007478Y-89903532D01*
X148001411Y-89902632D01*
X147995461Y-89901142D01*
X147989686Y-89899075D01*
X147984142Y-89896453D01*
X147978881Y-89893300D01*
X147973954Y-89889646D01*
X147969410Y-89885527D01*
X147474435Y-89390552D01*
X147470316Y-89386008D01*
X147466662Y-89381081D01*
X147463509Y-89375820D01*
X147460887Y-89370276D01*
X147458820Y-89364501D01*
X147457330Y-89358551D01*
X147456430Y-89352484D01*
X147456129Y-89346358D01*
X147456430Y-89340232D01*
X147457330Y-89334165D01*
X147458820Y-89328215D01*
X147460887Y-89322440D01*
X147463509Y-89316896D01*
X147466662Y-89311635D01*
X147470316Y-89306708D01*
X147474435Y-89302164D01*
X147562824Y-89213775D01*
X147567368Y-89209656D01*
X147572295Y-89206002D01*
X147577556Y-89202849D01*
X147583100Y-89200227D01*
X147588875Y-89198160D01*
X147594825Y-89196670D01*
X147600892Y-89195770D01*
X147607018Y-89195469D01*
X147613144Y-89195770D01*
X147613144Y-89195770D01*
G37*
D21*
X147810311Y-89549651D03*
D14*
G36*
X147259590Y-89549323D02*
G01*
X147265657Y-89550223D01*
X147271607Y-89551713D01*
X147277382Y-89553780D01*
X147282926Y-89556402D01*
X147288187Y-89559555D01*
X147293114Y-89563209D01*
X147297658Y-89567328D01*
X147792633Y-90062303D01*
X147796752Y-90066847D01*
X147800406Y-90071774D01*
X147803559Y-90077035D01*
X147806181Y-90082579D01*
X147808248Y-90088354D01*
X147809738Y-90094304D01*
X147810638Y-90100371D01*
X147810939Y-90106497D01*
X147810638Y-90112623D01*
X147809738Y-90118690D01*
X147808248Y-90124640D01*
X147806181Y-90130415D01*
X147803559Y-90135959D01*
X147800406Y-90141220D01*
X147796752Y-90146147D01*
X147792633Y-90150691D01*
X147704244Y-90239080D01*
X147699700Y-90243199D01*
X147694773Y-90246853D01*
X147689512Y-90250006D01*
X147683968Y-90252628D01*
X147678193Y-90254695D01*
X147672243Y-90256185D01*
X147666176Y-90257085D01*
X147660050Y-90257386D01*
X147653924Y-90257085D01*
X147647857Y-90256185D01*
X147641907Y-90254695D01*
X147636132Y-90252628D01*
X147630588Y-90250006D01*
X147625327Y-90246853D01*
X147620400Y-90243199D01*
X147615856Y-90239080D01*
X147120881Y-89744105D01*
X147116762Y-89739561D01*
X147113108Y-89734634D01*
X147109955Y-89729373D01*
X147107333Y-89723829D01*
X147105266Y-89718054D01*
X147103776Y-89712104D01*
X147102876Y-89706037D01*
X147102575Y-89699911D01*
X147102876Y-89693785D01*
X147103776Y-89687718D01*
X147105266Y-89681768D01*
X147107333Y-89675993D01*
X147109955Y-89670449D01*
X147113108Y-89665188D01*
X147116762Y-89660261D01*
X147120881Y-89655717D01*
X147209270Y-89567328D01*
X147213814Y-89563209D01*
X147218741Y-89559555D01*
X147224002Y-89556402D01*
X147229546Y-89553780D01*
X147235321Y-89551713D01*
X147241271Y-89550223D01*
X147247338Y-89549323D01*
X147253464Y-89549022D01*
X147259590Y-89549323D01*
X147259590Y-89549323D01*
G37*
D21*
X147456757Y-89903204D03*
D14*
G36*
X146906037Y-89902876D02*
G01*
X146912104Y-89903776D01*
X146918054Y-89905266D01*
X146923829Y-89907333D01*
X146929373Y-89909955D01*
X146934634Y-89913108D01*
X146939561Y-89916762D01*
X146944105Y-89920881D01*
X147439080Y-90415856D01*
X147443199Y-90420400D01*
X147446853Y-90425327D01*
X147450006Y-90430588D01*
X147452628Y-90436132D01*
X147454695Y-90441907D01*
X147456185Y-90447857D01*
X147457085Y-90453924D01*
X147457386Y-90460050D01*
X147457085Y-90466176D01*
X147456185Y-90472243D01*
X147454695Y-90478193D01*
X147452628Y-90483968D01*
X147450006Y-90489512D01*
X147446853Y-90494773D01*
X147443199Y-90499700D01*
X147439080Y-90504244D01*
X147350691Y-90592633D01*
X147346147Y-90596752D01*
X147341220Y-90600406D01*
X147335959Y-90603559D01*
X147330415Y-90606181D01*
X147324640Y-90608248D01*
X147318690Y-90609738D01*
X147312623Y-90610638D01*
X147306497Y-90610939D01*
X147300371Y-90610638D01*
X147294304Y-90609738D01*
X147288354Y-90608248D01*
X147282579Y-90606181D01*
X147277035Y-90603559D01*
X147271774Y-90600406D01*
X147266847Y-90596752D01*
X147262303Y-90592633D01*
X146767328Y-90097658D01*
X146763209Y-90093114D01*
X146759555Y-90088187D01*
X146756402Y-90082926D01*
X146753780Y-90077382D01*
X146751713Y-90071607D01*
X146750223Y-90065657D01*
X146749323Y-90059590D01*
X146749022Y-90053464D01*
X146749323Y-90047338D01*
X146750223Y-90041271D01*
X146751713Y-90035321D01*
X146753780Y-90029546D01*
X146756402Y-90024002D01*
X146759555Y-90018741D01*
X146763209Y-90013814D01*
X146767328Y-90009270D01*
X146855717Y-89920881D01*
X146860261Y-89916762D01*
X146865188Y-89913108D01*
X146870449Y-89909955D01*
X146875993Y-89907333D01*
X146881768Y-89905266D01*
X146887718Y-89903776D01*
X146893785Y-89902876D01*
X146899911Y-89902575D01*
X146906037Y-89902876D01*
X146906037Y-89902876D01*
G37*
D21*
X147103204Y-90256757D03*
D14*
G36*
X146552484Y-90256430D02*
G01*
X146558551Y-90257330D01*
X146564501Y-90258820D01*
X146570276Y-90260887D01*
X146575820Y-90263509D01*
X146581081Y-90266662D01*
X146586008Y-90270316D01*
X146590552Y-90274435D01*
X147085527Y-90769410D01*
X147089646Y-90773954D01*
X147093300Y-90778881D01*
X147096453Y-90784142D01*
X147099075Y-90789686D01*
X147101142Y-90795461D01*
X147102632Y-90801411D01*
X147103532Y-90807478D01*
X147103833Y-90813604D01*
X147103532Y-90819730D01*
X147102632Y-90825797D01*
X147101142Y-90831747D01*
X147099075Y-90837522D01*
X147096453Y-90843066D01*
X147093300Y-90848327D01*
X147089646Y-90853254D01*
X147085527Y-90857798D01*
X146997138Y-90946187D01*
X146992594Y-90950306D01*
X146987667Y-90953960D01*
X146982406Y-90957113D01*
X146976862Y-90959735D01*
X146971087Y-90961802D01*
X146965137Y-90963292D01*
X146959070Y-90964192D01*
X146952944Y-90964493D01*
X146946818Y-90964192D01*
X146940751Y-90963292D01*
X146934801Y-90961802D01*
X146929026Y-90959735D01*
X146923482Y-90957113D01*
X146918221Y-90953960D01*
X146913294Y-90950306D01*
X146908750Y-90946187D01*
X146413775Y-90451212D01*
X146409656Y-90446668D01*
X146406002Y-90441741D01*
X146402849Y-90436480D01*
X146400227Y-90430936D01*
X146398160Y-90425161D01*
X146396670Y-90419211D01*
X146395770Y-90413144D01*
X146395469Y-90407018D01*
X146395770Y-90400892D01*
X146396670Y-90394825D01*
X146398160Y-90388875D01*
X146400227Y-90383100D01*
X146402849Y-90377556D01*
X146406002Y-90372295D01*
X146409656Y-90367368D01*
X146413775Y-90362824D01*
X146502164Y-90274435D01*
X146506708Y-90270316D01*
X146511635Y-90266662D01*
X146516896Y-90263509D01*
X146522440Y-90260887D01*
X146528215Y-90258820D01*
X146534165Y-90257330D01*
X146540232Y-90256430D01*
X146546358Y-90256129D01*
X146552484Y-90256430D01*
X146552484Y-90256430D01*
G37*
D21*
X146749651Y-90610311D03*
D14*
G36*
X146198930Y-90609983D02*
G01*
X146204997Y-90610883D01*
X146210947Y-90612373D01*
X146216722Y-90614440D01*
X146222266Y-90617062D01*
X146227527Y-90620215D01*
X146232454Y-90623869D01*
X146236998Y-90627988D01*
X146731973Y-91122963D01*
X146736092Y-91127507D01*
X146739746Y-91132434D01*
X146742899Y-91137695D01*
X146745521Y-91143239D01*
X146747588Y-91149014D01*
X146749078Y-91154964D01*
X146749978Y-91161031D01*
X146750279Y-91167157D01*
X146749978Y-91173283D01*
X146749078Y-91179350D01*
X146747588Y-91185300D01*
X146745521Y-91191075D01*
X146742899Y-91196619D01*
X146739746Y-91201880D01*
X146736092Y-91206807D01*
X146731973Y-91211351D01*
X146643584Y-91299740D01*
X146639040Y-91303859D01*
X146634113Y-91307513D01*
X146628852Y-91310666D01*
X146623308Y-91313288D01*
X146617533Y-91315355D01*
X146611583Y-91316845D01*
X146605516Y-91317745D01*
X146599390Y-91318046D01*
X146593264Y-91317745D01*
X146587197Y-91316845D01*
X146581247Y-91315355D01*
X146575472Y-91313288D01*
X146569928Y-91310666D01*
X146564667Y-91307513D01*
X146559740Y-91303859D01*
X146555196Y-91299740D01*
X146060221Y-90804765D01*
X146056102Y-90800221D01*
X146052448Y-90795294D01*
X146049295Y-90790033D01*
X146046673Y-90784489D01*
X146044606Y-90778714D01*
X146043116Y-90772764D01*
X146042216Y-90766697D01*
X146041915Y-90760571D01*
X146042216Y-90754445D01*
X146043116Y-90748378D01*
X146044606Y-90742428D01*
X146046673Y-90736653D01*
X146049295Y-90731109D01*
X146052448Y-90725848D01*
X146056102Y-90720921D01*
X146060221Y-90716377D01*
X146148610Y-90627988D01*
X146153154Y-90623869D01*
X146158081Y-90620215D01*
X146163342Y-90617062D01*
X146168886Y-90614440D01*
X146174661Y-90612373D01*
X146180611Y-90610883D01*
X146186678Y-90609983D01*
X146192804Y-90609682D01*
X146198930Y-90609983D01*
X146198930Y-90609983D01*
G37*
D21*
X146396097Y-90963864D03*
D14*
G36*
X146605516Y-91582255D02*
G01*
X146611583Y-91583155D01*
X146617533Y-91584645D01*
X146623308Y-91586712D01*
X146628852Y-91589334D01*
X146634113Y-91592487D01*
X146639040Y-91596141D01*
X146643584Y-91600260D01*
X146731973Y-91688649D01*
X146736092Y-91693193D01*
X146739746Y-91698120D01*
X146742899Y-91703381D01*
X146745521Y-91708925D01*
X146747588Y-91714700D01*
X146749078Y-91720650D01*
X146749978Y-91726717D01*
X146750279Y-91732843D01*
X146749978Y-91738969D01*
X146749078Y-91745036D01*
X146747588Y-91750986D01*
X146745521Y-91756761D01*
X146742899Y-91762305D01*
X146739746Y-91767566D01*
X146736092Y-91772493D01*
X146731973Y-91777037D01*
X146236998Y-92272012D01*
X146232454Y-92276131D01*
X146227527Y-92279785D01*
X146222266Y-92282938D01*
X146216722Y-92285560D01*
X146210947Y-92287627D01*
X146204997Y-92289117D01*
X146198930Y-92290017D01*
X146192804Y-92290318D01*
X146186678Y-92290017D01*
X146180611Y-92289117D01*
X146174661Y-92287627D01*
X146168886Y-92285560D01*
X146163342Y-92282938D01*
X146158081Y-92279785D01*
X146153154Y-92276131D01*
X146148610Y-92272012D01*
X146060221Y-92183623D01*
X146056102Y-92179079D01*
X146052448Y-92174152D01*
X146049295Y-92168891D01*
X146046673Y-92163347D01*
X146044606Y-92157572D01*
X146043116Y-92151622D01*
X146042216Y-92145555D01*
X146041915Y-92139429D01*
X146042216Y-92133303D01*
X146043116Y-92127236D01*
X146044606Y-92121286D01*
X146046673Y-92115511D01*
X146049295Y-92109967D01*
X146052448Y-92104706D01*
X146056102Y-92099779D01*
X146060221Y-92095235D01*
X146555196Y-91600260D01*
X146559740Y-91596141D01*
X146564667Y-91592487D01*
X146569928Y-91589334D01*
X146575472Y-91586712D01*
X146581247Y-91584645D01*
X146587197Y-91583155D01*
X146593264Y-91582255D01*
X146599390Y-91581954D01*
X146605516Y-91582255D01*
X146605516Y-91582255D01*
G37*
D21*
X146396097Y-91936136D03*
D14*
G36*
X146959070Y-91935808D02*
G01*
X146965137Y-91936708D01*
X146971087Y-91938198D01*
X146976862Y-91940265D01*
X146982406Y-91942887D01*
X146987667Y-91946040D01*
X146992594Y-91949694D01*
X146997138Y-91953813D01*
X147085527Y-92042202D01*
X147089646Y-92046746D01*
X147093300Y-92051673D01*
X147096453Y-92056934D01*
X147099075Y-92062478D01*
X147101142Y-92068253D01*
X147102632Y-92074203D01*
X147103532Y-92080270D01*
X147103833Y-92086396D01*
X147103532Y-92092522D01*
X147102632Y-92098589D01*
X147101142Y-92104539D01*
X147099075Y-92110314D01*
X147096453Y-92115858D01*
X147093300Y-92121119D01*
X147089646Y-92126046D01*
X147085527Y-92130590D01*
X146590552Y-92625565D01*
X146586008Y-92629684D01*
X146581081Y-92633338D01*
X146575820Y-92636491D01*
X146570276Y-92639113D01*
X146564501Y-92641180D01*
X146558551Y-92642670D01*
X146552484Y-92643570D01*
X146546358Y-92643871D01*
X146540232Y-92643570D01*
X146534165Y-92642670D01*
X146528215Y-92641180D01*
X146522440Y-92639113D01*
X146516896Y-92636491D01*
X146511635Y-92633338D01*
X146506708Y-92629684D01*
X146502164Y-92625565D01*
X146413775Y-92537176D01*
X146409656Y-92532632D01*
X146406002Y-92527705D01*
X146402849Y-92522444D01*
X146400227Y-92516900D01*
X146398160Y-92511125D01*
X146396670Y-92505175D01*
X146395770Y-92499108D01*
X146395469Y-92492982D01*
X146395770Y-92486856D01*
X146396670Y-92480789D01*
X146398160Y-92474839D01*
X146400227Y-92469064D01*
X146402849Y-92463520D01*
X146406002Y-92458259D01*
X146409656Y-92453332D01*
X146413775Y-92448788D01*
X146908750Y-91953813D01*
X146913294Y-91949694D01*
X146918221Y-91946040D01*
X146923482Y-91942887D01*
X146929026Y-91940265D01*
X146934801Y-91938198D01*
X146940751Y-91936708D01*
X146946818Y-91935808D01*
X146952944Y-91935507D01*
X146959070Y-91935808D01*
X146959070Y-91935808D01*
G37*
D21*
X146749651Y-92289689D03*
D14*
G36*
X147312623Y-92289362D02*
G01*
X147318690Y-92290262D01*
X147324640Y-92291752D01*
X147330415Y-92293819D01*
X147335959Y-92296441D01*
X147341220Y-92299594D01*
X147346147Y-92303248D01*
X147350691Y-92307367D01*
X147439080Y-92395756D01*
X147443199Y-92400300D01*
X147446853Y-92405227D01*
X147450006Y-92410488D01*
X147452628Y-92416032D01*
X147454695Y-92421807D01*
X147456185Y-92427757D01*
X147457085Y-92433824D01*
X147457386Y-92439950D01*
X147457085Y-92446076D01*
X147456185Y-92452143D01*
X147454695Y-92458093D01*
X147452628Y-92463868D01*
X147450006Y-92469412D01*
X147446853Y-92474673D01*
X147443199Y-92479600D01*
X147439080Y-92484144D01*
X146944105Y-92979119D01*
X146939561Y-92983238D01*
X146934634Y-92986892D01*
X146929373Y-92990045D01*
X146923829Y-92992667D01*
X146918054Y-92994734D01*
X146912104Y-92996224D01*
X146906037Y-92997124D01*
X146899911Y-92997425D01*
X146893785Y-92997124D01*
X146887718Y-92996224D01*
X146881768Y-92994734D01*
X146875993Y-92992667D01*
X146870449Y-92990045D01*
X146865188Y-92986892D01*
X146860261Y-92983238D01*
X146855717Y-92979119D01*
X146767328Y-92890730D01*
X146763209Y-92886186D01*
X146759555Y-92881259D01*
X146756402Y-92875998D01*
X146753780Y-92870454D01*
X146751713Y-92864679D01*
X146750223Y-92858729D01*
X146749323Y-92852662D01*
X146749022Y-92846536D01*
X146749323Y-92840410D01*
X146750223Y-92834343D01*
X146751713Y-92828393D01*
X146753780Y-92822618D01*
X146756402Y-92817074D01*
X146759555Y-92811813D01*
X146763209Y-92806886D01*
X146767328Y-92802342D01*
X147262303Y-92307367D01*
X147266847Y-92303248D01*
X147271774Y-92299594D01*
X147277035Y-92296441D01*
X147282579Y-92293819D01*
X147288354Y-92291752D01*
X147294304Y-92290262D01*
X147300371Y-92289362D01*
X147306497Y-92289061D01*
X147312623Y-92289362D01*
X147312623Y-92289362D01*
G37*
D21*
X147103204Y-92643243D03*
D14*
G36*
X147666176Y-92642915D02*
G01*
X147672243Y-92643815D01*
X147678193Y-92645305D01*
X147683968Y-92647372D01*
X147689512Y-92649994D01*
X147694773Y-92653147D01*
X147699700Y-92656801D01*
X147704244Y-92660920D01*
X147792633Y-92749309D01*
X147796752Y-92753853D01*
X147800406Y-92758780D01*
X147803559Y-92764041D01*
X147806181Y-92769585D01*
X147808248Y-92775360D01*
X147809738Y-92781310D01*
X147810638Y-92787377D01*
X147810939Y-92793503D01*
X147810638Y-92799629D01*
X147809738Y-92805696D01*
X147808248Y-92811646D01*
X147806181Y-92817421D01*
X147803559Y-92822965D01*
X147800406Y-92828226D01*
X147796752Y-92833153D01*
X147792633Y-92837697D01*
X147297658Y-93332672D01*
X147293114Y-93336791D01*
X147288187Y-93340445D01*
X147282926Y-93343598D01*
X147277382Y-93346220D01*
X147271607Y-93348287D01*
X147265657Y-93349777D01*
X147259590Y-93350677D01*
X147253464Y-93350978D01*
X147247338Y-93350677D01*
X147241271Y-93349777D01*
X147235321Y-93348287D01*
X147229546Y-93346220D01*
X147224002Y-93343598D01*
X147218741Y-93340445D01*
X147213814Y-93336791D01*
X147209270Y-93332672D01*
X147120881Y-93244283D01*
X147116762Y-93239739D01*
X147113108Y-93234812D01*
X147109955Y-93229551D01*
X147107333Y-93224007D01*
X147105266Y-93218232D01*
X147103776Y-93212282D01*
X147102876Y-93206215D01*
X147102575Y-93200089D01*
X147102876Y-93193963D01*
X147103776Y-93187896D01*
X147105266Y-93181946D01*
X147107333Y-93176171D01*
X147109955Y-93170627D01*
X147113108Y-93165366D01*
X147116762Y-93160439D01*
X147120881Y-93155895D01*
X147615856Y-92660920D01*
X147620400Y-92656801D01*
X147625327Y-92653147D01*
X147630588Y-92649994D01*
X147636132Y-92647372D01*
X147641907Y-92645305D01*
X147647857Y-92643815D01*
X147653924Y-92642915D01*
X147660050Y-92642614D01*
X147666176Y-92642915D01*
X147666176Y-92642915D01*
G37*
D21*
X147456757Y-92996796D03*
D14*
G36*
X148019730Y-92996468D02*
G01*
X148025797Y-92997368D01*
X148031747Y-92998858D01*
X148037522Y-93000925D01*
X148043066Y-93003547D01*
X148048327Y-93006700D01*
X148053254Y-93010354D01*
X148057798Y-93014473D01*
X148146187Y-93102862D01*
X148150306Y-93107406D01*
X148153960Y-93112333D01*
X148157113Y-93117594D01*
X148159735Y-93123138D01*
X148161802Y-93128913D01*
X148163292Y-93134863D01*
X148164192Y-93140930D01*
X148164493Y-93147056D01*
X148164192Y-93153182D01*
X148163292Y-93159249D01*
X148161802Y-93165199D01*
X148159735Y-93170974D01*
X148157113Y-93176518D01*
X148153960Y-93181779D01*
X148150306Y-93186706D01*
X148146187Y-93191250D01*
X147651212Y-93686225D01*
X147646668Y-93690344D01*
X147641741Y-93693998D01*
X147636480Y-93697151D01*
X147630936Y-93699773D01*
X147625161Y-93701840D01*
X147619211Y-93703330D01*
X147613144Y-93704230D01*
X147607018Y-93704531D01*
X147600892Y-93704230D01*
X147594825Y-93703330D01*
X147588875Y-93701840D01*
X147583100Y-93699773D01*
X147577556Y-93697151D01*
X147572295Y-93693998D01*
X147567368Y-93690344D01*
X147562824Y-93686225D01*
X147474435Y-93597836D01*
X147470316Y-93593292D01*
X147466662Y-93588365D01*
X147463509Y-93583104D01*
X147460887Y-93577560D01*
X147458820Y-93571785D01*
X147457330Y-93565835D01*
X147456430Y-93559768D01*
X147456129Y-93553642D01*
X147456430Y-93547516D01*
X147457330Y-93541449D01*
X147458820Y-93535499D01*
X147460887Y-93529724D01*
X147463509Y-93524180D01*
X147466662Y-93518919D01*
X147470316Y-93513992D01*
X147474435Y-93509448D01*
X147969410Y-93014473D01*
X147973954Y-93010354D01*
X147978881Y-93006700D01*
X147984142Y-93003547D01*
X147989686Y-93000925D01*
X147995461Y-92998858D01*
X148001411Y-92997368D01*
X148007478Y-92996468D01*
X148013604Y-92996167D01*
X148019730Y-92996468D01*
X148019730Y-92996468D01*
G37*
D21*
X147810311Y-93350349D03*
D14*
G36*
X148373283Y-93350022D02*
G01*
X148379350Y-93350922D01*
X148385300Y-93352412D01*
X148391075Y-93354479D01*
X148396619Y-93357101D01*
X148401880Y-93360254D01*
X148406807Y-93363908D01*
X148411351Y-93368027D01*
X148499740Y-93456416D01*
X148503859Y-93460960D01*
X148507513Y-93465887D01*
X148510666Y-93471148D01*
X148513288Y-93476692D01*
X148515355Y-93482467D01*
X148516845Y-93488417D01*
X148517745Y-93494484D01*
X148518046Y-93500610D01*
X148517745Y-93506736D01*
X148516845Y-93512803D01*
X148515355Y-93518753D01*
X148513288Y-93524528D01*
X148510666Y-93530072D01*
X148507513Y-93535333D01*
X148503859Y-93540260D01*
X148499740Y-93544804D01*
X148004765Y-94039779D01*
X148000221Y-94043898D01*
X147995294Y-94047552D01*
X147990033Y-94050705D01*
X147984489Y-94053327D01*
X147978714Y-94055394D01*
X147972764Y-94056884D01*
X147966697Y-94057784D01*
X147960571Y-94058085D01*
X147954445Y-94057784D01*
X147948378Y-94056884D01*
X147942428Y-94055394D01*
X147936653Y-94053327D01*
X147931109Y-94050705D01*
X147925848Y-94047552D01*
X147920921Y-94043898D01*
X147916377Y-94039779D01*
X147827988Y-93951390D01*
X147823869Y-93946846D01*
X147820215Y-93941919D01*
X147817062Y-93936658D01*
X147814440Y-93931114D01*
X147812373Y-93925339D01*
X147810883Y-93919389D01*
X147809983Y-93913322D01*
X147809682Y-93907196D01*
X147809983Y-93901070D01*
X147810883Y-93895003D01*
X147812373Y-93889053D01*
X147814440Y-93883278D01*
X147817062Y-93877734D01*
X147820215Y-93872473D01*
X147823869Y-93867546D01*
X147827988Y-93863002D01*
X148322963Y-93368027D01*
X148327507Y-93363908D01*
X148332434Y-93360254D01*
X148337695Y-93357101D01*
X148343239Y-93354479D01*
X148349014Y-93352412D01*
X148354964Y-93350922D01*
X148361031Y-93350022D01*
X148367157Y-93349721D01*
X148373283Y-93350022D01*
X148373283Y-93350022D01*
G37*
D21*
X148163864Y-93703903D03*
D14*
G36*
X148938969Y-93350022D02*
G01*
X148945036Y-93350922D01*
X148950986Y-93352412D01*
X148956761Y-93354479D01*
X148962305Y-93357101D01*
X148967566Y-93360254D01*
X148972493Y-93363908D01*
X148977037Y-93368027D01*
X149472012Y-93863002D01*
X149476131Y-93867546D01*
X149479785Y-93872473D01*
X149482938Y-93877734D01*
X149485560Y-93883278D01*
X149487627Y-93889053D01*
X149489117Y-93895003D01*
X149490017Y-93901070D01*
X149490318Y-93907196D01*
X149490017Y-93913322D01*
X149489117Y-93919389D01*
X149487627Y-93925339D01*
X149485560Y-93931114D01*
X149482938Y-93936658D01*
X149479785Y-93941919D01*
X149476131Y-93946846D01*
X149472012Y-93951390D01*
X149383623Y-94039779D01*
X149379079Y-94043898D01*
X149374152Y-94047552D01*
X149368891Y-94050705D01*
X149363347Y-94053327D01*
X149357572Y-94055394D01*
X149351622Y-94056884D01*
X149345555Y-94057784D01*
X149339429Y-94058085D01*
X149333303Y-94057784D01*
X149327236Y-94056884D01*
X149321286Y-94055394D01*
X149315511Y-94053327D01*
X149309967Y-94050705D01*
X149304706Y-94047552D01*
X149299779Y-94043898D01*
X149295235Y-94039779D01*
X148800260Y-93544804D01*
X148796141Y-93540260D01*
X148792487Y-93535333D01*
X148789334Y-93530072D01*
X148786712Y-93524528D01*
X148784645Y-93518753D01*
X148783155Y-93512803D01*
X148782255Y-93506736D01*
X148781954Y-93500610D01*
X148782255Y-93494484D01*
X148783155Y-93488417D01*
X148784645Y-93482467D01*
X148786712Y-93476692D01*
X148789334Y-93471148D01*
X148792487Y-93465887D01*
X148796141Y-93460960D01*
X148800260Y-93456416D01*
X148888649Y-93368027D01*
X148893193Y-93363908D01*
X148898120Y-93360254D01*
X148903381Y-93357101D01*
X148908925Y-93354479D01*
X148914700Y-93352412D01*
X148920650Y-93350922D01*
X148926717Y-93350022D01*
X148932843Y-93349721D01*
X148938969Y-93350022D01*
X148938969Y-93350022D01*
G37*
D21*
X149136136Y-93703903D03*
D14*
G36*
X149292522Y-92996468D02*
G01*
X149298589Y-92997368D01*
X149304539Y-92998858D01*
X149310314Y-93000925D01*
X149315858Y-93003547D01*
X149321119Y-93006700D01*
X149326046Y-93010354D01*
X149330590Y-93014473D01*
X149825565Y-93509448D01*
X149829684Y-93513992D01*
X149833338Y-93518919D01*
X149836491Y-93524180D01*
X149839113Y-93529724D01*
X149841180Y-93535499D01*
X149842670Y-93541449D01*
X149843570Y-93547516D01*
X149843871Y-93553642D01*
X149843570Y-93559768D01*
X149842670Y-93565835D01*
X149841180Y-93571785D01*
X149839113Y-93577560D01*
X149836491Y-93583104D01*
X149833338Y-93588365D01*
X149829684Y-93593292D01*
X149825565Y-93597836D01*
X149737176Y-93686225D01*
X149732632Y-93690344D01*
X149727705Y-93693998D01*
X149722444Y-93697151D01*
X149716900Y-93699773D01*
X149711125Y-93701840D01*
X149705175Y-93703330D01*
X149699108Y-93704230D01*
X149692982Y-93704531D01*
X149686856Y-93704230D01*
X149680789Y-93703330D01*
X149674839Y-93701840D01*
X149669064Y-93699773D01*
X149663520Y-93697151D01*
X149658259Y-93693998D01*
X149653332Y-93690344D01*
X149648788Y-93686225D01*
X149153813Y-93191250D01*
X149149694Y-93186706D01*
X149146040Y-93181779D01*
X149142887Y-93176518D01*
X149140265Y-93170974D01*
X149138198Y-93165199D01*
X149136708Y-93159249D01*
X149135808Y-93153182D01*
X149135507Y-93147056D01*
X149135808Y-93140930D01*
X149136708Y-93134863D01*
X149138198Y-93128913D01*
X149140265Y-93123138D01*
X149142887Y-93117594D01*
X149146040Y-93112333D01*
X149149694Y-93107406D01*
X149153813Y-93102862D01*
X149242202Y-93014473D01*
X149246746Y-93010354D01*
X149251673Y-93006700D01*
X149256934Y-93003547D01*
X149262478Y-93000925D01*
X149268253Y-92998858D01*
X149274203Y-92997368D01*
X149280270Y-92996468D01*
X149286396Y-92996167D01*
X149292522Y-92996468D01*
X149292522Y-92996468D01*
G37*
D21*
X149489689Y-93350349D03*
D14*
G36*
X149646076Y-92642915D02*
G01*
X149652143Y-92643815D01*
X149658093Y-92645305D01*
X149663868Y-92647372D01*
X149669412Y-92649994D01*
X149674673Y-92653147D01*
X149679600Y-92656801D01*
X149684144Y-92660920D01*
X150179119Y-93155895D01*
X150183238Y-93160439D01*
X150186892Y-93165366D01*
X150190045Y-93170627D01*
X150192667Y-93176171D01*
X150194734Y-93181946D01*
X150196224Y-93187896D01*
X150197124Y-93193963D01*
X150197425Y-93200089D01*
X150197124Y-93206215D01*
X150196224Y-93212282D01*
X150194734Y-93218232D01*
X150192667Y-93224007D01*
X150190045Y-93229551D01*
X150186892Y-93234812D01*
X150183238Y-93239739D01*
X150179119Y-93244283D01*
X150090730Y-93332672D01*
X150086186Y-93336791D01*
X150081259Y-93340445D01*
X150075998Y-93343598D01*
X150070454Y-93346220D01*
X150064679Y-93348287D01*
X150058729Y-93349777D01*
X150052662Y-93350677D01*
X150046536Y-93350978D01*
X150040410Y-93350677D01*
X150034343Y-93349777D01*
X150028393Y-93348287D01*
X150022618Y-93346220D01*
X150017074Y-93343598D01*
X150011813Y-93340445D01*
X150006886Y-93336791D01*
X150002342Y-93332672D01*
X149507367Y-92837697D01*
X149503248Y-92833153D01*
X149499594Y-92828226D01*
X149496441Y-92822965D01*
X149493819Y-92817421D01*
X149491752Y-92811646D01*
X149490262Y-92805696D01*
X149489362Y-92799629D01*
X149489061Y-92793503D01*
X149489362Y-92787377D01*
X149490262Y-92781310D01*
X149491752Y-92775360D01*
X149493819Y-92769585D01*
X149496441Y-92764041D01*
X149499594Y-92758780D01*
X149503248Y-92753853D01*
X149507367Y-92749309D01*
X149595756Y-92660920D01*
X149600300Y-92656801D01*
X149605227Y-92653147D01*
X149610488Y-92649994D01*
X149616032Y-92647372D01*
X149621807Y-92645305D01*
X149627757Y-92643815D01*
X149633824Y-92642915D01*
X149639950Y-92642614D01*
X149646076Y-92642915D01*
X149646076Y-92642915D01*
G37*
D21*
X149843243Y-92996796D03*
D14*
G36*
X149999629Y-92289362D02*
G01*
X150005696Y-92290262D01*
X150011646Y-92291752D01*
X150017421Y-92293819D01*
X150022965Y-92296441D01*
X150028226Y-92299594D01*
X150033153Y-92303248D01*
X150037697Y-92307367D01*
X150532672Y-92802342D01*
X150536791Y-92806886D01*
X150540445Y-92811813D01*
X150543598Y-92817074D01*
X150546220Y-92822618D01*
X150548287Y-92828393D01*
X150549777Y-92834343D01*
X150550677Y-92840410D01*
X150550978Y-92846536D01*
X150550677Y-92852662D01*
X150549777Y-92858729D01*
X150548287Y-92864679D01*
X150546220Y-92870454D01*
X150543598Y-92875998D01*
X150540445Y-92881259D01*
X150536791Y-92886186D01*
X150532672Y-92890730D01*
X150444283Y-92979119D01*
X150439739Y-92983238D01*
X150434812Y-92986892D01*
X150429551Y-92990045D01*
X150424007Y-92992667D01*
X150418232Y-92994734D01*
X150412282Y-92996224D01*
X150406215Y-92997124D01*
X150400089Y-92997425D01*
X150393963Y-92997124D01*
X150387896Y-92996224D01*
X150381946Y-92994734D01*
X150376171Y-92992667D01*
X150370627Y-92990045D01*
X150365366Y-92986892D01*
X150360439Y-92983238D01*
X150355895Y-92979119D01*
X149860920Y-92484144D01*
X149856801Y-92479600D01*
X149853147Y-92474673D01*
X149849994Y-92469412D01*
X149847372Y-92463868D01*
X149845305Y-92458093D01*
X149843815Y-92452143D01*
X149842915Y-92446076D01*
X149842614Y-92439950D01*
X149842915Y-92433824D01*
X149843815Y-92427757D01*
X149845305Y-92421807D01*
X149847372Y-92416032D01*
X149849994Y-92410488D01*
X149853147Y-92405227D01*
X149856801Y-92400300D01*
X149860920Y-92395756D01*
X149949309Y-92307367D01*
X149953853Y-92303248D01*
X149958780Y-92299594D01*
X149964041Y-92296441D01*
X149969585Y-92293819D01*
X149975360Y-92291752D01*
X149981310Y-92290262D01*
X149987377Y-92289362D01*
X149993503Y-92289061D01*
X149999629Y-92289362D01*
X149999629Y-92289362D01*
G37*
D21*
X150196796Y-92643243D03*
D14*
G36*
X150353182Y-91935808D02*
G01*
X150359249Y-91936708D01*
X150365199Y-91938198D01*
X150370974Y-91940265D01*
X150376518Y-91942887D01*
X150381779Y-91946040D01*
X150386706Y-91949694D01*
X150391250Y-91953813D01*
X150886225Y-92448788D01*
X150890344Y-92453332D01*
X150893998Y-92458259D01*
X150897151Y-92463520D01*
X150899773Y-92469064D01*
X150901840Y-92474839D01*
X150903330Y-92480789D01*
X150904230Y-92486856D01*
X150904531Y-92492982D01*
X150904230Y-92499108D01*
X150903330Y-92505175D01*
X150901840Y-92511125D01*
X150899773Y-92516900D01*
X150897151Y-92522444D01*
X150893998Y-92527705D01*
X150890344Y-92532632D01*
X150886225Y-92537176D01*
X150797836Y-92625565D01*
X150793292Y-92629684D01*
X150788365Y-92633338D01*
X150783104Y-92636491D01*
X150777560Y-92639113D01*
X150771785Y-92641180D01*
X150765835Y-92642670D01*
X150759768Y-92643570D01*
X150753642Y-92643871D01*
X150747516Y-92643570D01*
X150741449Y-92642670D01*
X150735499Y-92641180D01*
X150729724Y-92639113D01*
X150724180Y-92636491D01*
X150718919Y-92633338D01*
X150713992Y-92629684D01*
X150709448Y-92625565D01*
X150214473Y-92130590D01*
X150210354Y-92126046D01*
X150206700Y-92121119D01*
X150203547Y-92115858D01*
X150200925Y-92110314D01*
X150198858Y-92104539D01*
X150197368Y-92098589D01*
X150196468Y-92092522D01*
X150196167Y-92086396D01*
X150196468Y-92080270D01*
X150197368Y-92074203D01*
X150198858Y-92068253D01*
X150200925Y-92062478D01*
X150203547Y-92056934D01*
X150206700Y-92051673D01*
X150210354Y-92046746D01*
X150214473Y-92042202D01*
X150302862Y-91953813D01*
X150307406Y-91949694D01*
X150312333Y-91946040D01*
X150317594Y-91942887D01*
X150323138Y-91940265D01*
X150328913Y-91938198D01*
X150334863Y-91936708D01*
X150340930Y-91935808D01*
X150347056Y-91935507D01*
X150353182Y-91935808D01*
X150353182Y-91935808D01*
G37*
D21*
X150550349Y-92289689D03*
D14*
G36*
X150706736Y-91582255D02*
G01*
X150712803Y-91583155D01*
X150718753Y-91584645D01*
X150724528Y-91586712D01*
X150730072Y-91589334D01*
X150735333Y-91592487D01*
X150740260Y-91596141D01*
X150744804Y-91600260D01*
X151239779Y-92095235D01*
X151243898Y-92099779D01*
X151247552Y-92104706D01*
X151250705Y-92109967D01*
X151253327Y-92115511D01*
X151255394Y-92121286D01*
X151256884Y-92127236D01*
X151257784Y-92133303D01*
X151258085Y-92139429D01*
X151257784Y-92145555D01*
X151256884Y-92151622D01*
X151255394Y-92157572D01*
X151253327Y-92163347D01*
X151250705Y-92168891D01*
X151247552Y-92174152D01*
X151243898Y-92179079D01*
X151239779Y-92183623D01*
X151151390Y-92272012D01*
X151146846Y-92276131D01*
X151141919Y-92279785D01*
X151136658Y-92282938D01*
X151131114Y-92285560D01*
X151125339Y-92287627D01*
X151119389Y-92289117D01*
X151113322Y-92290017D01*
X151107196Y-92290318D01*
X151101070Y-92290017D01*
X151095003Y-92289117D01*
X151089053Y-92287627D01*
X151083278Y-92285560D01*
X151077734Y-92282938D01*
X151072473Y-92279785D01*
X151067546Y-92276131D01*
X151063002Y-92272012D01*
X150568027Y-91777037D01*
X150563908Y-91772493D01*
X150560254Y-91767566D01*
X150557101Y-91762305D01*
X150554479Y-91756761D01*
X150552412Y-91750986D01*
X150550922Y-91745036D01*
X150550022Y-91738969D01*
X150549721Y-91732843D01*
X150550022Y-91726717D01*
X150550922Y-91720650D01*
X150552412Y-91714700D01*
X150554479Y-91708925D01*
X150557101Y-91703381D01*
X150560254Y-91698120D01*
X150563908Y-91693193D01*
X150568027Y-91688649D01*
X150656416Y-91600260D01*
X150660960Y-91596141D01*
X150665887Y-91592487D01*
X150671148Y-91589334D01*
X150676692Y-91586712D01*
X150682467Y-91584645D01*
X150688417Y-91583155D01*
X150694484Y-91582255D01*
X150700610Y-91581954D01*
X150706736Y-91582255D01*
X150706736Y-91582255D01*
G37*
D21*
X150903903Y-91936136D03*
D14*
G36*
X147755265Y-90812295D02*
G01*
X147779533Y-90815895D01*
X147803332Y-90821856D01*
X147826431Y-90830121D01*
X147848610Y-90840611D01*
X147869653Y-90853223D01*
X147889359Y-90867838D01*
X147907537Y-90884314D01*
X148296447Y-91273224D01*
X148312923Y-91291402D01*
X148327538Y-91311108D01*
X148340150Y-91332151D01*
X148350640Y-91354330D01*
X148358905Y-91377429D01*
X148364866Y-91401228D01*
X148368466Y-91425496D01*
X148369670Y-91450000D01*
X148368466Y-91474504D01*
X148364866Y-91498772D01*
X148358905Y-91522571D01*
X148350640Y-91545670D01*
X148340150Y-91567849D01*
X148327538Y-91588892D01*
X148312923Y-91608598D01*
X148296447Y-91626776D01*
X147907537Y-92015686D01*
X147889359Y-92032162D01*
X147869653Y-92046777D01*
X147848610Y-92059389D01*
X147826431Y-92069879D01*
X147803332Y-92078144D01*
X147779533Y-92084105D01*
X147755265Y-92087705D01*
X147730761Y-92088909D01*
X147706257Y-92087705D01*
X147681989Y-92084105D01*
X147658190Y-92078144D01*
X147635091Y-92069879D01*
X147612912Y-92059389D01*
X147591869Y-92046777D01*
X147572163Y-92032162D01*
X147553985Y-92015686D01*
X147165075Y-91626776D01*
X147148599Y-91608598D01*
X147133984Y-91588892D01*
X147121372Y-91567849D01*
X147110882Y-91545670D01*
X147102617Y-91522571D01*
X147096656Y-91498772D01*
X147093056Y-91474504D01*
X147091852Y-91450000D01*
X147093056Y-91425496D01*
X147096656Y-91401228D01*
X147102617Y-91377429D01*
X147110882Y-91354330D01*
X147121372Y-91332151D01*
X147133984Y-91311108D01*
X147148599Y-91291402D01*
X147165075Y-91273224D01*
X147553985Y-90884314D01*
X147572163Y-90867838D01*
X147591869Y-90853223D01*
X147612912Y-90840611D01*
X147635091Y-90830121D01*
X147658190Y-90821856D01*
X147681989Y-90815895D01*
X147706257Y-90812295D01*
X147730761Y-90811091D01*
X147755265Y-90812295D01*
X147755265Y-90812295D01*
G37*
D22*
X147730761Y-91450000D03*
D14*
G36*
X148674504Y-89893056D02*
G01*
X148698772Y-89896656D01*
X148722571Y-89902617D01*
X148745670Y-89910882D01*
X148767849Y-89921372D01*
X148788892Y-89933984D01*
X148808598Y-89948599D01*
X148826776Y-89965075D01*
X149215686Y-90353985D01*
X149232162Y-90372163D01*
X149246777Y-90391869D01*
X149259389Y-90412912D01*
X149269879Y-90435091D01*
X149278144Y-90458190D01*
X149284105Y-90481989D01*
X149287705Y-90506257D01*
X149288909Y-90530761D01*
X149287705Y-90555265D01*
X149284105Y-90579533D01*
X149278144Y-90603332D01*
X149269879Y-90626431D01*
X149259389Y-90648610D01*
X149246777Y-90669653D01*
X149232162Y-90689359D01*
X149215686Y-90707537D01*
X148826776Y-91096447D01*
X148808598Y-91112923D01*
X148788892Y-91127538D01*
X148767849Y-91140150D01*
X148745670Y-91150640D01*
X148722571Y-91158905D01*
X148698772Y-91164866D01*
X148674504Y-91168466D01*
X148650000Y-91169670D01*
X148625496Y-91168466D01*
X148601228Y-91164866D01*
X148577429Y-91158905D01*
X148554330Y-91150640D01*
X148532151Y-91140150D01*
X148511108Y-91127538D01*
X148491402Y-91112923D01*
X148473224Y-91096447D01*
X148084314Y-90707537D01*
X148067838Y-90689359D01*
X148053223Y-90669653D01*
X148040611Y-90648610D01*
X148030121Y-90626431D01*
X148021856Y-90603332D01*
X148015895Y-90579533D01*
X148012295Y-90555265D01*
X148011091Y-90530761D01*
X148012295Y-90506257D01*
X148015895Y-90481989D01*
X148021856Y-90458190D01*
X148030121Y-90435091D01*
X148040611Y-90412912D01*
X148053223Y-90391869D01*
X148067838Y-90372163D01*
X148084314Y-90353985D01*
X148473224Y-89965075D01*
X148491402Y-89948599D01*
X148511108Y-89933984D01*
X148532151Y-89921372D01*
X148554330Y-89910882D01*
X148577429Y-89902617D01*
X148601228Y-89896656D01*
X148625496Y-89893056D01*
X148650000Y-89891852D01*
X148674504Y-89893056D01*
X148674504Y-89893056D01*
G37*
D22*
X148650000Y-90530761D03*
D14*
G36*
X148674504Y-91731534D02*
G01*
X148698772Y-91735134D01*
X148722571Y-91741095D01*
X148745670Y-91749360D01*
X148767849Y-91759850D01*
X148788892Y-91772462D01*
X148808598Y-91787077D01*
X148826776Y-91803553D01*
X149215686Y-92192463D01*
X149232162Y-92210641D01*
X149246777Y-92230347D01*
X149259389Y-92251390D01*
X149269879Y-92273569D01*
X149278144Y-92296668D01*
X149284105Y-92320467D01*
X149287705Y-92344735D01*
X149288909Y-92369239D01*
X149287705Y-92393743D01*
X149284105Y-92418011D01*
X149278144Y-92441810D01*
X149269879Y-92464909D01*
X149259389Y-92487088D01*
X149246777Y-92508131D01*
X149232162Y-92527837D01*
X149215686Y-92546015D01*
X148826776Y-92934925D01*
X148808598Y-92951401D01*
X148788892Y-92966016D01*
X148767849Y-92978628D01*
X148745670Y-92989118D01*
X148722571Y-92997383D01*
X148698772Y-93003344D01*
X148674504Y-93006944D01*
X148650000Y-93008148D01*
X148625496Y-93006944D01*
X148601228Y-93003344D01*
X148577429Y-92997383D01*
X148554330Y-92989118D01*
X148532151Y-92978628D01*
X148511108Y-92966016D01*
X148491402Y-92951401D01*
X148473224Y-92934925D01*
X148084314Y-92546015D01*
X148067838Y-92527837D01*
X148053223Y-92508131D01*
X148040611Y-92487088D01*
X148030121Y-92464909D01*
X148021856Y-92441810D01*
X148015895Y-92418011D01*
X148012295Y-92393743D01*
X148011091Y-92369239D01*
X148012295Y-92344735D01*
X148015895Y-92320467D01*
X148021856Y-92296668D01*
X148030121Y-92273569D01*
X148040611Y-92251390D01*
X148053223Y-92230347D01*
X148067838Y-92210641D01*
X148084314Y-92192463D01*
X148473224Y-91803553D01*
X148491402Y-91787077D01*
X148511108Y-91772462D01*
X148532151Y-91759850D01*
X148554330Y-91749360D01*
X148577429Y-91741095D01*
X148601228Y-91735134D01*
X148625496Y-91731534D01*
X148650000Y-91730330D01*
X148674504Y-91731534D01*
X148674504Y-91731534D01*
G37*
D22*
X148650000Y-92369239D03*
D14*
G36*
X149593743Y-90812295D02*
G01*
X149618011Y-90815895D01*
X149641810Y-90821856D01*
X149664909Y-90830121D01*
X149687088Y-90840611D01*
X149708131Y-90853223D01*
X149727837Y-90867838D01*
X149746015Y-90884314D01*
X150134925Y-91273224D01*
X150151401Y-91291402D01*
X150166016Y-91311108D01*
X150178628Y-91332151D01*
X150189118Y-91354330D01*
X150197383Y-91377429D01*
X150203344Y-91401228D01*
X150206944Y-91425496D01*
X150208148Y-91450000D01*
X150206944Y-91474504D01*
X150203344Y-91498772D01*
X150197383Y-91522571D01*
X150189118Y-91545670D01*
X150178628Y-91567849D01*
X150166016Y-91588892D01*
X150151401Y-91608598D01*
X150134925Y-91626776D01*
X149746015Y-92015686D01*
X149727837Y-92032162D01*
X149708131Y-92046777D01*
X149687088Y-92059389D01*
X149664909Y-92069879D01*
X149641810Y-92078144D01*
X149618011Y-92084105D01*
X149593743Y-92087705D01*
X149569239Y-92088909D01*
X149544735Y-92087705D01*
X149520467Y-92084105D01*
X149496668Y-92078144D01*
X149473569Y-92069879D01*
X149451390Y-92059389D01*
X149430347Y-92046777D01*
X149410641Y-92032162D01*
X149392463Y-92015686D01*
X149003553Y-91626776D01*
X148987077Y-91608598D01*
X148972462Y-91588892D01*
X148959850Y-91567849D01*
X148949360Y-91545670D01*
X148941095Y-91522571D01*
X148935134Y-91498772D01*
X148931534Y-91474504D01*
X148930330Y-91450000D01*
X148931534Y-91425496D01*
X148935134Y-91401228D01*
X148941095Y-91377429D01*
X148949360Y-91354330D01*
X148959850Y-91332151D01*
X148972462Y-91311108D01*
X148987077Y-91291402D01*
X149003553Y-91273224D01*
X149392463Y-90884314D01*
X149410641Y-90867838D01*
X149430347Y-90853223D01*
X149451390Y-90840611D01*
X149473569Y-90830121D01*
X149496668Y-90821856D01*
X149520467Y-90815895D01*
X149544735Y-90812295D01*
X149569239Y-90811091D01*
X149593743Y-90812295D01*
X149593743Y-90812295D01*
G37*
D22*
X149569239Y-91450000D03*
M02*
