G04 #@! TF.GenerationSoftware,KiCad,Pcbnew,5.0.0-fee4fd1~66~ubuntu18.04.1*
G04 #@! TF.CreationDate,2018-09-07T22:29:42-07:00*
G04 #@! TF.ProjectId,trevor2,747265766F72322E6B696361645F7063,rev?*
G04 #@! TF.SameCoordinates,Original*
G04 #@! TF.FileFunction,Profile,NP*
%FSLAX46Y46*%
G04 Gerber Fmt 4.6, Leading zero omitted, Abs format (unit mm)*
G04 Created by KiCad (PCBNEW 5.0.0-fee4fd1~66~ubuntu18.04.1) date Fri Sep  7 22:29:42 2018*
%MOMM*%
%LPD*%
G01*
G04 APERTURE LIST*
%ADD10C,0.150000*%
G04 APERTURE END LIST*
D10*
X138200000Y-79000000D02*
X138000000Y-78400000D01*
X138600000Y-78900000D02*
X138000000Y-78400000D01*
X140100000Y-80100000D02*
X138600000Y-78900000D01*
X140600000Y-80500000D02*
X140100000Y-80100000D01*
X141100000Y-80800000D02*
X140600000Y-80500000D01*
X142000000Y-81000000D02*
X141100000Y-80800000D01*
X142800000Y-81100000D02*
X142000000Y-81000000D01*
X143200000Y-81100000D02*
X142800000Y-81100000D01*
X143900000Y-80800000D02*
X143200000Y-81100000D01*
X144300000Y-80800000D02*
X143900000Y-80800000D01*
X144500000Y-81000000D02*
X144300000Y-80800000D01*
X144800000Y-84300000D02*
X144500000Y-81000000D01*
X144800000Y-85600000D02*
X144800000Y-84300000D01*
X144700000Y-85900000D02*
X144800000Y-85600000D01*
X144500000Y-85900000D02*
X144700000Y-85900000D01*
X143400000Y-84900000D02*
X144500000Y-85900000D01*
X142000000Y-84000000D02*
X143400000Y-84900000D01*
X140400000Y-83500000D02*
X142000000Y-84000000D01*
X138200000Y-79000000D02*
X140400000Y-83500000D01*
X131500000Y-81800000D02*
X130500000Y-81100000D01*
X132700000Y-82700000D02*
X131500000Y-81800000D01*
X133800000Y-83700000D02*
X132700000Y-82700000D01*
X136300000Y-83500000D02*
X133800000Y-83700000D01*
X134400000Y-79400000D02*
X136300000Y-83500000D01*
X133100000Y-75900000D02*
X134400000Y-79400000D01*
X132700000Y-74400000D02*
X133100000Y-75900000D01*
X132600000Y-73300000D02*
X132700000Y-74400000D01*
X132800000Y-72100000D02*
X132600000Y-73300000D01*
X133000000Y-71800000D02*
X132800000Y-72100000D01*
X133600000Y-71500000D02*
X133000000Y-71800000D01*
X134300000Y-71600000D02*
X133600000Y-71500000D01*
X135100000Y-71800000D02*
X134300000Y-71600000D01*
X136200000Y-72300000D02*
X135100000Y-71800000D01*
X137000000Y-72900000D02*
X136200000Y-72300000D01*
X139900000Y-75600000D02*
X137000000Y-72900000D01*
X139000000Y-72500000D02*
X139900000Y-75600000D01*
X138400000Y-70500000D02*
X139000000Y-72500000D01*
X138100000Y-69100000D02*
X138400000Y-70500000D01*
X138000000Y-68500000D02*
X138100000Y-69100000D01*
X138000000Y-68000000D02*
X138000000Y-68500000D01*
X138200000Y-67400000D02*
X138000000Y-68000000D01*
X138600000Y-67100000D02*
X138200000Y-67400000D01*
X139100000Y-67000000D02*
X138600000Y-67100000D01*
X139700000Y-67200000D02*
X139100000Y-67000000D01*
X140100000Y-67400000D02*
X139700000Y-67200000D01*
X141400000Y-68300000D02*
X140100000Y-67400000D01*
X142200000Y-69000000D02*
X141400000Y-68300000D01*
X142900000Y-70100000D02*
X142200000Y-69000000D01*
X143000000Y-70800000D02*
X142900000Y-70100000D01*
X142800000Y-71200000D02*
X143000000Y-70800000D01*
X142400000Y-71200000D02*
X142800000Y-71200000D01*
X142200000Y-71800000D02*
X142400000Y-71200000D01*
X141900000Y-71900000D02*
X142200000Y-71800000D01*
X140500000Y-70400000D02*
X141900000Y-71900000D01*
X141800000Y-73100000D02*
X140500000Y-70400000D01*
X142600000Y-75100000D02*
X141800000Y-73100000D01*
X143100000Y-76400000D02*
X142600000Y-75100000D01*
X143300000Y-77200000D02*
X143100000Y-76400000D01*
X143700000Y-77200000D02*
X143300000Y-77200000D01*
X143900000Y-77100000D02*
X143700000Y-77200000D01*
X144000000Y-76600000D02*
X143900000Y-77100000D01*
X143900000Y-74800000D02*
X144000000Y-76600000D01*
X144000000Y-73700000D02*
X143900000Y-74800000D01*
X144500000Y-72700000D02*
X144000000Y-73700000D01*
X145100000Y-72400000D02*
X144500000Y-72700000D01*
X145700000Y-72400000D02*
X145100000Y-72400000D01*
X146200000Y-72500000D02*
X145700000Y-72400000D01*
X146900000Y-72800000D02*
X146200000Y-72500000D01*
X147400000Y-72900000D02*
X146900000Y-72800000D01*
X147800000Y-73200000D02*
X147400000Y-72900000D01*
X149400000Y-74700000D02*
X147800000Y-73200000D01*
X148100000Y-71900000D02*
X149400000Y-74700000D01*
X147600000Y-70600000D02*
X148100000Y-71900000D01*
X147500000Y-69800000D02*
X147600000Y-70600000D01*
X147500000Y-69300000D02*
X147500000Y-69800000D01*
X147900000Y-68900000D02*
X147500000Y-69300000D01*
X148700000Y-68700000D02*
X147900000Y-68900000D01*
X150000000Y-68700000D02*
X148700000Y-68700000D01*
X150800000Y-68800000D02*
X150000000Y-68700000D01*
X151600000Y-69100000D02*
X150800000Y-68800000D01*
X152400000Y-69600000D02*
X151600000Y-69100000D01*
X153400000Y-70800000D02*
X152400000Y-69600000D01*
X153600000Y-71300000D02*
X153400000Y-70800000D01*
X153500000Y-71600000D02*
X153600000Y-71300000D01*
X153300000Y-71800000D02*
X153500000Y-71600000D01*
X153000000Y-71800000D02*
X153300000Y-71800000D01*
X153200000Y-72100000D02*
X153000000Y-71800000D01*
X153200000Y-72900000D02*
X153200000Y-72100000D01*
X153100000Y-73500000D02*
X153200000Y-72900000D01*
X151300000Y-72200000D02*
X153100000Y-73500000D01*
X150500000Y-71900000D02*
X151300000Y-72200000D01*
X151500000Y-73400000D02*
X150500000Y-71900000D01*
X151800000Y-74300000D02*
X151500000Y-73400000D01*
X152100000Y-74500000D02*
X151800000Y-74300000D01*
X152300000Y-75100000D02*
X152100000Y-74500000D01*
X153200000Y-76500000D02*
X152300000Y-75100000D01*
X153900000Y-78000000D02*
X153200000Y-76500000D01*
X154100000Y-78900000D02*
X153900000Y-78000000D01*
X154100000Y-79500000D02*
X154100000Y-78900000D01*
X153500000Y-79900000D02*
X154100000Y-79500000D01*
X151900000Y-79600000D02*
X153500000Y-79900000D01*
X150700000Y-79100000D02*
X151900000Y-79600000D01*
X148900000Y-77900000D02*
X150700000Y-79100000D01*
X146700000Y-76000000D02*
X148900000Y-77900000D01*
X147200000Y-77800000D02*
X146700000Y-76000000D01*
X147600000Y-80400000D02*
X147200000Y-77800000D01*
X147900000Y-82500000D02*
X147600000Y-80400000D01*
X148000000Y-84200000D02*
X147900000Y-82500000D01*
X148100000Y-84900000D02*
X148000000Y-84200000D01*
X148500000Y-85200000D02*
X148100000Y-84900000D01*
X151100000Y-85400000D02*
X148500000Y-85200000D01*
X153900000Y-86000000D02*
X151100000Y-85400000D01*
X154900000Y-83000000D02*
X153900000Y-86000000D01*
X156000000Y-80700000D02*
X154900000Y-83000000D01*
X156600000Y-79500000D02*
X156000000Y-80700000D01*
X157600000Y-77800000D02*
X156600000Y-79500000D01*
X158600000Y-76600000D02*
X157600000Y-77800000D01*
X159300000Y-76000000D02*
X158600000Y-76600000D01*
X160000000Y-75600000D02*
X159300000Y-76000000D01*
X160900000Y-75300000D02*
X160000000Y-75600000D01*
X161800000Y-75300000D02*
X160900000Y-75300000D01*
X163600000Y-75400000D02*
X161800000Y-75300000D01*
X163900000Y-75800000D02*
X163600000Y-75400000D01*
X164400000Y-76000000D02*
X163900000Y-75800000D01*
X165400000Y-76100000D02*
X164400000Y-76000000D01*
X165800000Y-76400000D02*
X165400000Y-76100000D01*
X166500000Y-76700000D02*
X165800000Y-76400000D01*
X167700000Y-77100000D02*
X166500000Y-76700000D01*
X169000000Y-77400000D02*
X167700000Y-77100000D01*
X169500000Y-77800000D02*
X169000000Y-77400000D01*
X174200000Y-79300000D02*
X169500000Y-77800000D01*
X175800000Y-80000000D02*
X174200000Y-79300000D01*
X176800000Y-80500000D02*
X175800000Y-80000000D01*
X178700000Y-80300000D02*
X176800000Y-80500000D01*
X181800000Y-80300000D02*
X178700000Y-80300000D01*
X183300000Y-80200000D02*
X181800000Y-80300000D01*
X188400000Y-79400000D02*
X183300000Y-80200000D01*
X190200000Y-79300000D02*
X188400000Y-79400000D01*
X192000000Y-79200000D02*
X190200000Y-79300000D01*
X194500000Y-79500000D02*
X192000000Y-79200000D01*
X195700000Y-79800000D02*
X194500000Y-79500000D01*
X196800000Y-80300000D02*
X195700000Y-79800000D01*
X197600000Y-80700000D02*
X196800000Y-80300000D01*
X198400000Y-81300000D02*
X197600000Y-80700000D01*
X198900000Y-81800000D02*
X198400000Y-81300000D01*
X199100000Y-82200000D02*
X198900000Y-81800000D01*
X199100000Y-82600000D02*
X199100000Y-82200000D01*
X199000000Y-82800000D02*
X199100000Y-82600000D01*
X198600000Y-82800000D02*
X199000000Y-82800000D01*
X197700000Y-82400000D02*
X198600000Y-82800000D01*
X198300000Y-83800000D02*
X197700000Y-82400000D01*
X198200000Y-84600000D02*
X198300000Y-83800000D01*
X197700000Y-84600000D02*
X198200000Y-84600000D01*
X195700000Y-83100000D02*
X197700000Y-84600000D01*
X193700000Y-82100000D02*
X195700000Y-83100000D01*
X191600000Y-81500000D02*
X193700000Y-82100000D01*
X190600000Y-81300000D02*
X191600000Y-81500000D01*
X189700000Y-81400000D02*
X190600000Y-81300000D01*
X188700000Y-81900000D02*
X189700000Y-81400000D01*
X186300000Y-82100000D02*
X188700000Y-81900000D01*
X181600000Y-82600000D02*
X186300000Y-82100000D01*
X179000000Y-82500000D02*
X181600000Y-82600000D01*
X176600000Y-82300000D02*
X179000000Y-82500000D01*
X174400000Y-82500000D02*
X176600000Y-82300000D01*
X173900000Y-82300000D02*
X174400000Y-82500000D01*
X173200000Y-82200000D02*
X173900000Y-82300000D01*
X172700000Y-81900000D02*
X173200000Y-82200000D01*
X172000000Y-81800000D02*
X172700000Y-81900000D01*
X171600000Y-81600000D02*
X172000000Y-81800000D01*
X170900000Y-81700000D02*
X171600000Y-81600000D01*
X170600000Y-81400000D02*
X170900000Y-81700000D01*
X166800000Y-80200000D02*
X170600000Y-81400000D01*
X166100000Y-80300000D02*
X166800000Y-80200000D01*
X165400000Y-79700000D02*
X166100000Y-80300000D01*
X164700000Y-79700000D02*
X165400000Y-79700000D01*
X163800000Y-79000000D02*
X164700000Y-79700000D01*
X163100000Y-78800000D02*
X163800000Y-79000000D01*
X162300000Y-79300000D02*
X163100000Y-78800000D01*
X162300000Y-78600000D02*
X162300000Y-79300000D01*
X162100000Y-78100000D02*
X162300000Y-78600000D01*
X161400000Y-77800000D02*
X162100000Y-78100000D01*
X160500000Y-80300000D02*
X161400000Y-77800000D01*
X159300000Y-83400000D02*
X160500000Y-80300000D01*
X158400000Y-85500000D02*
X159300000Y-83400000D01*
X157300000Y-87700000D02*
X158400000Y-85500000D01*
X159200000Y-87100000D02*
X157300000Y-87700000D01*
X162200000Y-86800000D02*
X159200000Y-87100000D01*
X164600000Y-86800000D02*
X162200000Y-86800000D01*
X166500000Y-86900000D02*
X164600000Y-86800000D01*
X171100000Y-87600000D02*
X166500000Y-86900000D01*
X172800000Y-88100000D02*
X171100000Y-87600000D01*
X174900000Y-88900000D02*
X172800000Y-88100000D01*
X175800000Y-89300000D02*
X174900000Y-88900000D01*
X176400000Y-89700000D02*
X175800000Y-89300000D01*
X177600000Y-90700000D02*
X176400000Y-89700000D01*
X178300000Y-90100000D02*
X177600000Y-90700000D01*
X183700000Y-87000000D02*
X178300000Y-90100000D01*
X184900000Y-86500000D02*
X183700000Y-87000000D01*
X186000000Y-86200000D02*
X184900000Y-86500000D01*
X186500000Y-86200000D02*
X186000000Y-86200000D01*
X186800000Y-86400000D02*
X186500000Y-86200000D01*
X186900000Y-86600000D02*
X186800000Y-86400000D01*
X186600000Y-87300000D02*
X186900000Y-86600000D01*
X185300000Y-88400000D02*
X186600000Y-87300000D01*
X183300000Y-89800000D02*
X185300000Y-88400000D01*
X181800000Y-90900000D02*
X183300000Y-89800000D01*
X180700000Y-91800000D02*
X181800000Y-90900000D01*
X183000000Y-92500000D02*
X180700000Y-91800000D01*
X184600000Y-93200000D02*
X183000000Y-92500000D01*
X186200000Y-94000000D02*
X184600000Y-93200000D01*
X187600000Y-95400000D02*
X186200000Y-94000000D01*
X188400000Y-96500000D02*
X187600000Y-95400000D01*
X188700000Y-97900000D02*
X188400000Y-96500000D01*
X188600000Y-98900000D02*
X188700000Y-97900000D01*
X187900000Y-100300000D02*
X188600000Y-98900000D01*
X186900000Y-101500000D02*
X187900000Y-100300000D01*
X185800000Y-102500000D02*
X186900000Y-101500000D01*
X184500000Y-103400000D02*
X185800000Y-102500000D01*
X182200000Y-104600000D02*
X184500000Y-103400000D01*
X181700000Y-104700000D02*
X182200000Y-104600000D01*
X182500000Y-107000000D02*
X181700000Y-104700000D01*
X182700000Y-107900000D02*
X182500000Y-107000000D01*
X182700000Y-108600000D02*
X182700000Y-107900000D01*
X182500000Y-109200000D02*
X182700000Y-108600000D01*
X182200000Y-109400000D02*
X182500000Y-109200000D01*
X181600000Y-109300000D02*
X182200000Y-109400000D01*
X181200000Y-108900000D02*
X181600000Y-109300000D01*
X180500000Y-108000000D02*
X181200000Y-108900000D01*
X179200000Y-105700000D02*
X180500000Y-108000000D01*
X178000000Y-106000000D02*
X179200000Y-105700000D01*
X174500000Y-107000000D02*
X178000000Y-106000000D01*
X169900000Y-107700000D02*
X174500000Y-107000000D01*
X167500000Y-107900000D02*
X169900000Y-107700000D01*
X165100000Y-108000000D02*
X167500000Y-107900000D01*
X160800000Y-107900000D02*
X165100000Y-108000000D01*
X158500000Y-107800000D02*
X160800000Y-107900000D01*
X155400000Y-107700000D02*
X158500000Y-107800000D01*
X153700000Y-107500000D02*
X155400000Y-107700000D01*
X152100000Y-107300000D02*
X153700000Y-107500000D01*
X151800000Y-107300000D02*
X152100000Y-107300000D01*
X151200000Y-107800000D02*
X151800000Y-107300000D01*
X150400000Y-110700000D02*
X151200000Y-107800000D01*
X150200000Y-111800000D02*
X150400000Y-110700000D01*
X150900000Y-111700000D02*
X150200000Y-111800000D01*
X151600000Y-111800000D02*
X150900000Y-111700000D01*
X152700000Y-112100000D02*
X151600000Y-111800000D01*
X153200000Y-112100000D02*
X152700000Y-112100000D01*
X154000000Y-112500000D02*
X153200000Y-112100000D01*
X154500000Y-112500000D02*
X154000000Y-112500000D01*
X155000000Y-112800000D02*
X154500000Y-112500000D01*
X155800000Y-112800000D02*
X155000000Y-112800000D01*
X156300000Y-113100000D02*
X155800000Y-112800000D01*
X158000000Y-113600000D02*
X156300000Y-113100000D01*
X160000000Y-113900000D02*
X158000000Y-113600000D01*
X160700000Y-113900000D02*
X160000000Y-113900000D01*
X161100000Y-114200000D02*
X160700000Y-113900000D01*
X162700000Y-114600000D02*
X161100000Y-114200000D01*
X163800000Y-115000000D02*
X162700000Y-114600000D01*
X164800000Y-115500000D02*
X163800000Y-115000000D01*
X165400000Y-115700000D02*
X164800000Y-115500000D01*
X166100000Y-115700000D02*
X165400000Y-115700000D01*
X168500000Y-117100000D02*
X166100000Y-115700000D01*
X170800000Y-117900000D02*
X168500000Y-117100000D01*
X174700000Y-118700000D02*
X170800000Y-117900000D01*
X179100000Y-119300000D02*
X174700000Y-118700000D01*
X180100000Y-119600000D02*
X179100000Y-119300000D01*
X182200000Y-120800000D02*
X180100000Y-119600000D01*
X183600000Y-121400000D02*
X182200000Y-120800000D01*
X185100000Y-121900000D02*
X183600000Y-121400000D01*
X186700000Y-122300000D02*
X185100000Y-121900000D01*
X187100000Y-122500000D02*
X186700000Y-122300000D01*
X187100000Y-122900000D02*
X187100000Y-122500000D01*
X186500000Y-123200000D02*
X187100000Y-122900000D01*
X185600000Y-123400000D02*
X186500000Y-123200000D01*
X184700000Y-123400000D02*
X185600000Y-123400000D01*
X185100000Y-123700000D02*
X184700000Y-123400000D01*
X185000000Y-124100000D02*
X185100000Y-123700000D01*
X184300000Y-124300000D02*
X185000000Y-124100000D01*
X183500000Y-124300000D02*
X184300000Y-124300000D01*
X182000000Y-124200000D02*
X183500000Y-124300000D01*
X180700000Y-123700000D02*
X182000000Y-124200000D01*
X179200000Y-122700000D02*
X180700000Y-123700000D01*
X177300000Y-121000000D02*
X179200000Y-122700000D01*
X176400000Y-121300000D02*
X177300000Y-121000000D01*
X175900000Y-121100000D02*
X176400000Y-121300000D01*
X174300000Y-120800000D02*
X175900000Y-121100000D01*
X171900000Y-120300000D02*
X174300000Y-120800000D01*
X168400000Y-119300000D02*
X171900000Y-120300000D01*
X166200000Y-118500000D02*
X168400000Y-119300000D01*
X165200000Y-118000000D02*
X166200000Y-118500000D01*
X163800000Y-117300000D02*
X165200000Y-118000000D01*
X161500000Y-116900000D02*
X163800000Y-117300000D01*
X158000000Y-116500000D02*
X161500000Y-116900000D01*
X157000000Y-116100000D02*
X158000000Y-116500000D01*
X156500000Y-116100000D02*
X157000000Y-116100000D01*
X156000000Y-115900000D02*
X156500000Y-116100000D01*
X155200000Y-115900000D02*
X156000000Y-115900000D01*
X154800000Y-115600000D02*
X155200000Y-115900000D01*
X152100000Y-115000000D02*
X154800000Y-115600000D01*
X151000000Y-115000000D02*
X152100000Y-115000000D01*
X150500000Y-114700000D02*
X151000000Y-115000000D01*
X149600000Y-114600000D02*
X150500000Y-114700000D01*
X149300000Y-114300000D02*
X149600000Y-114600000D01*
X147800000Y-112600000D02*
X149300000Y-114300000D01*
X147100000Y-111500000D02*
X147800000Y-112600000D01*
X146900000Y-110300000D02*
X147100000Y-111500000D01*
X146800000Y-109200000D02*
X146900000Y-110300000D01*
X146900000Y-107800000D02*
X146800000Y-109200000D01*
X147000000Y-106400000D02*
X146900000Y-107800000D01*
X138500000Y-103600000D02*
X147000000Y-106400000D01*
X138000000Y-103600000D02*
X138500000Y-103600000D01*
X136900000Y-104200000D02*
X138000000Y-103600000D01*
X142200000Y-105800000D02*
X136900000Y-104200000D01*
X142400000Y-106000000D02*
X142200000Y-105800000D01*
X143800000Y-106800000D02*
X142400000Y-106000000D01*
X144700000Y-107700000D02*
X143800000Y-106800000D01*
X145100000Y-108300000D02*
X144700000Y-107700000D01*
X145000000Y-108700000D02*
X145100000Y-108300000D01*
X144500000Y-109300000D02*
X145000000Y-108700000D01*
X143900000Y-109800000D02*
X144500000Y-109300000D01*
X141800000Y-110500000D02*
X143900000Y-109800000D01*
X139900000Y-111300000D02*
X141800000Y-110500000D01*
X137800000Y-112100000D02*
X139900000Y-111300000D01*
X136800000Y-112600000D02*
X137800000Y-112100000D01*
X137300000Y-113000000D02*
X136800000Y-112600000D01*
X138900000Y-113900000D02*
X137300000Y-113000000D01*
X139900000Y-114500000D02*
X138900000Y-113900000D01*
X140400000Y-114900000D02*
X139900000Y-114500000D01*
X140300000Y-115200000D02*
X140400000Y-114900000D01*
X139900000Y-115400000D02*
X140300000Y-115200000D01*
X138800000Y-115600000D02*
X139900000Y-115400000D01*
X139200000Y-116100000D02*
X138800000Y-115600000D01*
X139100000Y-116500000D02*
X139200000Y-116100000D01*
X138800000Y-116700000D02*
X139100000Y-116500000D01*
X138200000Y-116700000D02*
X138800000Y-116700000D01*
X137400000Y-116500000D02*
X138200000Y-116700000D01*
X136400000Y-115900000D02*
X137400000Y-116500000D01*
X135600000Y-115100000D02*
X136400000Y-115900000D01*
X135100000Y-114400000D02*
X135600000Y-115100000D01*
X134800000Y-113900000D02*
X135100000Y-114400000D01*
X134600000Y-113200000D02*
X134800000Y-113900000D01*
X134600000Y-112400000D02*
X134600000Y-113200000D01*
X134900000Y-111700000D02*
X134600000Y-112400000D01*
X135300000Y-111100000D02*
X134900000Y-111700000D01*
X135900000Y-110600000D02*
X135300000Y-111100000D01*
X141000000Y-108300000D02*
X135900000Y-110600000D01*
X136400000Y-106900000D02*
X141000000Y-108300000D01*
X134800000Y-106300000D02*
X136400000Y-106900000D01*
X134000000Y-105700000D02*
X134800000Y-106300000D01*
X133600000Y-105200000D02*
X134000000Y-105700000D01*
X133500000Y-104900000D02*
X133600000Y-105200000D01*
X133400000Y-104500000D02*
X133500000Y-104900000D01*
X133500000Y-103900000D02*
X133400000Y-104500000D01*
X133900000Y-103100000D02*
X133500000Y-103900000D01*
X134300000Y-102700000D02*
X133900000Y-103100000D01*
X134900000Y-102100000D02*
X134300000Y-102700000D01*
X130300000Y-99900000D02*
X134900000Y-102100000D01*
X126400000Y-100500000D02*
X130300000Y-99900000D01*
X125700000Y-100600000D02*
X126400000Y-100500000D01*
X124600000Y-100700000D02*
X125700000Y-100600000D01*
X127500000Y-101900000D02*
X124600000Y-100700000D01*
X129500000Y-102500000D02*
X127500000Y-101900000D01*
X130700000Y-103000000D02*
X129500000Y-102500000D01*
X131200000Y-103400000D02*
X130700000Y-103000000D01*
X132000000Y-104200000D02*
X131200000Y-103400000D01*
X132400000Y-105100000D02*
X132000000Y-104200000D01*
X132100000Y-105900000D02*
X132400000Y-105100000D01*
X131500000Y-106300000D02*
X132100000Y-105900000D01*
X129800000Y-106900000D02*
X131500000Y-106300000D01*
X127500000Y-107500000D02*
X129800000Y-106900000D01*
X125600000Y-107700000D02*
X127500000Y-107500000D01*
X125000000Y-108000000D02*
X125600000Y-107700000D01*
X124300000Y-108100000D02*
X125000000Y-108000000D01*
X127000000Y-108900000D02*
X124300000Y-108100000D01*
X127300000Y-109400000D02*
X127000000Y-108900000D01*
X127200000Y-109700000D02*
X127300000Y-109400000D01*
X127000000Y-109900000D02*
X127200000Y-109700000D01*
X126400000Y-110200000D02*
X127000000Y-109900000D01*
X126800000Y-110700000D02*
X126400000Y-110200000D01*
X126900000Y-111000000D02*
X126800000Y-110700000D01*
X126700000Y-111200000D02*
X126900000Y-111000000D01*
X126200000Y-111400000D02*
X126700000Y-111200000D01*
X125100000Y-111300000D02*
X126200000Y-111400000D01*
X124200000Y-110900000D02*
X125100000Y-111300000D01*
X123500000Y-110400000D02*
X124200000Y-110900000D01*
X122800000Y-109800000D02*
X123500000Y-110400000D01*
X122300000Y-109000000D02*
X122800000Y-109800000D01*
X122000000Y-108500000D02*
X122300000Y-109000000D01*
X121900000Y-107800000D02*
X122000000Y-108500000D01*
X122100000Y-107300000D02*
X121900000Y-107800000D01*
X122800000Y-106700000D02*
X122100000Y-107300000D01*
X124600000Y-106100000D02*
X122800000Y-106700000D01*
X129300000Y-104900000D02*
X124600000Y-106100000D01*
X126000000Y-104200000D02*
X129300000Y-104900000D01*
X124500000Y-103600000D02*
X126000000Y-104200000D01*
X122600000Y-102700000D02*
X124500000Y-103600000D01*
X121500000Y-101900000D02*
X122600000Y-102700000D01*
X120900000Y-101200000D02*
X121500000Y-101900000D01*
X120500000Y-100500000D02*
X120900000Y-101200000D01*
X120400000Y-100000000D02*
X120500000Y-100500000D01*
X120600000Y-99500000D02*
X120400000Y-100000000D01*
X121500000Y-99000000D02*
X120600000Y-99500000D01*
X126400000Y-97300000D02*
X121500000Y-99000000D01*
X123600000Y-94300000D02*
X126400000Y-97300000D01*
X122100000Y-94000000D02*
X123600000Y-94300000D01*
X121000000Y-93400000D02*
X122100000Y-94000000D01*
X120000000Y-92600000D02*
X121000000Y-93400000D01*
X119400000Y-91600000D02*
X120000000Y-92600000D01*
X118900000Y-90400000D02*
X119400000Y-91600000D01*
X118500000Y-89200000D02*
X118900000Y-90400000D01*
X118100000Y-87300000D02*
X118500000Y-89200000D01*
X115400000Y-87400000D02*
X118100000Y-87300000D01*
X111000000Y-87800000D02*
X115400000Y-87400000D01*
X108200000Y-88500000D02*
X111000000Y-87800000D01*
X105700000Y-90100000D02*
X108200000Y-88500000D01*
X104200000Y-92100000D02*
X105700000Y-90100000D01*
X103400000Y-94500000D02*
X104200000Y-92100000D01*
X103400000Y-96600000D02*
X103400000Y-94500000D01*
X104000000Y-98100000D02*
X103400000Y-96600000D01*
X105600000Y-100400000D02*
X104000000Y-98100000D01*
X108300000Y-103100000D02*
X105600000Y-100400000D01*
X111200000Y-105100000D02*
X108300000Y-103100000D01*
X113900000Y-106300000D02*
X111200000Y-105100000D01*
X103500000Y-88900000D02*
X104600000Y-88000000D01*
X102400000Y-90300000D02*
X103500000Y-88900000D01*
X101700000Y-91700000D02*
X102400000Y-90300000D01*
X101100000Y-93900000D02*
X101700000Y-91700000D01*
X101000000Y-96000000D02*
X101100000Y-93900000D01*
X101000000Y-97300000D02*
X101000000Y-96000000D01*
X101100000Y-98200000D02*
X101000000Y-97300000D01*
X102500000Y-101000000D02*
X101100000Y-98200000D01*
X104000000Y-103100000D02*
X102500000Y-101000000D01*
X106100000Y-105100000D02*
X104000000Y-103100000D01*
X108600000Y-106900000D02*
X106100000Y-105100000D01*
X110800000Y-108100000D02*
X108600000Y-106900000D01*
X113100000Y-109200000D02*
X110800000Y-108100000D01*
X113876458Y-106302222D02*
G75*
G02X113100000Y-109200000I-388229J-1448889D01*
G01*
X118400000Y-84700000D02*
X118300000Y-85100000D01*
X106600000Y-86600000D02*
X104600000Y-88000000D01*
X109700000Y-85500000D02*
X106600000Y-86600000D01*
X112300000Y-85100000D02*
X109700000Y-85500000D01*
X115200000Y-84900000D02*
X112300000Y-85100000D01*
X118300000Y-85100000D02*
X115200000Y-84900000D01*
X116500000Y-83500000D02*
X118400000Y-84700000D01*
X114600000Y-82300000D02*
X116500000Y-83500000D01*
X112300000Y-79800000D02*
X114600000Y-82300000D01*
X110900000Y-77500000D02*
X112300000Y-79800000D01*
X110200000Y-75000000D02*
X110900000Y-77500000D01*
X110000000Y-73000000D02*
X110200000Y-75000000D01*
X110200000Y-71200000D02*
X110000000Y-73000000D01*
X111100000Y-68300000D02*
X110200000Y-71200000D01*
X112800000Y-65500000D02*
X111100000Y-68300000D01*
X115100000Y-63100000D02*
X112800000Y-65500000D01*
X116700000Y-62000000D02*
X115100000Y-63100000D01*
X118200000Y-61100000D02*
X116700000Y-62000000D01*
X120000000Y-60200000D02*
X118200000Y-61100000D01*
X121500000Y-59700000D02*
X120000000Y-60200000D01*
X129500000Y-80100000D02*
X130500000Y-81100000D01*
X128200000Y-79600000D02*
X129500000Y-80100000D01*
X126600000Y-79500000D02*
X128200000Y-79600000D01*
X124800000Y-79700000D02*
X126600000Y-79500000D01*
X123600000Y-80100000D02*
X124800000Y-79700000D01*
X122300000Y-80900000D02*
X123600000Y-80100000D01*
X120800000Y-81500000D02*
X122300000Y-80900000D01*
X118600000Y-80000000D02*
X120800000Y-81500000D01*
X115700000Y-77000000D02*
X118600000Y-80000000D01*
X114700000Y-75300000D02*
X115700000Y-77000000D01*
X114300000Y-72700000D02*
X114700000Y-75300000D01*
X114400000Y-70700000D02*
X114300000Y-72700000D01*
X115300000Y-67900000D02*
X114400000Y-70700000D01*
X116500000Y-66200000D02*
X115300000Y-67900000D01*
X117400000Y-65200000D02*
X116500000Y-66200000D01*
X118700000Y-64100000D02*
X117400000Y-65200000D01*
X120400000Y-63100000D02*
X118700000Y-64100000D01*
X130400000Y-61900000D02*
X130000000Y-61900000D01*
X130400000Y-58900000D02*
X129900000Y-58900000D01*
X122100000Y-62600000D02*
X120400000Y-63100000D01*
X124100000Y-62200000D02*
X122100000Y-62600000D01*
X126200000Y-62000000D02*
X124100000Y-62200000D01*
X128200000Y-61900000D02*
X126200000Y-62000000D01*
X130000000Y-61900000D02*
X128200000Y-61900000D01*
X123400000Y-59300000D02*
X121500000Y-59700000D01*
X125500000Y-59000000D02*
X123400000Y-59300000D01*
X127000000Y-58900000D02*
X125500000Y-59000000D01*
X129900000Y-58900000D02*
X127000000Y-58900000D01*
X130400000Y-58900000D02*
G75*
G02X130400000Y-61900000I0J-1500000D01*
G01*
M02*
