G04 #@! TF.GenerationSoftware,KiCad,Pcbnew,5.0.0-fee4fd1~66~ubuntu18.04.1*
G04 #@! TF.CreationDate,2018-09-07T22:29:42-07:00*
G04 #@! TF.ProjectId,trevor2,747265766F72322E6B696361645F7063,rev?*
G04 #@! TF.SameCoordinates,Original*
G04 #@! TF.FileFunction,Soldermask,Bot*
G04 #@! TF.FilePolarity,Negative*
%FSLAX46Y46*%
G04 Gerber Fmt 4.6, Leading zero omitted, Abs format (unit mm)*
G04 Created by KiCad (PCBNEW 5.0.0-fee4fd1~66~ubuntu18.04.1) date Fri Sep  7 22:29:42 2018*
%MOMM*%
%LPD*%
G01*
G04 APERTURE LIST*
%ADD10R,10.400000X10.400000*%
%ADD11C,3.900000*%
%ADD12C,1.600000*%
%ADD13C,0.100000*%
%ADD14C,2.100000*%
%ADD15R,2.100000X2.100000*%
%ADD16O,2.100000X2.100000*%
%ADD17C,1.100000*%
%ADD18R,1.200000X0.900000*%
%ADD19R,1.200000X0.800000*%
%ADD20C,1.300000*%
%ADD21R,1.100000X1.900000*%
%ADD22R,1.400000X1.200000*%
%ADD23C,5.900000*%
G04 APERTURE END LIST*
D10*
G04 #@! TO.C,BT1*
X159800000Y-97400000D03*
D11*
X170300400Y-97400000D03*
X149299600Y-97400000D03*
G04 #@! TD*
D12*
G04 #@! TO.C,C1*
X122185778Y-85728240D03*
D13*
G36*
X123165574Y-85162555D02*
X122751463Y-86708036D01*
X121205982Y-86293925D01*
X121620093Y-84748444D01*
X123165574Y-85162555D01*
X123165574Y-85162555D01*
G37*
D12*
X124214222Y-86271760D03*
D13*
G36*
X125194018Y-85706075D02*
X124779907Y-87251556D01*
X123234426Y-86837445D01*
X123648537Y-85291964D01*
X125194018Y-85706075D01*
X125194018Y-85706075D01*
G37*
G04 #@! TD*
D14*
G04 #@! TO.C,J1*
X130400000Y-60400000D03*
G04 #@! TD*
G04 #@! TO.C,J2*
X113500000Y-107700000D03*
G04 #@! TD*
D15*
G04 #@! TO.C,J3*
X175800000Y-94400000D03*
D16*
X175800000Y-96940000D03*
X178340000Y-94400000D03*
X178340000Y-96940000D03*
X180880000Y-94400000D03*
X180880000Y-96940000D03*
G04 #@! TD*
D17*
G04 #@! TO.C,R1*
X156325000Y-84822724D03*
D13*
G36*
X155863878Y-83921410D02*
X157336122Y-84771410D01*
X156786122Y-85724038D01*
X155313878Y-84874038D01*
X155863878Y-83921410D01*
X155863878Y-83921410D01*
G37*
D17*
X157275000Y-83177276D03*
D13*
G36*
X156813878Y-82275962D02*
X158286122Y-83125962D01*
X157736122Y-84078590D01*
X156263878Y-83228590D01*
X156813878Y-82275962D01*
X156813878Y-82275962D01*
G37*
G04 #@! TD*
D18*
G04 #@! TO.C,RN1*
X130150000Y-90550000D03*
D19*
X130150000Y-92150000D03*
X130150000Y-91350000D03*
D18*
X130150000Y-92950000D03*
D19*
X128350000Y-91350000D03*
D18*
X128350000Y-90550000D03*
D19*
X128350000Y-92150000D03*
D18*
X128350000Y-92950000D03*
G04 #@! TD*
G04 #@! TO.C,RN2*
X128350000Y-88450000D03*
D19*
X128350000Y-87650000D03*
D18*
X128350000Y-86050000D03*
D19*
X128350000Y-86850000D03*
D18*
X130150000Y-88450000D03*
D19*
X130150000Y-86850000D03*
X130150000Y-87650000D03*
D18*
X130150000Y-86050000D03*
G04 #@! TD*
D20*
G04 #@! TO.C,SW1*
X179900000Y-101725000D03*
X176900000Y-101725000D03*
D21*
X180650000Y-99975000D03*
X177650000Y-99975000D03*
X176150000Y-99975000D03*
D22*
X182050000Y-102825000D03*
X174750000Y-102825000D03*
X174750000Y-100625000D03*
X182050000Y-100625000D03*
G04 #@! TD*
D23*
G04 #@! TO.C,REF\002A\002A*
X140000000Y-93200000D03*
G04 #@! TD*
D17*
G04 #@! TO.C,R2*
X180025519Y-121428805D03*
D13*
G36*
X179187120Y-121996332D02*
X179851363Y-120431474D01*
X180863918Y-120861278D01*
X180199675Y-122426136D01*
X179187120Y-121996332D01*
X179187120Y-121996332D01*
G37*
D17*
X181774481Y-122171195D03*
D13*
G36*
X180936082Y-122738722D02*
X181600325Y-121173864D01*
X182612880Y-121603668D01*
X181948637Y-123168526D01*
X180936082Y-122738722D01*
X180936082Y-122738722D01*
G37*
G04 #@! TD*
M02*
