G04 #@! TF.GenerationSoftware,KiCad,Pcbnew,5.0.0-fee4fd1~66~ubuntu18.04.1*
G04 #@! TF.CreationDate,2018-09-07T22:29:42-07:00*
G04 #@! TF.ProjectId,trevor2,747265766F72322E6B696361645F7063,rev?*
G04 #@! TF.SameCoordinates,Original*
G04 #@! TF.FileFunction,Copper,L1,Top,Signal*
G04 #@! TF.FilePolarity,Positive*
%FSLAX46Y46*%
G04 Gerber Fmt 4.6, Leading zero omitted, Abs format (unit mm)*
G04 Created by KiCad (PCBNEW 5.0.0-fee4fd1~66~ubuntu18.04.1) date Fri Sep  7 22:29:42 2018*
%MOMM*%
%LPD*%
G01*
G04 APERTURE LIST*
G04 #@! TA.AperFunction,SMDPad,CuDef*
%ADD10R,0.900000X0.850000*%
G04 #@! TD*
G04 #@! TA.AperFunction,ComponentPad*
%ADD11C,3.500000*%
G04 #@! TD*
G04 #@! TA.AperFunction,ComponentPad*
%ADD12C,1.700000*%
G04 #@! TD*
G04 #@! TA.AperFunction,ComponentPad*
%ADD13R,1.700000X1.700000*%
G04 #@! TD*
G04 #@! TA.AperFunction,ComponentPad*
%ADD14O,1.700000X1.700000*%
G04 #@! TD*
G04 #@! TA.AperFunction,SMDPad,CuDef*
%ADD15C,0.700000*%
G04 #@! TD*
G04 #@! TA.AperFunction,Conductor*
%ADD16C,0.100000*%
G04 #@! TD*
G04 #@! TA.AperFunction,SMDPad,CuDef*
%ADD17R,0.600000X1.950000*%
G04 #@! TD*
G04 #@! TA.AperFunction,ViaPad*
%ADD18C,0.800000*%
G04 #@! TD*
G04 #@! TA.AperFunction,Conductor*
%ADD19C,0.250000*%
G04 #@! TD*
G04 #@! TA.AperFunction,Conductor*
%ADD20C,0.254000*%
G04 #@! TD*
G04 APERTURE END LIST*
D10*
G04 #@! TO.P,D1,3*
G04 #@! TO.N,Net-(D1-Pad3)*
X122450000Y-91450000D03*
G04 #@! TO.P,D1,2*
G04 #@! TO.N,Net-(D1-Pad2)*
X124050000Y-90400000D03*
G04 #@! TO.P,D1,1*
G04 #@! TO.N,+3V3*
X122450000Y-90400000D03*
G04 #@! TO.P,D1,4*
G04 #@! TO.N,Net-(D1-Pad4)*
X124050000Y-91450000D03*
G04 #@! TD*
G04 #@! TO.P,D2,3*
G04 #@! TO.N,Net-(D2-Pad3)*
X126200000Y-82525000D03*
G04 #@! TO.P,D2,2*
G04 #@! TO.N,Net-(D2-Pad2)*
X127800000Y-81475000D03*
G04 #@! TO.P,D2,1*
G04 #@! TO.N,+3V3*
X126200000Y-81475000D03*
G04 #@! TO.P,D2,4*
G04 #@! TO.N,Net-(D2-Pad4)*
X127800000Y-82525000D03*
G04 #@! TD*
D11*
G04 #@! TO.P,BT1,1*
G04 #@! TO.N,Net-(BT1-Pad1)*
X170300400Y-97400000D03*
G04 #@! TO.P,BT1,0*
G04 #@! TO.N,N/C*
X149299600Y-97400000D03*
G04 #@! TD*
D12*
G04 #@! TO.P,J1,1*
G04 #@! TO.N,Net-(J1-Pad1)*
X130400000Y-60400000D03*
G04 #@! TD*
G04 #@! TO.P,J2,1*
G04 #@! TO.N,Net-(J2-Pad1)*
X113500000Y-107700000D03*
G04 #@! TD*
D13*
G04 #@! TO.P,J3,1*
G04 #@! TO.N,Net-(J3-Pad1)*
X175800000Y-94400000D03*
D14*
G04 #@! TO.P,J3,2*
G04 #@! TO.N,+3V3*
X175800000Y-96940000D03*
G04 #@! TO.P,J3,3*
G04 #@! TO.N,Net-(J3-Pad3)*
X178340000Y-94400000D03*
G04 #@! TO.P,J3,4*
G04 #@! TO.N,Net-(J3-Pad4)*
X178340000Y-96940000D03*
G04 #@! TO.P,J3,5*
G04 #@! TO.N,Net-(J3-Pad5)*
X180880000Y-94400000D03*
G04 #@! TO.P,J3,6*
G04 #@! TO.N,GND*
X180880000Y-96940000D03*
G04 #@! TD*
D15*
G04 #@! TO.P,TH1,1*
G04 #@! TO.N,+3V3*
X193682370Y-80754122D03*
D16*
G04 #@! TD*
G04 #@! TO.N,+3V3*
G04 #@! TO.C,TH1*
G36*
X193176064Y-81291387D02*
X193512528Y-80035684D01*
X194188676Y-80216857D01*
X193852212Y-81472560D01*
X193176064Y-81291387D01*
X193176064Y-81291387D01*
G37*
D15*
G04 #@! TO.P,TH1,2*
G04 #@! TO.N,THERM*
X195517630Y-81245878D03*
D16*
G04 #@! TD*
G04 #@! TO.N,THERM*
G04 #@! TO.C,TH1*
G36*
X195011324Y-81783143D02*
X195347788Y-80527440D01*
X196023936Y-80708613D01*
X195687472Y-81964316D01*
X195011324Y-81783143D01*
X195011324Y-81783143D01*
G37*
D17*
G04 #@! TO.P,U1,1*
G04 #@! TO.N,+3V3*
X153885000Y-101900000D03*
G04 #@! TO.P,U1,2*
G04 #@! TO.N,R1*
X155155000Y-101900000D03*
G04 #@! TO.P,U1,3*
G04 #@! TO.N,G1*
X156425000Y-101900000D03*
G04 #@! TO.P,U1,4*
G04 #@! TO.N,Net-(R2-Pad1)*
X157695000Y-101900000D03*
G04 #@! TO.P,U1,5*
G04 #@! TO.N,Net-(U1-Pad5)*
X158965000Y-101900000D03*
G04 #@! TO.P,U1,6*
G04 #@! TO.N,B1*
X160235000Y-101900000D03*
G04 #@! TO.P,U1,7*
G04 #@! TO.N,Net-(U1-Pad7)*
X161505000Y-101900000D03*
G04 #@! TO.P,U1,8*
G04 #@! TO.N,Net-(J1-Pad1)*
X162775000Y-101900000D03*
G04 #@! TO.P,U1,9*
G04 #@! TO.N,Net-(J2-Pad1)*
X164045000Y-101900000D03*
G04 #@! TO.P,U1,10*
G04 #@! TO.N,B2*
X165315000Y-101900000D03*
G04 #@! TO.P,U1,11*
G04 #@! TO.N,R2*
X165315000Y-92500000D03*
G04 #@! TO.P,U1,12*
G04 #@! TO.N,Net-(U1-Pad12)*
X164045000Y-92500000D03*
G04 #@! TO.P,U1,13*
G04 #@! TO.N,Net-(U1-Pad13)*
X162775000Y-92500000D03*
G04 #@! TO.P,U1,14*
G04 #@! TO.N,Net-(U1-Pad14)*
X161505000Y-92500000D03*
G04 #@! TO.P,U1,15*
G04 #@! TO.N,Net-(U1-Pad15)*
X160235000Y-92500000D03*
G04 #@! TO.P,U1,16*
G04 #@! TO.N,Net-(J3-Pad1)*
X158965000Y-92500000D03*
G04 #@! TO.P,U1,17*
G04 #@! TO.N,THERM*
X157695000Y-92500000D03*
G04 #@! TO.P,U1,18*
G04 #@! TO.N,Net-(U1-Pad18)*
X156425000Y-92500000D03*
G04 #@! TO.P,U1,19*
G04 #@! TO.N,G2*
X155155000Y-92500000D03*
G04 #@! TO.P,U1,20*
G04 #@! TO.N,GND*
X153885000Y-92500000D03*
G04 #@! TD*
D18*
G04 #@! TO.N,GND*
X156000000Y-86200000D03*
X126400008Y-89400000D03*
X159800000Y-97400000D03*
X156739232Y-88677426D03*
X123000000Y-83700000D03*
X183100000Y-122700000D03*
X134200000Y-98700000D03*
X134400000Y-84900000D03*
X132200000Y-90700000D03*
X146400000Y-85500000D03*
G04 #@! TO.N,+3V3*
X124199992Y-88400000D03*
X153786683Y-99588360D03*
X152600000Y-101200000D03*
X152111234Y-89298215D03*
G04 #@! TO.N,Net-(D1-Pad3)*
X121400000Y-91800000D03*
G04 #@! TO.N,Net-(D1-Pad2)*
X125146207Y-90644528D03*
G04 #@! TO.N,Net-(D1-Pad4)*
X124012660Y-92587340D03*
G04 #@! TO.N,Net-(D2-Pad4)*
X127000000Y-87600000D03*
G04 #@! TO.N,Net-(D2-Pad2)*
X127700000Y-80300000D03*
G04 #@! TO.N,Net-(D2-Pad3)*
X126200000Y-83800000D03*
G04 #@! TO.N,Net-(J1-Pad1)*
X150668994Y-89243674D03*
G04 #@! TO.N,Net-(J2-Pad1)*
X150100000Y-104900000D03*
G04 #@! TO.N,Net-(J3-Pad1)*
X173300000Y-94400000D03*
G04 #@! TO.N,THERM*
X196800000Y-81800000D03*
X157437340Y-90562660D03*
G04 #@! TO.N,R1*
X152334016Y-102962118D03*
G04 #@! TO.N,B1*
X152174990Y-104642415D03*
G04 #@! TO.N,G1*
X151665804Y-103706104D03*
G04 #@! TO.N,G2*
X153637656Y-88662976D03*
G04 #@! TO.N,B2*
X148226977Y-87995966D03*
G04 #@! TO.N,R2*
X147920634Y-86545954D03*
G04 #@! TO.N,Net-(R2-Pad1)*
X157605291Y-103654906D03*
G04 #@! TD*
D19*
G04 #@! TO.N,GND*
X127200000Y-89400000D02*
X126965693Y-89400000D01*
X129200000Y-87400000D02*
X127200000Y-89400000D01*
X126965693Y-89400000D02*
X126400008Y-89400000D01*
X158194998Y-97400000D02*
X159800000Y-97400000D01*
X155500000Y-97400000D02*
X158194998Y-97400000D01*
X153885000Y-92500000D02*
X153885000Y-95785000D01*
X153885000Y-95785000D02*
X155500000Y-97400000D01*
X156000000Y-86200000D02*
X156000000Y-88400000D01*
X153934315Y-86900000D02*
X155711741Y-88677426D01*
X156000000Y-88400000D02*
X156565685Y-88400000D01*
X156565685Y-88400000D02*
X156739232Y-88573547D01*
X156739232Y-88573547D02*
X156739232Y-88677426D01*
X155711741Y-88677426D02*
X156173547Y-88677426D01*
X156173547Y-88677426D02*
X156739232Y-88677426D01*
X126400008Y-89400000D02*
X126400008Y-90900008D01*
X126400008Y-90900008D02*
X134200000Y-98700000D01*
X129200000Y-87400000D02*
X131900000Y-87400000D01*
X131900000Y-87400000D02*
X134400000Y-84900000D01*
X134200000Y-98700000D02*
X132200000Y-96700000D01*
X132200000Y-96700000D02*
X132200000Y-91265685D01*
X132200000Y-91265685D02*
X132200000Y-90700000D01*
X150200000Y-86900000D02*
X149900000Y-86900000D01*
X153934315Y-86900000D02*
X150200000Y-86900000D01*
X150200000Y-86900000D02*
X149300000Y-86900000D01*
X149300000Y-86900000D02*
X147900000Y-85500000D01*
X147900000Y-85500000D02*
X146400000Y-85500000D01*
G04 #@! TO.N,+3V3*
X124199992Y-87834315D02*
X124199992Y-88400000D01*
X126250000Y-81575000D02*
X125600000Y-81575000D01*
X125600000Y-81575000D02*
X124199992Y-82975008D01*
X124199992Y-82975008D02*
X124199992Y-87834315D01*
X153885000Y-101900000D02*
X153335000Y-101900000D01*
X154352368Y-99588360D02*
X153786683Y-99588360D01*
X153300000Y-101900000D02*
X152999999Y-101599999D01*
X152999999Y-101599999D02*
X152600000Y-101200000D01*
X175800000Y-96940000D02*
X173151640Y-99588360D01*
X173151640Y-99588360D02*
X154352368Y-99588360D01*
X153335000Y-101900000D02*
X153300000Y-101900000D01*
X153335000Y-101900000D02*
X152600022Y-101165022D01*
X152600022Y-89787003D02*
X152511233Y-89698214D01*
X152600022Y-101165022D02*
X152600022Y-89787003D01*
X152511233Y-89698214D02*
X152111234Y-89298215D01*
X175800000Y-96940000D02*
X174500000Y-95640000D01*
X174500000Y-95640000D02*
X174500000Y-94400000D01*
X174500000Y-94400000D02*
X173474998Y-93374998D01*
X156868123Y-86631877D02*
X157300000Y-86200000D01*
X158937430Y-89800000D02*
X157269307Y-88131877D01*
X156868123Y-87669307D02*
X156868123Y-86631877D01*
X156972915Y-87983681D02*
X156868123Y-87669307D01*
X165100000Y-89800000D02*
X158937430Y-89800000D01*
X157269307Y-88131877D02*
X156972915Y-87983681D01*
X168674998Y-93374998D02*
X165100000Y-89800000D01*
X173474998Y-93374998D02*
X168674998Y-93374998D01*
X123800000Y-88400000D02*
X124199992Y-88400000D01*
X122500000Y-90500000D02*
X122500000Y-89700000D01*
X122500000Y-89700000D02*
X123800000Y-88400000D01*
G04 #@! TO.N,Net-(D1-Pad3)*
X122050000Y-91800000D02*
X121965685Y-91800000D01*
X121965685Y-91800000D02*
X121400000Y-91800000D01*
X122500000Y-91350000D02*
X122050000Y-91800000D01*
G04 #@! TO.N,Net-(D1-Pad2)*
X124000000Y-90500000D02*
X125001679Y-90500000D01*
X125001679Y-90500000D02*
X125146207Y-90644528D01*
G04 #@! TO.N,Net-(D1-Pad4)*
X124000000Y-92574680D02*
X124012660Y-92587340D01*
X124000000Y-91350000D02*
X124000000Y-92574680D01*
G04 #@! TO.N,Net-(D2-Pad4)*
X127750000Y-84250000D02*
X127750000Y-82425000D01*
X127000000Y-87600000D02*
X127000000Y-85000000D01*
X127000000Y-85000000D02*
X127750000Y-84250000D01*
G04 #@! TO.N,Net-(D2-Pad2)*
X127700000Y-80865685D02*
X127700000Y-80300000D01*
X127700000Y-81525000D02*
X127700000Y-80865685D01*
X127750000Y-81575000D02*
X127700000Y-81525000D01*
G04 #@! TO.N,Net-(D2-Pad3)*
X126200000Y-82475000D02*
X126250000Y-82425000D01*
X126200000Y-83800000D02*
X126200000Y-82475000D01*
G04 #@! TO.N,Net-(J1-Pad1)*
X152543632Y-105367417D02*
X151826989Y-105367416D01*
X151850011Y-100186400D02*
X152100000Y-99936411D01*
X151826989Y-105367416D02*
X150879471Y-104419898D01*
X151068993Y-89643673D02*
X150668994Y-89243674D01*
X152100000Y-90674680D02*
X151068993Y-89643673D01*
X150879471Y-104419898D02*
X150879471Y-103356940D01*
X157434401Y-104924988D02*
X157042853Y-105316536D01*
X160425012Y-104924988D02*
X157434401Y-104924988D01*
X151850011Y-102386400D02*
X151850011Y-100186400D01*
X150879471Y-103356940D02*
X151850011Y-102386400D01*
X152594513Y-105316536D02*
X152543632Y-105367417D01*
X157042853Y-105316536D02*
X152594513Y-105316536D01*
X152100000Y-99936411D02*
X152100000Y-90674680D01*
X162775000Y-102575000D02*
X160425012Y-104924988D01*
X162775000Y-101900000D02*
X162775000Y-102575000D01*
G04 #@! TO.N,Net-(J2-Pad1)*
X164045000Y-102575000D02*
X160768351Y-105851649D01*
X164045000Y-101900000D02*
X164045000Y-102575000D01*
X160768351Y-105851649D02*
X151051649Y-105851649D01*
X150499999Y-105299999D02*
X150100000Y-104900000D01*
X151051649Y-105851649D02*
X150499999Y-105299999D01*
G04 #@! TO.N,Net-(J3-Pad1)*
X158965000Y-92500000D02*
X158965000Y-93175000D01*
X158965000Y-93175000D02*
X160190000Y-94400000D01*
X172734315Y-94400000D02*
X173300000Y-94400000D01*
X160190000Y-94400000D02*
X172734315Y-94400000D01*
G04 #@! TO.N,THERM*
X195517630Y-81245878D02*
X196245878Y-81245878D01*
X196245878Y-81245878D02*
X196800000Y-81800000D01*
X157695000Y-92500000D02*
X157695000Y-90820320D01*
X157695000Y-90820320D02*
X157437340Y-90562660D01*
G04 #@! TO.N,R1*
X154130000Y-103600000D02*
X152971898Y-103600000D01*
X155155000Y-102575000D02*
X154130000Y-103600000D01*
X155155000Y-101900000D02*
X155155000Y-102575000D01*
X152971898Y-103600000D02*
X152734015Y-103362117D01*
X152734015Y-103362117D02*
X152334016Y-102962118D01*
G04 #@! TO.N,B1*
X160235000Y-102575000D02*
X158335023Y-104474977D01*
X154910407Y-104642415D02*
X152740675Y-104642415D01*
X152740675Y-104642415D02*
X152174990Y-104642415D01*
X158335023Y-104474977D02*
X155077845Y-104474977D01*
X155077845Y-104474977D02*
X154910407Y-104642415D01*
X160235000Y-101900000D02*
X160235000Y-102575000D01*
G04 #@! TO.N,G1*
X152269693Y-103706104D02*
X152231489Y-103706104D01*
X155875000Y-103125000D02*
X155791411Y-103125000D01*
X155791411Y-103125000D02*
X154866400Y-104050011D01*
X154866400Y-104050011D02*
X152613600Y-104050011D01*
X156425000Y-101900000D02*
X156425000Y-102575000D01*
X152231489Y-103706104D02*
X151665804Y-103706104D01*
X152613600Y-104050011D02*
X152269693Y-103706104D01*
X156425000Y-102575000D02*
X155875000Y-103125000D01*
G04 #@! TO.N,G2*
X155155000Y-90180320D02*
X154037655Y-89062975D01*
X155155000Y-92500000D02*
X155155000Y-90180320D01*
X154037655Y-89062975D02*
X153637656Y-88662976D01*
G04 #@! TO.N,B2*
X151500000Y-99900000D02*
X151500000Y-91268989D01*
X150900000Y-102700000D02*
X150900000Y-100500000D01*
X151500000Y-91268989D02*
X148626976Y-88395965D01*
X150900000Y-100500000D02*
X151500000Y-99900000D01*
X148626976Y-88395965D02*
X148226977Y-87995966D01*
X149000000Y-105200000D02*
X149000000Y-104600000D01*
X165315000Y-102575000D02*
X161490000Y-106400000D01*
X165315000Y-101900000D02*
X165315000Y-102575000D01*
X149000000Y-104600000D02*
X150900000Y-102700000D01*
X161490000Y-106400000D02*
X150200000Y-106400000D01*
X150200000Y-106400000D02*
X149000000Y-105200000D01*
G04 #@! TO.N,R2*
X155500000Y-89500000D02*
X153800000Y-87800000D01*
X149174680Y-87800000D02*
X148320633Y-86945953D01*
X165315000Y-92500000D02*
X165315000Y-91825000D01*
X165315000Y-91825000D02*
X164190000Y-90700000D01*
X164190000Y-90700000D02*
X158600000Y-90700000D01*
X158600000Y-90700000D02*
X157400000Y-89500000D01*
X157400000Y-89500000D02*
X155500000Y-89500000D01*
X148320633Y-86945953D02*
X147920634Y-86545954D01*
X153800000Y-87800000D02*
X149174680Y-87800000D01*
G04 #@! TO.N,Net-(R2-Pad1)*
X157695000Y-101900000D02*
X157695000Y-103565197D01*
X157695000Y-103565197D02*
X157605291Y-103654906D01*
G04 #@! TD*
D20*
G04 #@! TO.N,GND*
G36*
X139427608Y-67857608D02*
X139737352Y-68012480D01*
X140962769Y-68860847D01*
X141655737Y-69467195D01*
X142218792Y-70351997D01*
X142240992Y-70507403D01*
X142236775Y-70508558D01*
X142122972Y-70531195D01*
X142101344Y-70545646D01*
X142076259Y-70552516D01*
X141984601Y-70623652D01*
X141888119Y-70688119D01*
X141873668Y-70709747D01*
X141853120Y-70725694D01*
X141823567Y-70777538D01*
X141044711Y-69943050D01*
X140982415Y-69860260D01*
X140888468Y-69804832D01*
X140799912Y-69741140D01*
X140767668Y-69733562D01*
X140739143Y-69716733D01*
X140631138Y-69701477D01*
X140524947Y-69676521D01*
X140492259Y-69681859D01*
X140459465Y-69677227D01*
X140353840Y-69704465D01*
X140246185Y-69722046D01*
X140218029Y-69739487D01*
X140185957Y-69747757D01*
X140098794Y-69813344D01*
X140006064Y-69870783D01*
X139986725Y-69897671D01*
X139960260Y-69917585D01*
X139904833Y-70011531D01*
X139841140Y-70100088D01*
X139833562Y-70132332D01*
X139816733Y-70160857D01*
X139801477Y-70268862D01*
X139776521Y-70375053D01*
X139781859Y-70407741D01*
X139777227Y-70440535D01*
X139804465Y-70546160D01*
X139822046Y-70653815D01*
X139876605Y-70741895D01*
X141149785Y-73386194D01*
X141939042Y-75359340D01*
X142421734Y-76614339D01*
X142607011Y-77355445D01*
X142631195Y-77477028D01*
X142680471Y-77550775D01*
X142718353Y-77630965D01*
X142758216Y-77667128D01*
X142788119Y-77711881D01*
X142861867Y-77761158D01*
X142927552Y-77820746D01*
X142978217Y-77838901D01*
X143022972Y-77868805D01*
X143109962Y-77886108D01*
X143193452Y-77916025D01*
X143317243Y-77910000D01*
X143655430Y-77910000D01*
X143751317Y-77922088D01*
X143863223Y-77891442D01*
X143977028Y-77868805D01*
X144057391Y-77815108D01*
X144194664Y-77746471D01*
X144301552Y-77702328D01*
X144370228Y-77633795D01*
X144446880Y-77574306D01*
X144469359Y-77534872D01*
X144501487Y-77502811D01*
X144538709Y-77413213D01*
X144586760Y-77328920D01*
X144601226Y-77214171D01*
X144672585Y-76857375D01*
X144683142Y-76839503D01*
X144700149Y-76719556D01*
X144709925Y-76670675D01*
X144709946Y-76650456D01*
X144712785Y-76630434D01*
X144710019Y-76580650D01*
X144710146Y-76459516D01*
X144702224Y-76440334D01*
X144611790Y-74812513D01*
X144694954Y-73897698D01*
X145029203Y-73229202D01*
X145267607Y-73110000D01*
X145629700Y-73110000D01*
X145988267Y-73181713D01*
X146494288Y-73398580D01*
X146497189Y-73401487D01*
X146623849Y-73454107D01*
X146684589Y-73480138D01*
X146688503Y-73480966D01*
X146692190Y-73482498D01*
X146756870Y-73495434D01*
X146891173Y-73523855D01*
X146895213Y-73523103D01*
X147102838Y-73564628D01*
X147342832Y-73744624D01*
X148865928Y-75172527D01*
X148910047Y-75232908D01*
X149027729Y-75304587D01*
X149144678Y-75377388D01*
X149148216Y-75377974D01*
X149151278Y-75379839D01*
X149287425Y-75401026D01*
X149423339Y-75423532D01*
X149426831Y-75422720D01*
X149430374Y-75423271D01*
X149564280Y-75390740D01*
X149698447Y-75359525D01*
X149701362Y-75357438D01*
X149704846Y-75356592D01*
X149816138Y-75275273D01*
X149928118Y-75195110D01*
X149930011Y-75192069D01*
X149932908Y-75189952D01*
X150004608Y-75072235D01*
X150077388Y-74955320D01*
X150077974Y-74951784D01*
X150079839Y-74948721D01*
X150101027Y-74812566D01*
X150123532Y-74676660D01*
X150122720Y-74673168D01*
X150123271Y-74669625D01*
X150090738Y-74535707D01*
X150059525Y-74401552D01*
X150015997Y-74340748D01*
X148754073Y-71622760D01*
X148293772Y-70425978D01*
X148210000Y-69755798D01*
X148210000Y-69594090D01*
X148262986Y-69541104D01*
X148787402Y-69410000D01*
X149955798Y-69410000D01*
X150628979Y-69494147D01*
X151284059Y-69739803D01*
X151927324Y-70141843D01*
X152747686Y-71126279D01*
X152722972Y-71131195D01*
X152663997Y-71170601D01*
X152598448Y-71197672D01*
X152547717Y-71248297D01*
X152488119Y-71288119D01*
X152448713Y-71347094D01*
X152398513Y-71397189D01*
X152371017Y-71463374D01*
X152331195Y-71522972D01*
X152317358Y-71592536D01*
X152290149Y-71658030D01*
X152290074Y-71729702D01*
X152276091Y-71800000D01*
X152289928Y-71869564D01*
X152289854Y-71940485D01*
X152317211Y-72006728D01*
X152329317Y-72067587D01*
X151809273Y-71692000D01*
X151794222Y-71671050D01*
X151695443Y-71609790D01*
X151659010Y-71583477D01*
X151636144Y-71573014D01*
X151614771Y-71559759D01*
X151572685Y-71543977D01*
X151466998Y-71495617D01*
X151441220Y-71494677D01*
X150760911Y-71239562D01*
X150641970Y-71190149D01*
X150558155Y-71190061D01*
X150475444Y-71176508D01*
X150418254Y-71189915D01*
X150359515Y-71189854D01*
X150282047Y-71221847D01*
X150200445Y-71240978D01*
X150152740Y-71275250D01*
X150098448Y-71297672D01*
X150039121Y-71356875D01*
X149971050Y-71405778D01*
X149940091Y-71455698D01*
X149898513Y-71497189D01*
X149866358Y-71574589D01*
X149822183Y-71645819D01*
X149812684Y-71703786D01*
X149790149Y-71758030D01*
X149790061Y-71841844D01*
X149776508Y-71924556D01*
X149789915Y-71981746D01*
X149789854Y-72040485D01*
X149821848Y-72117953D01*
X149840978Y-72199555D01*
X149916121Y-72304151D01*
X150856504Y-73714727D01*
X151090121Y-74415579D01*
X151090149Y-74441970D01*
X151134519Y-74548773D01*
X151148548Y-74590859D01*
X151161289Y-74613211D01*
X151198513Y-74702811D01*
X151230641Y-74734872D01*
X151253120Y-74774306D01*
X151329770Y-74833794D01*
X151347981Y-74851967D01*
X151384895Y-74876576D01*
X151476258Y-74947483D01*
X151501710Y-74954453D01*
X151503471Y-74955627D01*
X151587957Y-75209087D01*
X151587611Y-75228631D01*
X151632410Y-75342445D01*
X151648548Y-75390859D01*
X151657978Y-75407402D01*
X151664951Y-75425117D01*
X151692543Y-75468038D01*
X151753120Y-75574306D01*
X151768563Y-75586291D01*
X152576868Y-76843657D01*
X153223761Y-78229859D01*
X153390000Y-78977934D01*
X153390000Y-79120020D01*
X153346703Y-79148885D01*
X152104196Y-78915915D01*
X151036591Y-78471080D01*
X149330620Y-77333767D01*
X147270517Y-75554588D01*
X147270260Y-75554078D01*
X147164111Y-75462692D01*
X147111148Y-75416951D01*
X147110659Y-75416674D01*
X147056204Y-75369792D01*
X146989015Y-75347668D01*
X146927483Y-75312762D01*
X146856170Y-75303924D01*
X146787919Y-75281450D01*
X146717374Y-75286722D01*
X146647173Y-75278022D01*
X146577910Y-75297145D01*
X146506251Y-75302501D01*
X146443095Y-75334368D01*
X146374904Y-75353195D01*
X146318228Y-75397372D01*
X146254078Y-75429740D01*
X146207924Y-75483349D01*
X146152130Y-75526839D01*
X146116674Y-75589340D01*
X146069792Y-75643796D01*
X146047668Y-75710985D01*
X146012762Y-75772517D01*
X146003924Y-75843830D01*
X145981450Y-75912081D01*
X145986722Y-75982625D01*
X145978022Y-76052827D01*
X145997146Y-76122093D01*
X145997188Y-76122652D01*
X146015806Y-76189678D01*
X146053195Y-76325096D01*
X146053548Y-76325549D01*
X146504650Y-77949516D01*
X146897677Y-80504193D01*
X147192959Y-82571172D01*
X147288863Y-84201532D01*
X147287247Y-84231185D01*
X147292960Y-84271177D01*
X147295332Y-84311498D01*
X147302825Y-84340230D01*
X147387247Y-84931188D01*
X147383367Y-85002376D01*
X147407025Y-85069631D01*
X147407025Y-85069632D01*
X147477095Y-85268827D01*
X147665655Y-85479127D01*
X147729942Y-85509956D01*
X147731273Y-85510954D01*
X147714760Y-85510954D01*
X147334354Y-85668523D01*
X147043203Y-85959674D01*
X146885634Y-86340080D01*
X146885634Y-86751828D01*
X147043203Y-87132234D01*
X147334354Y-87423385D01*
X147342478Y-87426750D01*
X147191977Y-87790092D01*
X147191977Y-88201840D01*
X147349546Y-88582246D01*
X147640697Y-88873397D01*
X148021103Y-89030966D01*
X148187176Y-89030966D01*
X150740001Y-91583792D01*
X150740001Y-95467502D01*
X150650594Y-95378095D01*
X149774006Y-95015000D01*
X148825194Y-95015000D01*
X147948606Y-95378095D01*
X147277695Y-96049006D01*
X146914600Y-96925594D01*
X146914600Y-97874406D01*
X147277695Y-98750994D01*
X147948606Y-99421905D01*
X148825194Y-99785000D01*
X149774006Y-99785000D01*
X150650594Y-99421905D01*
X150740000Y-99332499D01*
X150740000Y-99585198D01*
X150415528Y-99909671D01*
X150352072Y-99952071D01*
X150309672Y-100015527D01*
X150309671Y-100015528D01*
X150184097Y-100203463D01*
X150125112Y-100500000D01*
X150140001Y-100574852D01*
X150140000Y-102385198D01*
X148515528Y-104009671D01*
X148452072Y-104052071D01*
X148284096Y-104303463D01*
X148240000Y-104525148D01*
X148240000Y-104525153D01*
X148225112Y-104600000D01*
X148240000Y-104674847D01*
X148240000Y-105125153D01*
X148225112Y-105200000D01*
X148240000Y-105274847D01*
X148240000Y-105274851D01*
X148284096Y-105496536D01*
X148452071Y-105747929D01*
X148515530Y-105790331D01*
X149609671Y-106884473D01*
X149652071Y-106947929D01*
X149903463Y-107115904D01*
X150125148Y-107160000D01*
X150125152Y-107160000D01*
X150199999Y-107174888D01*
X150274846Y-107160000D01*
X150858946Y-107160000D01*
X150848913Y-107168360D01*
X150842674Y-107170427D01*
X150740597Y-107258624D01*
X150691751Y-107299329D01*
X150687736Y-107304297D01*
X150628946Y-107355093D01*
X150599813Y-107413088D01*
X150559023Y-107463559D01*
X150537031Y-107538067D01*
X150534160Y-107543783D01*
X150517231Y-107605152D01*
X150479064Y-107734461D01*
X150479757Y-107740994D01*
X149725676Y-110474539D01*
X149713962Y-110504194D01*
X149707130Y-110541767D01*
X149696970Y-110578599D01*
X149694649Y-110610414D01*
X149518529Y-111579074D01*
X149498740Y-111620340D01*
X149493480Y-111716843D01*
X149488944Y-111741790D01*
X149489682Y-111786521D01*
X149483367Y-111902376D01*
X149491998Y-111926912D01*
X149492427Y-111952920D01*
X149538592Y-112059372D01*
X149577095Y-112168827D01*
X149594459Y-112188193D01*
X149604808Y-112212056D01*
X149688193Y-112292734D01*
X149765655Y-112379127D01*
X149789110Y-112390375D01*
X149807802Y-112408460D01*
X149915715Y-112451088D01*
X150020340Y-112501260D01*
X150046312Y-112502676D01*
X150070504Y-112512232D01*
X150186516Y-112510318D01*
X150231185Y-112512753D01*
X150256286Y-112509167D01*
X150352920Y-112507573D01*
X150394907Y-112489364D01*
X150900000Y-112417208D01*
X151455836Y-112496613D01*
X152401661Y-112754565D01*
X152422972Y-112768805D01*
X152537142Y-112791515D01*
X152580648Y-112803380D01*
X152605563Y-112805125D01*
X152630074Y-112810000D01*
X152675194Y-112810000D01*
X152791291Y-112818129D01*
X152815593Y-112810000D01*
X153032393Y-112810000D01*
X153642614Y-113115111D01*
X153722972Y-113168805D01*
X153836777Y-113191442D01*
X153948682Y-113222087D01*
X154044564Y-113210000D01*
X154303342Y-113210000D01*
X154619911Y-113399942D01*
X154722972Y-113468805D01*
X154809961Y-113486108D01*
X154893452Y-113516025D01*
X155017243Y-113510000D01*
X155603342Y-113510000D01*
X155831869Y-113647116D01*
X155845515Y-113663460D01*
X155952355Y-113719408D01*
X155994668Y-113744796D01*
X156014204Y-113751796D01*
X156032578Y-113761418D01*
X156079894Y-113775335D01*
X156193452Y-113816025D01*
X156214722Y-113814990D01*
X157779517Y-114275224D01*
X157825526Y-114291771D01*
X157846443Y-114294909D01*
X157866746Y-114300880D01*
X157915466Y-114305262D01*
X159878012Y-114599644D01*
X159930074Y-114610000D01*
X159947050Y-114610000D01*
X159963830Y-114612517D01*
X160016829Y-114610000D01*
X160463334Y-114610000D01*
X160619732Y-114727299D01*
X160669035Y-114781646D01*
X160794768Y-114841043D01*
X160920339Y-114901260D01*
X160993614Y-114905254D01*
X162492023Y-115279857D01*
X163518999Y-115653303D01*
X164465201Y-116126404D01*
X164509141Y-116151452D01*
X164527606Y-116157607D01*
X164545022Y-116166315D01*
X164593823Y-116179679D01*
X165084917Y-116343377D01*
X165122972Y-116368805D01*
X165217768Y-116387661D01*
X165241816Y-116395677D01*
X165286191Y-116401271D01*
X165330074Y-116410000D01*
X165355431Y-116410000D01*
X165451317Y-116422088D01*
X165495458Y-116410000D01*
X165908053Y-116410000D01*
X168141555Y-117712876D01*
X168200706Y-117747620D01*
X168201722Y-117747973D01*
X168202652Y-117748516D01*
X168267712Y-117770927D01*
X170545312Y-118563135D01*
X170588830Y-118581466D01*
X170611214Y-118586058D01*
X170632795Y-118593564D01*
X170679562Y-118600078D01*
X174512220Y-119386264D01*
X174534785Y-119394041D01*
X174580560Y-119400283D01*
X174625829Y-119409569D01*
X174649702Y-119409712D01*
X178949114Y-119995995D01*
X179818226Y-120256729D01*
X181822438Y-121401994D01*
X181856046Y-121425047D01*
X181882988Y-121436594D01*
X181908453Y-121451145D01*
X181947122Y-121464079D01*
X183283348Y-122036749D01*
X183309141Y-122051452D01*
X183347454Y-122064223D01*
X183384589Y-122080138D01*
X183413646Y-122086287D01*
X184835164Y-122560126D01*
X184859962Y-122571841D01*
X184901346Y-122582187D01*
X184941816Y-122595677D01*
X184969028Y-122599108D01*
X185332598Y-122690000D01*
X184719314Y-122690000D01*
X184597624Y-122683367D01*
X184512001Y-122713486D01*
X184422972Y-122731195D01*
X184379964Y-122759932D01*
X184331173Y-122777095D01*
X184263593Y-122837689D01*
X184188119Y-122888119D01*
X184159382Y-122931127D01*
X184120873Y-122965655D01*
X184081627Y-123047496D01*
X184031195Y-123122972D01*
X184021104Y-123173705D01*
X183998740Y-123220340D01*
X183993800Y-123310970D01*
X183976091Y-123400000D01*
X183986182Y-123450731D01*
X183983367Y-123502376D01*
X184013486Y-123587999D01*
X184013884Y-123590000D01*
X183523638Y-123590000D01*
X182154517Y-123498726D01*
X181028345Y-123065582D01*
X179635823Y-122137236D01*
X177859570Y-120547958D01*
X177846879Y-120525694D01*
X177754933Y-120454335D01*
X177721312Y-120424253D01*
X177699798Y-120411545D01*
X177623741Y-120352517D01*
X177579236Y-120340329D01*
X177539503Y-120316859D01*
X177444173Y-120303342D01*
X177351316Y-120277913D01*
X177305534Y-120283684D01*
X177259845Y-120277206D01*
X177166603Y-120301198D01*
X177141815Y-120304323D01*
X177099021Y-120318588D01*
X176986300Y-120347592D01*
X176965814Y-120362990D01*
X176422210Y-120544191D01*
X176163573Y-120440736D01*
X176099573Y-120415048D01*
X176099157Y-120414970D01*
X176098762Y-120414812D01*
X176030625Y-120402120D01*
X174437857Y-120103476D01*
X172070167Y-119610208D01*
X168619123Y-118624196D01*
X166481003Y-117846698D01*
X165580069Y-117396231D01*
X165580065Y-117396228D01*
X164212716Y-116712554D01*
X164187525Y-116688552D01*
X164087302Y-116649847D01*
X164054977Y-116633685D01*
X164022225Y-116624716D01*
X163990544Y-116612481D01*
X163954935Y-116606288D01*
X163851317Y-116577912D01*
X163816796Y-116582264D01*
X161669973Y-116208904D01*
X161650091Y-116202532D01*
X161601219Y-116196947D01*
X161552760Y-116188519D01*
X161531890Y-116189023D01*
X158175249Y-115805407D01*
X157332675Y-115468377D01*
X157277028Y-115431195D01*
X157202815Y-115416433D01*
X157198762Y-115414812D01*
X157134304Y-115402806D01*
X157069926Y-115390000D01*
X157065556Y-115390000D01*
X156991174Y-115376145D01*
X156925703Y-115390000D01*
X156636731Y-115390000D01*
X156332675Y-115268377D01*
X156277028Y-115231195D01*
X156202815Y-115216433D01*
X156198762Y-115214812D01*
X156134304Y-115202806D01*
X156069926Y-115190000D01*
X156065556Y-115190000D01*
X155991174Y-115176145D01*
X155925703Y-115190000D01*
X155436665Y-115190000D01*
X155272742Y-115067057D01*
X155215514Y-115007216D01*
X155096705Y-114954869D01*
X154979660Y-114898740D01*
X154896986Y-114894234D01*
X152383863Y-114335762D01*
X152377028Y-114331195D01*
X152246263Y-114305184D01*
X152185759Y-114291739D01*
X152177772Y-114291561D01*
X152169926Y-114290000D01*
X152107866Y-114290000D01*
X151974654Y-114287026D01*
X151966995Y-114290000D01*
X151196657Y-114290000D01*
X150913883Y-114120336D01*
X150849191Y-114065879D01*
X150727103Y-114027173D01*
X150606547Y-113983975D01*
X150522090Y-113988086D01*
X149925936Y-113921846D01*
X149817734Y-113813644D01*
X148369160Y-112171927D01*
X147776582Y-111240734D01*
X147604688Y-110209374D01*
X147512301Y-109193106D01*
X147613177Y-107780837D01*
X147706916Y-106468492D01*
X147721902Y-106346131D01*
X147697989Y-106260004D01*
X147686842Y-106171327D01*
X147660550Y-106125165D01*
X147646336Y-106073972D01*
X147591284Y-106003553D01*
X147547050Y-105925890D01*
X147505093Y-105893303D01*
X147472371Y-105851447D01*
X147394562Y-105807456D01*
X147323974Y-105752632D01*
X147205112Y-105720036D01*
X138814021Y-102955913D01*
X138777028Y-102931195D01*
X138680998Y-102912093D01*
X138655724Y-102903768D01*
X138612574Y-102898483D01*
X138569926Y-102890000D01*
X138543310Y-102890000D01*
X138446132Y-102878098D01*
X138403266Y-102890000D01*
X138031854Y-102890000D01*
X137922942Y-102880204D01*
X137824322Y-102911035D01*
X137722972Y-102931195D01*
X137632040Y-102991954D01*
X136623648Y-103541986D01*
X136557899Y-103562027D01*
X136500873Y-103608954D01*
X136498628Y-103610179D01*
X136446897Y-103653372D01*
X136339797Y-103741506D01*
X136338559Y-103743829D01*
X136336540Y-103745515D01*
X136272223Y-103868336D01*
X136206982Y-103990787D01*
X136206727Y-103993407D01*
X136205507Y-103995738D01*
X136193081Y-104133886D01*
X136179673Y-104271918D01*
X136180440Y-104274434D01*
X136180204Y-104277057D01*
X136221613Y-104409514D01*
X136262027Y-104542101D01*
X136263698Y-104544132D01*
X136264484Y-104546645D01*
X136353389Y-104653124D01*
X136441506Y-104760203D01*
X136443829Y-104761441D01*
X136445515Y-104763460D01*
X136568384Y-104827802D01*
X136627865Y-104859493D01*
X136630312Y-104860232D01*
X136695738Y-104894493D01*
X136764200Y-104900651D01*
X141819434Y-106426760D01*
X141827653Y-106443240D01*
X141915499Y-106519590D01*
X141947400Y-106551491D01*
X141968175Y-106565373D01*
X141987029Y-106581759D01*
X142026190Y-106604137D01*
X142122973Y-106668805D01*
X142148109Y-106673805D01*
X143365189Y-107369279D01*
X144148243Y-108152334D01*
X144318880Y-108408289D01*
X143995886Y-108795882D01*
X143548386Y-109168799D01*
X141615798Y-109812996D01*
X141588925Y-109818504D01*
X141549603Y-109835061D01*
X141509141Y-109848548D01*
X141485318Y-109862128D01*
X139635797Y-110640875D01*
X137579346Y-111424285D01*
X137545022Y-111433685D01*
X137514143Y-111449125D01*
X137481899Y-111461408D01*
X137451770Y-111480311D01*
X136532313Y-111940040D01*
X136450810Y-111965879D01*
X136353561Y-112047741D01*
X136253120Y-112125694D01*
X136245889Y-112138378D01*
X136234723Y-112147778D01*
X136176207Y-112260620D01*
X136113240Y-112371080D01*
X136111414Y-112385565D01*
X136104694Y-112398524D01*
X136093814Y-112525173D01*
X136077912Y-112651317D01*
X136081768Y-112665399D01*
X136080519Y-112679942D01*
X136118938Y-112801126D01*
X136152517Y-112923741D01*
X136161467Y-112935273D01*
X136165879Y-112949190D01*
X136247751Y-113046450D01*
X136325694Y-113146880D01*
X136399976Y-113189224D01*
X136847074Y-113546903D01*
X136890969Y-113584536D01*
X136901567Y-113590497D01*
X136911069Y-113598099D01*
X136962434Y-113624735D01*
X138543238Y-114513937D01*
X139069072Y-114829438D01*
X138705900Y-114895470D01*
X138598524Y-114904694D01*
X138505384Y-114952994D01*
X138407802Y-114991540D01*
X138380948Y-115017522D01*
X138347778Y-115034723D01*
X138280213Y-115114987D01*
X138204808Y-115187944D01*
X138189941Y-115222226D01*
X138165879Y-115250810D01*
X138134173Y-115350819D01*
X138092427Y-115447080D01*
X138091811Y-115484441D01*
X138080519Y-115520058D01*
X138089499Y-115624589D01*
X138087768Y-115729496D01*
X138101496Y-115764249D01*
X138104694Y-115801476D01*
X138152994Y-115894618D01*
X138180072Y-115963168D01*
X137674699Y-115836824D01*
X136840244Y-115336152D01*
X136143599Y-114639508D01*
X135694233Y-114010396D01*
X135456971Y-113614960D01*
X135310000Y-113100564D01*
X135310000Y-112545731D01*
X135526916Y-112039596D01*
X135833637Y-111579514D01*
X136280149Y-111207421D01*
X141249745Y-108966232D01*
X141340662Y-108938743D01*
X141431695Y-108864174D01*
X141527485Y-108795786D01*
X141540361Y-108775161D01*
X141559168Y-108759755D01*
X141614739Y-108656017D01*
X141677061Y-108556186D01*
X141681064Y-108532205D01*
X141692544Y-108510774D01*
X141704188Y-108393660D01*
X141723561Y-108277585D01*
X141718082Y-108253901D01*
X141720488Y-108229704D01*
X141686423Y-108117037D01*
X141659905Y-108002396D01*
X141645780Y-107982612D01*
X141638743Y-107959336D01*
X141564157Y-107868283D01*
X141495785Y-107772515D01*
X141475164Y-107759642D01*
X141459755Y-107740831D01*
X141356003Y-107685252D01*
X141256185Y-107622938D01*
X141162500Y-107607301D01*
X136628228Y-106227306D01*
X135144587Y-105670941D01*
X134498110Y-105186083D01*
X134233521Y-104855347D01*
X134182187Y-104701346D01*
X134124616Y-104471061D01*
X134182788Y-104122032D01*
X134483519Y-103520571D01*
X134851490Y-103152600D01*
X135339023Y-102665068D01*
X135383827Y-102638476D01*
X135437989Y-102566102D01*
X135451490Y-102552601D01*
X135479803Y-102510228D01*
X135553063Y-102412334D01*
X135557910Y-102393333D01*
X135568804Y-102377029D01*
X135592654Y-102257124D01*
X135622877Y-102138643D01*
X135620083Y-102119230D01*
X135623908Y-102100001D01*
X135600059Y-101980103D01*
X135582639Y-101859068D01*
X135572629Y-101842203D01*
X135568804Y-101822972D01*
X135500890Y-101721332D01*
X135438476Y-101616173D01*
X135422772Y-101604420D01*
X135411880Y-101588120D01*
X135310247Y-101520211D01*
X135269416Y-101489654D01*
X135252177Y-101481409D01*
X135177028Y-101431196D01*
X135125936Y-101421033D01*
X130730508Y-99318873D01*
X130728093Y-99316237D01*
X130603276Y-99258023D01*
X130543250Y-99229315D01*
X130539879Y-99228455D01*
X130472110Y-99196848D01*
X130404357Y-99193886D01*
X130338643Y-99177123D01*
X130264626Y-99187776D01*
X130261152Y-99187624D01*
X130195428Y-99197735D01*
X130059069Y-99217361D01*
X130055992Y-99219187D01*
X126295819Y-99797675D01*
X125617587Y-99894565D01*
X124637762Y-99983640D01*
X124599741Y-99976091D01*
X124498196Y-99996327D01*
X124466081Y-99999247D01*
X124429777Y-100009962D01*
X124322732Y-100031295D01*
X124295258Y-100049667D01*
X124263559Y-100059023D01*
X124178666Y-100127632D01*
X124087936Y-100188303D01*
X124069584Y-100215790D01*
X124043878Y-100236565D01*
X123991702Y-100332439D01*
X123931096Y-100423213D01*
X123924660Y-100455630D01*
X123908861Y-100484661D01*
X123897347Y-100593200D01*
X123876091Y-100700259D01*
X123882551Y-100732673D01*
X123879064Y-100765539D01*
X123909963Y-100870224D01*
X123931295Y-100977268D01*
X123949667Y-101004742D01*
X123959023Y-101036441D01*
X124027632Y-101121334D01*
X124088303Y-101212064D01*
X124115790Y-101230416D01*
X124136565Y-101256122D01*
X124232440Y-101308298D01*
X124263918Y-101329315D01*
X124293713Y-101341644D01*
X124384661Y-101391139D01*
X124423208Y-101395228D01*
X127197203Y-102543089D01*
X127229007Y-102559963D01*
X127261646Y-102569755D01*
X127293143Y-102582788D01*
X127328469Y-102589802D01*
X129260811Y-103169505D01*
X130334583Y-103616909D01*
X130725767Y-103929858D01*
X131404737Y-104608829D01*
X131633169Y-105122802D01*
X131515617Y-105436275D01*
X131180010Y-105660014D01*
X129591877Y-106220532D01*
X127372511Y-106799497D01*
X125607331Y-106985306D01*
X125548682Y-106977913D01*
X125468208Y-106999951D01*
X125456133Y-107001222D01*
X125400854Y-107018396D01*
X125345021Y-107033686D01*
X125334160Y-107039116D01*
X125254481Y-107063871D01*
X125209038Y-107101677D01*
X124785533Y-107313430D01*
X124282058Y-107385355D01*
X124224386Y-107380051D01*
X124143567Y-107405139D01*
X124130368Y-107407025D01*
X124076864Y-107425846D01*
X123954629Y-107463791D01*
X123944097Y-107472549D01*
X123931173Y-107477095D01*
X123835863Y-107562552D01*
X123737452Y-107644387D01*
X123731073Y-107656510D01*
X123720873Y-107665655D01*
X123665525Y-107781072D01*
X123605918Y-107894346D01*
X123604663Y-107907988D01*
X123598740Y-107920340D01*
X123591774Y-108048147D01*
X123580051Y-108175614D01*
X123584113Y-108188698D01*
X123583367Y-108202376D01*
X123625844Y-108323131D01*
X123663791Y-108445371D01*
X123672549Y-108455903D01*
X123677095Y-108468827D01*
X123762552Y-108564137D01*
X123844387Y-108662548D01*
X123856510Y-108668927D01*
X123865655Y-108679127D01*
X123981073Y-108734475D01*
X124031253Y-108760881D01*
X124044035Y-108764668D01*
X124120340Y-108801260D01*
X124178171Y-108804412D01*
X126329002Y-109441695D01*
X126203935Y-109504229D01*
X126198524Y-109504694D01*
X126077863Y-109567265D01*
X126019935Y-109596229D01*
X126015758Y-109599471D01*
X125947778Y-109634723D01*
X125905270Y-109685220D01*
X125853120Y-109725694D01*
X125815194Y-109792226D01*
X125765879Y-109850810D01*
X125745931Y-109913732D01*
X125713240Y-109971080D01*
X125703662Y-110047060D01*
X125680519Y-110120058D01*
X125686168Y-110185823D01*
X125677912Y-110251317D01*
X125698140Y-110325180D01*
X125704694Y-110401476D01*
X125735082Y-110460076D01*
X125752517Y-110523741D01*
X125799467Y-110584236D01*
X125801901Y-110588930D01*
X125842355Y-110639497D01*
X125854932Y-110655703D01*
X125281135Y-110603540D01*
X124554118Y-110280421D01*
X123938236Y-109840506D01*
X123344520Y-109331606D01*
X122905506Y-108629185D01*
X122682587Y-108257654D01*
X122629704Y-107887472D01*
X122694457Y-107725590D01*
X123156466Y-107329583D01*
X124800333Y-106781627D01*
X129384781Y-105611131D01*
X129432218Y-105611732D01*
X129520426Y-105576498D01*
X129543394Y-105570634D01*
X129585245Y-105550607D01*
X129694522Y-105506957D01*
X129711933Y-105489982D01*
X129733868Y-105479485D01*
X129812501Y-105391931D01*
X129896763Y-105309778D01*
X129906353Y-105287432D01*
X129922601Y-105269340D01*
X129961743Y-105158358D01*
X130008152Y-105050214D01*
X130008460Y-105025899D01*
X130016548Y-105002967D01*
X130010240Y-104885459D01*
X130011732Y-104767781D01*
X130002711Y-104745198D01*
X130001408Y-104720918D01*
X129950615Y-104614775D01*
X129906957Y-104505478D01*
X129889979Y-104488065D01*
X129879484Y-104466132D01*
X129791942Y-104387510D01*
X129709778Y-104303236D01*
X129687428Y-104293645D01*
X129669339Y-104277399D01*
X129558374Y-104238262D01*
X129515732Y-104219963D01*
X129492542Y-104215044D01*
X129402966Y-104183451D01*
X129355592Y-104185994D01*
X126207023Y-103518117D01*
X124784100Y-102948947D01*
X122963928Y-102086761D01*
X121984910Y-101374749D01*
X121482980Y-100789166D01*
X121173616Y-100247778D01*
X121137604Y-100067722D01*
X121165469Y-99998060D01*
X121790934Y-99650580D01*
X126574875Y-97990846D01*
X126653815Y-97977954D01*
X126766516Y-97908144D01*
X126880940Y-97841056D01*
X126886337Y-97833924D01*
X126893936Y-97829217D01*
X126971349Y-97721584D01*
X127051383Y-97615823D01*
X127053639Y-97607170D01*
X127058860Y-97599912D01*
X127089194Y-97470834D01*
X127122660Y-97342509D01*
X127121433Y-97333651D01*
X127123479Y-97324947D01*
X127102104Y-97194059D01*
X127083917Y-97062723D01*
X127079396Y-97055011D01*
X127077954Y-97046184D01*
X127008103Y-96933415D01*
X126941055Y-96819060D01*
X126877275Y-96770795D01*
X124207020Y-93909810D01*
X124202328Y-93898448D01*
X124110966Y-93806894D01*
X124071337Y-93764435D01*
X124061623Y-93757449D01*
X124002811Y-93698513D01*
X123948052Y-93675764D01*
X123899912Y-93641140D01*
X123819915Y-93622340D01*
X124218534Y-93622340D01*
X124598940Y-93464771D01*
X124890091Y-93173620D01*
X125047660Y-92793214D01*
X125047660Y-92381466D01*
X125000834Y-92268418D01*
X125098157Y-92122765D01*
X125147440Y-91875000D01*
X125147440Y-91679528D01*
X125352081Y-91679528D01*
X125732487Y-91521959D01*
X126023638Y-91230808D01*
X126181207Y-90850402D01*
X126181207Y-90438654D01*
X126023638Y-90058248D01*
X125732487Y-89767097D01*
X125352081Y-89609528D01*
X125019507Y-89609528D01*
X124957809Y-89517191D01*
X124747765Y-89376843D01*
X124611639Y-89349766D01*
X124786272Y-89277431D01*
X125077423Y-88986280D01*
X125234992Y-88605874D01*
X125234992Y-88194126D01*
X125077423Y-87813720D01*
X124959992Y-87696289D01*
X124959992Y-83289809D01*
X125135284Y-83114517D01*
X125151843Y-83197765D01*
X125261315Y-83361600D01*
X125165000Y-83594126D01*
X125165000Y-84005874D01*
X125322569Y-84386280D01*
X125613720Y-84677431D01*
X125994126Y-84835000D01*
X126257933Y-84835000D01*
X126225112Y-85000000D01*
X126240001Y-85074852D01*
X126240000Y-86896289D01*
X126122569Y-87013720D01*
X125965000Y-87394126D01*
X125965000Y-87805874D01*
X126122569Y-88186280D01*
X126413720Y-88477431D01*
X126794126Y-88635000D01*
X127205874Y-88635000D01*
X127586280Y-88477431D01*
X127877431Y-88186280D01*
X128035000Y-87805874D01*
X128035000Y-87394126D01*
X127877431Y-87013720D01*
X127760000Y-86896289D01*
X127760000Y-85314801D01*
X128234473Y-84840329D01*
X128297929Y-84797929D01*
X128465904Y-84546537D01*
X128510000Y-84324852D01*
X128510000Y-84324848D01*
X128524888Y-84250001D01*
X128510000Y-84175154D01*
X128510000Y-83539982D01*
X128707809Y-83407809D01*
X128848157Y-83197765D01*
X128897440Y-82950000D01*
X128897440Y-82100000D01*
X128877549Y-82000000D01*
X128897440Y-81900000D01*
X128897440Y-81050000D01*
X128848157Y-80802235D01*
X128707809Y-80592191D01*
X128701103Y-80587710D01*
X128713348Y-80558146D01*
X129104497Y-80708587D01*
X129992568Y-81596660D01*
X130035557Y-81641554D01*
X130041907Y-81645999D01*
X130047399Y-81651491D01*
X130099173Y-81686085D01*
X131083320Y-82374989D01*
X132247199Y-83247900D01*
X133279205Y-84186087D01*
X133330570Y-84251070D01*
X133443867Y-84314328D01*
X133555097Y-84381224D01*
X133566831Y-84382983D01*
X133577189Y-84388766D01*
X133706097Y-84403855D01*
X133834432Y-84423089D01*
X133914814Y-84403083D01*
X136273106Y-84214419D01*
X136329855Y-84223292D01*
X136412558Y-84203263D01*
X136426322Y-84202162D01*
X136480448Y-84186821D01*
X136604375Y-84156809D01*
X136615831Y-84148451D01*
X136629479Y-84144583D01*
X136729533Y-84065497D01*
X136832556Y-83990334D01*
X136839943Y-83978225D01*
X136851070Y-83969430D01*
X136913243Y-83858075D01*
X136979660Y-83749208D01*
X136981851Y-83735196D01*
X136988766Y-83722811D01*
X137003593Y-83596141D01*
X137023293Y-83470143D01*
X137019954Y-83456357D01*
X137021603Y-83442272D01*
X136986830Y-83319582D01*
X136973591Y-83264916D01*
X136967787Y-83252391D01*
X136944583Y-83170521D01*
X136908965Y-83125459D01*
X135055888Y-79126717D01*
X134766904Y-78348683D01*
X137277912Y-78348683D01*
X137285269Y-78407044D01*
X137279064Y-78465539D01*
X137302768Y-78545848D01*
X137304323Y-78558184D01*
X137322537Y-78612826D01*
X137359023Y-78736441D01*
X137367055Y-78746379D01*
X137519319Y-79203172D01*
X137531435Y-79249018D01*
X137541385Y-79269371D01*
X137548548Y-79290859D01*
X137572028Y-79332049D01*
X139735807Y-83757962D01*
X139758739Y-83835898D01*
X139841203Y-83938112D01*
X139920829Y-84042623D01*
X139929672Y-84047769D01*
X139936095Y-84055730D01*
X140051406Y-84118610D01*
X140164957Y-84184689D01*
X140245473Y-84195570D01*
X141696712Y-84649082D01*
X142966235Y-85465204D01*
X143958008Y-86366817D01*
X143988119Y-86411881D01*
X144061551Y-86460947D01*
X144074143Y-86472394D01*
X144119585Y-86499724D01*
X144222972Y-86568805D01*
X144240119Y-86572216D01*
X144255097Y-86581224D01*
X144378042Y-86599650D01*
X144430074Y-86610000D01*
X144447099Y-86610000D01*
X144534432Y-86623089D01*
X144587022Y-86610000D01*
X144655430Y-86610000D01*
X144751317Y-86622088D01*
X144863219Y-86591443D01*
X144977028Y-86568805D01*
X144998658Y-86554352D01*
X145023741Y-86547483D01*
X145115393Y-86476352D01*
X145211881Y-86411881D01*
X145226333Y-86390253D01*
X145246880Y-86374306D01*
X145304338Y-86273510D01*
X145368805Y-86177028D01*
X145387661Y-86082232D01*
X145443377Y-85915083D01*
X145468805Y-85877028D01*
X145487661Y-85782232D01*
X145495677Y-85758184D01*
X145501271Y-85713809D01*
X145510000Y-85669926D01*
X145510000Y-85644569D01*
X145522088Y-85548683D01*
X145510000Y-85504542D01*
X145510000Y-84337541D01*
X145513414Y-84305358D01*
X145510000Y-84267804D01*
X145510000Y-84230074D01*
X145503683Y-84198316D01*
X145216372Y-81037891D01*
X145223909Y-81000000D01*
X145203684Y-80898322D01*
X145200753Y-80866081D01*
X145190074Y-80829902D01*
X145168805Y-80722973D01*
X145150370Y-80695383D01*
X145140977Y-80663559D01*
X145072450Y-80578767D01*
X145051491Y-80547400D01*
X145028597Y-80524506D01*
X144963435Y-80443878D01*
X144929502Y-80425411D01*
X144851493Y-80347403D01*
X144811881Y-80288119D01*
X144577028Y-80131195D01*
X144369926Y-80090000D01*
X144369924Y-80090000D01*
X144300000Y-80076091D01*
X144230076Y-80090000D01*
X143965555Y-80090000D01*
X143891173Y-80076145D01*
X143757254Y-80104485D01*
X143622972Y-80131195D01*
X143560059Y-80173232D01*
X143054269Y-80390000D01*
X142844202Y-80390000D01*
X142121309Y-80299639D01*
X141366494Y-80131902D01*
X141006244Y-79915752D01*
X140598138Y-79589268D01*
X140598136Y-79589265D01*
X139049065Y-78350009D01*
X138553208Y-77936794D01*
X138546880Y-77925694D01*
X138445072Y-77846681D01*
X138400812Y-77809798D01*
X138389887Y-77803852D01*
X138323741Y-77752517D01*
X138267009Y-77736981D01*
X138215339Y-77708861D01*
X138132074Y-77700028D01*
X138051317Y-77677912D01*
X137992955Y-77685269D01*
X137934461Y-77679064D01*
X137854154Y-77702767D01*
X137771080Y-77713240D01*
X137719977Y-77742371D01*
X137663559Y-77759023D01*
X137598436Y-77811654D01*
X137525694Y-77853120D01*
X137489629Y-77899590D01*
X137443878Y-77936565D01*
X137403851Y-78010114D01*
X137352517Y-78076259D01*
X137336981Y-78132991D01*
X137308861Y-78184661D01*
X137300028Y-78267926D01*
X137277912Y-78348683D01*
X134766904Y-78348683D01*
X133777330Y-75684446D01*
X133401608Y-74275491D01*
X133315350Y-73326653D01*
X133475286Y-72367040D01*
X133486166Y-72350721D01*
X133719148Y-72234229D01*
X134163338Y-72297685D01*
X134865068Y-72473118D01*
X135835835Y-72914376D01*
X136543818Y-73445364D01*
X139326406Y-76036050D01*
X139334953Y-76052511D01*
X139429310Y-76131857D01*
X139467371Y-76167293D01*
X139482740Y-76176787D01*
X139551134Y-76234300D01*
X139601803Y-76250335D01*
X139647019Y-76278266D01*
X139735231Y-76292561D01*
X139820426Y-76319522D01*
X139873372Y-76314946D01*
X139925837Y-76323448D01*
X140012811Y-76302896D01*
X140101833Y-76295202D01*
X140148996Y-76270714D01*
X140200722Y-76258491D01*
X140273209Y-76206221D01*
X140352512Y-76165045D01*
X140386715Y-76124371D01*
X140429824Y-76093285D01*
X140476790Y-76017254D01*
X140534300Y-75948864D01*
X140550334Y-75898199D01*
X140578266Y-75852981D01*
X140592561Y-75764765D01*
X140619522Y-75679572D01*
X140614946Y-75626626D01*
X140623448Y-75574162D01*
X140602896Y-75487190D01*
X140601341Y-75469197D01*
X140586846Y-75419270D01*
X140558491Y-75299277D01*
X140547641Y-75284231D01*
X139700452Y-72366136D01*
X139700149Y-72362959D01*
X139680952Y-72298971D01*
X139662349Y-72234892D01*
X139660880Y-72232063D01*
X139088260Y-70323331D01*
X138797657Y-68967181D01*
X138710000Y-68441244D01*
X138710000Y-68115215D01*
X138803429Y-67834927D01*
X138897162Y-67764627D01*
X139054353Y-67733189D01*
X139427608Y-67857608D01*
X139427608Y-67857608D01*
G37*
X139427608Y-67857608D02*
X139737352Y-68012480D01*
X140962769Y-68860847D01*
X141655737Y-69467195D01*
X142218792Y-70351997D01*
X142240992Y-70507403D01*
X142236775Y-70508558D01*
X142122972Y-70531195D01*
X142101344Y-70545646D01*
X142076259Y-70552516D01*
X141984601Y-70623652D01*
X141888119Y-70688119D01*
X141873668Y-70709747D01*
X141853120Y-70725694D01*
X141823567Y-70777538D01*
X141044711Y-69943050D01*
X140982415Y-69860260D01*
X140888468Y-69804832D01*
X140799912Y-69741140D01*
X140767668Y-69733562D01*
X140739143Y-69716733D01*
X140631138Y-69701477D01*
X140524947Y-69676521D01*
X140492259Y-69681859D01*
X140459465Y-69677227D01*
X140353840Y-69704465D01*
X140246185Y-69722046D01*
X140218029Y-69739487D01*
X140185957Y-69747757D01*
X140098794Y-69813344D01*
X140006064Y-69870783D01*
X139986725Y-69897671D01*
X139960260Y-69917585D01*
X139904833Y-70011531D01*
X139841140Y-70100088D01*
X139833562Y-70132332D01*
X139816733Y-70160857D01*
X139801477Y-70268862D01*
X139776521Y-70375053D01*
X139781859Y-70407741D01*
X139777227Y-70440535D01*
X139804465Y-70546160D01*
X139822046Y-70653815D01*
X139876605Y-70741895D01*
X141149785Y-73386194D01*
X141939042Y-75359340D01*
X142421734Y-76614339D01*
X142607011Y-77355445D01*
X142631195Y-77477028D01*
X142680471Y-77550775D01*
X142718353Y-77630965D01*
X142758216Y-77667128D01*
X142788119Y-77711881D01*
X142861867Y-77761158D01*
X142927552Y-77820746D01*
X142978217Y-77838901D01*
X143022972Y-77868805D01*
X143109962Y-77886108D01*
X143193452Y-77916025D01*
X143317243Y-77910000D01*
X143655430Y-77910000D01*
X143751317Y-77922088D01*
X143863223Y-77891442D01*
X143977028Y-77868805D01*
X144057391Y-77815108D01*
X144194664Y-77746471D01*
X144301552Y-77702328D01*
X144370228Y-77633795D01*
X144446880Y-77574306D01*
X144469359Y-77534872D01*
X144501487Y-77502811D01*
X144538709Y-77413213D01*
X144586760Y-77328920D01*
X144601226Y-77214171D01*
X144672585Y-76857375D01*
X144683142Y-76839503D01*
X144700149Y-76719556D01*
X144709925Y-76670675D01*
X144709946Y-76650456D01*
X144712785Y-76630434D01*
X144710019Y-76580650D01*
X144710146Y-76459516D01*
X144702224Y-76440334D01*
X144611790Y-74812513D01*
X144694954Y-73897698D01*
X145029203Y-73229202D01*
X145267607Y-73110000D01*
X145629700Y-73110000D01*
X145988267Y-73181713D01*
X146494288Y-73398580D01*
X146497189Y-73401487D01*
X146623849Y-73454107D01*
X146684589Y-73480138D01*
X146688503Y-73480966D01*
X146692190Y-73482498D01*
X146756870Y-73495434D01*
X146891173Y-73523855D01*
X146895213Y-73523103D01*
X147102838Y-73564628D01*
X147342832Y-73744624D01*
X148865928Y-75172527D01*
X148910047Y-75232908D01*
X149027729Y-75304587D01*
X149144678Y-75377388D01*
X149148216Y-75377974D01*
X149151278Y-75379839D01*
X149287425Y-75401026D01*
X149423339Y-75423532D01*
X149426831Y-75422720D01*
X149430374Y-75423271D01*
X149564280Y-75390740D01*
X149698447Y-75359525D01*
X149701362Y-75357438D01*
X149704846Y-75356592D01*
X149816138Y-75275273D01*
X149928118Y-75195110D01*
X149930011Y-75192069D01*
X149932908Y-75189952D01*
X150004608Y-75072235D01*
X150077388Y-74955320D01*
X150077974Y-74951784D01*
X150079839Y-74948721D01*
X150101027Y-74812566D01*
X150123532Y-74676660D01*
X150122720Y-74673168D01*
X150123271Y-74669625D01*
X150090738Y-74535707D01*
X150059525Y-74401552D01*
X150015997Y-74340748D01*
X148754073Y-71622760D01*
X148293772Y-70425978D01*
X148210000Y-69755798D01*
X148210000Y-69594090D01*
X148262986Y-69541104D01*
X148787402Y-69410000D01*
X149955798Y-69410000D01*
X150628979Y-69494147D01*
X151284059Y-69739803D01*
X151927324Y-70141843D01*
X152747686Y-71126279D01*
X152722972Y-71131195D01*
X152663997Y-71170601D01*
X152598448Y-71197672D01*
X152547717Y-71248297D01*
X152488119Y-71288119D01*
X152448713Y-71347094D01*
X152398513Y-71397189D01*
X152371017Y-71463374D01*
X152331195Y-71522972D01*
X152317358Y-71592536D01*
X152290149Y-71658030D01*
X152290074Y-71729702D01*
X152276091Y-71800000D01*
X152289928Y-71869564D01*
X152289854Y-71940485D01*
X152317211Y-72006728D01*
X152329317Y-72067587D01*
X151809273Y-71692000D01*
X151794222Y-71671050D01*
X151695443Y-71609790D01*
X151659010Y-71583477D01*
X151636144Y-71573014D01*
X151614771Y-71559759D01*
X151572685Y-71543977D01*
X151466998Y-71495617D01*
X151441220Y-71494677D01*
X150760911Y-71239562D01*
X150641970Y-71190149D01*
X150558155Y-71190061D01*
X150475444Y-71176508D01*
X150418254Y-71189915D01*
X150359515Y-71189854D01*
X150282047Y-71221847D01*
X150200445Y-71240978D01*
X150152740Y-71275250D01*
X150098448Y-71297672D01*
X150039121Y-71356875D01*
X149971050Y-71405778D01*
X149940091Y-71455698D01*
X149898513Y-71497189D01*
X149866358Y-71574589D01*
X149822183Y-71645819D01*
X149812684Y-71703786D01*
X149790149Y-71758030D01*
X149790061Y-71841844D01*
X149776508Y-71924556D01*
X149789915Y-71981746D01*
X149789854Y-72040485D01*
X149821848Y-72117953D01*
X149840978Y-72199555D01*
X149916121Y-72304151D01*
X150856504Y-73714727D01*
X151090121Y-74415579D01*
X151090149Y-74441970D01*
X151134519Y-74548773D01*
X151148548Y-74590859D01*
X151161289Y-74613211D01*
X151198513Y-74702811D01*
X151230641Y-74734872D01*
X151253120Y-74774306D01*
X151329770Y-74833794D01*
X151347981Y-74851967D01*
X151384895Y-74876576D01*
X151476258Y-74947483D01*
X151501710Y-74954453D01*
X151503471Y-74955627D01*
X151587957Y-75209087D01*
X151587611Y-75228631D01*
X151632410Y-75342445D01*
X151648548Y-75390859D01*
X151657978Y-75407402D01*
X151664951Y-75425117D01*
X151692543Y-75468038D01*
X151753120Y-75574306D01*
X151768563Y-75586291D01*
X152576868Y-76843657D01*
X153223761Y-78229859D01*
X153390000Y-78977934D01*
X153390000Y-79120020D01*
X153346703Y-79148885D01*
X152104196Y-78915915D01*
X151036591Y-78471080D01*
X149330620Y-77333767D01*
X147270517Y-75554588D01*
X147270260Y-75554078D01*
X147164111Y-75462692D01*
X147111148Y-75416951D01*
X147110659Y-75416674D01*
X147056204Y-75369792D01*
X146989015Y-75347668D01*
X146927483Y-75312762D01*
X146856170Y-75303924D01*
X146787919Y-75281450D01*
X146717374Y-75286722D01*
X146647173Y-75278022D01*
X146577910Y-75297145D01*
X146506251Y-75302501D01*
X146443095Y-75334368D01*
X146374904Y-75353195D01*
X146318228Y-75397372D01*
X146254078Y-75429740D01*
X146207924Y-75483349D01*
X146152130Y-75526839D01*
X146116674Y-75589340D01*
X146069792Y-75643796D01*
X146047668Y-75710985D01*
X146012762Y-75772517D01*
X146003924Y-75843830D01*
X145981450Y-75912081D01*
X145986722Y-75982625D01*
X145978022Y-76052827D01*
X145997146Y-76122093D01*
X145997188Y-76122652D01*
X146015806Y-76189678D01*
X146053195Y-76325096D01*
X146053548Y-76325549D01*
X146504650Y-77949516D01*
X146897677Y-80504193D01*
X147192959Y-82571172D01*
X147288863Y-84201532D01*
X147287247Y-84231185D01*
X147292960Y-84271177D01*
X147295332Y-84311498D01*
X147302825Y-84340230D01*
X147387247Y-84931188D01*
X147383367Y-85002376D01*
X147407025Y-85069631D01*
X147407025Y-85069632D01*
X147477095Y-85268827D01*
X147665655Y-85479127D01*
X147729942Y-85509956D01*
X147731273Y-85510954D01*
X147714760Y-85510954D01*
X147334354Y-85668523D01*
X147043203Y-85959674D01*
X146885634Y-86340080D01*
X146885634Y-86751828D01*
X147043203Y-87132234D01*
X147334354Y-87423385D01*
X147342478Y-87426750D01*
X147191977Y-87790092D01*
X147191977Y-88201840D01*
X147349546Y-88582246D01*
X147640697Y-88873397D01*
X148021103Y-89030966D01*
X148187176Y-89030966D01*
X150740001Y-91583792D01*
X150740001Y-95467502D01*
X150650594Y-95378095D01*
X149774006Y-95015000D01*
X148825194Y-95015000D01*
X147948606Y-95378095D01*
X147277695Y-96049006D01*
X146914600Y-96925594D01*
X146914600Y-97874406D01*
X147277695Y-98750994D01*
X147948606Y-99421905D01*
X148825194Y-99785000D01*
X149774006Y-99785000D01*
X150650594Y-99421905D01*
X150740000Y-99332499D01*
X150740000Y-99585198D01*
X150415528Y-99909671D01*
X150352072Y-99952071D01*
X150309672Y-100015527D01*
X150309671Y-100015528D01*
X150184097Y-100203463D01*
X150125112Y-100500000D01*
X150140001Y-100574852D01*
X150140000Y-102385198D01*
X148515528Y-104009671D01*
X148452072Y-104052071D01*
X148284096Y-104303463D01*
X148240000Y-104525148D01*
X148240000Y-104525153D01*
X148225112Y-104600000D01*
X148240000Y-104674847D01*
X148240000Y-105125153D01*
X148225112Y-105200000D01*
X148240000Y-105274847D01*
X148240000Y-105274851D01*
X148284096Y-105496536D01*
X148452071Y-105747929D01*
X148515530Y-105790331D01*
X149609671Y-106884473D01*
X149652071Y-106947929D01*
X149903463Y-107115904D01*
X150125148Y-107160000D01*
X150125152Y-107160000D01*
X150199999Y-107174888D01*
X150274846Y-107160000D01*
X150858946Y-107160000D01*
X150848913Y-107168360D01*
X150842674Y-107170427D01*
X150740597Y-107258624D01*
X150691751Y-107299329D01*
X150687736Y-107304297D01*
X150628946Y-107355093D01*
X150599813Y-107413088D01*
X150559023Y-107463559D01*
X150537031Y-107538067D01*
X150534160Y-107543783D01*
X150517231Y-107605152D01*
X150479064Y-107734461D01*
X150479757Y-107740994D01*
X149725676Y-110474539D01*
X149713962Y-110504194D01*
X149707130Y-110541767D01*
X149696970Y-110578599D01*
X149694649Y-110610414D01*
X149518529Y-111579074D01*
X149498740Y-111620340D01*
X149493480Y-111716843D01*
X149488944Y-111741790D01*
X149489682Y-111786521D01*
X149483367Y-111902376D01*
X149491998Y-111926912D01*
X149492427Y-111952920D01*
X149538592Y-112059372D01*
X149577095Y-112168827D01*
X149594459Y-112188193D01*
X149604808Y-112212056D01*
X149688193Y-112292734D01*
X149765655Y-112379127D01*
X149789110Y-112390375D01*
X149807802Y-112408460D01*
X149915715Y-112451088D01*
X150020340Y-112501260D01*
X150046312Y-112502676D01*
X150070504Y-112512232D01*
X150186516Y-112510318D01*
X150231185Y-112512753D01*
X150256286Y-112509167D01*
X150352920Y-112507573D01*
X150394907Y-112489364D01*
X150900000Y-112417208D01*
X151455836Y-112496613D01*
X152401661Y-112754565D01*
X152422972Y-112768805D01*
X152537142Y-112791515D01*
X152580648Y-112803380D01*
X152605563Y-112805125D01*
X152630074Y-112810000D01*
X152675194Y-112810000D01*
X152791291Y-112818129D01*
X152815593Y-112810000D01*
X153032393Y-112810000D01*
X153642614Y-113115111D01*
X153722972Y-113168805D01*
X153836777Y-113191442D01*
X153948682Y-113222087D01*
X154044564Y-113210000D01*
X154303342Y-113210000D01*
X154619911Y-113399942D01*
X154722972Y-113468805D01*
X154809961Y-113486108D01*
X154893452Y-113516025D01*
X155017243Y-113510000D01*
X155603342Y-113510000D01*
X155831869Y-113647116D01*
X155845515Y-113663460D01*
X155952355Y-113719408D01*
X155994668Y-113744796D01*
X156014204Y-113751796D01*
X156032578Y-113761418D01*
X156079894Y-113775335D01*
X156193452Y-113816025D01*
X156214722Y-113814990D01*
X157779517Y-114275224D01*
X157825526Y-114291771D01*
X157846443Y-114294909D01*
X157866746Y-114300880D01*
X157915466Y-114305262D01*
X159878012Y-114599644D01*
X159930074Y-114610000D01*
X159947050Y-114610000D01*
X159963830Y-114612517D01*
X160016829Y-114610000D01*
X160463334Y-114610000D01*
X160619732Y-114727299D01*
X160669035Y-114781646D01*
X160794768Y-114841043D01*
X160920339Y-114901260D01*
X160993614Y-114905254D01*
X162492023Y-115279857D01*
X163518999Y-115653303D01*
X164465201Y-116126404D01*
X164509141Y-116151452D01*
X164527606Y-116157607D01*
X164545022Y-116166315D01*
X164593823Y-116179679D01*
X165084917Y-116343377D01*
X165122972Y-116368805D01*
X165217768Y-116387661D01*
X165241816Y-116395677D01*
X165286191Y-116401271D01*
X165330074Y-116410000D01*
X165355431Y-116410000D01*
X165451317Y-116422088D01*
X165495458Y-116410000D01*
X165908053Y-116410000D01*
X168141555Y-117712876D01*
X168200706Y-117747620D01*
X168201722Y-117747973D01*
X168202652Y-117748516D01*
X168267712Y-117770927D01*
X170545312Y-118563135D01*
X170588830Y-118581466D01*
X170611214Y-118586058D01*
X170632795Y-118593564D01*
X170679562Y-118600078D01*
X174512220Y-119386264D01*
X174534785Y-119394041D01*
X174580560Y-119400283D01*
X174625829Y-119409569D01*
X174649702Y-119409712D01*
X178949114Y-119995995D01*
X179818226Y-120256729D01*
X181822438Y-121401994D01*
X181856046Y-121425047D01*
X181882988Y-121436594D01*
X181908453Y-121451145D01*
X181947122Y-121464079D01*
X183283348Y-122036749D01*
X183309141Y-122051452D01*
X183347454Y-122064223D01*
X183384589Y-122080138D01*
X183413646Y-122086287D01*
X184835164Y-122560126D01*
X184859962Y-122571841D01*
X184901346Y-122582187D01*
X184941816Y-122595677D01*
X184969028Y-122599108D01*
X185332598Y-122690000D01*
X184719314Y-122690000D01*
X184597624Y-122683367D01*
X184512001Y-122713486D01*
X184422972Y-122731195D01*
X184379964Y-122759932D01*
X184331173Y-122777095D01*
X184263593Y-122837689D01*
X184188119Y-122888119D01*
X184159382Y-122931127D01*
X184120873Y-122965655D01*
X184081627Y-123047496D01*
X184031195Y-123122972D01*
X184021104Y-123173705D01*
X183998740Y-123220340D01*
X183993800Y-123310970D01*
X183976091Y-123400000D01*
X183986182Y-123450731D01*
X183983367Y-123502376D01*
X184013486Y-123587999D01*
X184013884Y-123590000D01*
X183523638Y-123590000D01*
X182154517Y-123498726D01*
X181028345Y-123065582D01*
X179635823Y-122137236D01*
X177859570Y-120547958D01*
X177846879Y-120525694D01*
X177754933Y-120454335D01*
X177721312Y-120424253D01*
X177699798Y-120411545D01*
X177623741Y-120352517D01*
X177579236Y-120340329D01*
X177539503Y-120316859D01*
X177444173Y-120303342D01*
X177351316Y-120277913D01*
X177305534Y-120283684D01*
X177259845Y-120277206D01*
X177166603Y-120301198D01*
X177141815Y-120304323D01*
X177099021Y-120318588D01*
X176986300Y-120347592D01*
X176965814Y-120362990D01*
X176422210Y-120544191D01*
X176163573Y-120440736D01*
X176099573Y-120415048D01*
X176099157Y-120414970D01*
X176098762Y-120414812D01*
X176030625Y-120402120D01*
X174437857Y-120103476D01*
X172070167Y-119610208D01*
X168619123Y-118624196D01*
X166481003Y-117846698D01*
X165580069Y-117396231D01*
X165580065Y-117396228D01*
X164212716Y-116712554D01*
X164187525Y-116688552D01*
X164087302Y-116649847D01*
X164054977Y-116633685D01*
X164022225Y-116624716D01*
X163990544Y-116612481D01*
X163954935Y-116606288D01*
X163851317Y-116577912D01*
X163816796Y-116582264D01*
X161669973Y-116208904D01*
X161650091Y-116202532D01*
X161601219Y-116196947D01*
X161552760Y-116188519D01*
X161531890Y-116189023D01*
X158175249Y-115805407D01*
X157332675Y-115468377D01*
X157277028Y-115431195D01*
X157202815Y-115416433D01*
X157198762Y-115414812D01*
X157134304Y-115402806D01*
X157069926Y-115390000D01*
X157065556Y-115390000D01*
X156991174Y-115376145D01*
X156925703Y-115390000D01*
X156636731Y-115390000D01*
X156332675Y-115268377D01*
X156277028Y-115231195D01*
X156202815Y-115216433D01*
X156198762Y-115214812D01*
X156134304Y-115202806D01*
X156069926Y-115190000D01*
X156065556Y-115190000D01*
X155991174Y-115176145D01*
X155925703Y-115190000D01*
X155436665Y-115190000D01*
X155272742Y-115067057D01*
X155215514Y-115007216D01*
X155096705Y-114954869D01*
X154979660Y-114898740D01*
X154896986Y-114894234D01*
X152383863Y-114335762D01*
X152377028Y-114331195D01*
X152246263Y-114305184D01*
X152185759Y-114291739D01*
X152177772Y-114291561D01*
X152169926Y-114290000D01*
X152107866Y-114290000D01*
X151974654Y-114287026D01*
X151966995Y-114290000D01*
X151196657Y-114290000D01*
X150913883Y-114120336D01*
X150849191Y-114065879D01*
X150727103Y-114027173D01*
X150606547Y-113983975D01*
X150522090Y-113988086D01*
X149925936Y-113921846D01*
X149817734Y-113813644D01*
X148369160Y-112171927D01*
X147776582Y-111240734D01*
X147604688Y-110209374D01*
X147512301Y-109193106D01*
X147613177Y-107780837D01*
X147706916Y-106468492D01*
X147721902Y-106346131D01*
X147697989Y-106260004D01*
X147686842Y-106171327D01*
X147660550Y-106125165D01*
X147646336Y-106073972D01*
X147591284Y-106003553D01*
X147547050Y-105925890D01*
X147505093Y-105893303D01*
X147472371Y-105851447D01*
X147394562Y-105807456D01*
X147323974Y-105752632D01*
X147205112Y-105720036D01*
X138814021Y-102955913D01*
X138777028Y-102931195D01*
X138680998Y-102912093D01*
X138655724Y-102903768D01*
X138612574Y-102898483D01*
X138569926Y-102890000D01*
X138543310Y-102890000D01*
X138446132Y-102878098D01*
X138403266Y-102890000D01*
X138031854Y-102890000D01*
X137922942Y-102880204D01*
X137824322Y-102911035D01*
X137722972Y-102931195D01*
X137632040Y-102991954D01*
X136623648Y-103541986D01*
X136557899Y-103562027D01*
X136500873Y-103608954D01*
X136498628Y-103610179D01*
X136446897Y-103653372D01*
X136339797Y-103741506D01*
X136338559Y-103743829D01*
X136336540Y-103745515D01*
X136272223Y-103868336D01*
X136206982Y-103990787D01*
X136206727Y-103993407D01*
X136205507Y-103995738D01*
X136193081Y-104133886D01*
X136179673Y-104271918D01*
X136180440Y-104274434D01*
X136180204Y-104277057D01*
X136221613Y-104409514D01*
X136262027Y-104542101D01*
X136263698Y-104544132D01*
X136264484Y-104546645D01*
X136353389Y-104653124D01*
X136441506Y-104760203D01*
X136443829Y-104761441D01*
X136445515Y-104763460D01*
X136568384Y-104827802D01*
X136627865Y-104859493D01*
X136630312Y-104860232D01*
X136695738Y-104894493D01*
X136764200Y-104900651D01*
X141819434Y-106426760D01*
X141827653Y-106443240D01*
X141915499Y-106519590D01*
X141947400Y-106551491D01*
X141968175Y-106565373D01*
X141987029Y-106581759D01*
X142026190Y-106604137D01*
X142122973Y-106668805D01*
X142148109Y-106673805D01*
X143365189Y-107369279D01*
X144148243Y-108152334D01*
X144318880Y-108408289D01*
X143995886Y-108795882D01*
X143548386Y-109168799D01*
X141615798Y-109812996D01*
X141588925Y-109818504D01*
X141549603Y-109835061D01*
X141509141Y-109848548D01*
X141485318Y-109862128D01*
X139635797Y-110640875D01*
X137579346Y-111424285D01*
X137545022Y-111433685D01*
X137514143Y-111449125D01*
X137481899Y-111461408D01*
X137451770Y-111480311D01*
X136532313Y-111940040D01*
X136450810Y-111965879D01*
X136353561Y-112047741D01*
X136253120Y-112125694D01*
X136245889Y-112138378D01*
X136234723Y-112147778D01*
X136176207Y-112260620D01*
X136113240Y-112371080D01*
X136111414Y-112385565D01*
X136104694Y-112398524D01*
X136093814Y-112525173D01*
X136077912Y-112651317D01*
X136081768Y-112665399D01*
X136080519Y-112679942D01*
X136118938Y-112801126D01*
X136152517Y-112923741D01*
X136161467Y-112935273D01*
X136165879Y-112949190D01*
X136247751Y-113046450D01*
X136325694Y-113146880D01*
X136399976Y-113189224D01*
X136847074Y-113546903D01*
X136890969Y-113584536D01*
X136901567Y-113590497D01*
X136911069Y-113598099D01*
X136962434Y-113624735D01*
X138543238Y-114513937D01*
X139069072Y-114829438D01*
X138705900Y-114895470D01*
X138598524Y-114904694D01*
X138505384Y-114952994D01*
X138407802Y-114991540D01*
X138380948Y-115017522D01*
X138347778Y-115034723D01*
X138280213Y-115114987D01*
X138204808Y-115187944D01*
X138189941Y-115222226D01*
X138165879Y-115250810D01*
X138134173Y-115350819D01*
X138092427Y-115447080D01*
X138091811Y-115484441D01*
X138080519Y-115520058D01*
X138089499Y-115624589D01*
X138087768Y-115729496D01*
X138101496Y-115764249D01*
X138104694Y-115801476D01*
X138152994Y-115894618D01*
X138180072Y-115963168D01*
X137674699Y-115836824D01*
X136840244Y-115336152D01*
X136143599Y-114639508D01*
X135694233Y-114010396D01*
X135456971Y-113614960D01*
X135310000Y-113100564D01*
X135310000Y-112545731D01*
X135526916Y-112039596D01*
X135833637Y-111579514D01*
X136280149Y-111207421D01*
X141249745Y-108966232D01*
X141340662Y-108938743D01*
X141431695Y-108864174D01*
X141527485Y-108795786D01*
X141540361Y-108775161D01*
X141559168Y-108759755D01*
X141614739Y-108656017D01*
X141677061Y-108556186D01*
X141681064Y-108532205D01*
X141692544Y-108510774D01*
X141704188Y-108393660D01*
X141723561Y-108277585D01*
X141718082Y-108253901D01*
X141720488Y-108229704D01*
X141686423Y-108117037D01*
X141659905Y-108002396D01*
X141645780Y-107982612D01*
X141638743Y-107959336D01*
X141564157Y-107868283D01*
X141495785Y-107772515D01*
X141475164Y-107759642D01*
X141459755Y-107740831D01*
X141356003Y-107685252D01*
X141256185Y-107622938D01*
X141162500Y-107607301D01*
X136628228Y-106227306D01*
X135144587Y-105670941D01*
X134498110Y-105186083D01*
X134233521Y-104855347D01*
X134182187Y-104701346D01*
X134124616Y-104471061D01*
X134182788Y-104122032D01*
X134483519Y-103520571D01*
X134851490Y-103152600D01*
X135339023Y-102665068D01*
X135383827Y-102638476D01*
X135437989Y-102566102D01*
X135451490Y-102552601D01*
X135479803Y-102510228D01*
X135553063Y-102412334D01*
X135557910Y-102393333D01*
X135568804Y-102377029D01*
X135592654Y-102257124D01*
X135622877Y-102138643D01*
X135620083Y-102119230D01*
X135623908Y-102100001D01*
X135600059Y-101980103D01*
X135582639Y-101859068D01*
X135572629Y-101842203D01*
X135568804Y-101822972D01*
X135500890Y-101721332D01*
X135438476Y-101616173D01*
X135422772Y-101604420D01*
X135411880Y-101588120D01*
X135310247Y-101520211D01*
X135269416Y-101489654D01*
X135252177Y-101481409D01*
X135177028Y-101431196D01*
X135125936Y-101421033D01*
X130730508Y-99318873D01*
X130728093Y-99316237D01*
X130603276Y-99258023D01*
X130543250Y-99229315D01*
X130539879Y-99228455D01*
X130472110Y-99196848D01*
X130404357Y-99193886D01*
X130338643Y-99177123D01*
X130264626Y-99187776D01*
X130261152Y-99187624D01*
X130195428Y-99197735D01*
X130059069Y-99217361D01*
X130055992Y-99219187D01*
X126295819Y-99797675D01*
X125617587Y-99894565D01*
X124637762Y-99983640D01*
X124599741Y-99976091D01*
X124498196Y-99996327D01*
X124466081Y-99999247D01*
X124429777Y-100009962D01*
X124322732Y-100031295D01*
X124295258Y-100049667D01*
X124263559Y-100059023D01*
X124178666Y-100127632D01*
X124087936Y-100188303D01*
X124069584Y-100215790D01*
X124043878Y-100236565D01*
X123991702Y-100332439D01*
X123931096Y-100423213D01*
X123924660Y-100455630D01*
X123908861Y-100484661D01*
X123897347Y-100593200D01*
X123876091Y-100700259D01*
X123882551Y-100732673D01*
X123879064Y-100765539D01*
X123909963Y-100870224D01*
X123931295Y-100977268D01*
X123949667Y-101004742D01*
X123959023Y-101036441D01*
X124027632Y-101121334D01*
X124088303Y-101212064D01*
X124115790Y-101230416D01*
X124136565Y-101256122D01*
X124232440Y-101308298D01*
X124263918Y-101329315D01*
X124293713Y-101341644D01*
X124384661Y-101391139D01*
X124423208Y-101395228D01*
X127197203Y-102543089D01*
X127229007Y-102559963D01*
X127261646Y-102569755D01*
X127293143Y-102582788D01*
X127328469Y-102589802D01*
X129260811Y-103169505D01*
X130334583Y-103616909D01*
X130725767Y-103929858D01*
X131404737Y-104608829D01*
X131633169Y-105122802D01*
X131515617Y-105436275D01*
X131180010Y-105660014D01*
X129591877Y-106220532D01*
X127372511Y-106799497D01*
X125607331Y-106985306D01*
X125548682Y-106977913D01*
X125468208Y-106999951D01*
X125456133Y-107001222D01*
X125400854Y-107018396D01*
X125345021Y-107033686D01*
X125334160Y-107039116D01*
X125254481Y-107063871D01*
X125209038Y-107101677D01*
X124785533Y-107313430D01*
X124282058Y-107385355D01*
X124224386Y-107380051D01*
X124143567Y-107405139D01*
X124130368Y-107407025D01*
X124076864Y-107425846D01*
X123954629Y-107463791D01*
X123944097Y-107472549D01*
X123931173Y-107477095D01*
X123835863Y-107562552D01*
X123737452Y-107644387D01*
X123731073Y-107656510D01*
X123720873Y-107665655D01*
X123665525Y-107781072D01*
X123605918Y-107894346D01*
X123604663Y-107907988D01*
X123598740Y-107920340D01*
X123591774Y-108048147D01*
X123580051Y-108175614D01*
X123584113Y-108188698D01*
X123583367Y-108202376D01*
X123625844Y-108323131D01*
X123663791Y-108445371D01*
X123672549Y-108455903D01*
X123677095Y-108468827D01*
X123762552Y-108564137D01*
X123844387Y-108662548D01*
X123856510Y-108668927D01*
X123865655Y-108679127D01*
X123981073Y-108734475D01*
X124031253Y-108760881D01*
X124044035Y-108764668D01*
X124120340Y-108801260D01*
X124178171Y-108804412D01*
X126329002Y-109441695D01*
X126203935Y-109504229D01*
X126198524Y-109504694D01*
X126077863Y-109567265D01*
X126019935Y-109596229D01*
X126015758Y-109599471D01*
X125947778Y-109634723D01*
X125905270Y-109685220D01*
X125853120Y-109725694D01*
X125815194Y-109792226D01*
X125765879Y-109850810D01*
X125745931Y-109913732D01*
X125713240Y-109971080D01*
X125703662Y-110047060D01*
X125680519Y-110120058D01*
X125686168Y-110185823D01*
X125677912Y-110251317D01*
X125698140Y-110325180D01*
X125704694Y-110401476D01*
X125735082Y-110460076D01*
X125752517Y-110523741D01*
X125799467Y-110584236D01*
X125801901Y-110588930D01*
X125842355Y-110639497D01*
X125854932Y-110655703D01*
X125281135Y-110603540D01*
X124554118Y-110280421D01*
X123938236Y-109840506D01*
X123344520Y-109331606D01*
X122905506Y-108629185D01*
X122682587Y-108257654D01*
X122629704Y-107887472D01*
X122694457Y-107725590D01*
X123156466Y-107329583D01*
X124800333Y-106781627D01*
X129384781Y-105611131D01*
X129432218Y-105611732D01*
X129520426Y-105576498D01*
X129543394Y-105570634D01*
X129585245Y-105550607D01*
X129694522Y-105506957D01*
X129711933Y-105489982D01*
X129733868Y-105479485D01*
X129812501Y-105391931D01*
X129896763Y-105309778D01*
X129906353Y-105287432D01*
X129922601Y-105269340D01*
X129961743Y-105158358D01*
X130008152Y-105050214D01*
X130008460Y-105025899D01*
X130016548Y-105002967D01*
X130010240Y-104885459D01*
X130011732Y-104767781D01*
X130002711Y-104745198D01*
X130001408Y-104720918D01*
X129950615Y-104614775D01*
X129906957Y-104505478D01*
X129889979Y-104488065D01*
X129879484Y-104466132D01*
X129791942Y-104387510D01*
X129709778Y-104303236D01*
X129687428Y-104293645D01*
X129669339Y-104277399D01*
X129558374Y-104238262D01*
X129515732Y-104219963D01*
X129492542Y-104215044D01*
X129402966Y-104183451D01*
X129355592Y-104185994D01*
X126207023Y-103518117D01*
X124784100Y-102948947D01*
X122963928Y-102086761D01*
X121984910Y-101374749D01*
X121482980Y-100789166D01*
X121173616Y-100247778D01*
X121137604Y-100067722D01*
X121165469Y-99998060D01*
X121790934Y-99650580D01*
X126574875Y-97990846D01*
X126653815Y-97977954D01*
X126766516Y-97908144D01*
X126880940Y-97841056D01*
X126886337Y-97833924D01*
X126893936Y-97829217D01*
X126971349Y-97721584D01*
X127051383Y-97615823D01*
X127053639Y-97607170D01*
X127058860Y-97599912D01*
X127089194Y-97470834D01*
X127122660Y-97342509D01*
X127121433Y-97333651D01*
X127123479Y-97324947D01*
X127102104Y-97194059D01*
X127083917Y-97062723D01*
X127079396Y-97055011D01*
X127077954Y-97046184D01*
X127008103Y-96933415D01*
X126941055Y-96819060D01*
X126877275Y-96770795D01*
X124207020Y-93909810D01*
X124202328Y-93898448D01*
X124110966Y-93806894D01*
X124071337Y-93764435D01*
X124061623Y-93757449D01*
X124002811Y-93698513D01*
X123948052Y-93675764D01*
X123899912Y-93641140D01*
X123819915Y-93622340D01*
X124218534Y-93622340D01*
X124598940Y-93464771D01*
X124890091Y-93173620D01*
X125047660Y-92793214D01*
X125047660Y-92381466D01*
X125000834Y-92268418D01*
X125098157Y-92122765D01*
X125147440Y-91875000D01*
X125147440Y-91679528D01*
X125352081Y-91679528D01*
X125732487Y-91521959D01*
X126023638Y-91230808D01*
X126181207Y-90850402D01*
X126181207Y-90438654D01*
X126023638Y-90058248D01*
X125732487Y-89767097D01*
X125352081Y-89609528D01*
X125019507Y-89609528D01*
X124957809Y-89517191D01*
X124747765Y-89376843D01*
X124611639Y-89349766D01*
X124786272Y-89277431D01*
X125077423Y-88986280D01*
X125234992Y-88605874D01*
X125234992Y-88194126D01*
X125077423Y-87813720D01*
X124959992Y-87696289D01*
X124959992Y-83289809D01*
X125135284Y-83114517D01*
X125151843Y-83197765D01*
X125261315Y-83361600D01*
X125165000Y-83594126D01*
X125165000Y-84005874D01*
X125322569Y-84386280D01*
X125613720Y-84677431D01*
X125994126Y-84835000D01*
X126257933Y-84835000D01*
X126225112Y-85000000D01*
X126240001Y-85074852D01*
X126240000Y-86896289D01*
X126122569Y-87013720D01*
X125965000Y-87394126D01*
X125965000Y-87805874D01*
X126122569Y-88186280D01*
X126413720Y-88477431D01*
X126794126Y-88635000D01*
X127205874Y-88635000D01*
X127586280Y-88477431D01*
X127877431Y-88186280D01*
X128035000Y-87805874D01*
X128035000Y-87394126D01*
X127877431Y-87013720D01*
X127760000Y-86896289D01*
X127760000Y-85314801D01*
X128234473Y-84840329D01*
X128297929Y-84797929D01*
X128465904Y-84546537D01*
X128510000Y-84324852D01*
X128510000Y-84324848D01*
X128524888Y-84250001D01*
X128510000Y-84175154D01*
X128510000Y-83539982D01*
X128707809Y-83407809D01*
X128848157Y-83197765D01*
X128897440Y-82950000D01*
X128897440Y-82100000D01*
X128877549Y-82000000D01*
X128897440Y-81900000D01*
X128897440Y-81050000D01*
X128848157Y-80802235D01*
X128707809Y-80592191D01*
X128701103Y-80587710D01*
X128713348Y-80558146D01*
X129104497Y-80708587D01*
X129992568Y-81596660D01*
X130035557Y-81641554D01*
X130041907Y-81645999D01*
X130047399Y-81651491D01*
X130099173Y-81686085D01*
X131083320Y-82374989D01*
X132247199Y-83247900D01*
X133279205Y-84186087D01*
X133330570Y-84251070D01*
X133443867Y-84314328D01*
X133555097Y-84381224D01*
X133566831Y-84382983D01*
X133577189Y-84388766D01*
X133706097Y-84403855D01*
X133834432Y-84423089D01*
X133914814Y-84403083D01*
X136273106Y-84214419D01*
X136329855Y-84223292D01*
X136412558Y-84203263D01*
X136426322Y-84202162D01*
X136480448Y-84186821D01*
X136604375Y-84156809D01*
X136615831Y-84148451D01*
X136629479Y-84144583D01*
X136729533Y-84065497D01*
X136832556Y-83990334D01*
X136839943Y-83978225D01*
X136851070Y-83969430D01*
X136913243Y-83858075D01*
X136979660Y-83749208D01*
X136981851Y-83735196D01*
X136988766Y-83722811D01*
X137003593Y-83596141D01*
X137023293Y-83470143D01*
X137019954Y-83456357D01*
X137021603Y-83442272D01*
X136986830Y-83319582D01*
X136973591Y-83264916D01*
X136967787Y-83252391D01*
X136944583Y-83170521D01*
X136908965Y-83125459D01*
X135055888Y-79126717D01*
X134766904Y-78348683D01*
X137277912Y-78348683D01*
X137285269Y-78407044D01*
X137279064Y-78465539D01*
X137302768Y-78545848D01*
X137304323Y-78558184D01*
X137322537Y-78612826D01*
X137359023Y-78736441D01*
X137367055Y-78746379D01*
X137519319Y-79203172D01*
X137531435Y-79249018D01*
X137541385Y-79269371D01*
X137548548Y-79290859D01*
X137572028Y-79332049D01*
X139735807Y-83757962D01*
X139758739Y-83835898D01*
X139841203Y-83938112D01*
X139920829Y-84042623D01*
X139929672Y-84047769D01*
X139936095Y-84055730D01*
X140051406Y-84118610D01*
X140164957Y-84184689D01*
X140245473Y-84195570D01*
X141696712Y-84649082D01*
X142966235Y-85465204D01*
X143958008Y-86366817D01*
X143988119Y-86411881D01*
X144061551Y-86460947D01*
X144074143Y-86472394D01*
X144119585Y-86499724D01*
X144222972Y-86568805D01*
X144240119Y-86572216D01*
X144255097Y-86581224D01*
X144378042Y-86599650D01*
X144430074Y-86610000D01*
X144447099Y-86610000D01*
X144534432Y-86623089D01*
X144587022Y-86610000D01*
X144655430Y-86610000D01*
X144751317Y-86622088D01*
X144863219Y-86591443D01*
X144977028Y-86568805D01*
X144998658Y-86554352D01*
X145023741Y-86547483D01*
X145115393Y-86476352D01*
X145211881Y-86411881D01*
X145226333Y-86390253D01*
X145246880Y-86374306D01*
X145304338Y-86273510D01*
X145368805Y-86177028D01*
X145387661Y-86082232D01*
X145443377Y-85915083D01*
X145468805Y-85877028D01*
X145487661Y-85782232D01*
X145495677Y-85758184D01*
X145501271Y-85713809D01*
X145510000Y-85669926D01*
X145510000Y-85644569D01*
X145522088Y-85548683D01*
X145510000Y-85504542D01*
X145510000Y-84337541D01*
X145513414Y-84305358D01*
X145510000Y-84267804D01*
X145510000Y-84230074D01*
X145503683Y-84198316D01*
X145216372Y-81037891D01*
X145223909Y-81000000D01*
X145203684Y-80898322D01*
X145200753Y-80866081D01*
X145190074Y-80829902D01*
X145168805Y-80722973D01*
X145150370Y-80695383D01*
X145140977Y-80663559D01*
X145072450Y-80578767D01*
X145051491Y-80547400D01*
X145028597Y-80524506D01*
X144963435Y-80443878D01*
X144929502Y-80425411D01*
X144851493Y-80347403D01*
X144811881Y-80288119D01*
X144577028Y-80131195D01*
X144369926Y-80090000D01*
X144369924Y-80090000D01*
X144300000Y-80076091D01*
X144230076Y-80090000D01*
X143965555Y-80090000D01*
X143891173Y-80076145D01*
X143757254Y-80104485D01*
X143622972Y-80131195D01*
X143560059Y-80173232D01*
X143054269Y-80390000D01*
X142844202Y-80390000D01*
X142121309Y-80299639D01*
X141366494Y-80131902D01*
X141006244Y-79915752D01*
X140598138Y-79589268D01*
X140598136Y-79589265D01*
X139049065Y-78350009D01*
X138553208Y-77936794D01*
X138546880Y-77925694D01*
X138445072Y-77846681D01*
X138400812Y-77809798D01*
X138389887Y-77803852D01*
X138323741Y-77752517D01*
X138267009Y-77736981D01*
X138215339Y-77708861D01*
X138132074Y-77700028D01*
X138051317Y-77677912D01*
X137992955Y-77685269D01*
X137934461Y-77679064D01*
X137854154Y-77702767D01*
X137771080Y-77713240D01*
X137719977Y-77742371D01*
X137663559Y-77759023D01*
X137598436Y-77811654D01*
X137525694Y-77853120D01*
X137489629Y-77899590D01*
X137443878Y-77936565D01*
X137403851Y-78010114D01*
X137352517Y-78076259D01*
X137336981Y-78132991D01*
X137308861Y-78184661D01*
X137300028Y-78267926D01*
X137277912Y-78348683D01*
X134766904Y-78348683D01*
X133777330Y-75684446D01*
X133401608Y-74275491D01*
X133315350Y-73326653D01*
X133475286Y-72367040D01*
X133486166Y-72350721D01*
X133719148Y-72234229D01*
X134163338Y-72297685D01*
X134865068Y-72473118D01*
X135835835Y-72914376D01*
X136543818Y-73445364D01*
X139326406Y-76036050D01*
X139334953Y-76052511D01*
X139429310Y-76131857D01*
X139467371Y-76167293D01*
X139482740Y-76176787D01*
X139551134Y-76234300D01*
X139601803Y-76250335D01*
X139647019Y-76278266D01*
X139735231Y-76292561D01*
X139820426Y-76319522D01*
X139873372Y-76314946D01*
X139925837Y-76323448D01*
X140012811Y-76302896D01*
X140101833Y-76295202D01*
X140148996Y-76270714D01*
X140200722Y-76258491D01*
X140273209Y-76206221D01*
X140352512Y-76165045D01*
X140386715Y-76124371D01*
X140429824Y-76093285D01*
X140476790Y-76017254D01*
X140534300Y-75948864D01*
X140550334Y-75898199D01*
X140578266Y-75852981D01*
X140592561Y-75764765D01*
X140619522Y-75679572D01*
X140614946Y-75626626D01*
X140623448Y-75574162D01*
X140602896Y-75487190D01*
X140601341Y-75469197D01*
X140586846Y-75419270D01*
X140558491Y-75299277D01*
X140547641Y-75284231D01*
X139700452Y-72366136D01*
X139700149Y-72362959D01*
X139680952Y-72298971D01*
X139662349Y-72234892D01*
X139660880Y-72232063D01*
X139088260Y-70323331D01*
X138797657Y-68967181D01*
X138710000Y-68441244D01*
X138710000Y-68115215D01*
X138803429Y-67834927D01*
X138897162Y-67764627D01*
X139054353Y-67733189D01*
X139427608Y-67857608D01*
G36*
X184866204Y-87836992D02*
X182943672Y-89182765D01*
X182936520Y-89186101D01*
X182886395Y-89222859D01*
X182835557Y-89258446D01*
X182830108Y-89264137D01*
X181421249Y-90297301D01*
X181404520Y-90306211D01*
X181364942Y-90338593D01*
X181323744Y-90368805D01*
X181310952Y-90382767D01*
X180359541Y-91161195D01*
X180359337Y-91161257D01*
X180250395Y-91250496D01*
X180196282Y-91294771D01*
X180196150Y-91294931D01*
X180140832Y-91340245D01*
X180107262Y-91402912D01*
X180062080Y-91457799D01*
X180041220Y-91526196D01*
X180007456Y-91589226D01*
X180000423Y-91659968D01*
X179979684Y-91727969D01*
X179986586Y-91799140D01*
X179979512Y-91870295D01*
X180000087Y-91938345D01*
X180006949Y-92009104D01*
X180040562Y-92072216D01*
X180061257Y-92140663D01*
X180106308Y-92195660D01*
X180139726Y-92258406D01*
X180194932Y-92303850D01*
X180240245Y-92359168D01*
X180302912Y-92392738D01*
X180357799Y-92437920D01*
X180426194Y-92458779D01*
X180426379Y-92458878D01*
X180493949Y-92479443D01*
X180627969Y-92520316D01*
X180628179Y-92520296D01*
X182753506Y-93167135D01*
X184298761Y-93843184D01*
X185779427Y-94583517D01*
X187058562Y-95862653D01*
X187737291Y-96795906D01*
X187982457Y-97940018D01*
X187906525Y-98699341D01*
X187301810Y-99908772D01*
X186386033Y-101007706D01*
X185357202Y-101943007D01*
X184132298Y-102791019D01*
X181961407Y-103923659D01*
X181581297Y-103999681D01*
X181462181Y-104016271D01*
X181382513Y-104063066D01*
X181297189Y-104098513D01*
X181261815Y-104133962D01*
X181218632Y-104159326D01*
X181162935Y-104233048D01*
X181097672Y-104298448D01*
X181078556Y-104344735D01*
X181048367Y-104384694D01*
X181025122Y-104474119D01*
X180989854Y-104559516D01*
X180989906Y-104609595D01*
X180977307Y-104658065D01*
X180990053Y-104749575D01*
X180990149Y-104841970D01*
X181036292Y-104953039D01*
X181815859Y-107194298D01*
X181990000Y-107977934D01*
X181990000Y-108484785D01*
X181939719Y-108635629D01*
X181733307Y-108429217D01*
X181092449Y-107605257D01*
X179830875Y-105373243D01*
X179781647Y-105269035D01*
X179709489Y-105203575D01*
X179645923Y-105129740D01*
X179605763Y-105109476D01*
X179572448Y-105079254D01*
X179480732Y-105046390D01*
X179393749Y-105002501D01*
X179348893Y-104999149D01*
X179306547Y-104983975D01*
X179209236Y-104988711D01*
X179112080Y-104981450D01*
X179002608Y-105017497D01*
X177884072Y-105297132D01*
X177872183Y-105298108D01*
X177816302Y-105314074D01*
X177759962Y-105328159D01*
X177749184Y-105333251D01*
X174348460Y-106304887D01*
X169817019Y-106994455D01*
X167455721Y-107191229D01*
X165093469Y-107289656D01*
X160823691Y-107190360D01*
X160125418Y-107160000D01*
X161415153Y-107160000D01*
X161490000Y-107174888D01*
X161564847Y-107160000D01*
X161564852Y-107160000D01*
X161786537Y-107115904D01*
X162037929Y-106947929D01*
X162080331Y-106884470D01*
X165442362Y-103522440D01*
X165615000Y-103522440D01*
X165862765Y-103473157D01*
X166072809Y-103332809D01*
X166213157Y-103122765D01*
X166262440Y-102875000D01*
X166262440Y-101509180D01*
X175815000Y-101509180D01*
X175815000Y-101940820D01*
X175980182Y-102339603D01*
X176285397Y-102644818D01*
X176684180Y-102810000D01*
X177115820Y-102810000D01*
X177514603Y-102644818D01*
X177819818Y-102339603D01*
X177985000Y-101940820D01*
X177985000Y-101509180D01*
X178815000Y-101509180D01*
X178815000Y-101940820D01*
X178980182Y-102339603D01*
X179285397Y-102644818D01*
X179684180Y-102810000D01*
X180115820Y-102810000D01*
X180514603Y-102644818D01*
X180819818Y-102339603D01*
X180985000Y-101940820D01*
X180985000Y-101509180D01*
X180819818Y-101110397D01*
X180514603Y-100805182D01*
X180115820Y-100640000D01*
X179684180Y-100640000D01*
X179285397Y-100805182D01*
X178980182Y-101110397D01*
X178815000Y-101509180D01*
X177985000Y-101509180D01*
X177819818Y-101110397D01*
X177514603Y-100805182D01*
X177115820Y-100640000D01*
X176684180Y-100640000D01*
X176285397Y-100805182D01*
X175980182Y-101110397D01*
X175815000Y-101509180D01*
X166262440Y-101509180D01*
X166262440Y-100925000D01*
X166213157Y-100677235D01*
X166072809Y-100467191D01*
X165894967Y-100348360D01*
X173076793Y-100348360D01*
X173151640Y-100363248D01*
X173226487Y-100348360D01*
X173226492Y-100348360D01*
X173448177Y-100304264D01*
X173699569Y-100136289D01*
X173741971Y-100072830D01*
X175433592Y-98381209D01*
X175653744Y-98425000D01*
X175946256Y-98425000D01*
X176379418Y-98338839D01*
X176870625Y-98010625D01*
X177070000Y-97712239D01*
X177269375Y-98010625D01*
X177760582Y-98338839D01*
X178193744Y-98425000D01*
X178486256Y-98425000D01*
X178919418Y-98338839D01*
X179410625Y-98010625D01*
X179623843Y-97691522D01*
X179684817Y-97821358D01*
X180113076Y-98211645D01*
X180523110Y-98381476D01*
X180753000Y-98260155D01*
X180753000Y-97067000D01*
X181007000Y-97067000D01*
X181007000Y-98260155D01*
X181236890Y-98381476D01*
X181646924Y-98211645D01*
X182075183Y-97821358D01*
X182321486Y-97296892D01*
X182200819Y-97067000D01*
X181007000Y-97067000D01*
X180753000Y-97067000D01*
X180733000Y-97067000D01*
X180733000Y-96813000D01*
X180753000Y-96813000D01*
X180753000Y-96793000D01*
X181007000Y-96793000D01*
X181007000Y-96813000D01*
X182200819Y-96813000D01*
X182321486Y-96583108D01*
X182075183Y-96058642D01*
X181650214Y-95671353D01*
X181950625Y-95470625D01*
X182278839Y-94979418D01*
X182394092Y-94400000D01*
X182278839Y-93820582D01*
X181950625Y-93329375D01*
X181459418Y-93001161D01*
X181026256Y-92915000D01*
X180733744Y-92915000D01*
X180300582Y-93001161D01*
X179809375Y-93329375D01*
X179610000Y-93627761D01*
X179410625Y-93329375D01*
X178919418Y-93001161D01*
X178486256Y-92915000D01*
X178193744Y-92915000D01*
X177760582Y-93001161D01*
X177269375Y-93329375D01*
X177257184Y-93347619D01*
X177248157Y-93302235D01*
X177107809Y-93092191D01*
X176897765Y-92951843D01*
X176650000Y-92902560D01*
X174950000Y-92902560D01*
X174702235Y-92951843D01*
X174492191Y-93092191D01*
X174401989Y-93227187D01*
X174065329Y-92890528D01*
X174022927Y-92827069D01*
X173771535Y-92659094D01*
X173549850Y-92614998D01*
X173549845Y-92614998D01*
X173474998Y-92600110D01*
X173400151Y-92614998D01*
X168989800Y-92614998D01*
X165690331Y-89315530D01*
X165647929Y-89252071D01*
X165396537Y-89084096D01*
X165174852Y-89040000D01*
X165174847Y-89040000D01*
X165100000Y-89025112D01*
X165025153Y-89040000D01*
X159252232Y-89040000D01*
X158375762Y-88163531D01*
X158754867Y-87985128D01*
X159343746Y-87799166D01*
X162235406Y-87510000D01*
X164581337Y-87510000D01*
X166427759Y-87607180D01*
X170945727Y-88294697D01*
X172573120Y-88773343D01*
X174629247Y-89556630D01*
X175456432Y-89924268D01*
X175974610Y-90269720D01*
X177045154Y-91161841D01*
X177050368Y-91171113D01*
X177153318Y-91251978D01*
X177199187Y-91290202D01*
X177208286Y-91295154D01*
X177272493Y-91345587D01*
X177331150Y-91362018D01*
X177384660Y-91391139D01*
X177465860Y-91399753D01*
X177544479Y-91421776D01*
X177604959Y-91414509D01*
X177665539Y-91420936D01*
X177743849Y-91397822D01*
X177824917Y-91388082D01*
X177878016Y-91358222D01*
X177936441Y-91340977D01*
X177999945Y-91289654D01*
X178008970Y-91284579D01*
X178054283Y-91245739D01*
X178156122Y-91163435D01*
X178161208Y-91154090D01*
X178711383Y-90682512D01*
X184014538Y-87638109D01*
X185130899Y-87172959D01*
X185898322Y-86963661D01*
X184866204Y-87836992D01*
X184866204Y-87836992D01*
G37*
X184866204Y-87836992D02*
X182943672Y-89182765D01*
X182936520Y-89186101D01*
X182886395Y-89222859D01*
X182835557Y-89258446D01*
X182830108Y-89264137D01*
X181421249Y-90297301D01*
X181404520Y-90306211D01*
X181364942Y-90338593D01*
X181323744Y-90368805D01*
X181310952Y-90382767D01*
X180359541Y-91161195D01*
X180359337Y-91161257D01*
X180250395Y-91250496D01*
X180196282Y-91294771D01*
X180196150Y-91294931D01*
X180140832Y-91340245D01*
X180107262Y-91402912D01*
X180062080Y-91457799D01*
X180041220Y-91526196D01*
X180007456Y-91589226D01*
X180000423Y-91659968D01*
X179979684Y-91727969D01*
X179986586Y-91799140D01*
X179979512Y-91870295D01*
X180000087Y-91938345D01*
X180006949Y-92009104D01*
X180040562Y-92072216D01*
X180061257Y-92140663D01*
X180106308Y-92195660D01*
X180139726Y-92258406D01*
X180194932Y-92303850D01*
X180240245Y-92359168D01*
X180302912Y-92392738D01*
X180357799Y-92437920D01*
X180426194Y-92458779D01*
X180426379Y-92458878D01*
X180493949Y-92479443D01*
X180627969Y-92520316D01*
X180628179Y-92520296D01*
X182753506Y-93167135D01*
X184298761Y-93843184D01*
X185779427Y-94583517D01*
X187058562Y-95862653D01*
X187737291Y-96795906D01*
X187982457Y-97940018D01*
X187906525Y-98699341D01*
X187301810Y-99908772D01*
X186386033Y-101007706D01*
X185357202Y-101943007D01*
X184132298Y-102791019D01*
X181961407Y-103923659D01*
X181581297Y-103999681D01*
X181462181Y-104016271D01*
X181382513Y-104063066D01*
X181297189Y-104098513D01*
X181261815Y-104133962D01*
X181218632Y-104159326D01*
X181162935Y-104233048D01*
X181097672Y-104298448D01*
X181078556Y-104344735D01*
X181048367Y-104384694D01*
X181025122Y-104474119D01*
X180989854Y-104559516D01*
X180989906Y-104609595D01*
X180977307Y-104658065D01*
X180990053Y-104749575D01*
X180990149Y-104841970D01*
X181036292Y-104953039D01*
X181815859Y-107194298D01*
X181990000Y-107977934D01*
X181990000Y-108484785D01*
X181939719Y-108635629D01*
X181733307Y-108429217D01*
X181092449Y-107605257D01*
X179830875Y-105373243D01*
X179781647Y-105269035D01*
X179709489Y-105203575D01*
X179645923Y-105129740D01*
X179605763Y-105109476D01*
X179572448Y-105079254D01*
X179480732Y-105046390D01*
X179393749Y-105002501D01*
X179348893Y-104999149D01*
X179306547Y-104983975D01*
X179209236Y-104988711D01*
X179112080Y-104981450D01*
X179002608Y-105017497D01*
X177884072Y-105297132D01*
X177872183Y-105298108D01*
X177816302Y-105314074D01*
X177759962Y-105328159D01*
X177749184Y-105333251D01*
X174348460Y-106304887D01*
X169817019Y-106994455D01*
X167455721Y-107191229D01*
X165093469Y-107289656D01*
X160823691Y-107190360D01*
X160125418Y-107160000D01*
X161415153Y-107160000D01*
X161490000Y-107174888D01*
X161564847Y-107160000D01*
X161564852Y-107160000D01*
X161786537Y-107115904D01*
X162037929Y-106947929D01*
X162080331Y-106884470D01*
X165442362Y-103522440D01*
X165615000Y-103522440D01*
X165862765Y-103473157D01*
X166072809Y-103332809D01*
X166213157Y-103122765D01*
X166262440Y-102875000D01*
X166262440Y-101509180D01*
X175815000Y-101509180D01*
X175815000Y-101940820D01*
X175980182Y-102339603D01*
X176285397Y-102644818D01*
X176684180Y-102810000D01*
X177115820Y-102810000D01*
X177514603Y-102644818D01*
X177819818Y-102339603D01*
X177985000Y-101940820D01*
X177985000Y-101509180D01*
X178815000Y-101509180D01*
X178815000Y-101940820D01*
X178980182Y-102339603D01*
X179285397Y-102644818D01*
X179684180Y-102810000D01*
X180115820Y-102810000D01*
X180514603Y-102644818D01*
X180819818Y-102339603D01*
X180985000Y-101940820D01*
X180985000Y-101509180D01*
X180819818Y-101110397D01*
X180514603Y-100805182D01*
X180115820Y-100640000D01*
X179684180Y-100640000D01*
X179285397Y-100805182D01*
X178980182Y-101110397D01*
X178815000Y-101509180D01*
X177985000Y-101509180D01*
X177819818Y-101110397D01*
X177514603Y-100805182D01*
X177115820Y-100640000D01*
X176684180Y-100640000D01*
X176285397Y-100805182D01*
X175980182Y-101110397D01*
X175815000Y-101509180D01*
X166262440Y-101509180D01*
X166262440Y-100925000D01*
X166213157Y-100677235D01*
X166072809Y-100467191D01*
X165894967Y-100348360D01*
X173076793Y-100348360D01*
X173151640Y-100363248D01*
X173226487Y-100348360D01*
X173226492Y-100348360D01*
X173448177Y-100304264D01*
X173699569Y-100136289D01*
X173741971Y-100072830D01*
X175433592Y-98381209D01*
X175653744Y-98425000D01*
X175946256Y-98425000D01*
X176379418Y-98338839D01*
X176870625Y-98010625D01*
X177070000Y-97712239D01*
X177269375Y-98010625D01*
X177760582Y-98338839D01*
X178193744Y-98425000D01*
X178486256Y-98425000D01*
X178919418Y-98338839D01*
X179410625Y-98010625D01*
X179623843Y-97691522D01*
X179684817Y-97821358D01*
X180113076Y-98211645D01*
X180523110Y-98381476D01*
X180753000Y-98260155D01*
X180753000Y-97067000D01*
X181007000Y-97067000D01*
X181007000Y-98260155D01*
X181236890Y-98381476D01*
X181646924Y-98211645D01*
X182075183Y-97821358D01*
X182321486Y-97296892D01*
X182200819Y-97067000D01*
X181007000Y-97067000D01*
X180753000Y-97067000D01*
X180733000Y-97067000D01*
X180733000Y-96813000D01*
X180753000Y-96813000D01*
X180753000Y-96793000D01*
X181007000Y-96793000D01*
X181007000Y-96813000D01*
X182200819Y-96813000D01*
X182321486Y-96583108D01*
X182075183Y-96058642D01*
X181650214Y-95671353D01*
X181950625Y-95470625D01*
X182278839Y-94979418D01*
X182394092Y-94400000D01*
X182278839Y-93820582D01*
X181950625Y-93329375D01*
X181459418Y-93001161D01*
X181026256Y-92915000D01*
X180733744Y-92915000D01*
X180300582Y-93001161D01*
X179809375Y-93329375D01*
X179610000Y-93627761D01*
X179410625Y-93329375D01*
X178919418Y-93001161D01*
X178486256Y-92915000D01*
X178193744Y-92915000D01*
X177760582Y-93001161D01*
X177269375Y-93329375D01*
X177257184Y-93347619D01*
X177248157Y-93302235D01*
X177107809Y-93092191D01*
X176897765Y-92951843D01*
X176650000Y-92902560D01*
X174950000Y-92902560D01*
X174702235Y-92951843D01*
X174492191Y-93092191D01*
X174401989Y-93227187D01*
X174065329Y-92890528D01*
X174022927Y-92827069D01*
X173771535Y-92659094D01*
X173549850Y-92614998D01*
X173549845Y-92614998D01*
X173474998Y-92600110D01*
X173400151Y-92614998D01*
X168989800Y-92614998D01*
X165690331Y-89315530D01*
X165647929Y-89252071D01*
X165396537Y-89084096D01*
X165174852Y-89040000D01*
X165174847Y-89040000D01*
X165100000Y-89025112D01*
X165025153Y-89040000D01*
X159252232Y-89040000D01*
X158375762Y-88163531D01*
X158754867Y-87985128D01*
X159343746Y-87799166D01*
X162235406Y-87510000D01*
X164581337Y-87510000D01*
X166427759Y-87607180D01*
X170945727Y-88294697D01*
X172573120Y-88773343D01*
X174629247Y-89556630D01*
X175456432Y-89924268D01*
X175974610Y-90269720D01*
X177045154Y-91161841D01*
X177050368Y-91171113D01*
X177153318Y-91251978D01*
X177199187Y-91290202D01*
X177208286Y-91295154D01*
X177272493Y-91345587D01*
X177331150Y-91362018D01*
X177384660Y-91391139D01*
X177465860Y-91399753D01*
X177544479Y-91421776D01*
X177604959Y-91414509D01*
X177665539Y-91420936D01*
X177743849Y-91397822D01*
X177824917Y-91388082D01*
X177878016Y-91358222D01*
X177936441Y-91340977D01*
X177999945Y-91289654D01*
X178008970Y-91284579D01*
X178054283Y-91245739D01*
X178156122Y-91163435D01*
X178161208Y-91154090D01*
X178711383Y-90682512D01*
X184014538Y-87638109D01*
X185130899Y-87172959D01*
X185898322Y-86963661D01*
X184866204Y-87836992D01*
G36*
X128915000Y-60104615D02*
X128915000Y-60695385D01*
X129119876Y-61190000D01*
X128252056Y-61190000D01*
X128234382Y-61187394D01*
X128182262Y-61190000D01*
X128130074Y-61190000D01*
X128112551Y-61193486D01*
X126218306Y-61288198D01*
X126202296Y-61286569D01*
X126148591Y-61291684D01*
X126094706Y-61294378D01*
X126079098Y-61298302D01*
X124065883Y-61490037D01*
X124029325Y-61490075D01*
X123996455Y-61496649D01*
X123963075Y-61499828D01*
X123928046Y-61510331D01*
X121998282Y-61896284D01*
X121966746Y-61899120D01*
X121929869Y-61909966D01*
X121892190Y-61917502D01*
X121862959Y-61929645D01*
X120317769Y-62384114D01*
X120299682Y-62383076D01*
X120182858Y-62423794D01*
X120132578Y-62438582D01*
X120116953Y-62446764D01*
X120100287Y-62452573D01*
X120055088Y-62479161D01*
X119945515Y-62536540D01*
X119933905Y-62550445D01*
X118347917Y-63483380D01*
X118294761Y-63512828D01*
X118287704Y-63518799D01*
X118279745Y-63523481D01*
X118234423Y-63563883D01*
X116957816Y-64644090D01*
X116919038Y-64673060D01*
X116904538Y-64689171D01*
X116888001Y-64703164D01*
X116857876Y-64741018D01*
X115990846Y-65704386D01*
X115960277Y-65733428D01*
X115944162Y-65756258D01*
X115925484Y-65777011D01*
X115903950Y-65813224D01*
X114778777Y-67407222D01*
X114748051Y-67431602D01*
X114697961Y-67521711D01*
X114679628Y-67547683D01*
X114664072Y-67582676D01*
X114645457Y-67616163D01*
X114635724Y-67646443D01*
X114593851Y-67740635D01*
X114592847Y-67779840D01*
X113760015Y-70370874D01*
X113745864Y-70389920D01*
X113717032Y-70504598D01*
X113702662Y-70549306D01*
X113700017Y-70572278D01*
X113694378Y-70594706D01*
X113692033Y-70641611D01*
X113678506Y-70759078D01*
X113685019Y-70781894D01*
X113597823Y-72525799D01*
X113596848Y-72527890D01*
X113590782Y-72666630D01*
X113587394Y-72734383D01*
X113587722Y-72736607D01*
X113587624Y-72738847D01*
X113597922Y-72805782D01*
X113618196Y-72943283D01*
X113619380Y-72945263D01*
X113986881Y-75334019D01*
X113983076Y-75400317D01*
X114008147Y-75472248D01*
X114008889Y-75477073D01*
X114031148Y-75538241D01*
X114052573Y-75599712D01*
X114055049Y-75603921D01*
X114081097Y-75675502D01*
X114125957Y-75724465D01*
X115023949Y-77251052D01*
X115026597Y-77265654D01*
X115095276Y-77372309D01*
X115123480Y-77420255D01*
X115133100Y-77431046D01*
X115140919Y-77443189D01*
X115179545Y-77483147D01*
X115263992Y-77577877D01*
X115277360Y-77584335D01*
X117993306Y-80393936D01*
X117994350Y-80396524D01*
X118091266Y-80495273D01*
X118138118Y-80543741D01*
X118140356Y-80545292D01*
X118142257Y-80547229D01*
X118197782Y-80585087D01*
X118311677Y-80664014D01*
X118314410Y-80664606D01*
X120399637Y-82086353D01*
X120514839Y-82165377D01*
X120585581Y-82180347D01*
X120652125Y-82208644D01*
X120722408Y-82209303D01*
X120791174Y-82223855D01*
X120862263Y-82210613D01*
X120934568Y-82211291D01*
X121064361Y-82158948D01*
X122555381Y-81562540D01*
X122612556Y-81541325D01*
X122620240Y-81536596D01*
X122628611Y-81533248D01*
X122679700Y-81500006D01*
X123902296Y-80747640D01*
X124953163Y-80397351D01*
X126617187Y-80212459D01*
X126665000Y-80215447D01*
X126665000Y-80405544D01*
X126650000Y-80402560D01*
X125750000Y-80402560D01*
X125502235Y-80451843D01*
X125292191Y-80592191D01*
X125151843Y-80802235D01*
X125115559Y-80984649D01*
X125115526Y-80984671D01*
X125115524Y-80984673D01*
X125052071Y-81027071D01*
X125009673Y-81090524D01*
X123715522Y-82384677D01*
X123652063Y-82427079D01*
X123484088Y-82678472D01*
X123439992Y-82900157D01*
X123439992Y-82900161D01*
X123425104Y-82975008D01*
X123439992Y-83049855D01*
X123439993Y-87696288D01*
X123348928Y-87787353D01*
X123252071Y-87852071D01*
X123209671Y-87915527D01*
X122015528Y-89109671D01*
X121952072Y-89152071D01*
X121909672Y-89215527D01*
X121909671Y-89215528D01*
X121814203Y-89358406D01*
X121809494Y-89365454D01*
X121752235Y-89376843D01*
X121542191Y-89517191D01*
X121401843Y-89727235D01*
X121352560Y-89975000D01*
X121352560Y-90765000D01*
X121194126Y-90765000D01*
X120813720Y-90922569D01*
X120522569Y-91213720D01*
X120365000Y-91594126D01*
X120365000Y-91828342D01*
X120035466Y-91279118D01*
X119565360Y-90150864D01*
X119186405Y-89013999D01*
X118821901Y-87282609D01*
X118823412Y-87273207D01*
X118792881Y-87144762D01*
X118780364Y-87085307D01*
X118776724Y-87076788D01*
X118758093Y-86998409D01*
X118721756Y-86948159D01*
X118697388Y-86891134D01*
X118639789Y-86834805D01*
X118592584Y-86769525D01*
X118539784Y-86737005D01*
X118495448Y-86693647D01*
X118420682Y-86663650D01*
X118352084Y-86621400D01*
X118290855Y-86611561D01*
X118233304Y-86588471D01*
X118152748Y-86589369D01*
X118143599Y-86587899D01*
X118082869Y-86590148D01*
X117950868Y-86591620D01*
X117942113Y-86595361D01*
X115424428Y-86688609D01*
X115405358Y-86686586D01*
X115354697Y-86691192D01*
X115303844Y-86693075D01*
X115285181Y-86697511D01*
X110950565Y-87091567D01*
X110895637Y-87094240D01*
X110881054Y-87097886D01*
X110866081Y-87099247D01*
X110813333Y-87114816D01*
X108119503Y-87788274D01*
X108072810Y-87787352D01*
X107983661Y-87822234D01*
X107959962Y-87828159D01*
X107918691Y-87847655D01*
X107876168Y-87864294D01*
X107855584Y-87877468D01*
X107769035Y-87918354D01*
X107737660Y-87952939D01*
X105386674Y-89457572D01*
X105331172Y-89477095D01*
X105268834Y-89532989D01*
X105258376Y-89539682D01*
X105216866Y-89579585D01*
X105173955Y-89618060D01*
X105166498Y-89628003D01*
X105106146Y-89686018D01*
X105082565Y-89739913D01*
X103689277Y-91597632D01*
X103653119Y-91625694D01*
X103605253Y-91709664D01*
X103590045Y-91729941D01*
X103570708Y-91770265D01*
X103548547Y-91809141D01*
X103540527Y-91833202D01*
X103498740Y-91920340D01*
X103496249Y-91966034D01*
X102756622Y-94184920D01*
X102731196Y-94222972D01*
X102712341Y-94317761D01*
X102704323Y-94341816D01*
X102698727Y-94386205D01*
X102690001Y-94430074D01*
X102690001Y-94455423D01*
X102677912Y-94551317D01*
X102690001Y-94595460D01*
X102690000Y-96525703D01*
X102676145Y-96591174D01*
X102690000Y-96665556D01*
X102690000Y-96669925D01*
X102702803Y-96734289D01*
X102714812Y-96798762D01*
X102716434Y-96802816D01*
X102731195Y-96877027D01*
X102768376Y-96932673D01*
X103292561Y-98243132D01*
X103292774Y-98254517D01*
X103344859Y-98373879D01*
X103366752Y-98428611D01*
X103372795Y-98437898D01*
X103377226Y-98448053D01*
X103410889Y-98496443D01*
X103481915Y-98605601D01*
X103491306Y-98612043D01*
X105013410Y-100800070D01*
X105048510Y-100852600D01*
X105053251Y-100857341D01*
X105057089Y-100862858D01*
X105102687Y-100906777D01*
X107794343Y-103598435D01*
X107839346Y-103644781D01*
X107843673Y-103647765D01*
X107847399Y-103651491D01*
X107901232Y-103687461D01*
X110793836Y-105682362D01*
X110847743Y-105720406D01*
X110851280Y-105721978D01*
X110854473Y-105724180D01*
X110915148Y-105750364D01*
X112600489Y-106499404D01*
X112241078Y-106858815D01*
X112015000Y-107404615D01*
X112015000Y-107894064D01*
X111123396Y-107467646D01*
X108978893Y-106297917D01*
X106554389Y-104552274D01*
X104538525Y-102632406D01*
X103110132Y-100632655D01*
X101791673Y-97995739D01*
X101710000Y-97260681D01*
X101710000Y-96016888D01*
X101805489Y-94011620D01*
X102366485Y-91954637D01*
X103002813Y-90681982D01*
X104010039Y-89400058D01*
X105028987Y-88566373D01*
X106928231Y-87236904D01*
X109874241Y-86191546D01*
X112378546Y-85806269D01*
X115201579Y-85611577D01*
X118119165Y-85799808D01*
X118124427Y-85802294D01*
X118259869Y-85808886D01*
X118324069Y-85813028D01*
X118329678Y-85812284D01*
X118406547Y-85816025D01*
X118468332Y-85793886D01*
X118533394Y-85785253D01*
X118600005Y-85746704D01*
X118672448Y-85720746D01*
X118721055Y-85676651D01*
X118777863Y-85643775D01*
X118824651Y-85582670D01*
X118881646Y-85530965D01*
X118909679Y-85471624D01*
X118949581Y-85419512D01*
X118969423Y-85345156D01*
X118971841Y-85340038D01*
X118987447Y-85277615D01*
X119022407Y-85146606D01*
X119021641Y-85140836D01*
X119078284Y-84914265D01*
X119113398Y-84822913D01*
X119110444Y-84708132D01*
X119116025Y-84593452D01*
X119106831Y-84567795D01*
X119106130Y-84540551D01*
X119059476Y-84435637D01*
X119020746Y-84327552D01*
X119002436Y-84307368D01*
X118991361Y-84282464D01*
X118908106Y-84203387D01*
X118830965Y-84118353D01*
X118742481Y-84076553D01*
X116938258Y-82937044D01*
X116938257Y-82937043D01*
X115058756Y-81749990D01*
X112870007Y-79370917D01*
X111557333Y-77214381D01*
X110900338Y-74867969D01*
X110713933Y-73003923D01*
X110898176Y-71345739D01*
X111752214Y-68593837D01*
X113366490Y-65935031D01*
X115562237Y-63643817D01*
X117084143Y-62597508D01*
X118541922Y-61722843D01*
X120272397Y-60857606D01*
X121686003Y-60386404D01*
X123523461Y-59999571D01*
X125573932Y-59706646D01*
X127023638Y-59610000D01*
X129119876Y-59610000D01*
X128915000Y-60104615D01*
X128915000Y-60104615D01*
G37*
X128915000Y-60104615D02*
X128915000Y-60695385D01*
X129119876Y-61190000D01*
X128252056Y-61190000D01*
X128234382Y-61187394D01*
X128182262Y-61190000D01*
X128130074Y-61190000D01*
X128112551Y-61193486D01*
X126218306Y-61288198D01*
X126202296Y-61286569D01*
X126148591Y-61291684D01*
X126094706Y-61294378D01*
X126079098Y-61298302D01*
X124065883Y-61490037D01*
X124029325Y-61490075D01*
X123996455Y-61496649D01*
X123963075Y-61499828D01*
X123928046Y-61510331D01*
X121998282Y-61896284D01*
X121966746Y-61899120D01*
X121929869Y-61909966D01*
X121892190Y-61917502D01*
X121862959Y-61929645D01*
X120317769Y-62384114D01*
X120299682Y-62383076D01*
X120182858Y-62423794D01*
X120132578Y-62438582D01*
X120116953Y-62446764D01*
X120100287Y-62452573D01*
X120055088Y-62479161D01*
X119945515Y-62536540D01*
X119933905Y-62550445D01*
X118347917Y-63483380D01*
X118294761Y-63512828D01*
X118287704Y-63518799D01*
X118279745Y-63523481D01*
X118234423Y-63563883D01*
X116957816Y-64644090D01*
X116919038Y-64673060D01*
X116904538Y-64689171D01*
X116888001Y-64703164D01*
X116857876Y-64741018D01*
X115990846Y-65704386D01*
X115960277Y-65733428D01*
X115944162Y-65756258D01*
X115925484Y-65777011D01*
X115903950Y-65813224D01*
X114778777Y-67407222D01*
X114748051Y-67431602D01*
X114697961Y-67521711D01*
X114679628Y-67547683D01*
X114664072Y-67582676D01*
X114645457Y-67616163D01*
X114635724Y-67646443D01*
X114593851Y-67740635D01*
X114592847Y-67779840D01*
X113760015Y-70370874D01*
X113745864Y-70389920D01*
X113717032Y-70504598D01*
X113702662Y-70549306D01*
X113700017Y-70572278D01*
X113694378Y-70594706D01*
X113692033Y-70641611D01*
X113678506Y-70759078D01*
X113685019Y-70781894D01*
X113597823Y-72525799D01*
X113596848Y-72527890D01*
X113590782Y-72666630D01*
X113587394Y-72734383D01*
X113587722Y-72736607D01*
X113587624Y-72738847D01*
X113597922Y-72805782D01*
X113618196Y-72943283D01*
X113619380Y-72945263D01*
X113986881Y-75334019D01*
X113983076Y-75400317D01*
X114008147Y-75472248D01*
X114008889Y-75477073D01*
X114031148Y-75538241D01*
X114052573Y-75599712D01*
X114055049Y-75603921D01*
X114081097Y-75675502D01*
X114125957Y-75724465D01*
X115023949Y-77251052D01*
X115026597Y-77265654D01*
X115095276Y-77372309D01*
X115123480Y-77420255D01*
X115133100Y-77431046D01*
X115140919Y-77443189D01*
X115179545Y-77483147D01*
X115263992Y-77577877D01*
X115277360Y-77584335D01*
X117993306Y-80393936D01*
X117994350Y-80396524D01*
X118091266Y-80495273D01*
X118138118Y-80543741D01*
X118140356Y-80545292D01*
X118142257Y-80547229D01*
X118197782Y-80585087D01*
X118311677Y-80664014D01*
X118314410Y-80664606D01*
X120399637Y-82086353D01*
X120514839Y-82165377D01*
X120585581Y-82180347D01*
X120652125Y-82208644D01*
X120722408Y-82209303D01*
X120791174Y-82223855D01*
X120862263Y-82210613D01*
X120934568Y-82211291D01*
X121064361Y-82158948D01*
X122555381Y-81562540D01*
X122612556Y-81541325D01*
X122620240Y-81536596D01*
X122628611Y-81533248D01*
X122679700Y-81500006D01*
X123902296Y-80747640D01*
X124953163Y-80397351D01*
X126617187Y-80212459D01*
X126665000Y-80215447D01*
X126665000Y-80405544D01*
X126650000Y-80402560D01*
X125750000Y-80402560D01*
X125502235Y-80451843D01*
X125292191Y-80592191D01*
X125151843Y-80802235D01*
X125115559Y-80984649D01*
X125115526Y-80984671D01*
X125115524Y-80984673D01*
X125052071Y-81027071D01*
X125009673Y-81090524D01*
X123715522Y-82384677D01*
X123652063Y-82427079D01*
X123484088Y-82678472D01*
X123439992Y-82900157D01*
X123439992Y-82900161D01*
X123425104Y-82975008D01*
X123439992Y-83049855D01*
X123439993Y-87696288D01*
X123348928Y-87787353D01*
X123252071Y-87852071D01*
X123209671Y-87915527D01*
X122015528Y-89109671D01*
X121952072Y-89152071D01*
X121909672Y-89215527D01*
X121909671Y-89215528D01*
X121814203Y-89358406D01*
X121809494Y-89365454D01*
X121752235Y-89376843D01*
X121542191Y-89517191D01*
X121401843Y-89727235D01*
X121352560Y-89975000D01*
X121352560Y-90765000D01*
X121194126Y-90765000D01*
X120813720Y-90922569D01*
X120522569Y-91213720D01*
X120365000Y-91594126D01*
X120365000Y-91828342D01*
X120035466Y-91279118D01*
X119565360Y-90150864D01*
X119186405Y-89013999D01*
X118821901Y-87282609D01*
X118823412Y-87273207D01*
X118792881Y-87144762D01*
X118780364Y-87085307D01*
X118776724Y-87076788D01*
X118758093Y-86998409D01*
X118721756Y-86948159D01*
X118697388Y-86891134D01*
X118639789Y-86834805D01*
X118592584Y-86769525D01*
X118539784Y-86737005D01*
X118495448Y-86693647D01*
X118420682Y-86663650D01*
X118352084Y-86621400D01*
X118290855Y-86611561D01*
X118233304Y-86588471D01*
X118152748Y-86589369D01*
X118143599Y-86587899D01*
X118082869Y-86590148D01*
X117950868Y-86591620D01*
X117942113Y-86595361D01*
X115424428Y-86688609D01*
X115405358Y-86686586D01*
X115354697Y-86691192D01*
X115303844Y-86693075D01*
X115285181Y-86697511D01*
X110950565Y-87091567D01*
X110895637Y-87094240D01*
X110881054Y-87097886D01*
X110866081Y-87099247D01*
X110813333Y-87114816D01*
X108119503Y-87788274D01*
X108072810Y-87787352D01*
X107983661Y-87822234D01*
X107959962Y-87828159D01*
X107918691Y-87847655D01*
X107876168Y-87864294D01*
X107855584Y-87877468D01*
X107769035Y-87918354D01*
X107737660Y-87952939D01*
X105386674Y-89457572D01*
X105331172Y-89477095D01*
X105268834Y-89532989D01*
X105258376Y-89539682D01*
X105216866Y-89579585D01*
X105173955Y-89618060D01*
X105166498Y-89628003D01*
X105106146Y-89686018D01*
X105082565Y-89739913D01*
X103689277Y-91597632D01*
X103653119Y-91625694D01*
X103605253Y-91709664D01*
X103590045Y-91729941D01*
X103570708Y-91770265D01*
X103548547Y-91809141D01*
X103540527Y-91833202D01*
X103498740Y-91920340D01*
X103496249Y-91966034D01*
X102756622Y-94184920D01*
X102731196Y-94222972D01*
X102712341Y-94317761D01*
X102704323Y-94341816D01*
X102698727Y-94386205D01*
X102690001Y-94430074D01*
X102690001Y-94455423D01*
X102677912Y-94551317D01*
X102690001Y-94595460D01*
X102690000Y-96525703D01*
X102676145Y-96591174D01*
X102690000Y-96665556D01*
X102690000Y-96669925D01*
X102702803Y-96734289D01*
X102714812Y-96798762D01*
X102716434Y-96802816D01*
X102731195Y-96877027D01*
X102768376Y-96932673D01*
X103292561Y-98243132D01*
X103292774Y-98254517D01*
X103344859Y-98373879D01*
X103366752Y-98428611D01*
X103372795Y-98437898D01*
X103377226Y-98448053D01*
X103410889Y-98496443D01*
X103481915Y-98605601D01*
X103491306Y-98612043D01*
X105013410Y-100800070D01*
X105048510Y-100852600D01*
X105053251Y-100857341D01*
X105057089Y-100862858D01*
X105102687Y-100906777D01*
X107794343Y-103598435D01*
X107839346Y-103644781D01*
X107843673Y-103647765D01*
X107847399Y-103651491D01*
X107901232Y-103687461D01*
X110793836Y-105682362D01*
X110847743Y-105720406D01*
X110851280Y-105721978D01*
X110854473Y-105724180D01*
X110915148Y-105750364D01*
X112600489Y-106499404D01*
X112241078Y-106858815D01*
X112015000Y-107404615D01*
X112015000Y-107894064D01*
X111123396Y-107467646D01*
X108978893Y-106297917D01*
X106554389Y-104552274D01*
X104538525Y-102632406D01*
X103110132Y-100632655D01*
X101791673Y-97995739D01*
X101710000Y-97260681D01*
X101710000Y-96016888D01*
X101805489Y-94011620D01*
X102366485Y-91954637D01*
X103002813Y-90681982D01*
X104010039Y-89400058D01*
X105028987Y-88566373D01*
X106928231Y-87236904D01*
X109874241Y-86191546D01*
X112378546Y-85806269D01*
X115201579Y-85611577D01*
X118119165Y-85799808D01*
X118124427Y-85802294D01*
X118259869Y-85808886D01*
X118324069Y-85813028D01*
X118329678Y-85812284D01*
X118406547Y-85816025D01*
X118468332Y-85793886D01*
X118533394Y-85785253D01*
X118600005Y-85746704D01*
X118672448Y-85720746D01*
X118721055Y-85676651D01*
X118777863Y-85643775D01*
X118824651Y-85582670D01*
X118881646Y-85530965D01*
X118909679Y-85471624D01*
X118949581Y-85419512D01*
X118969423Y-85345156D01*
X118971841Y-85340038D01*
X118987447Y-85277615D01*
X119022407Y-85146606D01*
X119021641Y-85140836D01*
X119078284Y-84914265D01*
X119113398Y-84822913D01*
X119110444Y-84708132D01*
X119116025Y-84593452D01*
X119106831Y-84567795D01*
X119106130Y-84540551D01*
X119059476Y-84435637D01*
X119020746Y-84327552D01*
X119002436Y-84307368D01*
X118991361Y-84282464D01*
X118908106Y-84203387D01*
X118830965Y-84118353D01*
X118742481Y-84076553D01*
X116938258Y-82937044D01*
X116938257Y-82937043D01*
X115058756Y-81749990D01*
X112870007Y-79370917D01*
X111557333Y-77214381D01*
X110900338Y-74867969D01*
X110713933Y-73003923D01*
X110898176Y-71345739D01*
X111752214Y-68593837D01*
X113366490Y-65935031D01*
X115562237Y-63643817D01*
X117084143Y-62597508D01*
X118541922Y-61722843D01*
X120272397Y-60857606D01*
X121686003Y-60386404D01*
X123523461Y-59999571D01*
X125573932Y-59706646D01*
X127023638Y-59610000D01*
X129119876Y-59610000D01*
X128915000Y-60104615D01*
G36*
X153431782Y-89697976D02*
X153597855Y-89697976D01*
X154395001Y-90495123D01*
X154395001Y-90924666D01*
X154311310Y-90890000D01*
X154170750Y-90890000D01*
X154012000Y-91048750D01*
X154012000Y-92373000D01*
X154032000Y-92373000D01*
X154032000Y-92627000D01*
X154012000Y-92627000D01*
X154012000Y-93951250D01*
X154170750Y-94110000D01*
X154311310Y-94110000D01*
X154528028Y-94020232D01*
X154607235Y-94073157D01*
X154855000Y-94122440D01*
X155455000Y-94122440D01*
X155702765Y-94073157D01*
X155790000Y-94014868D01*
X155877235Y-94073157D01*
X156125000Y-94122440D01*
X156725000Y-94122440D01*
X156972765Y-94073157D01*
X157060000Y-94014868D01*
X157147235Y-94073157D01*
X157395000Y-94122440D01*
X157995000Y-94122440D01*
X158242765Y-94073157D01*
X158330000Y-94014868D01*
X158417235Y-94073157D01*
X158665000Y-94122440D01*
X158837639Y-94122440D01*
X159599671Y-94884473D01*
X159642071Y-94947929D01*
X159893463Y-95115904D01*
X160115148Y-95160000D01*
X160115152Y-95160000D01*
X160190000Y-95174888D01*
X160264848Y-95160000D01*
X169475933Y-95160000D01*
X168949406Y-95378095D01*
X168278495Y-96049006D01*
X167915400Y-96925594D01*
X167915400Y-97874406D01*
X168278495Y-98750994D01*
X168355861Y-98828360D01*
X154490394Y-98828360D01*
X154372963Y-98710929D01*
X153992557Y-98553360D01*
X153580809Y-98553360D01*
X153360022Y-98644813D01*
X153360022Y-94069130D01*
X153458690Y-94110000D01*
X153599250Y-94110000D01*
X153758000Y-93951250D01*
X153758000Y-92627000D01*
X153738000Y-92627000D01*
X153738000Y-92373000D01*
X153758000Y-92373000D01*
X153758000Y-91048750D01*
X153599250Y-90890000D01*
X153458690Y-90890000D01*
X153360022Y-90930870D01*
X153360022Y-89861851D01*
X153374910Y-89787003D01*
X153360022Y-89712155D01*
X153360022Y-89712151D01*
X153350506Y-89664310D01*
X153431782Y-89697976D01*
X153431782Y-89697976D01*
G37*
X153431782Y-89697976D02*
X153597855Y-89697976D01*
X154395001Y-90495123D01*
X154395001Y-90924666D01*
X154311310Y-90890000D01*
X154170750Y-90890000D01*
X154012000Y-91048750D01*
X154012000Y-92373000D01*
X154032000Y-92373000D01*
X154032000Y-92627000D01*
X154012000Y-92627000D01*
X154012000Y-93951250D01*
X154170750Y-94110000D01*
X154311310Y-94110000D01*
X154528028Y-94020232D01*
X154607235Y-94073157D01*
X154855000Y-94122440D01*
X155455000Y-94122440D01*
X155702765Y-94073157D01*
X155790000Y-94014868D01*
X155877235Y-94073157D01*
X156125000Y-94122440D01*
X156725000Y-94122440D01*
X156972765Y-94073157D01*
X157060000Y-94014868D01*
X157147235Y-94073157D01*
X157395000Y-94122440D01*
X157995000Y-94122440D01*
X158242765Y-94073157D01*
X158330000Y-94014868D01*
X158417235Y-94073157D01*
X158665000Y-94122440D01*
X158837639Y-94122440D01*
X159599671Y-94884473D01*
X159642071Y-94947929D01*
X159893463Y-95115904D01*
X160115148Y-95160000D01*
X160115152Y-95160000D01*
X160190000Y-95174888D01*
X160264848Y-95160000D01*
X169475933Y-95160000D01*
X168949406Y-95378095D01*
X168278495Y-96049006D01*
X167915400Y-96925594D01*
X167915400Y-97874406D01*
X168278495Y-98750994D01*
X168355861Y-98828360D01*
X154490394Y-98828360D01*
X154372963Y-98710929D01*
X153992557Y-98553360D01*
X153580809Y-98553360D01*
X153360022Y-98644813D01*
X153360022Y-94069130D01*
X153458690Y-94110000D01*
X153599250Y-94110000D01*
X153758000Y-93951250D01*
X153758000Y-92627000D01*
X153738000Y-92627000D01*
X153738000Y-92373000D01*
X153758000Y-92373000D01*
X153758000Y-91048750D01*
X153599250Y-90890000D01*
X153458690Y-90890000D01*
X153360022Y-90930870D01*
X153360022Y-89861851D01*
X153374910Y-89787003D01*
X153360022Y-89712155D01*
X153360022Y-89712151D01*
X153350506Y-89664310D01*
X153431782Y-89697976D01*
G36*
X156112538Y-87766353D02*
X156117465Y-87791125D01*
X156123454Y-87838630D01*
X156132036Y-87864375D01*
X156152219Y-87965843D01*
X156179437Y-88006578D01*
X156228247Y-88153007D01*
X156237792Y-88228722D01*
X156275586Y-88295022D01*
X156275587Y-88295026D01*
X156387524Y-88491391D01*
X156626376Y-88676763D01*
X156699985Y-88696921D01*
X156786143Y-88740000D01*
X155814802Y-88740000D01*
X154390331Y-87315530D01*
X154347929Y-87252071D01*
X154306915Y-87224666D01*
X156112538Y-87766353D01*
X156112538Y-87766353D01*
G37*
X156112538Y-87766353D02*
X156117465Y-87791125D01*
X156123454Y-87838630D01*
X156132036Y-87864375D01*
X156152219Y-87965843D01*
X156179437Y-88006578D01*
X156228247Y-88153007D01*
X156237792Y-88228722D01*
X156275586Y-88295022D01*
X156275587Y-88295026D01*
X156387524Y-88491391D01*
X156626376Y-88676763D01*
X156699985Y-88696921D01*
X156786143Y-88740000D01*
X155814802Y-88740000D01*
X154390331Y-87315530D01*
X154347929Y-87252071D01*
X154306915Y-87224666D01*
X156112538Y-87766353D01*
G36*
X150997927Y-86104245D02*
X151899224Y-86297380D01*
X151878895Y-86361756D01*
X151873478Y-86411012D01*
X151887323Y-86458592D01*
X151918323Y-86497251D01*
X151963507Y-86521644D01*
X153691360Y-87040000D01*
X149489482Y-87040000D01*
X148955634Y-86506153D01*
X148955634Y-86340080D01*
X148798065Y-85959674D01*
X148771362Y-85932971D01*
X150997927Y-86104245D01*
X150997927Y-86104245D01*
G37*
X150997927Y-86104245D02*
X151899224Y-86297380D01*
X151878895Y-86361756D01*
X151873478Y-86411012D01*
X151887323Y-86458592D01*
X151918323Y-86497251D01*
X151963507Y-86521644D01*
X153691360Y-87040000D01*
X149489482Y-87040000D01*
X148955634Y-86506153D01*
X148955634Y-86340080D01*
X148798065Y-85959674D01*
X148771362Y-85932971D01*
X150997927Y-86104245D01*
G04 #@! TO.N,+3V3*
G36*
X163230423Y-76090562D02*
X163323007Y-76214008D01*
X163394399Y-76318084D01*
X163466832Y-76365215D01*
X163531173Y-76422905D01*
X163650236Y-76464787D01*
X164033916Y-76618260D01*
X164057799Y-76637920D01*
X164164163Y-76670359D01*
X164201236Y-76685188D01*
X164230912Y-76690716D01*
X164259774Y-76699518D01*
X164299491Y-76703490D01*
X164408825Y-76723855D01*
X164439092Y-76717450D01*
X165132371Y-76786778D01*
X165273445Y-76892584D01*
X165281916Y-76905602D01*
X165385982Y-76976986D01*
X165429940Y-77009955D01*
X165443580Y-77016496D01*
X165456046Y-77025047D01*
X165506524Y-77046680D01*
X165620339Y-77101260D01*
X165635848Y-77102105D01*
X166183347Y-77336749D01*
X166209141Y-77351452D01*
X166247455Y-77364223D01*
X166284589Y-77380138D01*
X166313646Y-77386287D01*
X167441306Y-77762174D01*
X167472215Y-77776094D01*
X167507481Y-77784232D01*
X167541815Y-77795677D01*
X167575447Y-77799917D01*
X168682759Y-78055451D01*
X168994330Y-78304708D01*
X169032744Y-78352915D01*
X169103548Y-78392083D01*
X169111069Y-78398099D01*
X169164695Y-78425908D01*
X169217516Y-78455127D01*
X169226685Y-78458053D01*
X169298523Y-78495306D01*
X169359942Y-78500582D01*
X173949104Y-79965209D01*
X175498760Y-80643184D01*
X176476011Y-81131810D01*
X176594508Y-81194130D01*
X176672824Y-81201314D01*
X176748682Y-81222088D01*
X176881538Y-81205340D01*
X178737258Y-81010000D01*
X181753874Y-81010000D01*
X181777458Y-81013078D01*
X181823628Y-81010000D01*
X181869926Y-81010000D01*
X181893265Y-81005358D01*
X183309183Y-80910964D01*
X183340945Y-80912259D01*
X183378782Y-80906324D01*
X183416999Y-80903776D01*
X183447698Y-80895513D01*
X188474902Y-80106933D01*
X190309202Y-80005028D01*
X190309205Y-80005027D01*
X191977222Y-79912360D01*
X192859794Y-80018269D01*
X192804891Y-80223172D01*
X192917144Y-80417600D01*
X193592567Y-80598579D01*
X193597743Y-80579260D01*
X193843089Y-80645001D01*
X193837913Y-80664319D01*
X193857232Y-80669495D01*
X193791491Y-80914841D01*
X193772173Y-80909665D01*
X193766997Y-80928984D01*
X193521651Y-80863243D01*
X193526827Y-80843925D01*
X192851404Y-80662945D01*
X192656976Y-80775199D01*
X192595392Y-81005032D01*
X192585198Y-81043075D01*
X191834493Y-80828587D01*
X191807810Y-80817502D01*
X191767427Y-80809425D01*
X191727816Y-80798108D01*
X191699010Y-80795742D01*
X190837708Y-80623482D01*
X190801476Y-80604693D01*
X190700316Y-80596003D01*
X190670674Y-80590075D01*
X190630816Y-80590033D01*
X190591092Y-80586621D01*
X190561039Y-80589960D01*
X190459516Y-80589854D01*
X190421797Y-80605432D01*
X189705270Y-80685046D01*
X189648682Y-80677912D01*
X189566213Y-80700496D01*
X189552096Y-80702065D01*
X189498888Y-80718934D01*
X189445022Y-80733685D01*
X189432310Y-80740041D01*
X189350810Y-80765879D01*
X189307180Y-80802606D01*
X188504777Y-81203808D01*
X186302572Y-81387325D01*
X186294425Y-81386587D01*
X186232946Y-81393127D01*
X186171354Y-81398260D01*
X186163494Y-81400516D01*
X181575965Y-81888552D01*
X179043155Y-81791136D01*
X176666903Y-81593115D01*
X176605358Y-81586586D01*
X176597323Y-81587316D01*
X176589278Y-81586646D01*
X176527757Y-81593641D01*
X174505448Y-81777486D01*
X174280391Y-81687464D01*
X174268827Y-81677095D01*
X174149761Y-81635212D01*
X174098762Y-81614812D01*
X174083898Y-81612043D01*
X174069632Y-81607025D01*
X174015245Y-81599255D01*
X173891174Y-81576145D01*
X173875980Y-81579360D01*
X173442345Y-81517413D01*
X173123466Y-81326085D01*
X173068827Y-81277095D01*
X172937478Y-81230891D01*
X172806547Y-81183975D01*
X172733253Y-81187542D01*
X172214467Y-81113430D01*
X172038402Y-81025397D01*
X172034345Y-81020873D01*
X171912319Y-80962356D01*
X171854977Y-80933685D01*
X171849275Y-80932123D01*
X171779660Y-80898740D01*
X171714378Y-80895182D01*
X171651317Y-80877912D01*
X171574716Y-80887569D01*
X171568814Y-80887247D01*
X171505350Y-80896313D01*
X171371080Y-80913240D01*
X171365802Y-80916249D01*
X171151022Y-80946932D01*
X171129570Y-80925480D01*
X171065567Y-80845661D01*
X170968802Y-80792518D01*
X170877028Y-80731196D01*
X170776699Y-80711239D01*
X167061702Y-79538083D01*
X166979660Y-79498740D01*
X166858168Y-79492118D01*
X166737230Y-79478818D01*
X166649868Y-79504239D01*
X166317917Y-79551661D01*
X165936138Y-79224422D01*
X165911881Y-79188119D01*
X165829794Y-79133270D01*
X165808970Y-79115421D01*
X165771786Y-79094511D01*
X165677028Y-79031195D01*
X165649437Y-79025707D01*
X165624917Y-79011918D01*
X165511775Y-78998324D01*
X165469926Y-78990000D01*
X165442492Y-78990000D01*
X165344479Y-78978224D01*
X165302440Y-78990000D01*
X164943606Y-78990000D01*
X164293911Y-78484682D01*
X164250103Y-78433034D01*
X164183517Y-78398820D01*
X164180701Y-78396630D01*
X164121322Y-78366863D01*
X164062287Y-78336529D01*
X164058859Y-78335550D01*
X163991933Y-78301999D01*
X163924382Y-78297127D01*
X163344575Y-78131468D01*
X163262777Y-78094630D01*
X163139905Y-78090888D01*
X163017366Y-78080823D01*
X162999357Y-78086607D01*
X162980453Y-78086031D01*
X162875079Y-78125965D01*
X162785188Y-77901237D01*
X162772132Y-77831146D01*
X162688312Y-77702328D01*
X162618084Y-77594399D01*
X162606479Y-77586438D01*
X162484566Y-77502811D01*
X162385161Y-77434623D01*
X162315409Y-77419862D01*
X161724454Y-77166595D01*
X161645202Y-77118884D01*
X161526390Y-77101024D01*
X161408826Y-77076145D01*
X161387417Y-77080133D01*
X161365885Y-77076896D01*
X161249273Y-77105865D01*
X161131147Y-77127868D01*
X161112896Y-77139744D01*
X161091761Y-77144994D01*
X160995107Y-77216387D01*
X160894398Y-77281916D01*
X160882081Y-77299873D01*
X160864564Y-77312811D01*
X160802585Y-77415762D01*
X160734623Y-77514839D01*
X160715472Y-77605337D01*
X159834840Y-80051539D01*
X158642435Y-83131919D01*
X157755631Y-85201130D01*
X157004724Y-86702945D01*
X156924094Y-86673625D01*
X157035000Y-86405874D01*
X157035000Y-85994126D01*
X156877431Y-85613720D01*
X156586280Y-85322569D01*
X156205874Y-85165000D01*
X155794126Y-85165000D01*
X155413720Y-85322569D01*
X155122569Y-85613720D01*
X154976843Y-85965534D01*
X154694159Y-85862740D01*
X155559585Y-83266459D01*
X156637838Y-81011930D01*
X157224235Y-79839138D01*
X158182569Y-78209971D01*
X159107297Y-77100299D01*
X159710842Y-76582975D01*
X160291217Y-76251333D01*
X161015215Y-76010000D01*
X161780294Y-76010000D01*
X163230423Y-76090562D01*
X163230423Y-76090562D01*
G37*
X163230423Y-76090562D02*
X163323007Y-76214008D01*
X163394399Y-76318084D01*
X163466832Y-76365215D01*
X163531173Y-76422905D01*
X163650236Y-76464787D01*
X164033916Y-76618260D01*
X164057799Y-76637920D01*
X164164163Y-76670359D01*
X164201236Y-76685188D01*
X164230912Y-76690716D01*
X164259774Y-76699518D01*
X164299491Y-76703490D01*
X164408825Y-76723855D01*
X164439092Y-76717450D01*
X165132371Y-76786778D01*
X165273445Y-76892584D01*
X165281916Y-76905602D01*
X165385982Y-76976986D01*
X165429940Y-77009955D01*
X165443580Y-77016496D01*
X165456046Y-77025047D01*
X165506524Y-77046680D01*
X165620339Y-77101260D01*
X165635848Y-77102105D01*
X166183347Y-77336749D01*
X166209141Y-77351452D01*
X166247455Y-77364223D01*
X166284589Y-77380138D01*
X166313646Y-77386287D01*
X167441306Y-77762174D01*
X167472215Y-77776094D01*
X167507481Y-77784232D01*
X167541815Y-77795677D01*
X167575447Y-77799917D01*
X168682759Y-78055451D01*
X168994330Y-78304708D01*
X169032744Y-78352915D01*
X169103548Y-78392083D01*
X169111069Y-78398099D01*
X169164695Y-78425908D01*
X169217516Y-78455127D01*
X169226685Y-78458053D01*
X169298523Y-78495306D01*
X169359942Y-78500582D01*
X173949104Y-79965209D01*
X175498760Y-80643184D01*
X176476011Y-81131810D01*
X176594508Y-81194130D01*
X176672824Y-81201314D01*
X176748682Y-81222088D01*
X176881538Y-81205340D01*
X178737258Y-81010000D01*
X181753874Y-81010000D01*
X181777458Y-81013078D01*
X181823628Y-81010000D01*
X181869926Y-81010000D01*
X181893265Y-81005358D01*
X183309183Y-80910964D01*
X183340945Y-80912259D01*
X183378782Y-80906324D01*
X183416999Y-80903776D01*
X183447698Y-80895513D01*
X188474902Y-80106933D01*
X190309202Y-80005028D01*
X190309205Y-80005027D01*
X191977222Y-79912360D01*
X192859794Y-80018269D01*
X192804891Y-80223172D01*
X192917144Y-80417600D01*
X193592567Y-80598579D01*
X193597743Y-80579260D01*
X193843089Y-80645001D01*
X193837913Y-80664319D01*
X193857232Y-80669495D01*
X193791491Y-80914841D01*
X193772173Y-80909665D01*
X193766997Y-80928984D01*
X193521651Y-80863243D01*
X193526827Y-80843925D01*
X192851404Y-80662945D01*
X192656976Y-80775199D01*
X192595392Y-81005032D01*
X192585198Y-81043075D01*
X191834493Y-80828587D01*
X191807810Y-80817502D01*
X191767427Y-80809425D01*
X191727816Y-80798108D01*
X191699010Y-80795742D01*
X190837708Y-80623482D01*
X190801476Y-80604693D01*
X190700316Y-80596003D01*
X190670674Y-80590075D01*
X190630816Y-80590033D01*
X190591092Y-80586621D01*
X190561039Y-80589960D01*
X190459516Y-80589854D01*
X190421797Y-80605432D01*
X189705270Y-80685046D01*
X189648682Y-80677912D01*
X189566213Y-80700496D01*
X189552096Y-80702065D01*
X189498888Y-80718934D01*
X189445022Y-80733685D01*
X189432310Y-80740041D01*
X189350810Y-80765879D01*
X189307180Y-80802606D01*
X188504777Y-81203808D01*
X186302572Y-81387325D01*
X186294425Y-81386587D01*
X186232946Y-81393127D01*
X186171354Y-81398260D01*
X186163494Y-81400516D01*
X181575965Y-81888552D01*
X179043155Y-81791136D01*
X176666903Y-81593115D01*
X176605358Y-81586586D01*
X176597323Y-81587316D01*
X176589278Y-81586646D01*
X176527757Y-81593641D01*
X174505448Y-81777486D01*
X174280391Y-81687464D01*
X174268827Y-81677095D01*
X174149761Y-81635212D01*
X174098762Y-81614812D01*
X174083898Y-81612043D01*
X174069632Y-81607025D01*
X174015245Y-81599255D01*
X173891174Y-81576145D01*
X173875980Y-81579360D01*
X173442345Y-81517413D01*
X173123466Y-81326085D01*
X173068827Y-81277095D01*
X172937478Y-81230891D01*
X172806547Y-81183975D01*
X172733253Y-81187542D01*
X172214467Y-81113430D01*
X172038402Y-81025397D01*
X172034345Y-81020873D01*
X171912319Y-80962356D01*
X171854977Y-80933685D01*
X171849275Y-80932123D01*
X171779660Y-80898740D01*
X171714378Y-80895182D01*
X171651317Y-80877912D01*
X171574716Y-80887569D01*
X171568814Y-80887247D01*
X171505350Y-80896313D01*
X171371080Y-80913240D01*
X171365802Y-80916249D01*
X171151022Y-80946932D01*
X171129570Y-80925480D01*
X171065567Y-80845661D01*
X170968802Y-80792518D01*
X170877028Y-80731196D01*
X170776699Y-80711239D01*
X167061702Y-79538083D01*
X166979660Y-79498740D01*
X166858168Y-79492118D01*
X166737230Y-79478818D01*
X166649868Y-79504239D01*
X166317917Y-79551661D01*
X165936138Y-79224422D01*
X165911881Y-79188119D01*
X165829794Y-79133270D01*
X165808970Y-79115421D01*
X165771786Y-79094511D01*
X165677028Y-79031195D01*
X165649437Y-79025707D01*
X165624917Y-79011918D01*
X165511775Y-78998324D01*
X165469926Y-78990000D01*
X165442492Y-78990000D01*
X165344479Y-78978224D01*
X165302440Y-78990000D01*
X164943606Y-78990000D01*
X164293911Y-78484682D01*
X164250103Y-78433034D01*
X164183517Y-78398820D01*
X164180701Y-78396630D01*
X164121322Y-78366863D01*
X164062287Y-78336529D01*
X164058859Y-78335550D01*
X163991933Y-78301999D01*
X163924382Y-78297127D01*
X163344575Y-78131468D01*
X163262777Y-78094630D01*
X163139905Y-78090888D01*
X163017366Y-78080823D01*
X162999357Y-78086607D01*
X162980453Y-78086031D01*
X162875079Y-78125965D01*
X162785188Y-77901237D01*
X162772132Y-77831146D01*
X162688312Y-77702328D01*
X162618084Y-77594399D01*
X162606479Y-77586438D01*
X162484566Y-77502811D01*
X162385161Y-77434623D01*
X162315409Y-77419862D01*
X161724454Y-77166595D01*
X161645202Y-77118884D01*
X161526390Y-77101024D01*
X161408826Y-77076145D01*
X161387417Y-77080133D01*
X161365885Y-77076896D01*
X161249273Y-77105865D01*
X161131147Y-77127868D01*
X161112896Y-77139744D01*
X161091761Y-77144994D01*
X160995107Y-77216387D01*
X160894398Y-77281916D01*
X160882081Y-77299873D01*
X160864564Y-77312811D01*
X160802585Y-77415762D01*
X160734623Y-77514839D01*
X160715472Y-77605337D01*
X159834840Y-80051539D01*
X158642435Y-83131919D01*
X157755631Y-85201130D01*
X157004724Y-86702945D01*
X156924094Y-86673625D01*
X157035000Y-86405874D01*
X157035000Y-85994126D01*
X156877431Y-85613720D01*
X156586280Y-85322569D01*
X156205874Y-85165000D01*
X155794126Y-85165000D01*
X155413720Y-85322569D01*
X155122569Y-85613720D01*
X154976843Y-85965534D01*
X154694159Y-85862740D01*
X155559585Y-83266459D01*
X156637838Y-81011930D01*
X157224235Y-79839138D01*
X158182569Y-78209971D01*
X159107297Y-77100299D01*
X159710842Y-76582975D01*
X160291217Y-76251333D01*
X161015215Y-76010000D01*
X161780294Y-76010000D01*
X163230423Y-76090562D01*
G04 #@! TD*
M02*
