G04 #@! TF.GenerationSoftware,KiCad,Pcbnew,5.0.0-fee4fd1~66~ubuntu18.04.1*
G04 #@! TF.CreationDate,2018-09-07T22:29:42-07:00*
G04 #@! TF.ProjectId,trevor2,747265766F72322E6B696361645F7063,rev?*
G04 #@! TF.SameCoordinates,Original*
G04 #@! TF.FileFunction,Soldermask,Top*
G04 #@! TF.FilePolarity,Negative*
%FSLAX46Y46*%
G04 Gerber Fmt 4.6, Leading zero omitted, Abs format (unit mm)*
G04 Created by KiCad (PCBNEW 5.0.0-fee4fd1~66~ubuntu18.04.1) date Fri Sep  7 22:29:42 2018*
%MOMM*%
%LPD*%
G01*
G04 APERTURE LIST*
%ADD10C,0.010000*%
%ADD11R,1.300000X1.250000*%
%ADD12C,3.900000*%
%ADD13C,2.100000*%
%ADD14R,2.100000X2.100000*%
%ADD15O,2.100000X2.100000*%
%ADD16C,1.300000*%
%ADD17C,1.100000*%
%ADD18C,0.100000*%
%ADD19R,1.000000X2.350000*%
G04 APERTURE END LIST*
D10*
G04 #@! TO.C,G\002A\002A\002A*
G36*
X135157053Y-90494434D02*
X135190056Y-90480078D01*
X135254144Y-90453903D01*
X135346491Y-90417008D01*
X135464275Y-90370500D01*
X135604672Y-90315478D01*
X135764860Y-90253047D01*
X135942015Y-90184307D01*
X136133313Y-90110362D01*
X136335932Y-90032315D01*
X136547048Y-89951267D01*
X136596648Y-89932265D01*
X137933808Y-89420183D01*
X138040657Y-89445925D01*
X138108150Y-89464405D01*
X138207551Y-89494854D01*
X138336781Y-89536525D01*
X138493762Y-89588674D01*
X138676416Y-89650557D01*
X138882662Y-89721429D01*
X139110423Y-89800547D01*
X139357621Y-89887164D01*
X139622176Y-89980537D01*
X139902011Y-90079923D01*
X140195046Y-90184576D01*
X140499203Y-90293752D01*
X140812403Y-90406706D01*
X141132569Y-90522694D01*
X141457621Y-90640972D01*
X141785480Y-90760795D01*
X142114069Y-90881419D01*
X142441309Y-91002099D01*
X142765120Y-91122092D01*
X143083424Y-91240651D01*
X143394144Y-91357034D01*
X143695199Y-91470496D01*
X143721708Y-91480523D01*
X144533327Y-91787622D01*
X144462482Y-91839066D01*
X144399298Y-91882366D01*
X144323241Y-91929481D01*
X144231667Y-91981768D01*
X144121931Y-92040587D01*
X143991387Y-92107298D01*
X143837388Y-92183259D01*
X143657292Y-92269829D01*
X143448452Y-92368370D01*
X143274772Y-92449365D01*
X143110709Y-92525864D01*
X142950238Y-92601237D01*
X142797731Y-92673393D01*
X142657559Y-92740241D01*
X142534092Y-92799689D01*
X142431702Y-92849646D01*
X142354761Y-92888022D01*
X142317634Y-92907275D01*
X142198357Y-92966380D01*
X142097404Y-93003743D01*
X142005201Y-93020829D01*
X141912173Y-93019100D01*
X141808748Y-93000021D01*
X141772380Y-92990624D01*
X141740600Y-92980391D01*
X141676496Y-92958283D01*
X141581812Y-92924931D01*
X141458286Y-92880964D01*
X141307661Y-92827014D01*
X141131675Y-92763709D01*
X140932070Y-92691681D01*
X140710586Y-92611560D01*
X140468963Y-92523976D01*
X140208943Y-92429560D01*
X139932266Y-92328941D01*
X139640673Y-92222752D01*
X139335903Y-92111621D01*
X139019697Y-91996178D01*
X138693797Y-91877056D01*
X138359942Y-91754882D01*
X138340315Y-91747696D01*
X135054618Y-90544521D01*
X135157053Y-90494434D01*
X135157053Y-90494434D01*
G37*
X135157053Y-90494434D02*
X135190056Y-90480078D01*
X135254144Y-90453903D01*
X135346491Y-90417008D01*
X135464275Y-90370500D01*
X135604672Y-90315478D01*
X135764860Y-90253047D01*
X135942015Y-90184307D01*
X136133313Y-90110362D01*
X136335932Y-90032315D01*
X136547048Y-89951267D01*
X136596648Y-89932265D01*
X137933808Y-89420183D01*
X138040657Y-89445925D01*
X138108150Y-89464405D01*
X138207551Y-89494854D01*
X138336781Y-89536525D01*
X138493762Y-89588674D01*
X138676416Y-89650557D01*
X138882662Y-89721429D01*
X139110423Y-89800547D01*
X139357621Y-89887164D01*
X139622176Y-89980537D01*
X139902011Y-90079923D01*
X140195046Y-90184576D01*
X140499203Y-90293752D01*
X140812403Y-90406706D01*
X141132569Y-90522694D01*
X141457621Y-90640972D01*
X141785480Y-90760795D01*
X142114069Y-90881419D01*
X142441309Y-91002099D01*
X142765120Y-91122092D01*
X143083424Y-91240651D01*
X143394144Y-91357034D01*
X143695199Y-91470496D01*
X143721708Y-91480523D01*
X144533327Y-91787622D01*
X144462482Y-91839066D01*
X144399298Y-91882366D01*
X144323241Y-91929481D01*
X144231667Y-91981768D01*
X144121931Y-92040587D01*
X143991387Y-92107298D01*
X143837388Y-92183259D01*
X143657292Y-92269829D01*
X143448452Y-92368370D01*
X143274772Y-92449365D01*
X143110709Y-92525864D01*
X142950238Y-92601237D01*
X142797731Y-92673393D01*
X142657559Y-92740241D01*
X142534092Y-92799689D01*
X142431702Y-92849646D01*
X142354761Y-92888022D01*
X142317634Y-92907275D01*
X142198357Y-92966380D01*
X142097404Y-93003743D01*
X142005201Y-93020829D01*
X141912173Y-93019100D01*
X141808748Y-93000021D01*
X141772380Y-92990624D01*
X141740600Y-92980391D01*
X141676496Y-92958283D01*
X141581812Y-92924931D01*
X141458286Y-92880964D01*
X141307661Y-92827014D01*
X141131675Y-92763709D01*
X140932070Y-92691681D01*
X140710586Y-92611560D01*
X140468963Y-92523976D01*
X140208943Y-92429560D01*
X139932266Y-92328941D01*
X139640673Y-92222752D01*
X139335903Y-92111621D01*
X139019697Y-91996178D01*
X138693797Y-91877056D01*
X138359942Y-91754882D01*
X138340315Y-91747696D01*
X135054618Y-90544521D01*
X135157053Y-90494434D01*
G36*
X139688482Y-97335627D02*
X139883501Y-97405641D01*
X140089454Y-97480295D01*
X140299532Y-97557075D01*
X140506923Y-97633463D01*
X140704816Y-97706948D01*
X140886400Y-97775013D01*
X141044866Y-97835144D01*
X141129948Y-97867891D01*
X141705211Y-98090936D01*
X141752066Y-98253959D01*
X141795389Y-98383200D01*
X141858415Y-98539223D01*
X141939818Y-98719238D01*
X142038273Y-98920454D01*
X142152454Y-99140084D01*
X142281034Y-99375336D01*
X142306960Y-99421530D01*
X142437224Y-99655527D01*
X142549174Y-99863134D01*
X142644608Y-100048165D01*
X142725322Y-100214434D01*
X142793114Y-100365754D01*
X142849778Y-100505939D01*
X142897112Y-100638803D01*
X142929913Y-100743900D01*
X142955918Y-100832696D01*
X141661634Y-100371379D01*
X141411141Y-100282081D01*
X141192439Y-100203965D01*
X141003141Y-100136019D01*
X140840867Y-100077225D01*
X140703232Y-100026567D01*
X140587852Y-99983029D01*
X140492344Y-99945596D01*
X140414324Y-99913251D01*
X140351410Y-99884978D01*
X140301217Y-99859761D01*
X140261362Y-99836584D01*
X140229461Y-99814430D01*
X140203132Y-99792286D01*
X140179990Y-99769132D01*
X140157652Y-99743954D01*
X140139444Y-99722481D01*
X140113381Y-99684194D01*
X140075687Y-99618746D01*
X140029512Y-99532116D01*
X139978003Y-99430283D01*
X139924311Y-99319223D01*
X139902673Y-99273005D01*
X139837582Y-99135882D01*
X139762560Y-98983165D01*
X139683845Y-98827226D01*
X139607680Y-98680435D01*
X139543803Y-98561516D01*
X139490366Y-98460938D01*
X139425942Y-98334146D01*
X139353960Y-98188222D01*
X139277852Y-98030251D01*
X139201049Y-97867314D01*
X139126982Y-97706497D01*
X139090550Y-97625754D01*
X138822279Y-97026409D01*
X139688482Y-97335627D01*
X139688482Y-97335627D01*
G37*
X139688482Y-97335627D02*
X139883501Y-97405641D01*
X140089454Y-97480295D01*
X140299532Y-97557075D01*
X140506923Y-97633463D01*
X140704816Y-97706948D01*
X140886400Y-97775013D01*
X141044866Y-97835144D01*
X141129948Y-97867891D01*
X141705211Y-98090936D01*
X141752066Y-98253959D01*
X141795389Y-98383200D01*
X141858415Y-98539223D01*
X141939818Y-98719238D01*
X142038273Y-98920454D01*
X142152454Y-99140084D01*
X142281034Y-99375336D01*
X142306960Y-99421530D01*
X142437224Y-99655527D01*
X142549174Y-99863134D01*
X142644608Y-100048165D01*
X142725322Y-100214434D01*
X142793114Y-100365754D01*
X142849778Y-100505939D01*
X142897112Y-100638803D01*
X142929913Y-100743900D01*
X142955918Y-100832696D01*
X141661634Y-100371379D01*
X141411141Y-100282081D01*
X141192439Y-100203965D01*
X141003141Y-100136019D01*
X140840867Y-100077225D01*
X140703232Y-100026567D01*
X140587852Y-99983029D01*
X140492344Y-99945596D01*
X140414324Y-99913251D01*
X140351410Y-99884978D01*
X140301217Y-99859761D01*
X140261362Y-99836584D01*
X140229461Y-99814430D01*
X140203132Y-99792286D01*
X140179990Y-99769132D01*
X140157652Y-99743954D01*
X140139444Y-99722481D01*
X140113381Y-99684194D01*
X140075687Y-99618746D01*
X140029512Y-99532116D01*
X139978003Y-99430283D01*
X139924311Y-99319223D01*
X139902673Y-99273005D01*
X139837582Y-99135882D01*
X139762560Y-98983165D01*
X139683845Y-98827226D01*
X139607680Y-98680435D01*
X139543803Y-98561516D01*
X139490366Y-98460938D01*
X139425942Y-98334146D01*
X139353960Y-98188222D01*
X139277852Y-98030251D01*
X139201049Y-97867314D01*
X139126982Y-97706497D01*
X139090550Y-97625754D01*
X138822279Y-97026409D01*
X139688482Y-97335627D01*
G36*
X132593364Y-92021644D02*
X132827137Y-91910267D01*
X133054897Y-91801330D01*
X133274079Y-91696082D01*
X133482120Y-91595773D01*
X133676458Y-91501651D01*
X133854527Y-91414967D01*
X134013767Y-91336969D01*
X134151614Y-91268908D01*
X134265505Y-91212032D01*
X134352876Y-91167590D01*
X134411166Y-91136832D01*
X134427333Y-91127724D01*
X134547698Y-91061651D01*
X134644617Y-91018820D01*
X134721273Y-90997830D01*
X134722654Y-90997619D01*
X134747720Y-90994261D01*
X134773227Y-90992191D01*
X134800768Y-90991956D01*
X134831944Y-90994100D01*
X134868349Y-90999172D01*
X134911579Y-91007717D01*
X134963232Y-91020282D01*
X135024904Y-91037413D01*
X135098191Y-91059657D01*
X135184690Y-91087560D01*
X135285997Y-91121670D01*
X135403708Y-91162531D01*
X135539421Y-91210692D01*
X135694731Y-91266698D01*
X135871236Y-91331096D01*
X136070531Y-91404431D01*
X136294213Y-91487252D01*
X136543879Y-91580104D01*
X136821124Y-91683535D01*
X137127546Y-91798088D01*
X137464742Y-91924312D01*
X137834305Y-92062754D01*
X137834517Y-92062834D01*
X138260280Y-92222291D01*
X138653599Y-92369430D01*
X139015970Y-92504779D01*
X139348884Y-92628864D01*
X139653838Y-92742209D01*
X139932323Y-92845342D01*
X140185835Y-92938786D01*
X140415867Y-93023071D01*
X140623913Y-93098719D01*
X140811467Y-93166257D01*
X140980022Y-93226212D01*
X141131073Y-93279109D01*
X141266114Y-93325473D01*
X141386637Y-93365832D01*
X141494138Y-93400710D01*
X141590110Y-93430634D01*
X141676047Y-93456129D01*
X141753444Y-93477722D01*
X141823792Y-93495937D01*
X141888588Y-93511302D01*
X141949323Y-93524341D01*
X142007493Y-93535581D01*
X142029582Y-93539551D01*
X142078608Y-93548675D01*
X142121111Y-93556716D01*
X142159622Y-93562782D01*
X142196675Y-93565977D01*
X142234800Y-93565407D01*
X142276530Y-93560180D01*
X142324397Y-93549399D01*
X142380934Y-93532171D01*
X142448673Y-93507602D01*
X142530144Y-93474799D01*
X142627882Y-93432865D01*
X142744416Y-93380909D01*
X142882282Y-93318035D01*
X143044008Y-93243348D01*
X143232129Y-93155956D01*
X143449177Y-93054965D01*
X143598516Y-92985531D01*
X143802131Y-92890621D01*
X143997346Y-92799042D01*
X144181482Y-92712087D01*
X144351854Y-92631049D01*
X144505781Y-92557223D01*
X144640581Y-92491901D01*
X144753573Y-92436376D01*
X144842071Y-92391944D01*
X144903398Y-92359899D01*
X144934869Y-92341532D01*
X144936926Y-92339972D01*
X144990847Y-92289452D01*
X145028983Y-92236737D01*
X145056300Y-92171840D01*
X145077764Y-92084775D01*
X145086069Y-92040110D01*
X145113209Y-91921254D01*
X145151020Y-91829069D01*
X145205196Y-91754286D01*
X145281432Y-91687631D01*
X145318424Y-91661803D01*
X145448049Y-91593418D01*
X145583660Y-91554401D01*
X145718843Y-91545427D01*
X145847182Y-91567171D01*
X145923609Y-91597954D01*
X146035809Y-91674560D01*
X146133871Y-91779020D01*
X146213048Y-91904137D01*
X146268597Y-92042718D01*
X146292743Y-92157696D01*
X146294402Y-92267501D01*
X146275956Y-92382678D01*
X146240654Y-92490721D01*
X146191745Y-92579124D01*
X146179069Y-92595181D01*
X146074483Y-92690181D01*
X145943983Y-92760933D01*
X145789415Y-92806558D01*
X145709203Y-92819046D01*
X145590583Y-92819489D01*
X145483254Y-92789355D01*
X145394750Y-92738841D01*
X145290398Y-92676099D01*
X145197493Y-92642350D01*
X145109116Y-92635296D01*
X145089020Y-92637168D01*
X145041504Y-92646496D01*
X144979142Y-92665012D01*
X144899955Y-92693588D01*
X144801968Y-92733092D01*
X144683203Y-92784397D01*
X144541683Y-92848372D01*
X144375431Y-92925889D01*
X144182470Y-93017818D01*
X143960823Y-93125030D01*
X143773158Y-93216686D01*
X143531509Y-93335019D01*
X143320040Y-93438328D01*
X143136400Y-93527663D01*
X142978236Y-93604075D01*
X142843198Y-93668613D01*
X142728933Y-93722328D01*
X142633093Y-93766272D01*
X142553323Y-93801495D01*
X142487275Y-93829045D01*
X142432596Y-93849977D01*
X142386934Y-93865338D01*
X142347939Y-93876179D01*
X142313258Y-93883552D01*
X142280543Y-93888506D01*
X142265548Y-93890258D01*
X142128895Y-93905101D01*
X138669856Y-92639433D01*
X138219379Y-92474679D01*
X137802184Y-92322258D01*
X137417523Y-92181901D01*
X137064650Y-92053339D01*
X136742819Y-91936304D01*
X136451282Y-91830527D01*
X136189294Y-91735740D01*
X135956108Y-91651673D01*
X135750978Y-91578059D01*
X135573156Y-91514628D01*
X135421898Y-91461111D01*
X135296456Y-91417242D01*
X135196083Y-91382749D01*
X135120034Y-91357366D01*
X135067562Y-91340823D01*
X135041962Y-91333750D01*
X134885971Y-91307389D01*
X134745009Y-91307931D01*
X134608912Y-91336165D01*
X134505206Y-91375416D01*
X134471352Y-91391331D01*
X134407437Y-91422321D01*
X134315840Y-91467204D01*
X134198940Y-91524802D01*
X134059119Y-91593935D01*
X133898756Y-91673419D01*
X133720229Y-91762078D01*
X133525920Y-91858729D01*
X133318208Y-91962192D01*
X133099473Y-92071288D01*
X132872095Y-92184836D01*
X132728474Y-92256627D01*
X131078688Y-93081624D01*
X131023970Y-93049232D01*
X130960338Y-93009046D01*
X130924660Y-92976771D01*
X130912340Y-92944279D01*
X130918783Y-92903447D01*
X130927284Y-92878241D01*
X130955627Y-92800369D01*
X132593364Y-92021644D01*
X132593364Y-92021644D01*
G37*
X132593364Y-92021644D02*
X132827137Y-91910267D01*
X133054897Y-91801330D01*
X133274079Y-91696082D01*
X133482120Y-91595773D01*
X133676458Y-91501651D01*
X133854527Y-91414967D01*
X134013767Y-91336969D01*
X134151614Y-91268908D01*
X134265505Y-91212032D01*
X134352876Y-91167590D01*
X134411166Y-91136832D01*
X134427333Y-91127724D01*
X134547698Y-91061651D01*
X134644617Y-91018820D01*
X134721273Y-90997830D01*
X134722654Y-90997619D01*
X134747720Y-90994261D01*
X134773227Y-90992191D01*
X134800768Y-90991956D01*
X134831944Y-90994100D01*
X134868349Y-90999172D01*
X134911579Y-91007717D01*
X134963232Y-91020282D01*
X135024904Y-91037413D01*
X135098191Y-91059657D01*
X135184690Y-91087560D01*
X135285997Y-91121670D01*
X135403708Y-91162531D01*
X135539421Y-91210692D01*
X135694731Y-91266698D01*
X135871236Y-91331096D01*
X136070531Y-91404431D01*
X136294213Y-91487252D01*
X136543879Y-91580104D01*
X136821124Y-91683535D01*
X137127546Y-91798088D01*
X137464742Y-91924312D01*
X137834305Y-92062754D01*
X137834517Y-92062834D01*
X138260280Y-92222291D01*
X138653599Y-92369430D01*
X139015970Y-92504779D01*
X139348884Y-92628864D01*
X139653838Y-92742209D01*
X139932323Y-92845342D01*
X140185835Y-92938786D01*
X140415867Y-93023071D01*
X140623913Y-93098719D01*
X140811467Y-93166257D01*
X140980022Y-93226212D01*
X141131073Y-93279109D01*
X141266114Y-93325473D01*
X141386637Y-93365832D01*
X141494138Y-93400710D01*
X141590110Y-93430634D01*
X141676047Y-93456129D01*
X141753444Y-93477722D01*
X141823792Y-93495937D01*
X141888588Y-93511302D01*
X141949323Y-93524341D01*
X142007493Y-93535581D01*
X142029582Y-93539551D01*
X142078608Y-93548675D01*
X142121111Y-93556716D01*
X142159622Y-93562782D01*
X142196675Y-93565977D01*
X142234800Y-93565407D01*
X142276530Y-93560180D01*
X142324397Y-93549399D01*
X142380934Y-93532171D01*
X142448673Y-93507602D01*
X142530144Y-93474799D01*
X142627882Y-93432865D01*
X142744416Y-93380909D01*
X142882282Y-93318035D01*
X143044008Y-93243348D01*
X143232129Y-93155956D01*
X143449177Y-93054965D01*
X143598516Y-92985531D01*
X143802131Y-92890621D01*
X143997346Y-92799042D01*
X144181482Y-92712087D01*
X144351854Y-92631049D01*
X144505781Y-92557223D01*
X144640581Y-92491901D01*
X144753573Y-92436376D01*
X144842071Y-92391944D01*
X144903398Y-92359899D01*
X144934869Y-92341532D01*
X144936926Y-92339972D01*
X144990847Y-92289452D01*
X145028983Y-92236737D01*
X145056300Y-92171840D01*
X145077764Y-92084775D01*
X145086069Y-92040110D01*
X145113209Y-91921254D01*
X145151020Y-91829069D01*
X145205196Y-91754286D01*
X145281432Y-91687631D01*
X145318424Y-91661803D01*
X145448049Y-91593418D01*
X145583660Y-91554401D01*
X145718843Y-91545427D01*
X145847182Y-91567171D01*
X145923609Y-91597954D01*
X146035809Y-91674560D01*
X146133871Y-91779020D01*
X146213048Y-91904137D01*
X146268597Y-92042718D01*
X146292743Y-92157696D01*
X146294402Y-92267501D01*
X146275956Y-92382678D01*
X146240654Y-92490721D01*
X146191745Y-92579124D01*
X146179069Y-92595181D01*
X146074483Y-92690181D01*
X145943983Y-92760933D01*
X145789415Y-92806558D01*
X145709203Y-92819046D01*
X145590583Y-92819489D01*
X145483254Y-92789355D01*
X145394750Y-92738841D01*
X145290398Y-92676099D01*
X145197493Y-92642350D01*
X145109116Y-92635296D01*
X145089020Y-92637168D01*
X145041504Y-92646496D01*
X144979142Y-92665012D01*
X144899955Y-92693588D01*
X144801968Y-92733092D01*
X144683203Y-92784397D01*
X144541683Y-92848372D01*
X144375431Y-92925889D01*
X144182470Y-93017818D01*
X143960823Y-93125030D01*
X143773158Y-93216686D01*
X143531509Y-93335019D01*
X143320040Y-93438328D01*
X143136400Y-93527663D01*
X142978236Y-93604075D01*
X142843198Y-93668613D01*
X142728933Y-93722328D01*
X142633093Y-93766272D01*
X142553323Y-93801495D01*
X142487275Y-93829045D01*
X142432596Y-93849977D01*
X142386934Y-93865338D01*
X142347939Y-93876179D01*
X142313258Y-93883552D01*
X142280543Y-93888506D01*
X142265548Y-93890258D01*
X142128895Y-93905101D01*
X138669856Y-92639433D01*
X138219379Y-92474679D01*
X137802184Y-92322258D01*
X137417523Y-92181901D01*
X137064650Y-92053339D01*
X136742819Y-91936304D01*
X136451282Y-91830527D01*
X136189294Y-91735740D01*
X135956108Y-91651673D01*
X135750978Y-91578059D01*
X135573156Y-91514628D01*
X135421898Y-91461111D01*
X135296456Y-91417242D01*
X135196083Y-91382749D01*
X135120034Y-91357366D01*
X135067562Y-91340823D01*
X135041962Y-91333750D01*
X134885971Y-91307389D01*
X134745009Y-91307931D01*
X134608912Y-91336165D01*
X134505206Y-91375416D01*
X134471352Y-91391331D01*
X134407437Y-91422321D01*
X134315840Y-91467204D01*
X134198940Y-91524802D01*
X134059119Y-91593935D01*
X133898756Y-91673419D01*
X133720229Y-91762078D01*
X133525920Y-91858729D01*
X133318208Y-91962192D01*
X133099473Y-92071288D01*
X132872095Y-92184836D01*
X132728474Y-92256627D01*
X131078688Y-93081624D01*
X131023970Y-93049232D01*
X130960338Y-93009046D01*
X130924660Y-92976771D01*
X130912340Y-92944279D01*
X130918783Y-92903447D01*
X130927284Y-92878241D01*
X130955627Y-92800369D01*
X132593364Y-92021644D01*
G36*
X130281636Y-94658106D02*
X130299880Y-94631368D01*
X130328723Y-94610440D01*
X130376256Y-94589320D01*
X130444430Y-94564205D01*
X130522439Y-94534201D01*
X130631549Y-94489129D01*
X130770191Y-94429708D01*
X130936798Y-94356663D01*
X131129801Y-94270714D01*
X131347632Y-94172585D01*
X131588724Y-94062998D01*
X131851507Y-93942674D01*
X132134412Y-93812337D01*
X132435873Y-93672707D01*
X132754322Y-93524508D01*
X133088188Y-93368463D01*
X133435906Y-93205292D01*
X133795906Y-93035717D01*
X134166619Y-92860463D01*
X134546479Y-92680250D01*
X134881098Y-92520983D01*
X135101122Y-92416744D01*
X135291786Y-92327771D01*
X135452599Y-92254283D01*
X135583068Y-92196498D01*
X135682704Y-92154631D01*
X135751015Y-92128903D01*
X135786545Y-92119599D01*
X135796560Y-92119244D01*
X135809020Y-92120096D01*
X135825310Y-92122642D01*
X135846812Y-92127374D01*
X135874913Y-92134780D01*
X135910995Y-92145350D01*
X135956443Y-92159574D01*
X136012640Y-92177941D01*
X136080971Y-92200941D01*
X136162822Y-92229063D01*
X136259574Y-92262798D01*
X136372613Y-92302634D01*
X136503324Y-92349063D01*
X136653089Y-92402571D01*
X136823293Y-92463651D01*
X137015321Y-92532790D01*
X137230555Y-92610480D01*
X137470382Y-92697209D01*
X137736184Y-92793466D01*
X138029346Y-92899743D01*
X138351253Y-93016528D01*
X138703288Y-93144311D01*
X139086835Y-93283581D01*
X139447023Y-93414395D01*
X139858361Y-93563793D01*
X140236995Y-93701297D01*
X140584329Y-93827402D01*
X140901763Y-93942600D01*
X141190700Y-94047388D01*
X141452542Y-94142258D01*
X141688692Y-94227705D01*
X141900551Y-94304224D01*
X142089522Y-94372306D01*
X142257006Y-94432448D01*
X142404408Y-94485145D01*
X142533126Y-94530888D01*
X142644566Y-94570172D01*
X142740127Y-94603493D01*
X142821213Y-94631343D01*
X142889226Y-94654218D01*
X142945569Y-94672610D01*
X142991642Y-94687016D01*
X143028849Y-94697927D01*
X143058591Y-94705839D01*
X143082270Y-94711246D01*
X143101290Y-94714642D01*
X143117051Y-94716521D01*
X143130957Y-94717376D01*
X143144408Y-94717704D01*
X143145341Y-94717719D01*
X143193023Y-94718187D01*
X143236821Y-94717169D01*
X143279540Y-94713521D01*
X143323978Y-94706106D01*
X143372941Y-94693781D01*
X143429226Y-94675405D01*
X143495638Y-94649839D01*
X143574978Y-94615940D01*
X143670047Y-94572569D01*
X143783648Y-94518585D01*
X143918582Y-94452846D01*
X144077651Y-94374212D01*
X144263656Y-94281542D01*
X144470487Y-94178155D01*
X144716881Y-94055324D01*
X144933501Y-93948263D01*
X145122702Y-93855881D01*
X145286839Y-93777084D01*
X145428271Y-93710784D01*
X145549350Y-93655887D01*
X145652433Y-93611303D01*
X145739876Y-93575939D01*
X145814036Y-93548706D01*
X145864728Y-93532237D01*
X145977868Y-93502152D01*
X146085560Y-93481255D01*
X146179969Y-93470560D01*
X146253259Y-93471085D01*
X146285207Y-93477687D01*
X146308175Y-93491365D01*
X146312381Y-93513366D01*
X146296185Y-93549393D01*
X146257945Y-93605152D01*
X146242644Y-93625635D01*
X146143043Y-93728943D01*
X146009235Y-93820395D01*
X145841332Y-93899916D01*
X145827671Y-93905280D01*
X145782266Y-93924162D01*
X145707165Y-93956975D01*
X145605539Y-94002276D01*
X145480560Y-94058620D01*
X145335399Y-94124565D01*
X145173229Y-94198668D01*
X144997219Y-94279484D01*
X144810544Y-94365571D01*
X144616372Y-94455483D01*
X144503164Y-94508076D01*
X144273805Y-94614599D01*
X144074911Y-94706590D01*
X143904159Y-94785055D01*
X143759223Y-94850997D01*
X143637780Y-94905425D01*
X143537502Y-94949343D01*
X143456068Y-94983758D01*
X143391151Y-95009674D01*
X143340428Y-95028097D01*
X143301572Y-95040034D01*
X143272261Y-95046489D01*
X143254267Y-95048378D01*
X143242911Y-95048660D01*
X143230652Y-95048265D01*
X143216099Y-95046704D01*
X143197866Y-95043485D01*
X143174563Y-95038123D01*
X143144801Y-95030124D01*
X143107192Y-95019001D01*
X143060347Y-95004264D01*
X143002878Y-94985423D01*
X142933397Y-94961990D01*
X142850514Y-94933473D01*
X142752840Y-94899384D01*
X142638989Y-94859235D01*
X142507570Y-94812533D01*
X142357194Y-94758792D01*
X142186475Y-94697519D01*
X141994023Y-94628228D01*
X141778449Y-94550427D01*
X141538364Y-94463628D01*
X141272381Y-94367340D01*
X140979110Y-94261075D01*
X140657164Y-94144343D01*
X140305152Y-94016654D01*
X139921687Y-93877519D01*
X139543509Y-93740284D01*
X139128225Y-93589597D01*
X138745668Y-93450827D01*
X138394468Y-93323488D01*
X138073251Y-93207095D01*
X137780645Y-93101159D01*
X137515279Y-93005199D01*
X137275781Y-92918723D01*
X137060777Y-92841249D01*
X136868897Y-92772292D01*
X136698767Y-92711361D01*
X136549015Y-92657975D01*
X136418271Y-92611644D01*
X136305160Y-92571885D01*
X136208313Y-92538211D01*
X136126355Y-92510135D01*
X136057915Y-92487173D01*
X136001620Y-92468837D01*
X135956100Y-92454641D01*
X135919981Y-92444101D01*
X135891891Y-92436728D01*
X135870460Y-92432039D01*
X135854312Y-92429546D01*
X135842078Y-92428765D01*
X135840850Y-92428763D01*
X135824245Y-92430611D01*
X135800177Y-92436514D01*
X135767014Y-92447199D01*
X135723132Y-92463394D01*
X135666903Y-92485827D01*
X135596700Y-92515226D01*
X135510896Y-92552317D01*
X135407863Y-92597830D01*
X135285973Y-92652492D01*
X135143602Y-92717030D01*
X134979121Y-92792174D01*
X134790902Y-92878650D01*
X134577319Y-92977185D01*
X134336744Y-93088510D01*
X134067551Y-93213350D01*
X133768111Y-93352434D01*
X133572839Y-93443216D01*
X133299638Y-93570397D01*
X133030471Y-93695959D01*
X132767723Y-93818775D01*
X132513781Y-93937723D01*
X132271030Y-94051675D01*
X132041855Y-94159506D01*
X131828642Y-94260090D01*
X131633776Y-94352301D01*
X131459644Y-94435016D01*
X131308629Y-94507106D01*
X131183119Y-94567448D01*
X131085498Y-94614915D01*
X131018151Y-94648383D01*
X131012646Y-94651186D01*
X130864281Y-94725472D01*
X130742742Y-94782433D01*
X130643713Y-94823369D01*
X130562884Y-94849584D01*
X130495939Y-94862380D01*
X130438565Y-94863061D01*
X130386448Y-94852925D01*
X130366474Y-94846270D01*
X130299065Y-94818348D01*
X130262051Y-94791809D01*
X130250579Y-94759434D01*
X130259793Y-94714002D01*
X130265897Y-94696659D01*
X130281636Y-94658106D01*
X130281636Y-94658106D01*
G37*
X130281636Y-94658106D02*
X130299880Y-94631368D01*
X130328723Y-94610440D01*
X130376256Y-94589320D01*
X130444430Y-94564205D01*
X130522439Y-94534201D01*
X130631549Y-94489129D01*
X130770191Y-94429708D01*
X130936798Y-94356663D01*
X131129801Y-94270714D01*
X131347632Y-94172585D01*
X131588724Y-94062998D01*
X131851507Y-93942674D01*
X132134412Y-93812337D01*
X132435873Y-93672707D01*
X132754322Y-93524508D01*
X133088188Y-93368463D01*
X133435906Y-93205292D01*
X133795906Y-93035717D01*
X134166619Y-92860463D01*
X134546479Y-92680250D01*
X134881098Y-92520983D01*
X135101122Y-92416744D01*
X135291786Y-92327771D01*
X135452599Y-92254283D01*
X135583068Y-92196498D01*
X135682704Y-92154631D01*
X135751015Y-92128903D01*
X135786545Y-92119599D01*
X135796560Y-92119244D01*
X135809020Y-92120096D01*
X135825310Y-92122642D01*
X135846812Y-92127374D01*
X135874913Y-92134780D01*
X135910995Y-92145350D01*
X135956443Y-92159574D01*
X136012640Y-92177941D01*
X136080971Y-92200941D01*
X136162822Y-92229063D01*
X136259574Y-92262798D01*
X136372613Y-92302634D01*
X136503324Y-92349063D01*
X136653089Y-92402571D01*
X136823293Y-92463651D01*
X137015321Y-92532790D01*
X137230555Y-92610480D01*
X137470382Y-92697209D01*
X137736184Y-92793466D01*
X138029346Y-92899743D01*
X138351253Y-93016528D01*
X138703288Y-93144311D01*
X139086835Y-93283581D01*
X139447023Y-93414395D01*
X139858361Y-93563793D01*
X140236995Y-93701297D01*
X140584329Y-93827402D01*
X140901763Y-93942600D01*
X141190700Y-94047388D01*
X141452542Y-94142258D01*
X141688692Y-94227705D01*
X141900551Y-94304224D01*
X142089522Y-94372306D01*
X142257006Y-94432448D01*
X142404408Y-94485145D01*
X142533126Y-94530888D01*
X142644566Y-94570172D01*
X142740127Y-94603493D01*
X142821213Y-94631343D01*
X142889226Y-94654218D01*
X142945569Y-94672610D01*
X142991642Y-94687016D01*
X143028849Y-94697927D01*
X143058591Y-94705839D01*
X143082270Y-94711246D01*
X143101290Y-94714642D01*
X143117051Y-94716521D01*
X143130957Y-94717376D01*
X143144408Y-94717704D01*
X143145341Y-94717719D01*
X143193023Y-94718187D01*
X143236821Y-94717169D01*
X143279540Y-94713521D01*
X143323978Y-94706106D01*
X143372941Y-94693781D01*
X143429226Y-94675405D01*
X143495638Y-94649839D01*
X143574978Y-94615940D01*
X143670047Y-94572569D01*
X143783648Y-94518585D01*
X143918582Y-94452846D01*
X144077651Y-94374212D01*
X144263656Y-94281542D01*
X144470487Y-94178155D01*
X144716881Y-94055324D01*
X144933501Y-93948263D01*
X145122702Y-93855881D01*
X145286839Y-93777084D01*
X145428271Y-93710784D01*
X145549350Y-93655887D01*
X145652433Y-93611303D01*
X145739876Y-93575939D01*
X145814036Y-93548706D01*
X145864728Y-93532237D01*
X145977868Y-93502152D01*
X146085560Y-93481255D01*
X146179969Y-93470560D01*
X146253259Y-93471085D01*
X146285207Y-93477687D01*
X146308175Y-93491365D01*
X146312381Y-93513366D01*
X146296185Y-93549393D01*
X146257945Y-93605152D01*
X146242644Y-93625635D01*
X146143043Y-93728943D01*
X146009235Y-93820395D01*
X145841332Y-93899916D01*
X145827671Y-93905280D01*
X145782266Y-93924162D01*
X145707165Y-93956975D01*
X145605539Y-94002276D01*
X145480560Y-94058620D01*
X145335399Y-94124565D01*
X145173229Y-94198668D01*
X144997219Y-94279484D01*
X144810544Y-94365571D01*
X144616372Y-94455483D01*
X144503164Y-94508076D01*
X144273805Y-94614599D01*
X144074911Y-94706590D01*
X143904159Y-94785055D01*
X143759223Y-94850997D01*
X143637780Y-94905425D01*
X143537502Y-94949343D01*
X143456068Y-94983758D01*
X143391151Y-95009674D01*
X143340428Y-95028097D01*
X143301572Y-95040034D01*
X143272261Y-95046489D01*
X143254267Y-95048378D01*
X143242911Y-95048660D01*
X143230652Y-95048265D01*
X143216099Y-95046704D01*
X143197866Y-95043485D01*
X143174563Y-95038123D01*
X143144801Y-95030124D01*
X143107192Y-95019001D01*
X143060347Y-95004264D01*
X143002878Y-94985423D01*
X142933397Y-94961990D01*
X142850514Y-94933473D01*
X142752840Y-94899384D01*
X142638989Y-94859235D01*
X142507570Y-94812533D01*
X142357194Y-94758792D01*
X142186475Y-94697519D01*
X141994023Y-94628228D01*
X141778449Y-94550427D01*
X141538364Y-94463628D01*
X141272381Y-94367340D01*
X140979110Y-94261075D01*
X140657164Y-94144343D01*
X140305152Y-94016654D01*
X139921687Y-93877519D01*
X139543509Y-93740284D01*
X139128225Y-93589597D01*
X138745668Y-93450827D01*
X138394468Y-93323488D01*
X138073251Y-93207095D01*
X137780645Y-93101159D01*
X137515279Y-93005199D01*
X137275781Y-92918723D01*
X137060777Y-92841249D01*
X136868897Y-92772292D01*
X136698767Y-92711361D01*
X136549015Y-92657975D01*
X136418271Y-92611644D01*
X136305160Y-92571885D01*
X136208313Y-92538211D01*
X136126355Y-92510135D01*
X136057915Y-92487173D01*
X136001620Y-92468837D01*
X135956100Y-92454641D01*
X135919981Y-92444101D01*
X135891891Y-92436728D01*
X135870460Y-92432039D01*
X135854312Y-92429546D01*
X135842078Y-92428765D01*
X135840850Y-92428763D01*
X135824245Y-92430611D01*
X135800177Y-92436514D01*
X135767014Y-92447199D01*
X135723132Y-92463394D01*
X135666903Y-92485827D01*
X135596700Y-92515226D01*
X135510896Y-92552317D01*
X135407863Y-92597830D01*
X135285973Y-92652492D01*
X135143602Y-92717030D01*
X134979121Y-92792174D01*
X134790902Y-92878650D01*
X134577319Y-92977185D01*
X134336744Y-93088510D01*
X134067551Y-93213350D01*
X133768111Y-93352434D01*
X133572839Y-93443216D01*
X133299638Y-93570397D01*
X133030471Y-93695959D01*
X132767723Y-93818775D01*
X132513781Y-93937723D01*
X132271030Y-94051675D01*
X132041855Y-94159506D01*
X131828642Y-94260090D01*
X131633776Y-94352301D01*
X131459644Y-94435016D01*
X131308629Y-94507106D01*
X131183119Y-94567448D01*
X131085498Y-94614915D01*
X131018151Y-94648383D01*
X131012646Y-94651186D01*
X130864281Y-94725472D01*
X130742742Y-94782433D01*
X130643713Y-94823369D01*
X130562884Y-94849584D01*
X130495939Y-94862380D01*
X130438565Y-94863061D01*
X130386448Y-94852925D01*
X130366474Y-94846270D01*
X130299065Y-94818348D01*
X130262051Y-94791809D01*
X130250579Y-94759434D01*
X130259793Y-94714002D01*
X130265897Y-94696659D01*
X130281636Y-94658106D01*
G36*
X137369861Y-95452468D02*
X137450424Y-95351789D01*
X137545921Y-95279613D01*
X137653892Y-95238812D01*
X137686463Y-95233349D01*
X137732682Y-95229051D01*
X137773956Y-95230129D01*
X137819174Y-95238434D01*
X137877225Y-95255819D01*
X137956995Y-95284137D01*
X137991547Y-95296919D01*
X138085980Y-95333204D01*
X138157764Y-95364784D01*
X138218770Y-95398134D01*
X138280868Y-95439731D01*
X138354279Y-95494776D01*
X138512647Y-95616646D01*
X139421970Y-95955806D01*
X139617675Y-96028282D01*
X139821936Y-96102983D01*
X140028617Y-96177725D01*
X140231583Y-96250326D01*
X140424697Y-96318602D01*
X140601826Y-96380369D01*
X140756830Y-96433444D01*
X140874908Y-96472814D01*
X141151531Y-96565544D01*
X141394933Y-96652050D01*
X141607447Y-96733369D01*
X141791405Y-96810533D01*
X141949140Y-96884582D01*
X142082983Y-96956548D01*
X142195266Y-97027467D01*
X142288322Y-97098375D01*
X142293225Y-97102548D01*
X142323324Y-97130965D01*
X142353856Y-97165960D01*
X142386120Y-97210065D01*
X142421412Y-97265812D01*
X142461027Y-97335734D01*
X142506264Y-97422364D01*
X142558420Y-97528231D01*
X142618790Y-97655872D01*
X142688672Y-97807815D01*
X142769362Y-97986594D01*
X142862157Y-98194741D01*
X142923511Y-98333257D01*
X143068351Y-98660199D01*
X143199733Y-98955316D01*
X143318411Y-99220166D01*
X143425142Y-99456310D01*
X143520677Y-99665308D01*
X143605772Y-99848722D01*
X143681182Y-100008111D01*
X143747660Y-100145035D01*
X143805961Y-100261056D01*
X143856839Y-100357732D01*
X143901048Y-100436625D01*
X143939343Y-100499295D01*
X143972478Y-100547302D01*
X144001208Y-100582207D01*
X144019205Y-100599771D01*
X144058334Y-100631194D01*
X144092870Y-100648894D01*
X144137216Y-100658153D01*
X144192319Y-100663251D01*
X144330079Y-100684821D01*
X144444690Y-100728754D01*
X144543888Y-100798366D01*
X144573728Y-100826695D01*
X144672181Y-100947114D01*
X144738379Y-101075413D01*
X144769070Y-101197591D01*
X144768648Y-101289078D01*
X144749967Y-101395919D01*
X144716870Y-101504692D01*
X144673197Y-101601971D01*
X144637583Y-101657078D01*
X144527154Y-101770793D01*
X144398931Y-101853004D01*
X144253735Y-101903228D01*
X144199079Y-101913157D01*
X144153979Y-101917132D01*
X144109519Y-101913899D01*
X144056055Y-101901532D01*
X143983948Y-101878109D01*
X143934085Y-101860267D01*
X143849752Y-101828527D01*
X143789985Y-101802250D01*
X143744822Y-101775737D01*
X143704305Y-101743284D01*
X143666262Y-101706955D01*
X143589388Y-101614233D01*
X143537704Y-101516396D01*
X143514603Y-101420864D01*
X143514886Y-101375736D01*
X143523105Y-101331552D01*
X143540226Y-101262059D01*
X143563834Y-101176421D01*
X143591506Y-101083802D01*
X143594509Y-101074174D01*
X143626380Y-100969782D01*
X143646889Y-100889576D01*
X143656031Y-100823278D01*
X143653803Y-100760613D01*
X143640200Y-100691303D01*
X143615218Y-100605072D01*
X143594299Y-100539491D01*
X143554566Y-100424070D01*
X143503933Y-100290833D01*
X143441546Y-100137851D01*
X143366556Y-99963194D01*
X143278112Y-99764933D01*
X143175362Y-99541139D01*
X143057456Y-99289882D01*
X142923542Y-99009232D01*
X142874208Y-98906760D01*
X142789402Y-98730585D01*
X142703564Y-98551569D01*
X142619171Y-98374920D01*
X142538697Y-98205845D01*
X142464617Y-98049551D01*
X142399403Y-97911245D01*
X142345532Y-97796134D01*
X142311715Y-97723051D01*
X142249110Y-97588552D01*
X142196957Y-97482608D01*
X142151666Y-97400314D01*
X142109646Y-97336766D01*
X142067308Y-97287060D01*
X142021057Y-97246293D01*
X141967308Y-97209559D01*
X141912123Y-97177332D01*
X141874287Y-97159688D01*
X141802767Y-97130173D01*
X141698101Y-97088989D01*
X141560824Y-97036337D01*
X141391472Y-96972418D01*
X141190582Y-96897433D01*
X140958689Y-96811585D01*
X140696327Y-96715073D01*
X140404036Y-96608100D01*
X140158532Y-96518589D01*
X138509115Y-95918105D01*
X138485550Y-95981930D01*
X138422955Y-96111533D01*
X138336117Y-96234964D01*
X138232753Y-96343356D01*
X138120583Y-96427837D01*
X138076181Y-96452356D01*
X137980529Y-96493461D01*
X137897067Y-96512783D01*
X137813691Y-96510800D01*
X137718303Y-96487993D01*
X137661895Y-96468775D01*
X137582436Y-96438306D01*
X137526438Y-96411369D01*
X137482559Y-96381227D01*
X137439459Y-96341145D01*
X137429169Y-96330547D01*
X137334296Y-96208261D01*
X137273794Y-96074581D01*
X137247572Y-95929176D01*
X137255536Y-95771711D01*
X137263386Y-95727823D01*
X137306695Y-95578771D01*
X137369861Y-95452468D01*
X137369861Y-95452468D01*
G37*
X137369861Y-95452468D02*
X137450424Y-95351789D01*
X137545921Y-95279613D01*
X137653892Y-95238812D01*
X137686463Y-95233349D01*
X137732682Y-95229051D01*
X137773956Y-95230129D01*
X137819174Y-95238434D01*
X137877225Y-95255819D01*
X137956995Y-95284137D01*
X137991547Y-95296919D01*
X138085980Y-95333204D01*
X138157764Y-95364784D01*
X138218770Y-95398134D01*
X138280868Y-95439731D01*
X138354279Y-95494776D01*
X138512647Y-95616646D01*
X139421970Y-95955806D01*
X139617675Y-96028282D01*
X139821936Y-96102983D01*
X140028617Y-96177725D01*
X140231583Y-96250326D01*
X140424697Y-96318602D01*
X140601826Y-96380369D01*
X140756830Y-96433444D01*
X140874908Y-96472814D01*
X141151531Y-96565544D01*
X141394933Y-96652050D01*
X141607447Y-96733369D01*
X141791405Y-96810533D01*
X141949140Y-96884582D01*
X142082983Y-96956548D01*
X142195266Y-97027467D01*
X142288322Y-97098375D01*
X142293225Y-97102548D01*
X142323324Y-97130965D01*
X142353856Y-97165960D01*
X142386120Y-97210065D01*
X142421412Y-97265812D01*
X142461027Y-97335734D01*
X142506264Y-97422364D01*
X142558420Y-97528231D01*
X142618790Y-97655872D01*
X142688672Y-97807815D01*
X142769362Y-97986594D01*
X142862157Y-98194741D01*
X142923511Y-98333257D01*
X143068351Y-98660199D01*
X143199733Y-98955316D01*
X143318411Y-99220166D01*
X143425142Y-99456310D01*
X143520677Y-99665308D01*
X143605772Y-99848722D01*
X143681182Y-100008111D01*
X143747660Y-100145035D01*
X143805961Y-100261056D01*
X143856839Y-100357732D01*
X143901048Y-100436625D01*
X143939343Y-100499295D01*
X143972478Y-100547302D01*
X144001208Y-100582207D01*
X144019205Y-100599771D01*
X144058334Y-100631194D01*
X144092870Y-100648894D01*
X144137216Y-100658153D01*
X144192319Y-100663251D01*
X144330079Y-100684821D01*
X144444690Y-100728754D01*
X144543888Y-100798366D01*
X144573728Y-100826695D01*
X144672181Y-100947114D01*
X144738379Y-101075413D01*
X144769070Y-101197591D01*
X144768648Y-101289078D01*
X144749967Y-101395919D01*
X144716870Y-101504692D01*
X144673197Y-101601971D01*
X144637583Y-101657078D01*
X144527154Y-101770793D01*
X144398931Y-101853004D01*
X144253735Y-101903228D01*
X144199079Y-101913157D01*
X144153979Y-101917132D01*
X144109519Y-101913899D01*
X144056055Y-101901532D01*
X143983948Y-101878109D01*
X143934085Y-101860267D01*
X143849752Y-101828527D01*
X143789985Y-101802250D01*
X143744822Y-101775737D01*
X143704305Y-101743284D01*
X143666262Y-101706955D01*
X143589388Y-101614233D01*
X143537704Y-101516396D01*
X143514603Y-101420864D01*
X143514886Y-101375736D01*
X143523105Y-101331552D01*
X143540226Y-101262059D01*
X143563834Y-101176421D01*
X143591506Y-101083802D01*
X143594509Y-101074174D01*
X143626380Y-100969782D01*
X143646889Y-100889576D01*
X143656031Y-100823278D01*
X143653803Y-100760613D01*
X143640200Y-100691303D01*
X143615218Y-100605072D01*
X143594299Y-100539491D01*
X143554566Y-100424070D01*
X143503933Y-100290833D01*
X143441546Y-100137851D01*
X143366556Y-99963194D01*
X143278112Y-99764933D01*
X143175362Y-99541139D01*
X143057456Y-99289882D01*
X142923542Y-99009232D01*
X142874208Y-98906760D01*
X142789402Y-98730585D01*
X142703564Y-98551569D01*
X142619171Y-98374920D01*
X142538697Y-98205845D01*
X142464617Y-98049551D01*
X142399403Y-97911245D01*
X142345532Y-97796134D01*
X142311715Y-97723051D01*
X142249110Y-97588552D01*
X142196957Y-97482608D01*
X142151666Y-97400314D01*
X142109646Y-97336766D01*
X142067308Y-97287060D01*
X142021057Y-97246293D01*
X141967308Y-97209559D01*
X141912123Y-97177332D01*
X141874287Y-97159688D01*
X141802767Y-97130173D01*
X141698101Y-97088989D01*
X141560824Y-97036337D01*
X141391472Y-96972418D01*
X141190582Y-96897433D01*
X140958689Y-96811585D01*
X140696327Y-96715073D01*
X140404036Y-96608100D01*
X140158532Y-96518589D01*
X138509115Y-95918105D01*
X138485550Y-95981930D01*
X138422955Y-96111533D01*
X138336117Y-96234964D01*
X138232753Y-96343356D01*
X138120583Y-96427837D01*
X138076181Y-96452356D01*
X137980529Y-96493461D01*
X137897067Y-96512783D01*
X137813691Y-96510800D01*
X137718303Y-96487993D01*
X137661895Y-96468775D01*
X137582436Y-96438306D01*
X137526438Y-96411369D01*
X137482559Y-96381227D01*
X137439459Y-96341145D01*
X137429169Y-96330547D01*
X137334296Y-96208261D01*
X137273794Y-96074581D01*
X137247572Y-95929176D01*
X137255536Y-95771711D01*
X137263386Y-95727823D01*
X137306695Y-95578771D01*
X137369861Y-95452468D01*
G36*
X136104639Y-92990054D02*
X136114960Y-92981522D01*
X136159121Y-92954422D01*
X136199459Y-92943743D01*
X136203008Y-92943948D01*
X136223368Y-92950488D01*
X136276241Y-92968932D01*
X136360066Y-92998714D01*
X136473281Y-93039267D01*
X136614325Y-93090022D01*
X136781634Y-93150415D01*
X136973648Y-93219877D01*
X137188804Y-93297844D01*
X137425541Y-93383746D01*
X137682297Y-93477019D01*
X137957509Y-93577095D01*
X138249618Y-93683406D01*
X138557059Y-93795386D01*
X138878273Y-93912471D01*
X139211695Y-94034090D01*
X139555765Y-94159679D01*
X139908922Y-94288668D01*
X139972240Y-94311804D01*
X140392271Y-94465293D01*
X140779568Y-94606839D01*
X141135477Y-94736945D01*
X141461347Y-94856119D01*
X141758524Y-94964867D01*
X142028358Y-95063696D01*
X142272194Y-95153111D01*
X142491381Y-95233618D01*
X142687267Y-95305724D01*
X142861199Y-95369935D01*
X143014526Y-95426757D01*
X143148594Y-95476697D01*
X143264750Y-95520260D01*
X143364345Y-95557954D01*
X143448723Y-95590282D01*
X143519234Y-95617752D01*
X143577225Y-95640872D01*
X143624044Y-95660146D01*
X143661038Y-95676080D01*
X143689555Y-95689181D01*
X143710942Y-95699956D01*
X143726548Y-95708908D01*
X143737719Y-95716548D01*
X143745805Y-95723378D01*
X143752152Y-95729907D01*
X143754364Y-95732386D01*
X143768801Y-95756346D01*
X143797477Y-95810964D01*
X143839316Y-95894005D01*
X143893239Y-96003231D01*
X143958170Y-96136406D01*
X144033032Y-96291294D01*
X144116746Y-96465660D01*
X144208236Y-96657266D01*
X144306424Y-96863877D01*
X144410232Y-97083256D01*
X144518584Y-97313167D01*
X144619295Y-97527672D01*
X144752440Y-97811824D01*
X144870984Y-98065111D01*
X144975742Y-98289511D01*
X145067530Y-98487009D01*
X145147165Y-98659584D01*
X145215462Y-98809218D01*
X145273234Y-98937893D01*
X145321301Y-99047589D01*
X145360475Y-99140289D01*
X145391574Y-99217973D01*
X145415413Y-99282623D01*
X145432808Y-99336220D01*
X145444574Y-99380746D01*
X145451527Y-99418182D01*
X145454483Y-99450510D01*
X145454256Y-99479710D01*
X145451663Y-99507764D01*
X145447521Y-99536654D01*
X145447196Y-99538748D01*
X145435487Y-99581608D01*
X145414543Y-99597517D01*
X145405405Y-99598416D01*
X145358990Y-99587778D01*
X145299669Y-99559739D01*
X145240770Y-99521964D01*
X145195626Y-99482120D01*
X145188958Y-99473963D01*
X145174729Y-99448476D01*
X145147313Y-99393275D01*
X145108304Y-99311785D01*
X145059300Y-99207428D01*
X145001897Y-99083629D01*
X144937690Y-98943812D01*
X144868276Y-98791400D01*
X144795252Y-98629817D01*
X144790600Y-98619485D01*
X144706741Y-98433974D01*
X144610834Y-98223260D01*
X144506369Y-97994929D01*
X144396841Y-97756567D01*
X144285739Y-97515760D01*
X144176556Y-97280095D01*
X144072784Y-97057157D01*
X143993635Y-96888011D01*
X143896286Y-96681094D01*
X143812773Y-96504847D01*
X143741897Y-96356910D01*
X143682464Y-96234931D01*
X143633274Y-96136550D01*
X143593131Y-96059412D01*
X143560838Y-96001160D01*
X143535197Y-95959438D01*
X143515012Y-95931890D01*
X143500379Y-95917155D01*
X143487190Y-95908987D01*
X143463083Y-95897114D01*
X143426682Y-95881021D01*
X143376611Y-95860192D01*
X143311493Y-95834113D01*
X143229956Y-95802268D01*
X143130622Y-95764144D01*
X143012116Y-95719223D01*
X142873064Y-95666993D01*
X142712089Y-95606936D01*
X142527817Y-95538539D01*
X142318870Y-95461288D01*
X142083876Y-95374666D01*
X141821458Y-95278159D01*
X141530240Y-95171250D01*
X141208848Y-95053427D01*
X140855905Y-94924173D01*
X140526857Y-94803760D01*
X140206050Y-94686495D01*
X139889492Y-94570975D01*
X139579322Y-94457971D01*
X139277684Y-94348258D01*
X138986718Y-94242607D01*
X138708569Y-94141794D01*
X138445376Y-94046590D01*
X138199281Y-93957769D01*
X137972429Y-93876104D01*
X137766958Y-93802368D01*
X137585012Y-93737335D01*
X137428734Y-93681777D01*
X137300264Y-93636467D01*
X137201743Y-93602179D01*
X137139408Y-93581036D01*
X136910653Y-93503781D01*
X136714931Y-93434137D01*
X136550039Y-93371050D01*
X136413774Y-93313462D01*
X136303935Y-93260316D01*
X136218319Y-93210555D01*
X136154724Y-93163123D01*
X136110948Y-93116963D01*
X136086839Y-93076022D01*
X136073480Y-93039694D01*
X136077834Y-93016342D01*
X136104639Y-92990054D01*
X136104639Y-92990054D01*
G37*
X136104639Y-92990054D02*
X136114960Y-92981522D01*
X136159121Y-92954422D01*
X136199459Y-92943743D01*
X136203008Y-92943948D01*
X136223368Y-92950488D01*
X136276241Y-92968932D01*
X136360066Y-92998714D01*
X136473281Y-93039267D01*
X136614325Y-93090022D01*
X136781634Y-93150415D01*
X136973648Y-93219877D01*
X137188804Y-93297844D01*
X137425541Y-93383746D01*
X137682297Y-93477019D01*
X137957509Y-93577095D01*
X138249618Y-93683406D01*
X138557059Y-93795386D01*
X138878273Y-93912471D01*
X139211695Y-94034090D01*
X139555765Y-94159679D01*
X139908922Y-94288668D01*
X139972240Y-94311804D01*
X140392271Y-94465293D01*
X140779568Y-94606839D01*
X141135477Y-94736945D01*
X141461347Y-94856119D01*
X141758524Y-94964867D01*
X142028358Y-95063696D01*
X142272194Y-95153111D01*
X142491381Y-95233618D01*
X142687267Y-95305724D01*
X142861199Y-95369935D01*
X143014526Y-95426757D01*
X143148594Y-95476697D01*
X143264750Y-95520260D01*
X143364345Y-95557954D01*
X143448723Y-95590282D01*
X143519234Y-95617752D01*
X143577225Y-95640872D01*
X143624044Y-95660146D01*
X143661038Y-95676080D01*
X143689555Y-95689181D01*
X143710942Y-95699956D01*
X143726548Y-95708908D01*
X143737719Y-95716548D01*
X143745805Y-95723378D01*
X143752152Y-95729907D01*
X143754364Y-95732386D01*
X143768801Y-95756346D01*
X143797477Y-95810964D01*
X143839316Y-95894005D01*
X143893239Y-96003231D01*
X143958170Y-96136406D01*
X144033032Y-96291294D01*
X144116746Y-96465660D01*
X144208236Y-96657266D01*
X144306424Y-96863877D01*
X144410232Y-97083256D01*
X144518584Y-97313167D01*
X144619295Y-97527672D01*
X144752440Y-97811824D01*
X144870984Y-98065111D01*
X144975742Y-98289511D01*
X145067530Y-98487009D01*
X145147165Y-98659584D01*
X145215462Y-98809218D01*
X145273234Y-98937893D01*
X145321301Y-99047589D01*
X145360475Y-99140289D01*
X145391574Y-99217973D01*
X145415413Y-99282623D01*
X145432808Y-99336220D01*
X145444574Y-99380746D01*
X145451527Y-99418182D01*
X145454483Y-99450510D01*
X145454256Y-99479710D01*
X145451663Y-99507764D01*
X145447521Y-99536654D01*
X145447196Y-99538748D01*
X145435487Y-99581608D01*
X145414543Y-99597517D01*
X145405405Y-99598416D01*
X145358990Y-99587778D01*
X145299669Y-99559739D01*
X145240770Y-99521964D01*
X145195626Y-99482120D01*
X145188958Y-99473963D01*
X145174729Y-99448476D01*
X145147313Y-99393275D01*
X145108304Y-99311785D01*
X145059300Y-99207428D01*
X145001897Y-99083629D01*
X144937690Y-98943812D01*
X144868276Y-98791400D01*
X144795252Y-98629817D01*
X144790600Y-98619485D01*
X144706741Y-98433974D01*
X144610834Y-98223260D01*
X144506369Y-97994929D01*
X144396841Y-97756567D01*
X144285739Y-97515760D01*
X144176556Y-97280095D01*
X144072784Y-97057157D01*
X143993635Y-96888011D01*
X143896286Y-96681094D01*
X143812773Y-96504847D01*
X143741897Y-96356910D01*
X143682464Y-96234931D01*
X143633274Y-96136550D01*
X143593131Y-96059412D01*
X143560838Y-96001160D01*
X143535197Y-95959438D01*
X143515012Y-95931890D01*
X143500379Y-95917155D01*
X143487190Y-95908987D01*
X143463083Y-95897114D01*
X143426682Y-95881021D01*
X143376611Y-95860192D01*
X143311493Y-95834113D01*
X143229956Y-95802268D01*
X143130622Y-95764144D01*
X143012116Y-95719223D01*
X142873064Y-95666993D01*
X142712089Y-95606936D01*
X142527817Y-95538539D01*
X142318870Y-95461288D01*
X142083876Y-95374666D01*
X141821458Y-95278159D01*
X141530240Y-95171250D01*
X141208848Y-95053427D01*
X140855905Y-94924173D01*
X140526857Y-94803760D01*
X140206050Y-94686495D01*
X139889492Y-94570975D01*
X139579322Y-94457971D01*
X139277684Y-94348258D01*
X138986718Y-94242607D01*
X138708569Y-94141794D01*
X138445376Y-94046590D01*
X138199281Y-93957769D01*
X137972429Y-93876104D01*
X137766958Y-93802368D01*
X137585012Y-93737335D01*
X137428734Y-93681777D01*
X137300264Y-93636467D01*
X137201743Y-93602179D01*
X137139408Y-93581036D01*
X136910653Y-93503781D01*
X136714931Y-93434137D01*
X136550039Y-93371050D01*
X136413774Y-93313462D01*
X136303935Y-93260316D01*
X136218319Y-93210555D01*
X136154724Y-93163123D01*
X136110948Y-93116963D01*
X136086839Y-93076022D01*
X136073480Y-93039694D01*
X136077834Y-93016342D01*
X136104639Y-92990054D01*
G36*
X135689386Y-93916935D02*
X135782704Y-93801023D01*
X135789170Y-93794637D01*
X135901223Y-93708516D01*
X136026427Y-93656173D01*
X136165767Y-93637202D01*
X136170680Y-93637139D01*
X136291502Y-93651487D01*
X136420781Y-93694085D01*
X136549818Y-93761209D01*
X136669914Y-93849136D01*
X136673773Y-93852479D01*
X136783717Y-93948259D01*
X139874924Y-95083115D01*
X140261471Y-95224995D01*
X140615451Y-95354892D01*
X140938335Y-95473398D01*
X141231592Y-95581108D01*
X141496693Y-95678613D01*
X141735106Y-95766504D01*
X141948304Y-95845376D01*
X142137755Y-95915820D01*
X142304930Y-95978429D01*
X142451298Y-96033796D01*
X142578331Y-96082514D01*
X142687499Y-96125174D01*
X142780270Y-96162369D01*
X142858116Y-96194692D01*
X142922506Y-96222736D01*
X142974910Y-96247092D01*
X143016801Y-96268354D01*
X143049645Y-96287115D01*
X143074914Y-96303965D01*
X143094078Y-96319499D01*
X143108607Y-96334307D01*
X143119972Y-96348985D01*
X143129642Y-96364124D01*
X143139087Y-96380314D01*
X143149778Y-96398153D01*
X143154023Y-96404797D01*
X143166818Y-96429142D01*
X143193974Y-96484614D01*
X143234641Y-96569400D01*
X143287969Y-96681684D01*
X143353108Y-96819650D01*
X143429210Y-96981482D01*
X143515423Y-97165365D01*
X143610900Y-97369484D01*
X143714789Y-97592023D01*
X143826242Y-97831168D01*
X143944410Y-98085100D01*
X144068442Y-98352006D01*
X144197488Y-98630070D01*
X144330699Y-98917476D01*
X144411379Y-99091720D01*
X144546842Y-99384233D01*
X144678740Y-99668740D01*
X144806213Y-99943407D01*
X144928406Y-100206398D01*
X145044460Y-100455874D01*
X145153515Y-100690000D01*
X145254717Y-100906940D01*
X145347206Y-101104857D01*
X145430123Y-101281916D01*
X145502613Y-101436278D01*
X145563816Y-101566107D01*
X145612876Y-101669569D01*
X145648933Y-101744827D01*
X145671131Y-101790042D01*
X145677313Y-101801774D01*
X145707702Y-101857072D01*
X145720590Y-101896466D01*
X145717979Y-101934650D01*
X145702290Y-101985122D01*
X145681898Y-102037386D01*
X145663840Y-102062878D01*
X145640974Y-102069851D01*
X145629422Y-102069352D01*
X145556460Y-102053769D01*
X145484898Y-102023941D01*
X145444549Y-101997233D01*
X145433218Y-101977751D01*
X145407708Y-101927503D01*
X145369036Y-101848672D01*
X145318219Y-101743443D01*
X145256276Y-101613997D01*
X145184223Y-101462520D01*
X145103079Y-101291195D01*
X145013862Y-101102204D01*
X144917587Y-100897733D01*
X144815276Y-100679963D01*
X144707942Y-100451081D01*
X144596606Y-100213268D01*
X144482284Y-99968706D01*
X144365995Y-99719583D01*
X144248755Y-99468080D01*
X144131582Y-99216380D01*
X144015494Y-98966670D01*
X143901510Y-98721129D01*
X143790645Y-98481943D01*
X143683919Y-98251295D01*
X143582348Y-98031369D01*
X143486950Y-97824350D01*
X143398744Y-97632419D01*
X143318746Y-97457759D01*
X143247974Y-97302557D01*
X143187447Y-97168995D01*
X143138181Y-97059256D01*
X143101193Y-96975523D01*
X143077503Y-96919982D01*
X143072451Y-96907373D01*
X143015332Y-96772454D01*
X142956829Y-96665727D01*
X142890080Y-96579808D01*
X142808229Y-96507310D01*
X142704415Y-96440849D01*
X142579708Y-96376819D01*
X142541463Y-96360512D01*
X142470463Y-96332403D01*
X142368085Y-96293001D01*
X142235707Y-96242819D01*
X142074707Y-96182366D01*
X141886462Y-96112152D01*
X141672350Y-96032688D01*
X141433749Y-95944485D01*
X141172035Y-95848053D01*
X140888587Y-95743901D01*
X140584783Y-95632541D01*
X140262000Y-95514484D01*
X139921614Y-95390239D01*
X139649914Y-95291230D01*
X136884246Y-94284111D01*
X136862912Y-94319787D01*
X136845428Y-94351477D01*
X136816699Y-94406080D01*
X136781714Y-94474055D01*
X136765197Y-94506588D01*
X136684651Y-94647655D01*
X136601109Y-94754776D01*
X136510916Y-94830286D01*
X136410411Y-94876521D01*
X136295937Y-94895813D01*
X136163836Y-94890497D01*
X136163634Y-94890474D01*
X136041282Y-94863394D01*
X135919305Y-94814269D01*
X135810534Y-94749166D01*
X135743930Y-94692048D01*
X135660321Y-94580535D01*
X135606885Y-94454711D01*
X135583347Y-94320010D01*
X135589433Y-94181859D01*
X135624872Y-94045690D01*
X135689386Y-93916935D01*
X135689386Y-93916935D01*
G37*
X135689386Y-93916935D02*
X135782704Y-93801023D01*
X135789170Y-93794637D01*
X135901223Y-93708516D01*
X136026427Y-93656173D01*
X136165767Y-93637202D01*
X136170680Y-93637139D01*
X136291502Y-93651487D01*
X136420781Y-93694085D01*
X136549818Y-93761209D01*
X136669914Y-93849136D01*
X136673773Y-93852479D01*
X136783717Y-93948259D01*
X139874924Y-95083115D01*
X140261471Y-95224995D01*
X140615451Y-95354892D01*
X140938335Y-95473398D01*
X141231592Y-95581108D01*
X141496693Y-95678613D01*
X141735106Y-95766504D01*
X141948304Y-95845376D01*
X142137755Y-95915820D01*
X142304930Y-95978429D01*
X142451298Y-96033796D01*
X142578331Y-96082514D01*
X142687499Y-96125174D01*
X142780270Y-96162369D01*
X142858116Y-96194692D01*
X142922506Y-96222736D01*
X142974910Y-96247092D01*
X143016801Y-96268354D01*
X143049645Y-96287115D01*
X143074914Y-96303965D01*
X143094078Y-96319499D01*
X143108607Y-96334307D01*
X143119972Y-96348985D01*
X143129642Y-96364124D01*
X143139087Y-96380314D01*
X143149778Y-96398153D01*
X143154023Y-96404797D01*
X143166818Y-96429142D01*
X143193974Y-96484614D01*
X143234641Y-96569400D01*
X143287969Y-96681684D01*
X143353108Y-96819650D01*
X143429210Y-96981482D01*
X143515423Y-97165365D01*
X143610900Y-97369484D01*
X143714789Y-97592023D01*
X143826242Y-97831168D01*
X143944410Y-98085100D01*
X144068442Y-98352006D01*
X144197488Y-98630070D01*
X144330699Y-98917476D01*
X144411379Y-99091720D01*
X144546842Y-99384233D01*
X144678740Y-99668740D01*
X144806213Y-99943407D01*
X144928406Y-100206398D01*
X145044460Y-100455874D01*
X145153515Y-100690000D01*
X145254717Y-100906940D01*
X145347206Y-101104857D01*
X145430123Y-101281916D01*
X145502613Y-101436278D01*
X145563816Y-101566107D01*
X145612876Y-101669569D01*
X145648933Y-101744827D01*
X145671131Y-101790042D01*
X145677313Y-101801774D01*
X145707702Y-101857072D01*
X145720590Y-101896466D01*
X145717979Y-101934650D01*
X145702290Y-101985122D01*
X145681898Y-102037386D01*
X145663840Y-102062878D01*
X145640974Y-102069851D01*
X145629422Y-102069352D01*
X145556460Y-102053769D01*
X145484898Y-102023941D01*
X145444549Y-101997233D01*
X145433218Y-101977751D01*
X145407708Y-101927503D01*
X145369036Y-101848672D01*
X145318219Y-101743443D01*
X145256276Y-101613997D01*
X145184223Y-101462520D01*
X145103079Y-101291195D01*
X145013862Y-101102204D01*
X144917587Y-100897733D01*
X144815276Y-100679963D01*
X144707942Y-100451081D01*
X144596606Y-100213268D01*
X144482284Y-99968706D01*
X144365995Y-99719583D01*
X144248755Y-99468080D01*
X144131582Y-99216380D01*
X144015494Y-98966670D01*
X143901510Y-98721129D01*
X143790645Y-98481943D01*
X143683919Y-98251295D01*
X143582348Y-98031369D01*
X143486950Y-97824350D01*
X143398744Y-97632419D01*
X143318746Y-97457759D01*
X143247974Y-97302557D01*
X143187447Y-97168995D01*
X143138181Y-97059256D01*
X143101193Y-96975523D01*
X143077503Y-96919982D01*
X143072451Y-96907373D01*
X143015332Y-96772454D01*
X142956829Y-96665727D01*
X142890080Y-96579808D01*
X142808229Y-96507310D01*
X142704415Y-96440849D01*
X142579708Y-96376819D01*
X142541463Y-96360512D01*
X142470463Y-96332403D01*
X142368085Y-96293001D01*
X142235707Y-96242819D01*
X142074707Y-96182366D01*
X141886462Y-96112152D01*
X141672350Y-96032688D01*
X141433749Y-95944485D01*
X141172035Y-95848053D01*
X140888587Y-95743901D01*
X140584783Y-95632541D01*
X140262000Y-95514484D01*
X139921614Y-95390239D01*
X139649914Y-95291230D01*
X136884246Y-94284111D01*
X136862912Y-94319787D01*
X136845428Y-94351477D01*
X136816699Y-94406080D01*
X136781714Y-94474055D01*
X136765197Y-94506588D01*
X136684651Y-94647655D01*
X136601109Y-94754776D01*
X136510916Y-94830286D01*
X136410411Y-94876521D01*
X136295937Y-94895813D01*
X136163836Y-94890497D01*
X136163634Y-94890474D01*
X136041282Y-94863394D01*
X135919305Y-94814269D01*
X135810534Y-94749166D01*
X135743930Y-94692048D01*
X135660321Y-94580535D01*
X135606885Y-94454711D01*
X135583347Y-94320010D01*
X135589433Y-94181859D01*
X135624872Y-94045690D01*
X135689386Y-93916935D01*
G04 #@! TD*
D11*
G04 #@! TO.C,D1*
X122450000Y-91450000D03*
X124050000Y-90400000D03*
X122450000Y-90400000D03*
X124050000Y-91450000D03*
G04 #@! TD*
G04 #@! TO.C,D2*
X126200000Y-82525000D03*
X127800000Y-81475000D03*
X126200000Y-81475000D03*
X127800000Y-82525000D03*
G04 #@! TD*
D12*
G04 #@! TO.C,BT1*
X170300400Y-97400000D03*
X149299600Y-97400000D03*
G04 #@! TD*
D13*
G04 #@! TO.C,J1*
X130400000Y-60400000D03*
G04 #@! TD*
G04 #@! TO.C,J2*
X113500000Y-107700000D03*
G04 #@! TD*
D14*
G04 #@! TO.C,J3*
X175800000Y-94400000D03*
D15*
X175800000Y-96940000D03*
X178340000Y-94400000D03*
X178340000Y-96940000D03*
X180880000Y-94400000D03*
X180880000Y-96940000D03*
G04 #@! TD*
D16*
G04 #@! TO.C,SW1*
X179900000Y-101725000D03*
X176900000Y-101725000D03*
G04 #@! TD*
D17*
G04 #@! TO.C,TH1*
X193682370Y-80754122D03*
D18*
G36*
X192931115Y-81432808D02*
X193371107Y-79790735D01*
X194433625Y-80075436D01*
X193993633Y-81717509D01*
X192931115Y-81432808D01*
X192931115Y-81432808D01*
G37*
D17*
X195517630Y-81245878D03*
D18*
G36*
X194766375Y-81924564D02*
X195206367Y-80282491D01*
X196268885Y-80567192D01*
X195828893Y-82209265D01*
X194766375Y-81924564D01*
X194766375Y-81924564D01*
G37*
G04 #@! TD*
D19*
G04 #@! TO.C,U1*
X153885000Y-101900000D03*
X155155000Y-101900000D03*
X156425000Y-101900000D03*
X157695000Y-101900000D03*
X158965000Y-101900000D03*
X160235000Y-101900000D03*
X161505000Y-101900000D03*
X162775000Y-101900000D03*
X164045000Y-101900000D03*
X165315000Y-101900000D03*
X165315000Y-92500000D03*
X164045000Y-92500000D03*
X162775000Y-92500000D03*
X161505000Y-92500000D03*
X160235000Y-92500000D03*
X158965000Y-92500000D03*
X157695000Y-92500000D03*
X156425000Y-92500000D03*
X155155000Y-92500000D03*
X153885000Y-92500000D03*
G04 #@! TD*
M02*
