G04 #@! TF.GenerationSoftware,KiCad,Pcbnew,5.0.0-fee4fd1~66~ubuntu18.04.1*
G04 #@! TF.CreationDate,2018-09-07T22:29:42-07:00*
G04 #@! TF.ProjectId,trevor2,747265766F72322E6B696361645F7063,rev?*
G04 #@! TF.SameCoordinates,Original*
G04 #@! TF.FileFunction,Paste,Top*
G04 #@! TF.FilePolarity,Positive*
%FSLAX46Y46*%
G04 Gerber Fmt 4.6, Leading zero omitted, Abs format (unit mm)*
G04 Created by KiCad (PCBNEW 5.0.0-fee4fd1~66~ubuntu18.04.1) date Fri Sep  7 22:29:42 2018*
%MOMM*%
%LPD*%
G01*
G04 APERTURE LIST*
%ADD10R,0.900000X0.850000*%
%ADD11C,0.700000*%
%ADD12C,0.100000*%
%ADD13R,0.600000X1.950000*%
G04 APERTURE END LIST*
D10*
G04 #@! TO.C,D1*
X122450000Y-91450000D03*
X124050000Y-90400000D03*
X122450000Y-90400000D03*
X124050000Y-91450000D03*
G04 #@! TD*
G04 #@! TO.C,D2*
X126200000Y-82525000D03*
X127800000Y-81475000D03*
X126200000Y-81475000D03*
X127800000Y-82525000D03*
G04 #@! TD*
D11*
G04 #@! TO.C,TH1*
X193682370Y-80754122D03*
D12*
G36*
X193176064Y-81291387D02*
X193512528Y-80035684D01*
X194188676Y-80216857D01*
X193852212Y-81472560D01*
X193176064Y-81291387D01*
X193176064Y-81291387D01*
G37*
D11*
X195517630Y-81245878D03*
D12*
G36*
X195011324Y-81783143D02*
X195347788Y-80527440D01*
X196023936Y-80708613D01*
X195687472Y-81964316D01*
X195011324Y-81783143D01*
X195011324Y-81783143D01*
G37*
G04 #@! TD*
D13*
G04 #@! TO.C,U1*
X153885000Y-101900000D03*
X155155000Y-101900000D03*
X156425000Y-101900000D03*
X157695000Y-101900000D03*
X158965000Y-101900000D03*
X160235000Y-101900000D03*
X161505000Y-101900000D03*
X162775000Y-101900000D03*
X164045000Y-101900000D03*
X165315000Y-101900000D03*
X165315000Y-92500000D03*
X164045000Y-92500000D03*
X162775000Y-92500000D03*
X161505000Y-92500000D03*
X160235000Y-92500000D03*
X158965000Y-92500000D03*
X157695000Y-92500000D03*
X156425000Y-92500000D03*
X155155000Y-92500000D03*
X153885000Y-92500000D03*
G04 #@! TD*
M02*
