G04 #@! TF.GenerationSoftware,KiCad,Pcbnew,5.0.0-fee4fd1~66~ubuntu18.04.1*
G04 #@! TF.CreationDate,2018-09-07T22:29:42-07:00*
G04 #@! TF.ProjectId,trevor2,747265766F72322E6B696361645F7063,rev?*
G04 #@! TF.SameCoordinates,Original*
G04 #@! TF.FileFunction,Legend,Bot*
G04 #@! TF.FilePolarity,Positive*
%FSLAX46Y46*%
G04 Gerber Fmt 4.6, Leading zero omitted, Abs format (unit mm)*
G04 Created by KiCad (PCBNEW 5.0.0-fee4fd1~66~ubuntu18.04.1) date Fri Sep  7 22:29:42 2018*
%MOMM*%
%LPD*%
G01*
G04 APERTURE LIST*
%ADD10C,0.100000*%
%ADD11C,0.120000*%
%ADD12C,0.150000*%
%ADD13R,10.400000X10.400000*%
%ADD14C,3.900000*%
%ADD15C,1.600000*%
%ADD16C,2.100000*%
%ADD17R,2.100000X2.100000*%
%ADD18O,2.100000X2.100000*%
%ADD19C,1.100000*%
%ADD20R,1.200000X0.900000*%
%ADD21R,1.200000X0.800000*%
%ADD22C,1.300000*%
%ADD23R,1.100000X1.900000*%
%ADD24R,1.400000X1.200000*%
%ADD25C,5.900000*%
G04 APERTURE END LIST*
D10*
X128082500Y-60942780D02*
X128328864Y-60548394D01*
X128539017Y-60918855D02*
X128497148Y-60119951D01*
X128192804Y-60135901D01*
X128118711Y-60177932D01*
X128082662Y-60217969D01*
X128048607Y-60296049D01*
X128054588Y-60410178D01*
X128096618Y-60484270D01*
X128136655Y-60520319D01*
X128214735Y-60554375D01*
X128519079Y-60538425D01*
X127718182Y-60542251D02*
X127451881Y-60556207D01*
X127359683Y-60980661D02*
X127740113Y-60960724D01*
X127698244Y-60161820D01*
X127317814Y-60181758D01*
X126995364Y-60580132D02*
X126729063Y-60594088D01*
X126636865Y-61018543D02*
X127017296Y-60998605D01*
X126975427Y-60199702D01*
X126594997Y-60219639D01*
X126330527Y-60996450D02*
X126218392Y-61040474D01*
X126028177Y-61050443D01*
X125950097Y-61016387D01*
X125910060Y-60980338D01*
X125868030Y-60906246D01*
X125864042Y-60830159D01*
X125898098Y-60752080D01*
X125934147Y-60712043D01*
X126008239Y-60670012D01*
X126158418Y-60623994D01*
X126232510Y-60581964D01*
X126268559Y-60541927D01*
X126302615Y-60463847D01*
X126298627Y-60387761D01*
X126256597Y-60313669D01*
X126216560Y-60277620D01*
X126138480Y-60243564D01*
X125948265Y-60253533D01*
X125836130Y-60297557D01*
X125511686Y-60657888D02*
X125245385Y-60671844D01*
X125153187Y-61096299D02*
X125533617Y-61076361D01*
X125491749Y-60277458D01*
X125111318Y-60297395D01*
X124788869Y-60695769D02*
X124522567Y-60709726D01*
X124430370Y-61134180D02*
X124810800Y-61114243D01*
X124768931Y-60315339D01*
X124388501Y-60335277D01*
X123799750Y-60747607D02*
X124066051Y-60733651D01*
X124087982Y-61152124D02*
X124046114Y-60353220D01*
X123665683Y-60373158D01*
X123475468Y-60383127D02*
X123251036Y-61195986D01*
X122942866Y-60411039D01*
X111554127Y-106623624D02*
X111179657Y-106361417D01*
X110908031Y-107147842D02*
X111366892Y-106492521D01*
X110127886Y-106601579D02*
X110564832Y-106442475D01*
X110502355Y-106863785D02*
X110961217Y-106208464D01*
X110711570Y-106033659D01*
X110627308Y-106021164D01*
X110574252Y-106030519D01*
X110499345Y-106071080D01*
X110433793Y-106164698D01*
X110421298Y-106248960D01*
X110430653Y-106302016D01*
X110471214Y-106376923D01*
X110720861Y-106551727D01*
X110009343Y-106239540D02*
X109697285Y-106021035D01*
X109940651Y-106470476D02*
X110181072Y-105662200D01*
X109503770Y-106164568D01*
X109285330Y-106011615D02*
X109744191Y-105356293D01*
X108910860Y-105749408D01*
X109369721Y-105094087D01*
X109120075Y-104919282D02*
X108683194Y-104613375D01*
X108661214Y-105574604D01*
X108224333Y-105268697D01*
X107996602Y-104597675D02*
X108215042Y-104750629D01*
X107974686Y-105093892D02*
X108433547Y-104438571D01*
X108121489Y-104220065D01*
X107871843Y-104045261D02*
X107500384Y-104575760D01*
X107425477Y-104616321D01*
X107372421Y-104625676D01*
X107288159Y-104613181D01*
X107163336Y-104525779D01*
X107122775Y-104450872D01*
X107113419Y-104397815D01*
X107125915Y-104313553D01*
X107497374Y-103783055D01*
X106351985Y-103957665D02*
X106788931Y-103798561D01*
X106726455Y-104219871D02*
X107185316Y-103564549D01*
X106935669Y-103389745D01*
X106851407Y-103377250D01*
X106798351Y-103386605D01*
X106723444Y-103427166D01*
X106657892Y-103520784D01*
X106645397Y-103605046D01*
X106654752Y-103658102D01*
X106695314Y-103733009D01*
X106944960Y-103907813D01*
D11*
X144907344Y-79827059D02*
X145317768Y-78699428D01*
X144974201Y-79364912D02*
X144549366Y-79696766D01*
X144822982Y-78945011D02*
X145024608Y-79504879D01*
X143808206Y-79366195D02*
X143878157Y-79452465D01*
X144057146Y-79517612D01*
X144166184Y-79496489D01*
X144250019Y-79405382D01*
X144406372Y-78975808D01*
X144400712Y-78852128D01*
X144330762Y-78765858D01*
X144151773Y-78700711D01*
X144042734Y-78721835D01*
X143958899Y-78812942D01*
X143919811Y-78920335D01*
X144328195Y-79190595D01*
X143405481Y-79219615D02*
X143296442Y-79240739D01*
X143117453Y-79175592D01*
X143047502Y-79089322D01*
X143041843Y-78965642D01*
X143061387Y-78911945D01*
X143145223Y-78820838D01*
X143254261Y-78799715D01*
X143388503Y-78848575D01*
X143497541Y-78827452D01*
X143581377Y-78736345D01*
X143600921Y-78682648D01*
X143595261Y-78558968D01*
X143525311Y-78472698D01*
X143391069Y-78423838D01*
X143282031Y-78444961D01*
X142580486Y-78980152D02*
X142990910Y-77852521D01*
X142647343Y-78518005D02*
X142222508Y-78849859D01*
X142496124Y-78098104D02*
X142697750Y-78657972D01*
X142182893Y-77984098D02*
X141690673Y-77804944D01*
X141909277Y-78735852D01*
X141417057Y-78556698D01*
X141466937Y-77723511D02*
X141108958Y-77593218D01*
X141469503Y-77298774D02*
X141117711Y-78265315D01*
X141033875Y-78356422D01*
X140924837Y-78377545D01*
X140835342Y-78344972D01*
X140522111Y-78230965D02*
X140795728Y-77479211D01*
X140756640Y-77586604D02*
X140731436Y-77516621D01*
X140661486Y-77430351D01*
X140527244Y-77381491D01*
X140418205Y-77402614D01*
X140334370Y-77493721D01*
X140119386Y-78084385D01*
X140334370Y-77493721D02*
X140328711Y-77370041D01*
X140258760Y-77283771D01*
X140124519Y-77234911D01*
X140015480Y-77256034D01*
X139931645Y-77347141D01*
X139716661Y-77937805D01*
X139542804Y-77023184D02*
X139191012Y-77989725D01*
X139196671Y-78113405D01*
X139266622Y-78199675D01*
X139311369Y-78215962D01*
X139679612Y-76647307D02*
X139704815Y-76717290D01*
X139640524Y-76754700D01*
X139615321Y-76684717D01*
X139679612Y-76647307D01*
X139640524Y-76754700D01*
X139184826Y-76892891D02*
X138687474Y-77563211D01*
X138737353Y-76730024D02*
X138687474Y-77563211D01*
X138679248Y-77864268D01*
X138704451Y-77934252D01*
X138774402Y-78020522D01*
X138468870Y-76632304D02*
X138016264Y-77318911D01*
X138032716Y-76716797D01*
X137658286Y-77188618D01*
X137752913Y-76371717D01*
X137394935Y-76241424D02*
X137043143Y-77207965D01*
X137048802Y-77331645D01*
X137118753Y-77417915D01*
X137163500Y-77434201D01*
X137531743Y-75865547D02*
X137556947Y-75935530D01*
X137492655Y-75972940D01*
X137467452Y-75902957D01*
X137531743Y-75865547D01*
X137492655Y-75972940D01*
D10*
X174919563Y-81767747D02*
X174516837Y-81621167D01*
X174882844Y-82119243D02*
X175011360Y-80889006D01*
X174319028Y-81914031D01*
X174037120Y-81811425D02*
X174447545Y-80683794D01*
X173553850Y-81635529D01*
X173964274Y-80507898D01*
X173151124Y-81488949D02*
X173561549Y-80361318D01*
X173360186Y-80288028D01*
X173219824Y-80297751D01*
X173100191Y-80375828D01*
X173020831Y-80468564D01*
X172902382Y-80668692D01*
X172843750Y-80829783D01*
X172805847Y-81059228D01*
X172807031Y-81181279D01*
X172848488Y-81317988D01*
X172949762Y-81415659D01*
X173151124Y-81488949D01*
X172344489Y-81073738D02*
X172284673Y-81112776D01*
X172305401Y-81181131D01*
X172365218Y-81142092D01*
X172344489Y-81073738D01*
X172305401Y-81181131D01*
X172461753Y-80751557D02*
X172736554Y-80121855D01*
X172715825Y-80053500D01*
X172656009Y-80092539D01*
X172461753Y-80751557D01*
X172715825Y-80053500D01*
X172393645Y-79936236D02*
X171419405Y-80858655D01*
X171829829Y-79731024D02*
X171983221Y-81063867D01*
X171346559Y-79555128D02*
X171185469Y-79496496D01*
X171085380Y-79520876D01*
X170965747Y-79598954D01*
X170847298Y-79799083D01*
X170710490Y-80174960D01*
X170672586Y-80404405D01*
X170714043Y-80541114D01*
X170775045Y-80624127D01*
X170936135Y-80682759D01*
X171036224Y-80658378D01*
X171155857Y-80580301D01*
X171274305Y-80380172D01*
X171411114Y-80004295D01*
X171449017Y-79774850D01*
X171407560Y-79638140D01*
X171346559Y-79555128D01*
X169727958Y-80243019D02*
X170205306Y-79808657D01*
X170211229Y-80418915D02*
X170621653Y-79291284D01*
X170299473Y-79174020D01*
X170199384Y-79198400D01*
X170139567Y-79237439D01*
X170060207Y-79330174D01*
X170001575Y-79491265D01*
X170002759Y-79613316D01*
X170023488Y-79681671D01*
X170084489Y-79764683D01*
X170406669Y-79881948D01*
X168721145Y-79876569D02*
X169131569Y-78748937D01*
X168930206Y-78675647D01*
X168789845Y-78685370D01*
X168670212Y-78763447D01*
X168590851Y-78856183D01*
X168472403Y-79056312D01*
X168413771Y-79217402D01*
X168375867Y-79446847D01*
X168377052Y-79568898D01*
X168418509Y-79705608D01*
X168519782Y-79803278D01*
X168721145Y-79876569D01*
X167572785Y-79397790D02*
X167633786Y-79480802D01*
X167794877Y-79539434D01*
X167894966Y-79515054D01*
X167974326Y-79422318D01*
X168130678Y-78992744D01*
X168129494Y-78870693D01*
X168068493Y-78787680D01*
X167907402Y-78729048D01*
X167807313Y-78753429D01*
X167727953Y-78846164D01*
X167688865Y-78953558D01*
X168052502Y-79207531D01*
X167150516Y-79304906D02*
X167424132Y-78553152D01*
X167345956Y-78767939D02*
X167344771Y-78645888D01*
X167324043Y-78577533D01*
X167263042Y-78494520D01*
X167182497Y-78465204D01*
X166626973Y-79114352D02*
X167037397Y-77986721D01*
X166881045Y-78416295D02*
X166820044Y-78333282D01*
X166658954Y-78274650D01*
X166558865Y-78299031D01*
X166499048Y-78338069D01*
X166419687Y-78430805D01*
X166302423Y-78752985D01*
X166303608Y-78875037D01*
X166324336Y-78943391D01*
X166385338Y-79026404D01*
X166546428Y-79085036D01*
X166646517Y-79060655D01*
X166215956Y-78113412D02*
X165740977Y-78791876D01*
X165813230Y-77966832D02*
X165740977Y-78791876D01*
X165723802Y-79089676D01*
X165744530Y-79158030D01*
X165805532Y-79241043D01*
X164773251Y-78318032D02*
X164793980Y-78386387D01*
X164895254Y-78484058D01*
X164975799Y-78513374D01*
X165116160Y-78503651D01*
X165235793Y-78425574D01*
X165315154Y-78332838D01*
X165433603Y-78132709D01*
X165492235Y-77971619D01*
X165530138Y-77742174D01*
X165528953Y-77620123D01*
X165487496Y-77483414D01*
X165386223Y-77385743D01*
X165305678Y-77356427D01*
X165165316Y-77366149D01*
X165105500Y-77405188D01*
X164250893Y-78249530D02*
X164350982Y-78225149D01*
X164410799Y-78186110D01*
X164490159Y-78093375D01*
X164607423Y-77771195D01*
X164606239Y-77649143D01*
X164585510Y-77580788D01*
X164524509Y-77497776D01*
X164403691Y-77453802D01*
X164303602Y-77478182D01*
X164243786Y-77517221D01*
X164164425Y-77609957D01*
X164047161Y-77932137D01*
X164048346Y-78054188D01*
X164069074Y-78122543D01*
X164130075Y-78205556D01*
X164250893Y-78249530D01*
X163880148Y-77263248D02*
X163606532Y-78015002D01*
X163841060Y-77370641D02*
X163820332Y-77302286D01*
X163759331Y-77219274D01*
X163638513Y-77175300D01*
X163538424Y-77199680D01*
X163459063Y-77292416D01*
X163244079Y-77883080D01*
X162728235Y-76418314D02*
X162035903Y-77443339D01*
X162164420Y-76213102D01*
X161472088Y-77238127D02*
X161882512Y-76110496D01*
X161069362Y-77091547D02*
X161479786Y-75963916D01*
X160666637Y-76944967D02*
X161077061Y-75817336D01*
D11*
X160297205Y-115365603D02*
X159607258Y-115180732D01*
X160154333Y-114794893D02*
X160030991Y-116359127D01*
X159566144Y-115702144D02*
X160256091Y-115887014D01*
X159709016Y-116272854D02*
X159832358Y-114708620D01*
X159423272Y-115131434D02*
X159055300Y-115032836D01*
X159388810Y-114708089D02*
X159122597Y-115701613D01*
X159047021Y-115799680D01*
X158940238Y-115830226D01*
X158848245Y-115805576D01*
X158526270Y-115719303D02*
X158733325Y-114946563D01*
X158674167Y-115167346D02*
X158657749Y-115044630D01*
X158626543Y-114977109D01*
X158549339Y-114897264D01*
X158457346Y-114872614D01*
X157575134Y-115405289D02*
X157652337Y-115485134D01*
X157836323Y-115534433D01*
X157943105Y-115503886D01*
X158018681Y-115405820D01*
X158136999Y-114964253D01*
X158120581Y-114841537D01*
X158043378Y-114761692D01*
X157859392Y-114712393D01*
X157752610Y-114742939D01*
X157677034Y-114841006D01*
X157647455Y-114951398D01*
X158077840Y-115185037D01*
X157399428Y-114589146D02*
X156962390Y-115300263D01*
X156939463Y-114465899D01*
X156226447Y-115103068D02*
X156333229Y-115072521D01*
X156394015Y-115029650D01*
X156469591Y-114931583D01*
X156558329Y-114600409D01*
X156541912Y-114477693D01*
X156510705Y-114410172D01*
X156433502Y-114330327D01*
X156295512Y-114293353D01*
X156188730Y-114323899D01*
X156127944Y-114366770D01*
X156052368Y-114464837D01*
X155963630Y-114796012D01*
X155980047Y-114918728D01*
X156011254Y-114986248D01*
X156088457Y-115066093D01*
X156226447Y-115103068D01*
X155490503Y-114905872D02*
X155697558Y-114133131D01*
X155638400Y-114353915D02*
X155621982Y-114231198D01*
X155590776Y-114163678D01*
X155513572Y-114083833D01*
X155421579Y-114059183D01*
X155237594Y-114009884D02*
X154869622Y-113911287D01*
X154892549Y-114745651D02*
X155158763Y-113752127D01*
X155142346Y-113629411D01*
X155065142Y-113549566D01*
X154973149Y-113524916D01*
X154202602Y-114560780D02*
X154309385Y-114530234D01*
X154370171Y-114487363D01*
X154445746Y-114389296D01*
X154534484Y-114058121D01*
X154518067Y-113935405D01*
X154486860Y-113867885D01*
X154409657Y-113788039D01*
X154271668Y-113751065D01*
X154164885Y-113781612D01*
X154104099Y-113824483D01*
X154028523Y-113922549D01*
X153939785Y-114253724D01*
X153956202Y-114376440D01*
X153987409Y-114443961D01*
X154064613Y-114523806D01*
X154202602Y-114560780D01*
X153466658Y-114363585D02*
X153673714Y-113590844D01*
X153614555Y-113811627D02*
X153598138Y-113688911D01*
X153566931Y-113621390D01*
X153489728Y-113541545D01*
X153397735Y-113516896D01*
X152661791Y-113319700D02*
X152410367Y-114258028D01*
X152426784Y-114380744D01*
X152457991Y-114448265D01*
X152535194Y-114528110D01*
X152673184Y-114565084D01*
X152779966Y-114534538D01*
X152469526Y-114037245D02*
X152546729Y-114117090D01*
X152730715Y-114166389D01*
X152837498Y-114135843D01*
X152898284Y-114092972D01*
X152973859Y-113994905D01*
X153062597Y-113663730D01*
X153046180Y-113541014D01*
X153014973Y-113473494D01*
X152937770Y-113393649D01*
X152753784Y-113344350D01*
X152647002Y-113374896D01*
X151641589Y-113815400D02*
X151718793Y-113895245D01*
X151902779Y-113944544D01*
X152009561Y-113913998D01*
X152085137Y-113815931D01*
X152203454Y-113374365D01*
X152187037Y-113251649D01*
X152109834Y-113171804D01*
X151925848Y-113122505D01*
X151819065Y-113153051D01*
X151743490Y-113251118D01*
X151713910Y-113361509D01*
X152144296Y-113595148D01*
X151511880Y-113011582D02*
X151143908Y-112912985D01*
X151477418Y-112588238D02*
X151211204Y-113581762D01*
X151135628Y-113679828D01*
X151028846Y-113710375D01*
X150936853Y-113685725D01*
G04 #@! TO.C,J3*
X182210000Y-93070000D02*
X182210000Y-98270000D01*
X177070000Y-93070000D02*
X182210000Y-93070000D01*
X174470000Y-98270000D02*
X182210000Y-98270000D01*
X177070000Y-93070000D02*
X177070000Y-95670000D01*
X177070000Y-95670000D02*
X174470000Y-95670000D01*
X174470000Y-95670000D02*
X174470000Y-98270000D01*
X175800000Y-93070000D02*
X174470000Y-93070000D01*
X174470000Y-93070000D02*
X174470000Y-94400000D01*
D12*
G04 #@! TO.C,SW1*
X177650000Y-102725000D02*
X177650000Y-103025000D01*
X179150000Y-102725000D02*
X179150000Y-103025000D01*
X177000000Y-100425000D02*
X176800000Y-100425000D01*
X179800000Y-104325000D02*
X179600000Y-104525000D01*
X178500000Y-104325000D02*
X178700000Y-104525000D01*
X179800000Y-103025000D02*
X179800000Y-104325000D01*
X179600000Y-104525000D02*
X178700000Y-104525000D01*
X178500000Y-104325000D02*
X178500000Y-103025000D01*
X181250000Y-103025000D02*
X175550000Y-103025000D01*
X180000000Y-100425000D02*
X178300000Y-100425000D01*
X181750000Y-101325000D02*
X181750000Y-102125000D01*
X175050000Y-102125000D02*
X175050000Y-101325000D01*
G04 #@! TO.C,J3*
X172922380Y-95336666D02*
X173636666Y-95336666D01*
X173779523Y-95289047D01*
X173874761Y-95193809D01*
X173922380Y-95050952D01*
X173922380Y-94955714D01*
X172922380Y-95717619D02*
X172922380Y-96336666D01*
X173303333Y-96003333D01*
X173303333Y-96146190D01*
X173350952Y-96241428D01*
X173398571Y-96289047D01*
X173493809Y-96336666D01*
X173731904Y-96336666D01*
X173827142Y-96289047D01*
X173874761Y-96241428D01*
X173922380Y-96146190D01*
X173922380Y-95860476D01*
X173874761Y-95765238D01*
X173827142Y-95717619D01*
G04 #@! TD*
%LPC*%
D13*
G04 #@! TO.C,BT1*
X159800000Y-97400000D03*
D14*
X170300400Y-97400000D03*
X149299600Y-97400000D03*
G04 #@! TD*
D15*
G04 #@! TO.C,C1*
X122185778Y-85728240D03*
D10*
G36*
X123165574Y-85162555D02*
X122751463Y-86708036D01*
X121205982Y-86293925D01*
X121620093Y-84748444D01*
X123165574Y-85162555D01*
X123165574Y-85162555D01*
G37*
D15*
X124214222Y-86271760D03*
D10*
G36*
X125194018Y-85706075D02*
X124779907Y-87251556D01*
X123234426Y-86837445D01*
X123648537Y-85291964D01*
X125194018Y-85706075D01*
X125194018Y-85706075D01*
G37*
G04 #@! TD*
D16*
G04 #@! TO.C,J1*
X130400000Y-60400000D03*
G04 #@! TD*
G04 #@! TO.C,J2*
X113500000Y-107700000D03*
G04 #@! TD*
D17*
G04 #@! TO.C,J3*
X175800000Y-94400000D03*
D18*
X175800000Y-96940000D03*
X178340000Y-94400000D03*
X178340000Y-96940000D03*
X180880000Y-94400000D03*
X180880000Y-96940000D03*
G04 #@! TD*
D19*
G04 #@! TO.C,R1*
X156325000Y-84822724D03*
D10*
G36*
X155863878Y-83921410D02*
X157336122Y-84771410D01*
X156786122Y-85724038D01*
X155313878Y-84874038D01*
X155863878Y-83921410D01*
X155863878Y-83921410D01*
G37*
D19*
X157275000Y-83177276D03*
D10*
G36*
X156813878Y-82275962D02*
X158286122Y-83125962D01*
X157736122Y-84078590D01*
X156263878Y-83228590D01*
X156813878Y-82275962D01*
X156813878Y-82275962D01*
G37*
G04 #@! TD*
D20*
G04 #@! TO.C,RN1*
X130150000Y-90550000D03*
D21*
X130150000Y-92150000D03*
X130150000Y-91350000D03*
D20*
X130150000Y-92950000D03*
D21*
X128350000Y-91350000D03*
D20*
X128350000Y-90550000D03*
D21*
X128350000Y-92150000D03*
D20*
X128350000Y-92950000D03*
G04 #@! TD*
G04 #@! TO.C,RN2*
X128350000Y-88450000D03*
D21*
X128350000Y-87650000D03*
D20*
X128350000Y-86050000D03*
D21*
X128350000Y-86850000D03*
D20*
X130150000Y-88450000D03*
D21*
X130150000Y-86850000D03*
X130150000Y-87650000D03*
D20*
X130150000Y-86050000D03*
G04 #@! TD*
D22*
G04 #@! TO.C,SW1*
X179900000Y-101725000D03*
X176900000Y-101725000D03*
D23*
X180650000Y-99975000D03*
X177650000Y-99975000D03*
X176150000Y-99975000D03*
D24*
X182050000Y-102825000D03*
X174750000Y-102825000D03*
X174750000Y-100625000D03*
X182050000Y-100625000D03*
G04 #@! TD*
D25*
G04 #@! TO.C,REF\002A\002A*
X140000000Y-93200000D03*
G04 #@! TD*
D19*
G04 #@! TO.C,R2*
X180025519Y-121428805D03*
D10*
G36*
X179187120Y-121996332D02*
X179851363Y-120431474D01*
X180863918Y-120861278D01*
X180199675Y-122426136D01*
X179187120Y-121996332D01*
X179187120Y-121996332D01*
G37*
D19*
X181774481Y-122171195D03*
D10*
G36*
X180936082Y-122738722D02*
X181600325Y-121173864D01*
X182612880Y-121603668D01*
X181948637Y-123168526D01*
X180936082Y-122738722D01*
X180936082Y-122738722D01*
G37*
G04 #@! TD*
M02*
