M48
;DRILL file {KiCad 5.0.0-fee4fd1~66~ubuntu18.04.1} date Fri Sep  7 22:29:45 2018
;FORMAT={-:-/ absolute / inch / decimal}
FMAT,2
INCH,TZ
T1C0.0157
T2C0.0394
T3C0.0787
T4C0.0354
%
G90
G05
M72
T1
X4.7795Y-3.6142
X4.8425Y-3.2953
X4.8824Y-3.6452
X4.8898Y-3.4803
X4.927Y-3.5687
X4.9685Y-3.2992
X4.9764Y-3.5197
X5.Y-3.4488
X5.0276Y-3.1614
X5.2047Y-3.5709
X5.2835Y-3.8858
X5.2913Y-3.3425
X5.7638Y-3.3661
X5.8236Y-3.4073
X5.8357Y-3.4644
X5.9094Y-4.1299
X5.9319Y-3.5135
X5.9711Y-4.0829
X5.9886Y-3.5157
X5.9911Y-4.1198
X5.9974Y-4.0536
X6.0079Y-3.9843
X6.0487Y-3.4907
X6.0546Y-3.9208
X6.1417Y-3.3937
X6.1708Y-3.4912
X6.1983Y-3.5655
X6.2049Y-4.0809
X6.2913Y-3.8346
X6.8228Y-3.7165
X7.2087Y-4.8307
X7.748Y-3.2205
T2
X5.1339Y-2.378
X6.9213Y-3.7165
X6.9213Y-3.8165
X7.0213Y-3.7165
X7.0213Y-3.8165
X7.1213Y-3.7165
X7.1213Y-3.8165
X4.4685Y-4.2402
T3
X5.8779Y-3.8346
X6.7047Y-3.8346
T4
X6.9646Y-4.0049
X7.0827Y-4.0049
T0
M30
